<?xml version="1.0" standalone="no"?>
<!DOCTYPE svg PUBLIC "-//W3C//DTD SVG 1.1//EN" "http://www.w3.org/Graphics/SVG/1.1/DTD/svg11.dtd" >
<svg xmlns="http://www.w3.org/2000/svg" xmlns:xlink="http://www.w3.org/1999/xlink" version="1.1">
<metadata>
Created by FontForge 20161013 at Tue Apr  5 23:58:21 2016
 By ,,,
Copr.1992 Autologic Inc. All rights reserved.
</metadata>
<defs>
<font id="FormulatorPaddockNarrow" horiz-adv-x="587" >
  <font-face 
    font-family="Formulator Paddock Narrow"
    font-weight="500"
    font-stretch="condensed"
    units-per-em="1000"
    panose-1="2 0 6 6 2 0 0 2 0 3"
    ascent="800"
    descent="-200"
    x-height="500"
    cap-height="720"
    bbox="-134 -220 880 860"
    underline-thickness="50"
    underline-position="-150"
    unicode-range="U+0020-00FF"
  />
<missing-glyph horiz-adv-x="147" 
 />
    <glyph glyph-name=".notdef" horiz-adv-x="147" 
 />
    <glyph glyph-name=".null" horiz-adv-x="0" 
 />
    <glyph glyph-name="nonmarkingreturn" horiz-adv-x="333" 
 />
    <glyph glyph-name="space" unicode=" " horiz-adv-x="147" 
 />
    <glyph glyph-name="exclam" unicode="!" horiz-adv-x="260" 
d="M151 250h-40l-13 312v168h67v-168zM169 53q0 -27 -11 -45q-12 -19 -28 -19q-19 0 -31 20q-12 19 -12 48q0 28 11 46q11 20 28 20q19 0 31 -21t12 -49z" />
    <glyph glyph-name="quotedbl" unicode="&#x22;" horiz-adv-x="0" 
 />
    <glyph glyph-name="numbersign" unicode="#" horiz-adv-x="293" 
d="M181 36q0 -23 -10 -39q-9 -17 -24 -17q-16 0 -26 16q-10 18 -10 40q0 21 10 39q10 16 26 16q15 0 25 -16q9 -17 9 -39z" />
    <glyph glyph-name="dollar" unicode="$" horiz-adv-x="293" 
d="M275 167q0 -90 -44 -140q-31 -34 -69 -38v-119h-27v119q-68 8 -98 85q-16 38 -16 83q0 7 0.5 12.5t0.5 10.5h59v-4q0 -80 54 -86v219q-76 66 -97 118q-17 43 -17 99q0 79 30 129t84 56v49h27v-49q48 -8 81 -54q32 -47 32 -119v-18h-61q-3 89 -52 90v-220q73 -66 91 -107
q22 -47 22 -116zM135 610q-47 -14 -47 -86q0 -40 11 -64q7 -17 36 -45v195zM209 175q0 34 -8 55t-27 40l-12 12v-192q47 15 47 85z" />
    <glyph glyph-name="percent" unicode="%" horiz-adv-x="533" 
d="M279 530q0 -82 -34 -134q-35 -54 -89 -54q-56 0 -92 53q-37 52 -37 135q0 79 35 134q36 54 89 54q56 0 92 -53t36 -135zM166 -100h-35l287 840h38zM558 112q0 -81 -35 -134q-35 -54 -88 -54q-55 0 -93 53q-37 54 -37 135q0 80 36 134t89 54q54 0 92 -53q36 -53 36 -135z
M225 528q0 47 -22 78q-21 33 -52 33q-29 0 -52 -29q-21 -29 -21 -75q0 -48 21 -82q23 -35 54 -35q30 0 51 32q21 31 21 78zM503 110q0 46 -21 78q-21 33 -52 33t-52 -29t-21 -75q0 -48 21 -82q21 -35 53 -35q31 0 52 32q20 32 20 78z" />
    <glyph glyph-name="ampersand" unicode="&#x26;" horiz-adv-x="520" 
d="M455 10q-22 -8 -34 -8q-51 0 -90 75q-70 -94 -142 -94q-61 0 -100 59q-39 58 -39 151q0 52 16 103q17 53 41 86q18 24 53 57q-31 92 -31 150q0 66 28 107q28 42 72 42q42 0 71 -39q29 -38 29 -101q0 -99 -73 -162q-12 -11 -23 -18q44 -115 97 -208q8 20 17.5 44.5
t20.5 53.5l21 56l48 -41q-14 -42 -29.5 -87t-34.5 -95q21 -50 56 -50q11 0 29 6l7 -83zM283 602q0 68 -50 68q-51 0 -51 -69q0 -51 29 -124q35 31 48 49q24 34 24 76zM291 139q-30 55 -52.5 101t-37.5 83q-3 8 -8 22t-13 34q-36 -34 -49 -62q-22 -43 -22 -98q0 -61 26 -101
q27 -39 68 -39q25 0 41 10q15 9 35 35z" />
    <glyph glyph-name="quotesingle" unicode="'" horiz-adv-x="187" 
d="M99 450h-40l36 132v18h-34v120h66v-166z" />
    <glyph glyph-name="parenleft" unicode="(" horiz-adv-x="293" 
d="M197 -10l-20 43q-80 174 -80 347q0 202 94 360h48q-41 -81 -57 -131q-31 -99 -31 -230q0 -182 66 -329q9 -19 16 -34t13 -26h-49z" />
    <glyph glyph-name="parenright" unicode=")" horiz-adv-x="293" 
d="M199 371q0 -136 -52 -273q-20 -53 -48 -108h-49q30 63 49 110.5t27 80.5q19 82 19 190q0 135 -28 225q-8 26 -23.5 62t-38.5 82l48 1q96 -176 96 -370z" />
    <glyph glyph-name="asterisk" unicode="*" horiz-adv-x="293" 
d="M175 549l-1 -13l70 -115l-49 -51l-44 141h-5l-45 -143l-47 57l69 102v16l-94 -13l20 104l86 -57l-20 144h67l-21 -144l86 55l21 -102z" />
    <glyph glyph-name="plus" unicode="+" horiz-adv-x="389" 
d="M171 505h48v-216h144v-73h-144v-216h-48v216h-145v73h145v216z" />
    <glyph glyph-name="comma" unicode="," horiz-adv-x="147" 
d="M80 -150h-41l35 131v19h-33v120h67v-173z" />
    <glyph glyph-name="hyphen" unicode="-" horiz-adv-x="293" 
d="M33 210v80h227v-80h-227z" />
    <glyph glyph-name="period" unicode="." horiz-adv-x="147" 
d="M40 0v120h67v-120h-67z" />
    <glyph glyph-name="slash" unicode="/" horiz-adv-x="220" 
d="M69 -100h-49l137 830h48z" />
    <glyph glyph-name="zero" unicode="0" horiz-adv-x="293" 
d="M267 213q0 -92 -29 -155q-33 -71 -92 -71q-61 0 -92 70q-27 61 -27 156v291q0 95 27 155q31 70 92 70q59 0 92 -70q29 -63 29 -155v-291zM200 514q0 46 -12 78q-15 40 -43 40q-52 0 -52 -118v-307q0 -118 52 -118q28 0 43 40q12 31 12 78v307z" />
    <glyph glyph-name="one" unicode="1" horiz-adv-x="293" 
d="M160 0v585q-13 -22 -23 -37t-18 -23q-20 -20 -52 -30v105q33 9 57 44q11 16 42 76h61v-720h-67z" />
    <glyph glyph-name="two" unicode="2" horiz-adv-x="293" 
d="M271 546q0 -73 -38 -160q-8 -18 -26.5 -52.5t-47.5 -85.5q-14 -25 -23 -41.5t-13 -26.5q-13 -33 -16 -80h162v-100h-240q-1 8 -1 19.5v27.5q0 113 67 225l50 84q62 104 62 185q0 89 -54 89q-51 0 -51 -86v-14h-67v33v1q0 73 35 118q34 48 83 48q52 0 85 -52
q33 -53 33 -132z" />
    <glyph glyph-name="three" unicode="3" horiz-adv-x="293" 
d="M268 214q0 -90 -21 -139q-38 -86 -100 -86t-96 82q-18 42 -24 109h67q9 -91 51 -91q57 0 57 117q0 59 -13 95q-18 49 -52 49h-24v81h31q26 0 41 31q16 31 16 70q0 41 -12 67q-13 31 -40 31q-48 0 -49 -70h-64v5q0 71 31 117q31 48 78 48q54 0 86 -53q31 -53 31 -137
q0 -55 -12 -86q-10 -27 -41 -64q46 -52 54 -101q2 -17 3.5 -36t1.5 -39z" />
    <glyph glyph-name="four" unicode="4" horiz-adv-x="293" 
d="M233 200v-200h-66v200h-154v83l147 437h73v-430h54v-90h-54zM167 550l-90 -260h90v260z" />
    <glyph glyph-name="five" unicode="5" horiz-adv-x="293" 
d="M267 225q0 -97 -26 -160q-33 -75 -94 -75q-73 0 -106 98q-5 17 -8.5 40t-5.5 52h66q2 -92 52 -92q56 0 56 103v96q0 103 -51 103q-30 0 -59 -50h-51v380h220v-100h-167v-193q34 63 69 63q45 0 75 -54q30 -56 30 -124v-87z" />
    <glyph glyph-name="six" unicode="6" horiz-adv-x="293" 
d="M268 218q0 -94 -29 -157q-33 -72 -93 -72q-62 0 -93 72q-26 63 -26 158v243q0 268 122 268q47 0 80 -44q32 -46 32 -116h-61q-3 60 -49 60q-58 0 -58 -113v-115q14 23 25 30q13 8 32 8q57 0 89 -71q29 -63 29 -151zM202 222q0 128 -57 128q-52 0 -52 -128q0 -132 52 -132
h4q53 0 53 132z" />
    <glyph glyph-name="seven" unicode="7" horiz-adv-x="293" 
d="M135 0h-70l138 620h-176v100h246v-95z" />
    <glyph glyph-name="eight" unicode="8" horiz-adv-x="293" 
d="M275 213q0 -97 -30 -158q-35 -68 -97 -68q-60 0 -95 65q-33 60 -33 153q0 112 40 161q4 4 15 18v12q-6 13 -12 17q-11 13 -18 25.5t-11 24.5q-7 22 -7 66q0 94 29 145q32 56 92 56q57 0 89 -51q31 -50 31 -139q0 -53 -10 -80q-9 -28 -37 -64v-12q30 -35 42 -73
q12 -39 12 -98zM208 536q0 40 -18 67q-18 28 -45 28q-25 0 -41 -27q-17 -29 -17 -67q0 -40 17 -71q18 -30 44 -30t43 30q17 31 17 70zM207 209q0 61 -9 90q-14 42 -50 42q-59 0 -59 -121v-12q0 -120 56 -120q62 0 62 121z" />
    <glyph glyph-name="nine" unicode="9" horiz-adv-x="293" 
d="M267 248q0 -89 -8 -129q-10 -54 -42 -92q-33 -38 -70 -38q-40 0 -76 41q-37 43 -37 103v1q0 3 1 5v8h59q3 -60 49 -60q33 0 47 33q10 24 10 80v114q-33 -39 -58 -39q-55 0 -88 74q-29 66 -29 151q0 99 28 159q32 71 95 71q61 0 92 -76q27 -65 27 -160v-246zM200 499
q0 130 -51 130q-56 0 -56 -128q0 -131 52 -131q35 0 47 41q8 27 8 88z" />
    <glyph glyph-name="colon" unicode=":" horiz-adv-x="220" 
d="M73 240v120h67v-120h-67zM73 0v120h67v-120h-67z" />
    <glyph glyph-name="semicolon" unicode=";" horiz-adv-x="220" 
d="M75 240v120h66v-120h-66zM115 -150h-42l34 130v20h-33v120h67v-174z" />
    <glyph glyph-name="less" unicode="&#x3c;" 
d="M0 0v50h587v-50h-587z" />
    <glyph glyph-name="equal" unicode="=" horiz-adv-x="293" 
d="M0 220v60h293v-60h-293z" />
    <glyph glyph-name="greater" unicode="&#x3e;" 
d="M0 220v60h587v-60h-587z" />
    <glyph glyph-name="question" unicode="?" horiz-adv-x="333" 
d="M267 588q0 -59 -41 -133q-13 -22 -20.5 -36t-9.5 -19q-16 -35 -20 -64q-1 -7 -1.5 -22t-0.5 -38v-26h-59q-1 7 -1 16.5v22.5q0 46 11 85q4 14 11 33t18 43l30 67q17 39 17 75q0 68 -52 68q-26 0 -39 -19q-9 -12 -22 -53l-55 36q45 116 125 116q48 0 78 -41
q31 -40 31 -111zM190 49q0 -27 -12 -46q-10 -19 -29 -19t-32 19q-14 20 -14 47q0 29 14 49t32 20t30 -21q11 -22 11 -49z" />
    <glyph glyph-name="at" unicode="@" 
d="M551 373q0 -102 -38 -180q-42 -85 -108 -85q-47 0 -74 62h-6q-37 -61 -77 -61q-38 0 -65 41q-27 42 -27 99q0 59 24 118q23 56 57 89q26 25 60 25q51 0 69 -77l15 65h68l-44 -226q-2 -12 -3 -21.5t-1 -16.5q0 -33 22 -33q8 0 21 11q65 58 65 192q0 123 -54 195
q-53 69 -135 69q-61 0 -117 -44q-58 -46 -86 -123t-28 -182q0 -175 86 -260q51 -51 129 -51q110 0 194 92l22 -37q-51 -57 -91 -80q-58 -34 -127 -34q-76 0 -137 42q-69 46 -102 138q-28 78 -28 193q0 279 166 381q58 36 119 36q62 0 117 -41q60 -45 88 -123q26 -75 26 -173
zM342 369q0 21 -9 39q-7 19 -22 19q-30 0 -51 -78q-9 -35 -14 -62t-5 -46q0 -73 31 -73h4q30 7 49 83q17 65 17 118z" />
    <glyph glyph-name="A" unicode="A" horiz-adv-x="447" 
d="M343 0l-28 140h-186l-30 -140h-66l154 720h71l155 -720h-70zM228 600h-8l-72 -370h150z" />
    <glyph glyph-name="B" unicode="B" horiz-adv-x="447" 
d="M387 194q0 -88 -49 -143q-45 -51 -105 -51h-166v720h160q77 0 112 -63q22 -44 22 -89q0 -46 -19 -88q-18 -46 -45 -65q-5 -3 -38 -22q48 -19 70 -42q58 -58 58 -157zM295 545q0 95 -72 95h-90v-210h82q35 0 57 31q23 32 23 84zM321 210q0 140 -121 140h-67v-270h85
q41 0 71 33q32 37 32 97z" />
    <glyph glyph-name="C" unicode="C" horiz-adv-x="447" 
d="M379 220q-1 -103 -40 -171q-41 -71 -109 -71q-87 0 -131 134q-33 103 -33 249q0 140 35 242q43 127 130 127q54 0 93 -50q40 -49 49 -129l-62 -23q-2 3 -3 7.5t-3 9.5q-29 95 -75 95q-53 0 -75 -90q-16 -60 -16 -156q0 -66 2.5 -115t8.5 -83q21 -127 82 -127q38 0 61 48
q20 40 20 103h66z" />
    <glyph glyph-name="D" unicode="D" horiz-adv-x="447" 
d="M393 358q0 -152 -50 -250q-54 -108 -154 -108h-122v720h122q84 0 135 -75q69 -101 69 -287zM319 351q0 142 -24 202q-32 77 -118 77h-44v-540h40q83 0 118 71q28 59 28 190z" />
    <glyph glyph-name="E" unicode="E" horiz-adv-x="447" 
d="M67 0v720h306v-90h-240v-210h180v-90h-180v-240h254v-90h-320z" />
    <glyph glyph-name="F" unicode="F" horiz-adv-x="407" 
d="M133 630v-210h174v-90h-174v-330h-66v720h300v-90h-234z" />
    <glyph glyph-name="G" unicode="G" horiz-adv-x="460" 
d="M379 0l-22 75q-36 -72 -68 -87q-24 -11 -47 -11q-104 0 -149 142q-17 55 -25.5 113.5t-8.5 121.5q0 156 40 254q48 121 144 121q54 0 95 -45q40 -46 49 -124l-68 -9q-4 46 -26 72q-21 27 -52 27q-108 0 -108 -277q0 -310 109 -310q49 0 79 66q18 37 18 99v12h-87v90h153
v-330h-26z" />
    <glyph glyph-name="H" unicode="H" horiz-adv-x="487" 
d="M347 0v320l-206 -1l-1 -319h-67v720h67v-300h207v300h66v-720h-66z" />
    <glyph glyph-name="I" unicode="I" horiz-adv-x="260" 
d="M47 0v80h46v560h-46v80h166v-80h-46v-560h46v-80h-166z" />
    <glyph glyph-name="J" unicode="J" horiz-adv-x="333" 
d="M280 189q0 -60 -21 -112q-21 -56 -56 -80q-25 -17 -59 -17q-73 0 -107 84q-14 33 -27 103l67 43q5 -33 10 -56.5t10 -37.5q18 -46 53 -46q34 0 50 49q13 36 13 93v508h67v-531z" />
    <glyph glyph-name="K" unicode="K" horiz-adv-x="480" 
d="M353 0l-200 392l192 328h76l-188 -331l208 -389h-88zM69 0v720h66v-720h-66z" />
    <glyph glyph-name="L" unicode="L" horiz-adv-x="407" 
d="M67 0v720h66v-630h220v-90h-286z" />
    <glyph glyph-name="M" unicode="M" horiz-adv-x="593" 
d="M447 0v660h-14l-94 -660h-70l-105 660h-11v-660h-66v720h122l94 -627l86 627h124v-720h-66z" />
    <glyph glyph-name="N" unicode="N" horiz-adv-x="480" 
d="M321 0l-150 474l-25 126h-14l15 -155v-445h-67v720h88l149 -470l30 -130h7l-14 108v492h67v-720h-86z" />
    <glyph glyph-name="O" unicode="O" horiz-adv-x="447" 
d="M385 364q0 -70 -8.5 -131.5t-25.5 -115.5q-45 -138 -128 -138q-57 0 -101 65q-40 59 -53 149q-12 85 -12 176q0 255 92 339q37 32 71 32q39 0 75 -34q35 -34 55 -89q35 -99 35 -253zM318 367q0 135 -31 219q-22 64 -66 64q-96 0 -96 -291q0 -112 16 -180q24 -109 82 -109
q67 0 88 180q4 32 5.5 61.5t1.5 55.5z" />
    <glyph glyph-name="P" unicode="P" horiz-adv-x="447" 
d="M386 515q0 -98 -42 -156q-44 -59 -108 -59h-103v-300h-66v720h169q63 0 105 -54q45 -57 45 -151zM319 513q0 54 -23 86q-24 31 -61 31h-102v-240h93q42 0 66 30q27 33 27 93z" />
    <glyph glyph-name="Q" unicode="Q" horiz-adv-x="447" 
d="M394 -100q-33 0 -63 35q-20 25 -26 35q-5 8 -9 20t-8 26q-44 -38 -70 -38q-37 0 -77 43q-34 39 -54 95q-35 107 -35 252q0 144 33 243q43 127 130 127t128 -129q30 -98 30 -244q0 -174 -28 -252q-3 -7 -8.5 -20t-13.5 -33q19 -33 30 -44q17 -17 40 -17h5v-99h-4zM307 341
q0 68 -6 140q-15 169 -87 169q-51 0 -77 -107q-18 -77 -18 -171q0 -101 19 -184q27 -119 80 -119q14 0 34 17l-47 89l36 47l44 -86q11 46 16.5 97t5.5 108z" />
    <glyph glyph-name="R" unicode="R" horiz-adv-x="447" 
d="M323 0l-109 299h-80v-299h-67v720h179q58 0 97 -54q38 -56 38 -142q0 -106 -58 -163q-19 -19 -47 -40l127 -321h-80zM314 521q0 55 -25 83q-23 26 -60 26h-95v-240h73q43 0 73 32q34 35 34 99z" />
    <glyph glyph-name="S" unicode="S" horiz-adv-x="407" 
d="M371 194q0 -96 -51 -157q-48 -57 -113 -57q-62 0 -138 64l-16 14t-16 15l39 87q82 -91 133 -91q37 0 64 33q28 36 28 87q0 70 -52 103l-99 65q-97 63 -97 186q0 91 50 147q47 50 109 50q82 0 151 -81l-42 -71q-30 35 -52 48q-26 14 -62 14q-89 0 -89 -102q0 -59 46 -92
q13 -9 32 -21.5t45 -29.5q56 -38 87 -79q43 -58 43 -132z" />
    <glyph glyph-name="T" unicode="T" horiz-adv-x="407" 
d="M237 625v-625h-67v625h-143v95h353v-95h-143z" />
    <glyph glyph-name="U" unicode="U" horiz-adv-x="480" 
d="M407 227q0 -54 -17 -110q-18 -60 -47 -87q-40 -40 -103 -40q-169 0 -167 276v454h67v-444q0 -70 6 -101q18 -96 100 -96q36 0 57 18q21 19 34 67q5 19 7.5 39.5t2.5 42.5v474h60v-493z" />
    <glyph glyph-name="V" unicode="V" horiz-adv-x="447" 
d="M267 0h-76l-151 720h73l120 -625l117 625h67z" />
    <glyph glyph-name="W" unicode="W" horiz-adv-x="627" 
d="M481 0h-73l-92 601l-79 -601h-79l-118 720h62l96 -627l87 627h64l98 -625l83 625h59z" />
    <glyph glyph-name="X" unicode="X" horiz-adv-x="447" 
d="M352 0l-131 289l-119 -289h-75l158 368l-160 352h80l116 -272l119 270h71l-151 -350l167 -368h-75z" />
    <glyph glyph-name="Y" unicode="Y" horiz-adv-x="447" 
d="M259 291v-291h-72v294l-160 426h74l124 -353l126 353h68z" />
    <glyph glyph-name="Z" unicode="Z" horiz-adv-x="407" 
d="M40 0v41l233 589h-233v90h320v-59l-224 -571h231v-90h-327z" />
    <glyph glyph-name="bracketleft" unicode="[" horiz-adv-x="293" 
d="M87 -190v910h153v-60h-87v-790h87v-60h-153z" />
    <glyph glyph-name="backslash" unicode="\" horiz-adv-x="147" 
d="M0 -220v1000h33v-1000h-33z" />
    <glyph glyph-name="bracketright" unicode="]" horiz-adv-x="293" 
d="M53 -190v60h87v790h-87v60h154v-910h-154z" />
    <glyph glyph-name="asciicircum" unicode="^" horiz-adv-x="293" 
d="M159 500q1 -63 21 -144q-6 -68 -12 -161.5t-11 -214.5h-20q-10 224 -24 373q19 82 21 147l-107 -31v101l110 -33l-24 183h68l-25 -183l111 33v-101z" />
    <glyph glyph-name="underscore" unicode="_" horiz-adv-x="293" 
d="M159 170l22 -180h-68l21 180l-107 -31v101l107 -31q-3 59 -23 150q11 44 16.5 81.5t6.5 69.5l-107 -31v101l110 -33l-24 183h68l-25 -183l111 33v-101l-108 31q2 -67 22 -153q-9 -42 -14.5 -79t-7.5 -69l108 31v-101z" />
    <glyph glyph-name="grave" unicode="`" 
d="M473 44q0 -21 -10 -39q-11 -17 -26 -17t-24 16q-10 16 -10 40q0 23 10 39q9 17 24 17q16 0 26 -16q10 -18 10 -40zM181 44q0 -23 -10 -39q-9 -17 -24 -17q-16 0 -26 16q-10 18 -10 40q0 21 10 39q11 17 26 17t24 -16q10 -16 10 -40z" />
    <glyph glyph-name="a" unicode="a" horiz-adv-x="333" 
d="M299 1q-7 -1 -11.5 -1.5t-7.5 -0.5q-45 0 -61 81q-37 -54 -50 -68q-30 -33 -62 -33q-41 0 -65 37q-23 38 -23 100q0 60 25 108q25 46 66 64q20 10 45.5 17.5t57.5 14.5v52q0 33 -14 56q-13 22 -36 22q-31 0 -101 -64l-21 58q70 76 128 76q59 0 83 -68q14 -40 14 -108
v-229q0 -50 33 -56v-58zM213 270q-84 -13 -122 -68q-19 -28 -19 -76q0 -37 15 -56q13 -21 38 -21q29 0 58 30q30 33 30 76v115z" />
    <glyph glyph-name="b" unicode="b" horiz-adv-x="367" 
d="M321 259q0 -51 -4 -91t-13 -70q-32 -108 -89 -108q-30 0 -54 33q-5 5 -14.5 23t-25.5 48v-105l-61 31v679l60 31l1 -306q17 29 26.5 44.5t11.5 19.5q26 32 52 32q32 0 62 -41q13 -19 22.5 -40.5t14.5 -46.5q6 -27 8.5 -60t2.5 -73zM268 251q0 76 -13 125q-18 74 -58 74
q-39 0 -60 -62q-16 -48 -16 -113q0 -77 16 -135q21 -80 65 -80q66 0 66 191z" />
    <glyph glyph-name="c" unicode="c" horiz-adv-x="333" 
d="M293 125q-40 -145 -116 -145q-64 0 -100 93q-31 75 -31 179q0 102 31 177q36 91 98 91q36 0 68 -32q31 -31 45 -83l-50 -28q-19 73 -58 73q-74 0 -74 -192q0 -199 70 -199q48 0 65 92z" />
    <glyph glyph-name="d" unicode="d" horiz-adv-x="367" 
d="M259 -11v100l-2 1q-38 -101 -84 -101q-59 0 -90 97q-24 75 -24 174q0 93 24 167q30 93 86 93q37 0 63 -42q13 -20 28 -55v307l59 -34v-679zM259 263q0 70 -15 120q-19 67 -61 67q-35 0 -54 -70q-16 -54 -16 -115q0 -31 4 -61.5t12 -62.5q21 -81 54 -81q37 0 60 77
q16 58 16 126z" />
    <glyph glyph-name="e" unicode="e" horiz-adv-x="333" 
d="M293 281q0 -7 -0.5 -15t-0.5 -16h-186v-10q0 -3 -0.5 -5t-0.5 -3q0 -60 20 -112q22 -61 60 -61q32 0 62 44l32 -48q-44 -66 -95 -66q-68 0 -105 91q-33 76 -33 184q0 102 31 173q34 84 99 84q63 0 93 -77q24 -62 24 -163zM239 310q-6 140 -67 140q-55 0 -67 -140h134z
" />
    <glyph glyph-name="f" unicode="f" horiz-adv-x="260" 
d="M240 646q-29 24 -51 24q-29 0 -39 -18q-10 -19 -10 -63v-89h93v-60h-93v-440h-60v440h-60v60h60v114q0 36 20 73q30 53 82 53q32 0 58 -30v-64z" />
    <glyph glyph-name="g" unicode="g" horiz-adv-x="367" 
d="M312 20q0 -87 -41 -140q-38 -50 -97 -50q-36 0 -81 22v89q42 -42 76 -42q90 0 90 168v67q-12 -20 -22 -35t-18 -23q-24 -26 -51 -26q-54 0 -87 83q-29 72 -29 157q0 88 28 153q32 77 87 77q56 0 88 -90h11v80h47zM259 295q0 59 -19 107q-23 58 -58 58q-34 0 -53 -55
q-17 -48 -17 -101q0 -64 15 -116q21 -68 57 -68q39 0 59 62q16 47 16 113z" />
    <glyph glyph-name="h" unicode="h" horiz-adv-x="367" 
d="M247 0v394q0 56 -39 56t-65 -55q-23 -51 -23 -111v-284h-60v708l53 33v-323h10q41 73 70 90q19 11 37 11q77 0 77 -125v-394h-60z" />
    <glyph glyph-name="i" unicode="i" horiz-adv-x="187" 
d="M67 600v100h60v-100h-60zM67 0v500h60v-500h-60z" />
    <glyph glyph-name="j" unicode="j" horiz-adv-x="220" 
d="M93 600v100h60v-100h-60zM153 7v-44t-2 -28q-8 -78 -48 -99q-13 -7 -38 -7q-27 0 -52 12v95q25 -27 42 -27q38 0 38 68v523h60v-493z" />
    <glyph glyph-name="k" unicode="k" horiz-adv-x="367" 
d="M67 0v709l60 31v-740h-60zM261 0l-128 261l114 239h60l-110 -236l132 -264h-68z" />
    <glyph glyph-name="l" unicode="l" horiz-adv-x="187" 
d="M67 0v709l60 31v-740h-60z" />
    <glyph glyph-name="m" unicode="m" horiz-adv-x="553" 
d="M427 0v375q0 27 -9 50q-11 26 -28 26q-21 0 -43 -31q-20 -26 -31 -59q-10 -31 -10 -77v-284h-59v375q0 75 -31 75h-3q-30 -6 -54 -47q-33 -60 -33 -88l1 -31v-284h-60v490l53 31v-121h7q48 115 108 115q61 0 65 -103h6q54 107 107 107q74 0 74 -187v-332h-60z" />
    <glyph glyph-name="n" unicode="n" horiz-adv-x="367" 
d="M247 0v378q0 39 -4 50q-6 21 -26 21q-19 0 -42 -28q-18 -21 -32 -52q-16 -38 -16 -85v-284h-60v490l53 29v-118h7q11 25 20 42t17 28q34 48 71 48q26 0 46 -23q19 -22 24 -61q1 -11 1.5 -35.5t0.5 -62.5v-337h-60z" />
    <glyph glyph-name="o" unicode="o" horiz-adv-x="367" 
d="M319 243q0 -101 -34 -176q-38 -87 -101 -87q-66 0 -105 91q-32 78 -32 183q0 101 33 178q39 89 103 89q66 0 103 -94q33 -80 33 -184zM259 248q0 106 -33 171q-16 31 -43 31q-41 0 -62 -68q-8 -26 -12 -56.5t-4 -65.5q0 -34 5 -66.5t14 -64.5q24 -79 63 -79q52 0 66 117
q6 52 6 81z" />
    <glyph glyph-name="p" unicode="p" horiz-adv-x="367" 
d="M328 241q0 -84 -24 -163q-30 -98 -80 -98t-97 95v-245h-60v660l53 30v-117q10 25 33 72q29 44 64 44q54 0 86 -104q25 -81 25 -174zM273 267q-3 62 -17 111q-19 64 -55 64q-38 0 -61 -68q-19 -56 -19 -119t19 -126q24 -78 60 -78q39 0 58 76q15 58 15 124v16z" />
    <glyph glyph-name="q" unicode="q" horiz-adv-x="367" 
d="M245 -169v261l-22 -41q-38 -69 -70 -69q-58 0 -90 101q-26 81 -26 177q0 91 26 166q31 93 87 93q42 0 96 -104v109l59 -36v-657h-60zM245 245q0 64 -18 123q-22 73 -62 73q-38 0 -57 -70q-15 -54 -15 -118q0 -67 15 -122q19 -73 59 -73q41 0 62 67q8 26 12 55.5t4 64.5z
" />
    <glyph glyph-name="r" unicode="r" horiz-adv-x="260" 
d="M221 390q-5 0 -8 1h-8q-39 0 -71 -37q-34 -38 -34 -97v-257h-59v483l59 45v-179h5q40 112 76 148q12 12 40 26v-133z" />
    <glyph glyph-name="s" unicode="s" horiz-adv-x="293" 
d="M245 138q0 -64 -35 -111t-77 -47q-40 0 -98 55l23 61q43 -46 79 -46q24 0 39 19q16 19 16 54q0 50 -36 79l-61 49q-57 46 -57 127q0 63 32 104q30 38 73 38q54 0 93 -62l-28 -40q-39 41 -65 41q-21 0 -36 -20q-16 -20 -16 -52q0 -33 18 -54q9 -12 37 -29q40 -26 66 -63
q33 -48 33 -103z" />
    <glyph glyph-name="t" unicode="t" horiz-adv-x="260" 
d="M240 28q-58 -38 -83 -38q-37 0 -61 40q-23 41 -23 98v312h-46v60h46v129l60 31v-160h54v-60h-54l1 -296q0 -44 3 -54q7 -21 32 -21q41 0 71 44v-85z" />
    <glyph glyph-name="u" unicode="u" horiz-adv-x="367" 
d="M253 -30v133q-74 -123 -118 -123q-33 0 -52 48q-16 39 -16 93v379h60v-397q0 -53 28 -53q47 0 77 86q15 40 15 80v284h60v-488z" />
    <glyph glyph-name="v" unicode="v" horiz-adv-x="333" 
d="M197 0h-74l-93 500h60l73 -432l68 432h52z" />
    <glyph glyph-name="w" unicode="w" horiz-adv-x="480" 
d="M362 0h-64l-61 432l-60 -432h-66l-87 500h60l61 -424l61 424h67l59 -421l62 421h50z" />
    <glyph glyph-name="x" unicode="x" horiz-adv-x="333" 
d="M234 0l-72 193l-72 -193h-61l102 250l-104 250h68l64 -179l68 179h60l-95 -241l108 -259h-66z" />
    <glyph glyph-name="y" unicode="y" horiz-adv-x="333" 
d="M185 -25q-15 -74 -30 -102q-22 -43 -66 -43q-11 0 -23 2.5t-25 7.5v84q31 -23 44 -23q33 0 45 52q7 28 11 93l-108 454h62l76 -346l70 346h56z" />
    <glyph glyph-name="z" unicode="z" horiz-adv-x="293" 
d="M40 0v62l157 359h-151l1 79h220v-64l-154 -356h154v-80h-227z" />
    <glyph glyph-name="braceleft" unicode="{" horiz-adv-x="187" 
d="M95 588v-19l34 1v-120h-66v163l28 107h40z" />
    <glyph glyph-name="bar" unicode="|" horiz-adv-x="187" 
d="M99 450h-40l36 132v18h-34v120h66v-166z" />
    <glyph glyph-name="cent" unicode="&#xa2;" horiz-adv-x="293" 
d="M8 435v61h278v-61h-278z" />
    <glyph glyph-name="sterling" unicode="&#xa3;" horiz-adv-x="293" 
d="M167 435v-185h-41v185h-118v61h118v185h41v-185h119v-61h-119z" />
    <glyph glyph-name="currency" unicode="&#xa4;" horiz-adv-x="293" 
d="M256 332q0 -42 -15 -82q-16 -40 -40 -59q-25 -20 -58 -20q-52 0 -83 42q-31 43 -31 118q0 48 12 80q12 31 40 59q-46 40 -46 114q0 65 32 103q30 35 74 35t76 -36q34 -38 34 -105q0 -75 -48 -115q53 -56 53 -134zM191 581q0 31 -15 51q-17 21 -37 21q-21 0 -34 -21
q-14 -23 -14 -53q0 -31 14 -56q13 -24 34 -24q22 0 37 24q15 25 15 58zM197 336q0 39 -14 67q-15 27 -40 27q-53 0 -53 -81v-12q0 -91 55 -91q25 0 39 27q13 26 13 63z" />
    <glyph glyph-name="yen" unicode="&#xa5;" horiz-adv-x="293" 
d="M262 334q0 -41 -13 -80t-35 -61q-24 -24 -61 -24q-51 0 -81 46q-31 48 -31 123v184q0 128 50 173q28 25 61 25q36 0 65 -30q29 -31 38 -81q7 -35 7 -76v-199zM201 549q0 34 -11 61q-12 30 -34 30q-28 0 -42 -35q-12 -29 -12 -73l-1 -172q0 -110 52 -110q48 0 48 101v198z
" />
    <glyph glyph-name="brokenbar" unicode="&#xa6;" horiz-adv-x="293" 
d="M213 180h-60v412q-8 -11 -12.5 -16.5t-5.5 -6.5q-20 -24 -55 -39v82q55 27 89 108h44v-540z" />
    <glyph glyph-name="section" unicode="&#xa7;" horiz-adv-x="293" 
d="M261 568q0 -91 -44 -145l-62 -80q-24 -30 -38 -73h143v-90h-220v23q0 47 16 85q5 13 15 29.5t24 38.5l81 123q25 39 25 86q0 32 -13 55q-13 22 -36 22q-46 0 -52 -82h-59v15q0 67 34 107q32 38 76 38q49 0 79 -40q31 -40 31 -112z" />
    <glyph glyph-name="dieresis" unicode="&#xa8;" horiz-adv-x="293" 
d="M258 320q0 -69 -35 -113q-31 -40 -80 -40q-38 0 -69 26q-35 30 -40 84q-1 5 -1 33h57q0 -17 4 -29.5t11 -22.5q15 -19 38 -19q25 0 38 25q14 24 14 63q0 83 -57 83h-38v80h32q62 0 62 77q0 32 -15 52q-17 21 -37 21q-35 0 -49 -50h-60v6q0 52 37 86q32 29 69 29
q47 0 78 -31q34 -37 34 -105q0 -43 -14 -71q-11 -21 -38 -47q31 -31 43 -56q16 -32 16 -81z" />
    <glyph glyph-name="copyright" unicode="&#xa9;" horiz-adv-x="293" 
d="M233 310v-130h-60v130h-146v89l131 321h75v-340h40v-70h-40zM80 397l-1 -17h94l1 243z" />
    <glyph glyph-name="ordfeminine" unicode="&#xaa;" horiz-adv-x="293" 
d="M261 354q0 -114 -49 -157q-32 -27 -67 -27q-40 0 -70 33q-34 37 -34 94v12h68v-14q0 -56 40 -56q27 0 42 38q12 31 12 74q0 100 -53 100q-29 0 -53 -41h-40l11 310h181v-90h-134l-7 -134q28 34 53 34q48 0 75 -54q25 -49 25 -122z" />
    <glyph glyph-name="guillemotleft" unicode="&#xab;" horiz-adv-x="293" 
d="M259 342q0 -76 -31 -125t-83 -49q-112 0 -112 231v114q0 133 60 186q25 21 52 21q45 0 81 -51q23 -34 25 -89h-58q-16 61 -46 61q-54 0 -54 -138q0 -12 0.5 -21t0.5 -15q32 35 65 35q46 0 73 -45t27 -115zM196 338q0 37 -11 64q-14 29 -38 29q-25 0 -39 -26t-14 -64
q0 -94 51 -94t51 91z" />
    <glyph glyph-name="logicalnot" unicode="&#xac;" horiz-adv-x="293" 
d="M142 180h-65l124 458h-162v82h221v-68z" />
    <glyph glyph-name="registered" unicode="&#xae;" horiz-adv-x="293" 
d="M260 438q0 -269 -119 -269q-42 0 -72 39q-30 40 -33 102h64q4 -61 41 -61q39 0 50 57q1 8 1.5 35t0.5 74q-39 -36 -64 -36t-51 26q-25 25 -36 61t-11 80q0 78 30 125q28 48 80 48q73 0 100 -93q19 -60 19 -188zM194 540q0 100 -49 100q-26 0 -39 -27t-13 -67t12 -65
q14 -29 39 -29q23 0 37 26q13 25 13 62z" />
    <glyph glyph-name="degree" unicode="&#xb0;" 
d="M97 239v350q-29 -33 -64 -47v86q52 30 90 92h40v-481h-66zM145 -110h-48l290 830h46zM551 29q0 -65 -36 -104q-32 -36 -76 -36q-48 0 -76 34q-33 37 -33 106q0 40 11 68q8 18 33 52q-41 50 -41 103q0 62 34 96q28 31 71 31q42 0 73 -31q34 -37 34 -97q0 -30 -13 -58
q-6 -11 -29 -44q12 -14 20.5 -27t13.5 -24q14 -31 14 -69zM479 242q0 25 -12 42q-12 16 -29 16t-29 -16q-12 -17 -12 -41t12 -40t28 -16t29 16q13 18 13 39zM481 40q0 31 -11 49q-12 21 -31 21q-18 0 -30 -20t-12 -49q0 -31 10 -50q13 -22 32 -22t31 20q11 18 11 51z" />
    <glyph glyph-name="plusminus" unicode="&#xb1;" 
d="M397 448q0 -56 -37 -87q-30 -24 -71 -24q-69 0 -100 49q-20 31 -20 53q0 1 0.5 2t0.5 3v5l73 1q7 -40 42 -40q17 0 29 12q15 13 15 37q0 41 -30 41h-23v71l19 -1q28 -1 28 46q0 44 -36 44q-30 0 -51 -50h-60q0 59 38 92q33 28 73 28q42 0 69 -21q35 -27 35 -84
q0 -25 -9 -46q-6 -14 -21 -39q36 -50 36 -92zM20 255v45h547v-45h-547zM136 -181v271q-33 -31 -73 -42v81q56 22 91 91h49v-401h-67zM527 -53q0 -64 -33 -98q-30 -31 -73 -31q-86 0 -110 85q-8 24 -11 51t-3 56q0 209 120 209q40 0 68 -25q35 -29 38 -84h-69q-6 24 -16 28
q-6 3 -26 3q-44 0 -44 -70v-10t1 -14q35 20 60 20q37 0 66 -32q32 -33 32 -88zM457 -49q0 49 -42 49q-19 0 -31 -13q-15 -15 -15 -40q0 -48 42 -48q46 0 46 52z" />
    <glyph glyph-name="twosuperior" unicode="&#xb2;" 
d="M97 230v349q-27 -30 -64 -43v92q32 11 51 31q15 16 39 60h44v-489h-70zM149 -110h-52l290 829h48zM527 0v-110h-67v110h-147v95l124 275h90v-290h33v-80h-33zM460 297l-99 -217h99v217z" />
    <glyph glyph-name="threesuperior" unicode="&#xb3;" 
d="M399 468q0 -68 -38 -106q-33 -33 -80 -33q-34 0 -61 18q-34 23 -43 62l-5 29h67q16 -33 40 -33q19 0 32 16q14 17 14 43q0 25 -13 41q-12 16 -31 16t-37 -22h-65l10 229h190v-85h-140v-66q29 19 57 19q40 0 70 -33q33 -36 33 -95zM20 255v45h547v-45h-547zM525 -61
q0 -63 -35 -95q-30 -27 -74 -27q-123 0 -123 185q0 141 53 188q28 25 67 25q79 0 100 -72q2 -7 3.5 -15t3.5 -18h-67q-6 20 -14 25q-8 6 -24 6q-31 0 -41 -28q-8 -21 -8 -72q27 24 57 24q42 0 70 -31q32 -35 32 -95zM133 -181v271q-34 -32 -74 -41v74q31 10 50 29
q14 14 39 56h51v-390zM459 -54q0 55 -45 55q-47 0 -47 -53q0 -25 13 -40q12 -15 31 -15q18 0 32 12q16 14 16 41z" />
    <glyph glyph-name="acute" unicode="&#xb4;" 
d="M246 371q0 -66 -33 -106q-31 -37 -76 -37q-32 0 -60 19q-32 22 -44 61q-7 20 -7 60h64q12 -51 42 -51q41 0 41 60q0 24 -11 43q-10 18 -27 20l-36 2v79l31 -1q18 0 29 17q12 18 12 44t-11 41q-12 17 -27 17q-36 0 -42 -49h-64q1 62 34 98q29 32 72 32q40 0 72 -33
q34 -37 34 -96q0 -71 -48 -101q55 -49 55 -119zM179 -110h-55l289 830h50zM559 31q0 -67 -33 -106q-30 -36 -76 -36q-45 0 -76 36q-35 41 -35 105q0 69 50 119q-44 47 -44 103q0 59 33 95q30 33 70 33q42 0 71 -31q34 -35 34 -95q0 -57 -43 -103q27 -31 35 -51
q14 -28 14 -69zM487 244q0 26 -11 40q-10 16 -28 16q-41 0 -41 -56q0 -25 12 -41q12 -17 29 -17q16 0 28 17q11 17 11 41zM493 39q0 26 -13 49q-12 22 -31 22q-18 0 -31 -21q-12 -23 -12 -50q0 -28 12 -49q13 -21 31 -21q19 0 31 20q13 20 13 50z" />
    <glyph glyph-name="paragraph" unicode="&#xb6;" 
d="M166 231l-66 -1v349q-31 -31 -67 -43v92q34 11 51 31q14 18 39 61h44zM155 -110h-52l277 830h56zM332 -110q3 73 41 133q8 13 17.5 28t20.5 32l42 63q34 49 34 82q0 28 -12 45t-31 17q-41 0 -41 -70h-70v12q0 68 34 108q32 38 76 38q49 0 79 -39q31 -38 31 -110
q0 -81 -50 -138l-39 -46l-31 -40v-15h120v-100h-221z" />
    <glyph glyph-name="cedilla" unicode="&#xb8;" 
d="M247 389q0 -73 -32 -115q-33 -44 -80 -44q-90 0 -108 130h68q6 -50 36 -50q23 0 36 22t13 58q0 34 -14 57q-13 22 -37 22t-39 -29h-54l11 280h186v-95h-133v-101q25 17 46 17q44 0 73 -42q28 -43 28 -110zM175 -110h-52l283 830h51zM564 29q0 -63 -36 -103
q-33 -37 -76 -37q-46 0 -78 34q-37 40 -37 104q0 42 17 73q6 11 16 23.5t25 26.5q-46 34 -46 100q0 62 30 97q29 32 71 32q41 0 71 -32q36 -36 36 -94q0 -52 -45 -104q52 -52 52 -120zM491 247q-1 1 -1 2q-2 23 -13 36q-11 15 -26 15q-41 0 -41 -58q0 -53 38 -53q43 0 43 55
v3zM493 40q0 30 -12 50q-11 20 -30 20t-31 -19q-11 -20 -11 -49q0 -73 41 -73q20 0 31 20q12 19 12 51z" />
    <glyph glyph-name="onesuperior" unicode="&#xb9;" 
d="M379 331v264q-28 -34 -68 -46v84q33 8 50 28q7 7 16 21.5t22 37.5h47v-389h-67zM127 331v264q-31 -35 -68 -46v84q33 8 50 28q7 7 16 21.5t22 37.5h46v-389h-66zM20 255v45h547v-45h-547zM125 -190v264q-33 -36 -69 -46v84q30 7 51 28q7 7 16 21.5t22 37.5h46v-389h-66z
M453 92q-9 33 -38 33q-54 0 -55 -102q31 29 59 29q29 0 54 -19q30 -21 42 -54q6 -18 6 -47q0 -84 -54 -114q-26 -16 -59 -16q-58 0 -88 56q-27 51 -27 141q0 204 118 204q99 0 111 -110zM457 -71q0 54 -44 54q-46 0 -46 -52q0 -55 42 -55q48 0 48 53z" />
    <glyph glyph-name="ordmasculine" unicode="&#xba;" 
d="M239 371q0 -45 -16 -78q-15 -36 -41 -51q-22 -13 -52 -13q-45 0 -75 30q-36 34 -36 99v10h64q6 -30 15 -42t29 -12q18 0 30 17q11 17 11 44q0 64 -40 65l-35 1v79h30q18 0 30 16t12 43q0 60 -40 60q-36 0 -40 -49h-65q3 65 34 99q28 31 74 31q42 0 71 -29q34 -34 34 -94
q0 -43 -10 -64q-10 -22 -36 -43q28 -26 38 -48q14 -30 14 -71zM183 -110h-49l285 830h50zM534 0v-110h-67v110h-146v105l123 275h90v-300h33v-80h-33zM467 299l-98 -219h98v219z" />
    <glyph glyph-name="guillemotright" unicode="&#xbb;" 
d="M125 331v264q-29 -34 -69 -46v84q30 7 51 28q7 7 16 21.5t22 37.5h46v-389h-66zM519 442q0 -35 -19 -67q-29 -47 -87 -47q-53 0 -77 18q-35 26 -41 94h69q6 -41 42 -41q15 0 31 13q14 14 14 38q0 40 -33 40h-21v69l14 -1q15 -2 24 12q10 13 10 35q0 46 -36 46
q-19 0 -29 -8q-9 -8 -17 -34h-66q5 38 22 64q33 47 92 47q100 0 100 -105q0 -35 -8 -50q-7 -16 -28 -34q44 -36 44 -89zM20 255v45h547v-45h-547zM125 -189v265q-30 -27 -67 -38v80q17 8 29.5 15.5t19.5 15.5q18 18 35 60h49v-398h-66zM519 -62q0 -85 -53 -114
q-28 -16 -60 -16q-58 0 -88 56q-27 51 -27 141q0 204 120 204q29 0 56 -15q33 -19 42 -50q5 -14 6 -44h-64q-9 31 -37 31q-53 0 -55 -101q31 29 58 29q29 0 55 -19q31 -22 41 -55q6 -20 6 -47zM456 -65q0 55 -45 55q-46 0 -46 -53q0 -27 12 -40q13 -15 31 -15t32 12
q16 13 16 41z" />
    <glyph glyph-name="onequarter" unicode="&#xbc;" 
d="M251 652q-56 -184 -114 -422h-71l108 390h-143v100h220v-68zM157 -110h-49l283 830h49zM568 31q0 -67 -33 -106q-32 -36 -77 -36q-47 0 -77 37q-32 41 -32 108q0 65 44 119q-22 30 -28 43q-14 28 -14 55q0 59 34 96q31 33 72 33q42 0 72 -30q34 -36 34 -94q0 -37 -12 -62
q-5 -10 -13 -20.5t-20 -22.5q27 -31 35 -51q15 -32 15 -69zM497 244q0 25 -12 40q-12 16 -28 16q-17 0 -29 -16q-11 -15 -11 -42q0 -53 40 -53t40 55zM497 40q0 70 -40 70q-19 0 -29 -19q-11 -18 -11 -47q0 -75 40 -75t40 71z" />
    <glyph glyph-name="onehalf" unicode="&#xbd;" 
d="M133 329v265q-28 -34 -68 -46v84q33 8 50 28q7 7 16 21.5t22 37.5h47v-390h-67zM520 460q0 -68 -38 -106q-33 -33 -80 -33q-33 0 -61 18q-33 22 -43 62q0 2 -5 30h67q16 -34 40 -34q19 0 32 16q14 17 14 43q0 27 -13 41q-12 16 -30 16q-20 0 -38 -22h-65l10 229h190v-85
h-140v-66q29 19 57 19q41 0 70 -33q33 -36 33 -95zM20 255v45h547v-45h-547zM133 -190v264q-15 -14 -32 -23.5t-35 -14.5v81q36 16 49 30q19 19 36 60h49v-397h-67zM525 -70q0 -62 -36 -96q-31 -29 -74 -29q-119 0 -119 195q0 145 53 184q29 22 65 22q29 0 56 -15
q32 -18 43 -50q3 -14 6 -44h-64q-10 31 -38 31q-53 0 -56 -101q32 29 60 29q41 0 70 -32q34 -35 34 -94zM458 -66q0 54 -45 54q-19 0 -31 -12q-15 -14 -15 -40q0 -28 13 -42q12 -14 30 -14q48 0 48 54z" />
    <glyph glyph-name="threequarters" unicode="&#xbe;" 
d="M100 230v349q-31 -31 -67 -43v92q34 11 51 31q14 18 39 61h44v-490h-67zM146 -120l-50 -1l287 841h52zM552 44q0 -71 -32 -118t-79 -47q-62 0 -92 62q-14 28 -20 78h65q12 -59 42 -59q22 0 34 21q13 22 13 56q0 83 -51 83q-20 0 -36 -24l-56 5l11 269h186l-1 -100h-136
v-93q21 22 46 22q46 0 76 -43q30 -44 30 -112z" />
    <glyph glyph-name="questiondown" unicode="&#xbf;" 
d="M242 575q0 -76 -43 -131q-7 -10 -18.5 -23t-26.5 -30q-13 -14 -34 -43v-18h114v-90h-217q0 81 62 165q8 11 20 27t28 38q30 43 40 71q1 5 1.5 13t0.5 19q0 61 -39 61q-43 0 -43 -71v-3h-70v14q0 72 34 113q31 40 80 40q46 0 78 -42q33 -42 33 -110zM183 -119h-52l291 848
h53zM579 48q0 -71 -32 -120q-33 -48 -81 -48q-24 0 -50 17q-26 18 -39 46q-14 26 -20 78h64q8 -31 15 -41q9 -11 29 -11q19 0 31 20q11 18 11 51q0 81 -50 81q-19 0 -34 -22h-57l8 270h187v-90h-134v-100q23 23 46 23q47 0 77 -42q29 -43 29 -112z" />
    <glyph glyph-name="Agrave" unicode="&#xc0;" 
d="M249 371q0 -64 -38 -105q-33 -38 -78 -38q-69 0 -96 64q-8 16 -11 35t-3 41l70 1v-12q0 -21 12 -31q11 -11 25 -11q17 0 31 17q14 19 14 45q0 27 -14 50q-15 22 -33 22h-26v81h31q37 0 37 53q0 25 -11 41q-10 16 -28 16q-37 0 -43 -50h-65q3 64 37 102q32 37 75 37
q39 0 68 -33q33 -36 33 -93q0 -45 -9 -67q-11 -24 -36 -46q58 -49 58 -119zM178 -121h-59l291 850h56zM568 53q0 -76 -31 -123q-30 -49 -80 -49q-59 0 -92 65q-14 29 -18 74h68q4 -52 37 -52q20 0 32 22q11 21 11 54q0 78 -44 78q-17 0 -36 -22h-56l6 278h185v-95h-133
l-2 -93q25 19 50 19q42 0 73 -46q30 -47 30 -110z" />
    <glyph glyph-name="Aacute" unicode="&#xc1;" 
d="M227 340v-109h-60v109h-152v98l134 282h78v-300h41v-80h-41zM184 -120l-51 -1l289 841h50zM575 50q0 -80 -29 -126q-30 -45 -83 -45q-101 0 -108 141h66q2 -26 14 -43t29 -17t31 23q14 25 14 52q0 85 -49 85q-16 0 -33 -20h-59l7 269l186 1v-100h-133v-80q28 9 45 9
q43 0 73 -41q29 -43 29 -108zM167 643l-98 -223h98v223z" />
    <glyph glyph-name="Acircumflex" unicode="&#xc2;" 
d="M247 336v267q-32 -31 -67 -48v89q28 7 47 28q12 13 36 54h50v-390h-66zM20 255v45h547v-45h-547zM127 -180v267q-32 -31 -67 -48v89q28 7 47 28q12 13 36 54h50v-390h-66zM520 -63q0 -60 -37 -97q-34 -32 -76 -32q-56 0 -86 57q-27 52 -27 138q0 152 50 190q29 22 65 22
q78 0 102 -72q3 -12 9 -33h-69q-6 21 -17 27q-6 3 -25 3q-52 0 -48 -91l1 -12q28 26 61 26q42 0 69 -32q28 -31 28 -94zM455 -59q0 55 -45 55q-46 0 -46 -53q0 -25 13 -41q12 -14 30 -14q48 0 48 53z" />
    <glyph glyph-name="Atilde" unicode="&#xc3;" 
d="M406 669q-26 -66 -54 -147.5t-57 -181.5h-71l103 310h-140v80l219 -1v-60zM20 255v45h547v-45h-547zM127 -171v264q-31 -35 -68 -46v84q33 8 50 28q7 7 16 21.5t22 37.5h46v-389h-66zM453 110q-9 32 -38 32q-53 0 -55 -101q31 29 59 29q43 0 70 -28q32 -32 32 -93
q0 -66 -36 -100q-31 -29 -77 -29q-58 0 -88 56q-27 51 -27 140q0 204 118 204q99 0 111 -110h-69zM454 -51q0 21 -12 35q-14 14 -27 17q-17 3 -33 -12q-16 -16 -16 -40q0 -23 15 -38q12 -13 28 -13t31 13q14 14 14 38z" />
    <glyph glyph-name="Adieresis" unicode="&#xc4;" 
d="M393 543q0 -207 -116 -207q-43 0 -73 24q-37 30 -39 89h66q4 -37 38 -37q52 0 54 101q-31 -29 -60 -29q-39 0 -69 34q-33 37 -33 93q0 63 36 95q30 27 74 27q81 0 105 -75q9 -27 13 -55.5t4 -59.5zM20 255v45h547v-45h-547zM452 112q-11 32 -38 32q-53 0 -55 -101
q32 29 59 29q29 0 55 -19q30 -22 40 -55q6 -18 6 -47q0 -85 -53 -114q-28 -16 -59 -16q-59 0 -88 56q-28 53 -28 141q0 204 119 204q99 0 111 -110h-69zM127 -180v271q-27 -32 -68 -42v79q33 11 50 30q7 7 16 22.5t22 38.5h46v-399h-66zM323 609q0 22 -12 36t-27 16
q-18 1 -34 -13q-17 -16 -17 -44q0 -23 12 -35q14 -14 28 -14q19 0 32 13q18 15 18 41zM451 -52q0 22 -11 36q-12 13 -27 15q-9 1 -16.5 -2.5t-15.5 -9.5q-17 -15 -17 -39q0 -23 15 -38q12 -13 28 -13t31 13q13 13 13 38z" />
    <glyph glyph-name="AE" unicode="&#xc6;" 
d="M139 174q24 -29 24 -73q0 -41 -23 -101q-8 26 -14.5 45t-11.5 32q-21 57 -49 90q-5 7 -21 24t-44 44q87 90 113 155q5 14 11.5 35t13.5 47q27 -62 27 -96t-26 -74h448v-128h-448z" />
    <glyph glyph-name="Ccedilla" unicode="&#xc7;" 
d="M200 190v209q0 36 -8 66q-11 38 -33 38q-20 0 -44 -41q-14 -23 -18 -36q-2 -7 -3 -17.5t-1 -24.5v-194h-53v510l53 27v-251q11 22 20.5 37t16.5 23q22 27 49 27q37 0 57 -44q9 -19 13 -42.5t4 -52.5v-234h-53zM493 190v64q-35 -74 -76 -74q-47 0 -74 62q-13 27 -18.5 59
t-5.5 68q0 73 25 132q29 68 75 68q44 0 74 -73v204l54 27v-510zM487 379q0 46 -12 76q-13 37 -43 37t-45 -39q-13 -30 -13 -80q0 -44 11 -79q13 -43 41 -43q31 0 47 43q14 34 14 85z" />
    <glyph glyph-name="Egrave" unicode="&#xc8;" 
d="M587 237q-86 -87 -113 -155q-6 -14 -12 -35t-13 -47q-27 61 -27 96q0 36 25 74h-308q24 -26 24 -69q0 -41 -23 -101q-8 26 -14.5 45t-11.5 32q-21 57 -49 90q-5 7 -21 24t-44 44q87 90 113 155q5 14 11.5 35t13.5 47q27 -62 27 -96t-26 -74h308q-23 26 -23 69
q0 41 23 101q8 -26 14.5 -45t11.5 -32q10 -28 22 -50.5t26 -39.5q5 -7 21.5 -24t44.5 -44z" />
    <glyph glyph-name="Eacute" unicode="&#xc9;" 
d="M473 190l-100 181v-181h-53v510l53 25v-347l100 182h67l-101 -177v-12l101 -181h-67zM200 190v256q0 25 -10 45q-9 21 -25 21q-21 0 -40 -39q-25 -47 -25 -102v-181h-53v342l53 28v-74q14 20 23 33.5t15 20.5q24 28 48 28q30 0 49 -34q18 -35 18 -80v-264h-53z" />
    <glyph glyph-name="Ecircumflex" unicode="&#xca;" 
d="M445 45q-30 -17 -54 -40t-43 -51q-12 -18 -27 -47t-34 -69q-11 25 -25.5 55.5t-33.5 67.5q-11 16 -34 37.5t-58 49.5q34 34 63 34q28 0 48 -35v749l85 -1v-748q26 38 49 38q24 0 64 -40z" />
    <glyph glyph-name="Edieresis" unicode="&#xcb;" 
d="M20 -180v890h540v-890h-540zM513 640h-446v-750h446v750zM416 372q0 -113 -77 -142l70 -230h-78l-67 220h-31v-220h-73v530h113q66 0 98 -29q45 -44 45 -129zM340 375q0 42 -21 56q-14 9 -46 9h-40v-130h44q30 0 44 10q19 13 19 55z" />
    <glyph glyph-name="Igrave" unicode="&#xcc;" 
d="M517 424h-108l-38 -166h112l-15 -65h-111l-59 -250h-52l57 250h-99l-61 -250h-49l60 250h-113l18 65h110l42 166h-123l19 65h114l59 255h53l-62 -255h100l60 255h52l-61 -255h107zM259 424l-38 -166h96l40 166h-98z" />
    <glyph glyph-name="Iacute" unicode="&#xcd;" horiz-adv-x="293" 
d="M213 489l27 -134l-17 -23l-70 78l-77 -78l-16 23l27 134l-74 77v24h100l28 130h18l28 -130h100v-24z" />
    <glyph glyph-name="Icircumflex" unicode="&#xce;" horiz-adv-x="341" 
d="M192 280v-300h-48v300l-100 -110l123 460h2l123 -460z" />
    <glyph glyph-name="Idieresis" unicode="&#xcf;" 
d="M293 -173l-220 457l217 447l221 -447z" />
    <glyph glyph-name="Eth" unicode="&#xd0;" 
d="M20 -180v890h540v-890h-540zM513 640h-446v-750h446v750zM431 133q0 -74 -40 -120q-36 -41 -88 -41q-101 0 -155 134l57 54q44 -89 100 -89q20 0 38 18q17 19 17 47q0 45 -71 90q-54 33 -82 68q-42 51 -42 118q0 68 36 109q33 37 80 37q43 0 84 -33q41 -35 59 -90
l-55 -56q-40 82 -89 82q-40 0 -40 -48q0 -40 43 -68q38 -25 64.5 -47t43.5 -42q40 -48 40 -123z" />
    <glyph glyph-name="Ntilde" unicode="&#xd1;" 
d="M20 -180v890h540v-890h-540zM513 640h-446v-750h446v750zM327 450v-450h-74v450h-113v100h300v-100h-113z" />
    <glyph glyph-name="Ograve" unicode="&#xd2;" 
d="M0 0v70h587v-70h-587z" />
    <glyph glyph-name="Oacute" unicode="&#xd3;" horiz-adv-x="293" 
d="M0 0v70h293v-70h-293z" />
    <glyph glyph-name="Ocircumflex" unicode="&#xd4;" 
d="M500 -25l-203 305l-204 -305l-46 70l203 305l-203 305l46 70l204 -305l203 305l45 -72l-202 -303l204 -305z" />
    <glyph glyph-name="Otilde" unicode="&#xd5;" 
d="M320 270v-270h-60v270h-173v90h173v270h60v-270h173v-90h-173z" />
    <glyph glyph-name="Odieresis" unicode="&#xd6;" 
d="M20 -170v880h540v-880h-540zM520 650h-453v-750h453v750zM387 275q0 -59 -29 -99q-29 -39 -68 -39q-38 0 -65 40t-27 98q0 57 27 96q28 40 66 40q39 0 68 -39q28 -40 28 -97z" />
    <glyph glyph-name="multiply" unicode="&#xd7;" 
d="M357 340l175 -153l-31 -84l-176 155l-1 -308h-69l-1 308l-177 -155l-30 84l176 156l-178 154l36 86l173 -158l1 315h69l1 -313l173 156l35 -86z" />
    <glyph glyph-name="Oslash" unicode="&#xd8;" 
d="M587 237q-86 -87 -113 -155q-6 -14 -12 -35t-13 -47q-27 61 -27 96q0 36 25 74h-447v128h447q-23 29 -23 73q0 41 23 101q8 -26 14.5 -45t11.5 -32q10 -28 22 -50.5t26 -39.5q5 -7 21.5 -24t44.5 -44z" />
    <glyph glyph-name="Ugrave" unicode="&#xd9;" 
d="M449 587q-40 -40 -64 -40q-23 0 -50 38v-748l-85 -1v749q-20 -35 -48 -35q-31 0 -66 34q17 13 29.5 22.5t21.5 17.5q36 31 59 73q10 16 45 97q58 -129 103 -169q10 -8 23.5 -17.5t31.5 -20.5z" />
    <glyph glyph-name="Uacute" unicode="&#xda;" 
d="M445 45q-30 -17 -54 -40t-43 -51q-12 -18 -27 -47t-34 -69q-11 25 -25.5 55.5t-33.5 67.5q-11 16 -34 37.5t-58 49.5q34 34 63 34q28 0 48 -35v749l85 -1v-748q26 38 49 38q24 0 64 -40z" />
    <glyph glyph-name="Ucircumflex" unicode="&#xdb;" horiz-adv-x="880" 
d="M413 0v698l67 39v-737h-67zM282 197q0 -218 -118 -218q-70 0 -99 65q-22 48 -32 131l75 45v-62q0 -32 14 -55q15 -23 36 -23q50 0 50 108v522h74v-513zM749 38q-11 -56 -25 -97t-30 -67q-20 -33 -60 -33q-29 0 -47 12v96h22q14 -29 26 -29q18 0 35 41q22 51 22 85
q0 6 -1.5 17t-5.5 27l-98 430h63l74 -345l64 345h63z" />
    <glyph glyph-name="Udieresis" unicode="&#xdc;" horiz-adv-x="880" 
d="M313 0l1 634l-87 -634h-60l-86 609v-610l-61 1v710h99l81 -520l65 520h108v-710h-60zM660 -9q-10 -2 -23 -2q-26 0 -38 16q-6 8 -11.5 21.5t-10.5 33.5h-8q-18 -38 -33 -53q-20 -20 -45 -20q-40 0 -60 41q-20 38 -20 98q0 107 51 154q27 26 50 33q18 7 55 8v79
q0 45 -36 45q-33 0 -90 -39l-22 65q34 30 54 42q31 17 60 17q41 0 67 -33q27 -33 27 -93v-289q0 -44 33 -45v-79zM778 -54q-18 -118 -89 -118q-17 0 -36 14l1 97l9 1q10 -22 27 -22q23 0 35 41q2 5 5.5 22.5t8.5 48.5l-92 490h59l61 -320l48 320h54zM567 261
q-67 -12 -88 -63q-7 -18 -7 -51q0 -77 35 -77q21 0 41 26q19 27 19 58v107z" />
    <glyph glyph-name="Yacute" unicode="&#xdd;" horiz-adv-x="880" 
d="M287 0l-22 140h-151l-22 -140h-72l127 710h81l129 -710h-70zM526 -18v114l-9 -16l-22 -40q-29 -51 -66 -51q-62 0 -62 135l-1 386h67v-389q0 -54 22 -54q16 0 42 47q22 40 22 92v304h60l1 -486zM859 26q0 -78 -33 -126q-35 -48 -87 -48q-32 0 -80 19l1 94l23 5
q18 -36 47 -36q31 0 50 25q20 27 19 70l-1 93q-30 -72 -73 -72q-19 0 -38 19q-10 10 -18 20.5t-13 23.5q-25 56 -25 162q0 116 24 181q12 31 35 51q22 21 45 21q53 0 71 -83l7 -7v72h46v-484zM189 593l-58 -363h118zM801 305q-3 146 -51 146q-59 0 -59 -156q0 -68 6 -101
q12 -61 44 -61q66 0 61 149z" />
    <glyph glyph-name="Thorn" unicode="&#xde;" horiz-adv-x="880" 
d="M267 196q0 -221 -128 -221q-61 0 -88 65q-9 22 -17 55.5t-14 81.5l73 33v-29q0 -105 48 -105q28 0 41 37q6 15 8.5 33t2.5 40v524h74v-514zM801 0v395q0 24 -10 40q-9 17 -26 17q-18 0 -45 -50q-27 -51 -27 -79v-322h-60v497l60 36v-110q51 106 103 106q63 0 63 -127
l1 -403h-59zM500 -14v109q-54 -108 -103 -108q-29 0 -46 29q-18 30 -18 75v429h60v-402q0 -59 26 -59q19 0 58 69q23 43 23 76v316h60v-498z" />
    <glyph glyph-name="germandbls" unicode="&#xdf;" horiz-adv-x="880" 
d="M286 0l-25 150h-146l-26 -150h-69l126 710h80l131 -710h-71zM855 380q-5 1 -21 1q-21 0 -47 -29q-39 -44 -39 -112v-240h-60v500l60 32v-171h5q36 133 102 173v-154zM641 266q0 -93 -22 -166q-28 -100 -81 -100q-42 0 -85 97v-265h-59v667l54 39v-117h5q11 46 32 74
q24 35 52 35q53 0 82 -98q22 -73 22 -166zM187 583l-58 -343h119zM579 240q0 209 -58 209q-38 0 -54 -63q-13 -43 -13 -110q0 -30 0.5 -50t1.5 -31q4 -40 22 -75q21 -41 45 -41q30 0 46 61q10 41 10 100z" />
    <glyph glyph-name="agrave" unicode="&#xe0;" horiz-adv-x="880" 
d="M307 0v620l-84 -620h-56l-94 620v-620h-60v720h102l80 -529l70 529h102v-720h-60zM856 381q-36 0 -64 -30q-33 -35 -33 -83v-268h-60v500l54 31v-192h6q30 130 74 174q11 11 34 18v-150h-11zM667 -10q-5 -1 -19 -1q-44 0 -65 71h-10q-45 -71 -86 -71q-36 0 -58 43
q-22 40 -22 94q0 43 16 84q14 40 41 67q23 24 51 34q19 7 58 10v80q0 20 -12 34q-12 15 -26 15q-36 0 -83 -43l-7 -6l-25 69q79 59 122 59q40 0 66 -34q25 -35 25 -94v-286q0 -46 22 -46q9 0 12 1v-80zM573 261q-23 -5 -39.5 -13t-27.5 -17q-33 -30 -33 -87q0 -30 9 -52
q11 -26 29 -26q24 0 43 22t19 57v116z" />
    <glyph glyph-name="aacute" unicode="&#xe1;" horiz-adv-x="880" 
d="M107 620v-210h140v-90h-140v-320h-74v720h240v-100h-166zM855 264q0 -99 -22 -174q-28 -103 -85 -103q-42 0 -86 98v-96l-62 30l1 672l66 38v-285q34 78 84 78q57 0 84 -92q11 -34 15.5 -75.5t4.5 -90.5zM347 240v-32q0 -61 17 -96q19 -43 58 -43q32 0 61 41l37 -55
q-40 -64 -106 -64q-69 0 -105 86q-29 73 -29 183q0 98 25 161q39 106 108 106q66 0 102 -87q16 -39 22 -85q2 -17 3 -40t1 -53v-22h-194zM481 310q-3 58 -17 93q-18 47 -53 47q-31 0 -49 -49q-7 -19 -11 -42t-5 -49h135zM795 257q0 32 -2.5 60.5t-7.5 52.5q-16 73 -50 73
q-39 0 -58 -69q-15 -54 -15 -119q0 -104 33 -155q19 -30 40 -30q33 0 48 74q12 52 12 113z" />
    <glyph glyph-name="acircumflex" unicode="&#xe2;" horiz-adv-x="880" 
d="M264 158q0 -86 -31 -138q-32 -53 -88 -53q-61 0 -92 55q-25 46 -34 142l72 45v-35q0 -45 11 -71q13 -34 41 -34q23 0 37 32q11 27 11 65v544h73v-552zM797 -10v412q0 38 -27 38q-42 0 -66 -79q-13 -42 -13 -77v-294h-60v491l60 44v-110l9 16q47 80 92 80q65 0 65 -116
v-405h-60zM577 -20q-3 -1 -16 -1q-29 0 -44 20q-11 15 -22 61h-4q-13 -20 -23.5 -35t-18.5 -23q-24 -25 -52 -25q-42 0 -64 37q-24 37 -24 99q0 103 54 153q29 28 62 37q19 5 66 7v72q0 51 -43 51q-33 0 -87 -45l-8 -6l-29 73q75 63 124 63q48 0 75 -41q28 -44 28 -113v-263
q0 -35 11 -39q6 -2 15 -2v-80zM491 251q-41 -6 -60 -15q-25 -12 -42 -40q-18 -30 -18 -69q0 -28 13 -52q12 -22 32 -22q34 0 55 39q20 37 20 90v69z" />
    <glyph glyph-name="atilde" unicode="&#xe3;" horiz-adv-x="880" 
d="M321 360q0 -320 -146 -359q-42 -11 -116 -11h-39v720h116q112 0 154 -130q15 -48 23 -102.5t8 -117.5zM600 251q0 -4 -0.5 -6.5t-0.5 -4.5h-186q0 -69 12 -115q16 -66 55 -66q30 0 69 43l31 -48q-30 -37 -47 -50q-25 -17 -57 -17q-65 0 -96 79q-26 66 -26 167
q0 111 29 192q35 98 104 98q26 0 52 -20q24 -18 38 -53q16 -42 20 -91q3 -29 3 -97v-11zM864 125q-11 -46 -21 -70q-30 -69 -87 -69q-45 0 -77 47q-29 44 -35 114q-2 25 -3.5 49t-1.5 48q0 48 2 83.5t6 59.5q10 61 39 99q28 37 69 37q37 0 66 -32q28 -32 38 -87l-49 -41
q-17 78 -53 78q-58 0 -58 -175q0 -82 7 -120q12 -76 50 -76q40 0 54 89zM540 335q0 116 -55 116q-61 0 -65 -141h120v25zM248 373q0 170 -47 219q-25 25 -90 25h-24v-526l10 -1q5 -1 12.5 -1h15.5q81 0 106 88q17 57 17 196z" />
    <glyph glyph-name="adieresis" unicode="&#xe4;" horiz-adv-x="880" 
d="M232 0l-145 550v-550h-60v720h86l140 -541v541h61v-720h-82zM783 0h-67l-83 520h61l57 -421l53 421h59zM607 270q0 -142 -23 -198q-33 -81 -95 -81q-37 0 -67 32q-29 32 -41 87q-12 60 -12 159q0 85 9 132q6 29 16 52.5t26 40.5q30 35 70 35q72 0 101 -104
q16 -55 16 -155zM547 272q0 58 -3 85q-9 93 -56 93q-39 0 -53 -68q-4 -20 -6 -49t-2 -67q0 -42 2 -71.5t5 -47.5q12 -69 53 -69q54 0 58 109q1 16 1.5 31t0.5 30v24z" />
    <glyph glyph-name="aring" unicode="&#xe5;" horiz-adv-x="880" 
d="M343 350q0 -146 -29 -242q-39 -128 -126 -128q-91 0 -131 124q-30 93 -30 244q0 75 7.5 136t24.5 112q42 132 130 132q87 0 126 -132q14 -48 21 -109t7 -137zM855 22q-42 -36 -67 -36q-32 0 -53 31q-20 30 -20 81v302h-54v70h54v108l60 81v-189h60v-70h-60v-274
q0 -33 4 -42q6 -14 25 -14q23 0 51 28v-76zM636 125q-12 -63 -42 -100q-30 -39 -73 -39q-29 0 -58 23q-28 24 -42 62q-27 75 -27 186q0 187 75 247q26 20 52 20q50 0 80 -53q7 -12 13.5 -27.5t14.5 -35.5l-52 -49q-18 80 -57 80q-67 0 -67 -186q0 -64 14 -115q18 -69 55 -69
q39 0 59 95zM271 355q0 276 -84 276q-46 0 -68 -103q-18 -80 -18 -181q0 -48 3 -88.5t11 -75.5q21 -107 69 -107q87 0 87 279z" />
    <glyph glyph-name="ae" unicode="&#xe6;" horiz-adv-x="880" 
d="M287 170q0 -93 -34 -146q-35 -54 -96 -54q-69 0 -116 80q-7 13 -15.5 30l-18.5 37l60 57q15 -30 24.5 -47.5t12.5 -22.5q24 -37 51 -37q64 0 64 107q0 51 -20 82q-7 10 -20 22t-32 26q-97 71 -118 150q-10 34 -10 80q0 84 36 135q36 52 92 52q57 0 95 -59q18 -29 39 -75
l-54 -54q-14 25 -23.5 39.5t-13.5 19.5q-24 29 -49 29q-24 0 -40 -21q-16 -20 -16 -55q0 -55 45 -100l98 -98q59 -59 59 -177zM575 301q0 -4 -0.5 -19t-1.5 -42h-180v-39q0 -142 59 -142q38 0 69 43l36 -56q-30 -35 -48 -48q-26 -18 -55 -18q-68 0 -99 85q-24 67 -24 176
q0 178 68 249q29 29 60 29q27 0 55 -23q26 -23 41 -61q20 -54 20 -134zM867 256q0 -95 -18 -164q-26 -96 -79 -96q-47 0 -77 82v-248h-60v670l47 28v-128h5q38 122 83 122q48 0 78 -101q12 -41 15 -66q6 -39 6 -99zM513 334q0 42 -15 74t-43 32q-55 0 -57 -131l115 1v24z
M805 243q0 197 -50 197q-35 0 -54 -70q-14 -54 -14 -114q0 -56 14 -109q20 -68 52 -68q36 0 46 61q6 31 6 103z" />
    <glyph glyph-name="ccedilla" unicode="&#xe7;" 
d="M571 265q0 -174 -81 -294q-81 -121 -197 -121q-117 0 -198 120q-82 121 -82 297q0 174 82 297q81 121 199 121q116 0 197 -122q80 -124 80 -298zM523 269q0 147 -67 247q-68 101 -165 101t-165 -101q-67 -100 -67 -247q0 -146 66 -248q67 -103 164 -103q98 0 166 102
q68 101 68 249zM252 440v-130h127v-90l-127 1v-221h-73v530h226v-90h-153z" />
    <glyph glyph-name="egrave" unicode="&#xe8;" 
d="M577 260q0 -179 -85 -297q-84 -119 -203 -119q-116 0 -196 125t-80 301q0 173 82 293q81 119 198 119q118 0 201 -122t83 -300zM529 267q0 146 -69 247q-69 100 -168 100q-96 0 -164 -98q-67 -98 -67 -244q0 -149 66 -252q67 -104 165 -106q99 -1 168 101q69 103 69 252z
M433 150q-19 -82 -46 -118q-31 -43 -83 -43q-72 0 -109 84q-32 70 -32 185q0 285 140 285q48 0 81 -40q34 -42 40 -111l-71 -17q-6 39 -16 53q-12 19 -35 19q-52 0 -61 -98q-2 -17 -3 -36t-1 -41q0 -40 2 -69t6 -49q13 -67 55 -67q25 0 40 23q16 25 17 61z" />
    <glyph glyph-name="eacute" unicode="&#xe9;" 
d="M570 265q0 -176 -83 -295q-83 -120 -200 -120t-196 121q-80 120 -80 297q0 175 82 293q81 120 198 120t198 -120q81 -122 81 -296zM522 268q0 146 -67 243q-68 99 -165 99q-96 0 -164 -98q-68 -100 -68 -244q0 -147 67 -247q66 -101 163 -101q98 0 166 101t68 247z
M427 375q0 -93 -50 -132q-1 -1 -25 -16l69 -227h-77l-68 220h-30v-220h-73v530h121q52 0 70 -9q29 -13 46 -56q17 -40 17 -90zM350 371q0 70 -58 69l-46 -1v-129h43q61 0 61 61z" />
    <glyph glyph-name="ecircumflex" unicode="&#xea;" 
d="M569 265q0 -176 -80 -295q-81 -120 -197 -120q-117 0 -198 120q-82 121 -82 296t81 297q82 121 199 121q116 0 197 -122q80 -120 80 -297zM521 268q0 148 -67 248q-66 101 -164 101t-166 -101q-67 -100 -67 -248q0 -146 66 -248q67 -103 164 -103q98 0 166 102
q68 101 68 249zM331 420v-430h-80v430h-93v90h260v-90h-87z" />
    <glyph glyph-name="edieresis" unicode="&#xeb;" 
d="M20 -180v890h540v-890h-540zM513 640h-446v-750h446v750zM461 280q0 -119 -39 -191q-42 -79 -119 -79h-150v550h113q76 0 120 -42q75 -74 75 -238zM387 281q0 188 -98 188h-62v-368h62q50 0 76 54q22 49 22 126z" />
    <glyph glyph-name="igrave" unicode="&#xec;" 
d="M27 -180v890h540v-890h-540zM521 638h-446v-750h446v750zM461 272q0 -132 -23 -187q-39 -95 -135 -95h-156v550h120q55 0 72 -3q67 -12 98 -81q24 -54 24 -184zM355 258v68q-2 104 -91 104h-11v-320h18q69 0 81 69q3 19 3 70v9z" />
    <glyph glyph-name="iacute" unicode="&#xed;" horiz-adv-x="880" 
d="M0 -170v890h880v-890h-880zM833 650h-786v-750h786v750zM693 0v240h-160v-240h-73v560h73v-230h160v230h67v-560h-67zM405 289q0 -128 -41 -205q-45 -84 -128 -84h-116v560h94q125 0 167 -121q24 -71 24 -150zM332 276q0 24 -2.5 47t-7.5 45q-12 54 -35 72q-22 19 -58 19
h-42v-358h33q35 0 55 11q26 15 40 56q17 54 17 108z" />
    <glyph glyph-name="icircumflex" unicode="&#xee;" horiz-adv-x="880" 
d="M0 -170v890h880v-890h-880zM833 650h-786v-750h786v750zM673 0v220h-133v-220h-100v550h100v-200h133v200h100v-550h-100zM388 286q0 -147 -27 -205q-38 -81 -112 -81h-142v550h149q34 0 63 -21q33 -22 48 -65q21 -56 21 -178zM292 270q0 162 -56 160l-29 -1v-308h33
q33 0 45 54q7 28 7 95z" />
    <glyph glyph-name="idieresis" unicode="&#xef;" 
d="M567 353q0 -172 -77 -294q-78 -122 -193 -122q-113 0 -192 117q-80 118 -80 287q0 170 78 289q77 119 190 119t194 -113q80 -115 80 -283zM423 593q-34 37 -57 50q-27 15 -65 15t-67 -16q-12 -6 -27 -17.5t-34 -28.5l125 -192zM507 339q0 29 -2.5 54t-7.5 47
q-5 17 -12.5 39.5t-19.5 51.5l-123 -185l123 -187q25 51 32 84q10 37 10 96zM129 531q-11 -28 -18.5 -51t-12.5 -40q-11 -47 -11 -100q0 -29 2.5 -53.5t7.5 -45.5q5 -19 13.5 -41t20.5 -47l128 191zM299 283l-126 -189q34 -37 56 -51q26 -14 64 -14q43 0 68 14q12 6 27 19
t33 32z" />
    <glyph glyph-name="eth" unicode="&#xf0;" 
d="M534 174q-5 -38 -7.5 -66t-2.5 -45q0 -11 1.5 -29t3.5 -44l7 -80q-63 18 -99 18q-53 0 -110 -39q4 29 11 51t16 37q19 31 57 42l-358 520l62 94l351 -532q6 55 24 85q17 31 52 50z" />
    <glyph glyph-name="ntilde" unicode="&#xf1;" horiz-adv-x="293" 
d="M265 284q0 -74 -33 -125q-34 -52 -83 -52t-82 51q-34 50 -34 126q0 103 69 159v267h94v-267q69 -56 69 -159z" />
    <glyph glyph-name="ograve" unicode="&#xf2;" 
d="M489 348q0 -126 -59 -215q-58 -88 -143 -88q-83 0 -140 92q-54 90 -54 215q2 122 59 202q57 82 138 82q82 0 141 -82q58 -85 58 -206z" />
    <glyph glyph-name="oacute" unicode="&#xf3;" 
d="M200 190v256q0 24 -10 43q-9 20 -25 20q-20 0 -40 -38q-25 -46 -25 -97v-184h-53v342l53 33v-79q26 40 38 54q25 28 48 28q30 0 49 -34q18 -35 18 -80v-264h-53zM547 377q0 -87 -26 -141q-30 -59 -87 -59t-87 57q-27 51 -27 138q0 85 28 141q31 63 85 63q55 0 86 -61
q28 -55 28 -138zM495 377q0 131 -60 131q-62 0 -62 -121q0 -64 10 -93q14 -44 50 -44q62 0 62 127z" />
    <glyph glyph-name="ocircumflex" unicode="&#xf4;" horiz-adv-x="293" 
d="M122 340v271q-32 -30 -65 -46v77q17 10 28.5 18.5t18.5 15.5q15 15 37 54h36v-390h-55zM13 250v50h267v-50h-267zM36 -180q6 56 32 100q9 15 23.5 33t35.5 38l36 36q30 31 30 65q0 27 -13 40q-14 15 -31 15q-47 0 -51 -67h-59q2 44 19 77q32 62 88 62q43 0 73 -31
q34 -34 34 -97q0 -72 -37 -109l-86 -87h123v-75h-217z" />
    <glyph glyph-name="otilde" unicode="&#xf5;" horiz-adv-x="293" 
d="M120 340v271q-31 -26 -67 -46v77q17 10 28.5 18.5t18.5 15.5q15 15 37 54h36v-390h-53zM13 250v50h267v-50h-267zM220 -90v-90h-53v90h-140v91l123 219h70v-240h47v-70h-47zM167 142l-92 -162h92v162z" />
    <glyph glyph-name="odieresis" unicode="&#xf6;" horiz-adv-x="293" 
d="M253 455q0 -61 -34 -91q-30 -25 -72 -25t-71 25q-36 30 -36 88v8h60v-9q0 -20 17 -32q13 -10 28 -10q48 0 48 55q0 46 -33 46h-27v70h28q32 0 32 39q0 25 -16 40q-14 12 -32 12q-38 0 -45 -51h-60q3 58 36 90q31 29 70 29q41 0 70 -25q37 -30 37 -85q0 -40 -39 -80
q39 -38 39 -94zM13 250v50h267v-50h-267zM220 -90v-90h-53v90h-140v91l123 219h70v-240h47v-70h-47zM167 142l-92 -162h92v162z" />
    <glyph glyph-name="divide" unicode="&#xf7;" horiz-adv-x="555" 
d="M448 0v121h-210v589h-127v-710h337zM-27 353q0 105 24 197.5t65 161t96.5 108.5t118.5 40t118.5 -40t97 -108.5t65.5 -161t24 -197.5t-24 -197.5t-65.5 -161t-97 -108.5t-118.5 -40t-118.5 40t-96.5 108.5t-65 161t-24 197.5z" />
    <glyph glyph-name="oslash" unicode="&#xf8;" horiz-adv-x="285" 
d="M267 330q0 -68 -37 -111q-35 -40 -82 -40q-46 0 -101 45q-5 5 -11.5 10t-11.5 10l28 62q60 -64 98 -64q27 0 46 23q20 23 20 61q0 49 -37 73l-73 45q-71 45 -71 131q0 64 38 104q32 35 78 35q60 0 110 -57l-30 -50q-21 24 -38 34q-20 10 -45 10q-65 0 -65 -72
q0 -41 34 -65q9 -6 23 -15t33 -21q43 -27 63 -55q31 -41 31 -93z" />
    <glyph glyph-name="uacute" unicode="&#xfa;" horiz-adv-x="500" 
d="M247 -75l-381 382l381 378l393 -375zM247 603l-297 -296l297 -297l306 299zM368 128l-89 426h-55l-88 -426h55l17 79h86l16 -79h58zM252 438l-30 -161h60z" />
    <glyph glyph-name="udieresis" unicode="&#xfc;" horiz-adv-x="500" 
d="M-27 353q0 105 24 197.5t65 161t96.5 108.5t118.5 40t118.5 -40t97 -108.5t65.5 -161t24 -197.5t-24 -197.5t-65.5 -161t-97 -108.5t-118.5 -40t-118.5 40t-96.5 108.5t-65 161t-24 197.5zM483 512q-1 76 -20 118q-24 51 -85 81q-26 11 -53.5 17.5t-58.5 6.5
q-110 0 -165 -67q-58 -65 -58 -186l-1 -171q-2 -90 12 -146q16 -74 75 -118q55 -43 127 -43q43 0 79 14q13 6 30 18t39 28l17 -47h62v379h-220v-127h79l-1 -31q-1 -50 -14 -72q-15 -28 -57 -28q-78 0 -78 122v256q0 33 23 59q25 25 56 25q29 0 48 -22q21 -21 23 -52l1 -14
h140z" />
    <glyph glyph-name="yacute" unicode="&#xfd;" horiz-adv-x="500" 
d="M-27 353q0 105 24 197.5t65 161t96.5 108.5t118.5 40t118.5 -40t97 -108.5t65.5 -161t24 -197.5t-24 -197.5t-65.5 -161t-97 -108.5t-118.5 -40t-118.5 40t-96.5 108.5t-65 161t-24 197.5zM466 512q0 120 -53 190q-51 65 -138 65q-191 0 -191 -303v-203q0 -240 97 -303
q28 -18 98 -25q2 -1 12 -1q109 0 159 125q25 62 25 140v36h-132v-40q0 -105 -60 -105q-37 0 -52 27q-14 26 -14 78v307q0 111 66 111q59 0 59 -88v-35l124 1v23z" />
    <glyph glyph-name="thorn" unicode="&#xfe;" horiz-adv-x="293" 
 />
    <glyph glyph-name="ydieresis" unicode="&#xff;" horiz-adv-x="500" 
d="M-27 353q0 105 24 197.5t65 161t96.5 108.5t118.5 40t118.5 -40t97 -108.5t65.5 -161t24 -197.5t-24 -197.5t-65.5 -161t-97 -108.5t-118.5 -40t-118.5 40t-96.5 108.5t-65 161t-24 197.5zM113 129q4 -11 9 -22.5t11 -24.5q27 -59 66 -84q31 -21 84 -21q67 0 117 59
q53 62 53 162q0 45 -15 92q-19 55 -62 92q-22 19 -83 50q-68 36 -68 90q0 31 15 48q15 18 37 18q27 0 48 -23q11 -12 34 -57l77 85l-22 44q-22 36 -61 58q-38 20 -73 20q-65 0 -110 -51q-50 -56 -50 -149q0 -160 164 -241q29 -15 43 -30q20 -23 20 -61q0 -35 -19 -54
q-17 -17 -40 -17q-33 0 -54 28q-13 17 -37 69z" />
    <glyph glyph-name="plus.001" horiz-adv-x="293" 
d="M255 620v-670h-40v670h-54v-670h-40v365q-45 20 -64 42q-44 53 -44 140q0 98 54 151q31 31 94 31l127 1v-60h-33z" />
    <glyph glyph-name="ydieresis.001" 
 />
    <glyph glyph-name="plus.002" horiz-adv-x="293" 
d="M167 435v-185h-41v185h-118v61h118v185h41v-185h119v-61h-119z" />
  </font>
</defs>
</svg>
