<?xml version="1.0" standalone="no"?>
<!DOCTYPE svg PUBLIC "-//W3C//DTD SVG 1.1//EN" "http://www.w3.org/Graphics/SVG/1.1/DTD/svg11.dtd" >
<svg xmlns="http://www.w3.org/2000/svg">
<metadata></metadata>
<defs>
<font id="paddockextbold" horiz-adv-x="1802" >
<font-face units-per-em="2048" ascent="1638" descent="-410" />
<missing-glyph horiz-adv-x="450" />
<glyph horiz-adv-x="2048" />
<glyph horiz-adv-x="2048" />
<glyph unicode="&#xd;" horiz-adv-x="2048" />
<glyph unicode=" "  horiz-adv-x="450" />
<glyph unicode="&#x09;" horiz-adv-x="450" />
<glyph unicode="&#xa0;" horiz-adv-x="450" />
<glyph unicode="!" horiz-adv-x="798" d="M225 0v328h328v-328h-328zM225 1454h353l-64 -942h-231z" />
<glyph unicode="&#x22;" horiz-adv-x="0" />
<glyph unicode="#" horiz-adv-x="901" d="M344 76q0 44 31 80q28 32 78 32t75 -32q31 -36 31 -80t-31 -80q-30 -35 -75 -35q-49 0 -78 33q-31 36 -31 82z" />
<glyph unicode="$" horiz-adv-x="901" d="M43 373l2 36v3v39h227q-2 -14 -2 -56q0 -80 25 -119q24 -38 100 -59v416q-179 95 -250 172q-102 111 -102 276q0 204 145 310q68 51 207 63v102h105v-102q204 -3 297 -151q51 -80 51 -207v-31h-227q0 12 2 20v21q0 130 -123 151v-383q122 -72 215 -141q151 -115 151 -330 q0 -168 -100 -280q-101 -113 -266 -125v-264h-105v264q-160 15 -258 113q-94 98 -94 262zM270 1102q0 -67 35 -105q21 -24 90 -67v325q-125 -9 -125 -153zM500 217q68 29 92 59q29 37 29 101q0 133 -121 201v-361z" />
<glyph unicode="%" d="M78 1034q-3 164 112 279q114 117 279 117q160 0 274 -111q113 -113 113 -272q0 -160 -115 -269q-114 -108 -274 -108q-159 0 -272 104q-114 105 -117 260zM297 1057q0 -72 47 -131q51 -60 123 -60q77 0 129 52q55 52 55 126q0 80 -53 136q-51 57 -133 57q-72 0 -119 -53 q-49 -55 -49 -127zM379 -246l881 1721h157l-891 -1721h-147zM942 168q-3 167 111 281t280 114q160 0 273 -110q114 -111 114 -271t-114 -268q-115 -109 -275 -109q-155 0 -270 103q-116 104 -119 260zM1157 188q0 -74 47 -133q45 -57 121 -57q78 0 129 51q55 52 55 127 q0 79 -53 135q-52 58 -133 58q-71 0 -119 -54q-47 -56 -47 -127z" />
<glyph unicode="&#x26;" horiz-adv-x="1474" d="M84 453q0 211 154 356q58 55 163 100q-90 166 -90 269q0 156 119 241q107 76 268 76q166 0 263 -72q108 -79 108 -239q0 -125 -90 -221q-43 -46 -193 -150q108 -169 224 -297q74 120 125 287l264 -92q-36 -125 -80 -203l-49 -88l-62 -119q88 -16 185 -16v-305 q-21 -3 -64 -3q-111 0 -178 25q-74 31 -156 102q-118 -74 -188 -98q-79 -26 -211 -26q-314 0 -451 241q-61 107 -61 232zM389 483q0 -101 66 -170t170 -69q86 0 166 57q-162 176 -267 401q-135 -91 -135 -219zM575 1202q0 -81 82 -188q164 80 164 180q0 115 -123 115 q-46 0 -86 -29q-37 -30 -37 -78z" />
<glyph unicode="'" horiz-adv-x="573" d="M115 801l135 346h-123v321h328v-333l-168 -334h-172z" />
<glyph unicode="(" horiz-adv-x="901" d="M152 600q0 186 59 383q57 195 151 358q30 51 87 134h305q-157 -245 -219 -404q-76 -198 -76 -450q0 -270 80 -480q64 -174 235 -428h-303q-150 216 -215 379q-104 259 -104 508z" />
<glyph unicode=")" horiz-adv-x="901" d="M147 -289q189 265 246 420q72 190 72 477t-66 467q-61 166 -249 400h315q172 -250 233 -420q72 -201 72 -473q0 -253 -78 -459q-61 -159 -221 -412h-324z" />
<glyph unicode="*" horiz-adv-x="901" d="M92 1106l55 223l283 -162l-74 308h228l-70 -308l283 168l53 -209l-295 -28l238 -228l-181 -135l-141 324l-117 -322l-186 117l244 246z" />
<glyph unicode="+" horiz-adv-x="901" d="M39 1014q0 178 117 280q111 99 290 99h437v-123h-103v-1372h-123v1372h-163v-1372h-123v764q-169 30 -246 104q-86 83 -86 248z" />
<glyph unicode="," horiz-adv-x="450" d="M82 -348l131 348h-127v328h326l-2 -340l-164 -336h-164z" />
<glyph unicode="-" horiz-adv-x="1024" d="M61 410v204h922v-204h-922z" />
<glyph unicode="." horiz-adv-x="450" d="M82 0v328h328v-328h-328z" />
<glyph unicode="/" horiz-adv-x="675" d="M20 -225l429 1720h219l-426 -1720h-222z" />
<glyph unicode="0" horiz-adv-x="901" d="M59 518v475q0 325 191 457q97 66 209 66q191 0 299 -150q98 -134 98 -332l2 -549q3 -508 -401 -508q-398 0 -398 541zM328 406q0 -201 131 -201q133 0 133 209v659q0 219 -129 219q-135 0 -135 -202v-684z" />
<glyph unicode="1" horiz-adv-x="901" d="M205 981v248q102 28 180 100q66 62 127 166h184v-1495h-266v1104q-62 -72 -96 -92q-43 -28 -129 -31z" />
<glyph unicode="2" horiz-adv-x="901" d="M41 0q0 240 78 375q56 95 147 209l185 225q102 126 102 281q0 180 -113 180q-114 0 -114 -144q0 -31 2 -41h-267q-2 14 -2 70q0 148 119 246q113 90 262 90q166 0 285 -113q117 -114 117 -280q0 -220 -252 -496l-144 -158q-96 -110 -124 -198h518v-246h-799z" />
<glyph unicode="3" horiz-adv-x="901" d="M61 369h269v-11q0 -157 127 -157q137 0 137 176v106q0 121 -51 166q-52 49 -172 49q-33 0 -43 -2v205q10 -2 41 -2q85 0 141 41q63 45 63 127v94q0 52 -34 92q-36 39 -90 39q-92 0 -119 -125h-269q65 351 383 351q174 0 285 -99q115 -103 115 -276q0 -129 -39 -197 q-35 -65 -139 -147q191 -110 194 -297l2 -125q3 -171 -117 -285q-118 -112 -292 -112q-114 0 -211 51q-109 56 -148 155q-30 73 -33 183z" />
<glyph unicode="4" horiz-adv-x="901" d="M31 369v260l409 864h326v-901h125v-223h-125v-367h-272v367h-463zM229 592h265v594z" />
<glyph unicode="5" horiz-adv-x="901" d="M63 369h279q0 -164 119 -164q135 0 135 217v133q0 83 -31 143q-41 78 -114 78q-62 0 -109 -80h-240l23 820h694v-267h-477v-303q94 55 164 55q155 0 260 -129q96 -122 96 -280v-170q0 -116 -51 -221q-54 -117 -143 -170q-86 -51 -207 -51q-181 0 -289 102 q-106 103 -109 287z" />
<glyph unicode="6" horiz-adv-x="901" d="M61 1073q0 226 105 334q126 129 301 129q151 0 258 -98q106 -100 106 -250v-21h-258q-12 142 -116 142q-56 0 -92 -39q-37 -40 -37 -94v-318q91 66 180 66q90 0 170 -45q85 -48 121 -121q47 -100 47 -271q0 -350 -191 -458q-88 -49 -190 -49q-186 0 -297 129 q-105 123 -105 311zM330 352q0 -58 28 -100q30 -47 88 -47q61 0 99 65q30 52 30 119v156q0 59 -30 108q-37 58 -92 58q-58 0 -123 -86v-273z" />
<glyph unicode="7" horiz-adv-x="901" d="M61 1208v267h801v-207q-138 -292 -282 -824q-56 -206 -129 -444h-273q108 378 189 627q64 197 213 581h-519z" />
<glyph unicode="8" horiz-adv-x="901" d="M66 328v184q0 95 53 166q39 54 131 123q-86 63 -125 117q-47 64 -47 161v121q0 142 108 227q101 82 246 82q165 0 268 -69q121 -83 121 -238v-133q0 -91 -49 -158q-33 -48 -121 -114q100 -62 137 -107q58 -67 58 -160v-200q0 -73 -45 -158q-47 -82 -111 -129 q-94 -66 -241 -66q-154 0 -271 97q-112 97 -112 254zM334 319q0 -53 35 -94t88 -41q55 0 88 39q35 41 35 92v248q0 51 -35 92t-88 41q-55 0 -88 -39q-35 -41 -35 -92v-246zM334 1022q0 -50 33 -86q34 -37 84 -37q44 0 75 31q33 29 33 76v178q0 44 -29 88q-26 39 -75 39 q-52 0 -86 -37q-35 -38 -35 -90v-162z" />
<glyph unicode="9" horiz-adv-x="901" d="M53 995q0 154 17 234q27 120 116 194q115 95 271 95q247 0 352 -242q49 -113 49 -240v-530q0 -143 -45 -270q-56 -150 -162 -211q-86 -50 -215 -50q-244 0 -330 177q-35 72 -47 194h279q3 -151 111 -151q120 0 120 211v225q-103 -62 -182 -62q-89 0 -168 49 q-82 49 -117 127q-49 113 -49 250zM319 1059q0 -260 142 -260q67 0 110 82v284q0 48 -32 86q-33 39 -80 39q-140 0 -140 -231z" />
<glyph unicode=":" horiz-adv-x="675" d="M164 0v328h328v-328h-328zM164 614v328h328v-328h-328z" />
<glyph unicode=";" horiz-adv-x="675" d="M168 0v328h328v-346l-168 -330h-160l127 348h-127zM168 614v328h328v-328h-328z" />
<glyph unicode="&#x3c;" d="M0 0v143h1802v-143h-1802z" />
<glyph unicode="=" horiz-adv-x="901" d="M0 451v184h901v-184h-901z" />
<glyph unicode="&#x3e;" d="M0 451v184h1802v-184h-1802z" />
<glyph unicode="?" horiz-adv-x="1024" d="M82 1198q61 104 108 154q64 70 156 98q83 27 166 27q176 0 285 -74q125 -85 125 -254q0 -114 -103 -217l-125 -123q-76 -73 -76 -270v-29h-266q-8 57 -8 121q0 170 166 360q96 113 96 166q0 90 -102 90q-70 0 -111 -53q-17 -22 -55 -119zM307 0v328h328v-328h-328z" />
<glyph unicode="@" d="M106 616q0 331 209 560q115 126 310 206q185 72 366 72q191 0 363 -90q186 -100 264 -260q70 -140 70 -334q0 -198 -117 -364q-130 -183 -320 -183q-189 0 -223 125h-29q-102 -123 -237 -123q-120 0 -201 84q-82 82 -82 205q0 125 76 244q77 121 184 182q77 45 174 45 q87 0 134 -35q45 -34 73 -121l56 134h202l-131 -465q-14 -49 -14 -82q0 -68 57 -68q54 0 131 68q144 126 144 352q0 250 -168 399q-164 144 -414 144q-312 0 -510 -201q-201 -201 -201 -508q0 -180 54 -297q56 -121 194 -229q150 -117 424 -117q278 0 451 102q94 55 123 76 l12 8l59 -77q-199 -142 -329 -183q-159 -51 -326 -51q-232 0 -430 94q-227 106 -320 291q-78 153 -78 397zM741 465q0 -119 84 -119q96 0 154 125q72 153 72 274q0 45 -21 86q-27 50 -69 50q-94 0 -164 -168q-56 -136 -56 -248z" />
<glyph unicode="A" horiz-adv-x="1372" d="M82 0l426 1454h399l398 -1454h-330l-53 266l-441 -2l-71 -264h-328zM551 553h297l-125 500v73h-41v-71z" />
<glyph unicode="B" horiz-adv-x="1372" d="M184 0v1454h574q183 0 297 -102q116 -104 116 -285q0 -221 -180 -309q103 -67 150 -137q53 -77 53 -193q0 -142 -37 -223q-45 -97 -156 -160q-74 -45 -163 -45h-654zM514 223h96q256 0 256 205q0 109 -59 150q-49 34 -164 34h-129v-389zM516 860h150q83 0 129 49 q47 50 47 131q0 166 -183 166h-143v-346z" />
<glyph unicode="C" horiz-adv-x="1249" d="M123 563v375q0 557 500 557q228 0 362 -119q141 -126 141 -350v-43l-327 -2v66q0 161 -156 161q-172 0 -172 -204v-566q0 -97 37 -143q42 -51 135 -51q160 0 160 194v74h344v-68q0 -141 -66 -258q-131 -229 -415 -229q-25 0 -33 2q-186 12 -256 45q-254 117 -254 559z " />
<glyph unicode="D" horiz-adv-x="1372" d="M184 0v1454h475q262 0 402 -143q143 -143 143 -404v-315q0 -280 -94 -420q-114 -172 -377 -172h-549zM512 268h135q211 0 211 250v373q0 297 -235 297h-111v-920z" />
<glyph unicode="E" horiz-adv-x="1372" d="M184 0v1454h1004v-287h-676v-266h471v-287h-471v-327h676v-287h-1004z" />
<glyph unicode="F" horiz-adv-x="1249" d="M184 0v1454h963v-287h-635v-266h430v-287h-430v-614h-328z" />
<glyph unicode="G" horiz-adv-x="1372" d="M184 621l2 360q0 252 133 391q132 141 383 141q137 0 261 -51q142 -62 196 -170q40 -81 49 -248h-327l-2 29q-6 65 -52 111q-45 45 -112 45q-76 0 -127 -51q-56 -53 -56 -125v-541q0 -256 181 -256q97 0 133 59q28 48 31 152l2 65h-183v267h512v-799h-145l-41 100 q-98 -73 -160 -96q-79 -31 -182 -31q-164 0 -295 90q-136 92 -174 250q-27 117 -27 308z" />
<glyph unicode="H" horiz-adv-x="1474" d="M205 0v1454h327v-553h431v553h327v-1454h-327v614h-431v-614h-327z" />
<glyph unicode="I" horiz-adv-x="798" d="M61 0v184h164v1086h-164v184h676v-184h-164v-1086h164v-184h-676z" />
<glyph unicode="J" horiz-adv-x="1024" d="M82 406v65h287v-133q0 -113 92 -113t92 111v1118h348v-1051q0 -151 -63 -268q-94 -178 -346 -178q-220 0 -320 115q-90 110 -90 334z" />
<glyph unicode="K" horiz-adv-x="1372" d="M143 0v1454h328v-668l436 668h383l-471 -676l518 -778h-389l-477 731v-731h-328z" />
<glyph unicode="L" horiz-adv-x="1249" d="M184 0v1454h328v-1167h655v-287h-983z" />
<glyph unicode="M" d="M205 0v1454h446l252 -897l244 897h450v-1454h-307l2 1092l-282 -1092h-228l-290 1130v-1130h-287z" />
<glyph unicode="N" horiz-adv-x="1474" d="M205 0v1454h323l435 -801v801h307v-1454h-283l-475 881v-881h-307z" />
<glyph unicode="O" horiz-adv-x="1249" d="M123 547l2 450q0 230 135 377q137 146 365 146q517 0 520 -516l2 -457v-10q0 -349 -217 -480q-133 -80 -293 -80q-253 0 -389 160q-125 149 -125 410zM467 436q0 -72 49 -121q48 -51 121 -51q68 0 113 51t45 121v590q0 80 -47 139q-48 60 -125 60q-71 0 -117 -70 q-39 -56 -39 -135v-584z" />
<glyph unicode="P" horiz-adv-x="1372" d="M184 0v1454h480q253 0 391 -106q157 -121 157 -363q0 -151 -84 -276q-83 -123 -227 -164q-115 -31 -233 -31h-156v-514h-328zM512 778h111q241 0 241 199q0 206 -233 209l-119 2v-410z" />
<glyph unicode="Q" horiz-adv-x="1249" d="M61 424v616q0 223 140 351q131 122 358 122q224 0 363 -124q143 -125 143 -342v-619q0 -111 -33 -178q73 -46 156 -49v-322q-12 -2 -53 -2q-190 0 -263 174q-186 -82 -327 -82q-207 0 -344 125q-140 128 -140 330zM410 401q0 -57 47 -98q45 -39 108 -39q29 0 90 25v78 q-59 24 -102 67v262h72q46 -62 108 -82v459q0 68 -49 111q-48 45 -117 45q-61 0 -108 -41q-49 -40 -49 -103v-684z" />
<glyph unicode="R" horiz-adv-x="1372" d="M182 0l2 1454l457 -2q137 0 207 -12q117 -21 186 -78q158 -134 158 -346q0 -179 -59 -262q-61 -82 -234 -129l326 -625h-365l-272 573h-76l-2 -573h-328zM510 803h121q211 0 211 207q0 180 -156 180h-176v-387z" />
<glyph unicode="S" horiz-adv-x="1249" d="M72 295l262 166q74 -107 117 -144q68 -59 165 -59q75 0 127 37q60 45 60 113q0 78 -64 127q-43 32 -135 61q-512 172 -512 502q0 192 158 311q140 104 342 104q114 0 227 -40q127 -47 195 -121q37 -46 67 -90l-239 -179q-79 99 -109 119q-62 47 -149 47q-66 0 -115 -37 t-49 -100q0 -110 217 -186q193 -68 258 -105q132 -74 192 -190q48 -92 48 -193q0 -206 -164 -338q-153 -123 -365 -123q-162 0 -266 46q-125 55 -205 174q-33 46 -63 98z" />
<glyph unicode="T" horiz-adv-x="1249" d="M102 1167v287h1065v-287h-368v-1167h-307v1167h-390z" />
<glyph unicode="U" horiz-adv-x="1474" d="M205 461v993l330 -2l-3 -975q0 -84 54 -147q55 -64 139 -64q92 0 156 76q59 71 59 166v944l330 2v-917q0 -557 -533 -557q-242 0 -381 118q-151 130 -151 363z" />
<glyph unicode="V" horiz-adv-x="1372" d="M45 1456h352l281 -1020l283 1020h342l-431 -1456h-376z" />
<glyph unicode="W" horiz-adv-x="1925" d="M82 1454h309l209 -969l221 969h291l221 -948l209 948h293l-344 -1454h-301l-223 940l-215 -940h-310z" />
<glyph unicode="X" horiz-adv-x="1372" d="M82 0l416 772l-402 682h346l256 -442l236 442h375l-410 -682l422 -772h-354l-269 518l-256 -518h-360z" />
<glyph unicode="Y" horiz-adv-x="1372" d="M72 1454h358l262 -534l271 534h354l-457 -901v-553h-328v567z" />
<glyph unicode="Z" horiz-adv-x="1249" d="M109 0v256l630 911h-579v287h1003v-233l-622 -934h622v-287h-1054z" />
<glyph unicode="[" horiz-adv-x="901" d="M143 -287v1721h594v-164h-327v-1393h327v-164h-594z" />
<glyph unicode="\" horiz-adv-x="450" d="M164 -451v2048h102v-2048h-102z" />
<glyph unicode="]" horiz-adv-x="901" d="M164 -123h328v1393h-328v164h594v-1721h-594v164z" />
<glyph unicode="^" horiz-adv-x="901" d="M82 911v258l332 -71l-90 377h274l-90 -377l332 71v-258l-330 76q25 -121 82 -268q-69 -411 -84 -762h-98q-12 361 -88 760q61 139 90 270z" />
<glyph unicode="_" horiz-adv-x="901" d="M61 236v280l353 -110q-41 146 -101 319q53 128 90 254l-342 -84v254l332 -70l-84 396h283l-84 -396l328 90v-272l-342 90q22 -132 77 -262q-34 -120 -73 -313l342 104v-280l-332 75l80 -372h-275l80 372z" />
<glyph unicode="`" d="M348 88q0 43 29 80q29 33 78 33q48 0 77 -33q31 -36 31 -80t-31 -80q-30 -35 -77 -35t-76 33q-31 36 -31 82zM1243 88q0 44 31 80q29 33 78 33t78 -33q30 -35 30 -80t-30 -80t-78 -35q-49 0 -78 33q-31 36 -31 82z" />
<glyph unicode="a" horiz-adv-x="1024" d="M39 281q0 238 233 346q110 49 301 69v86q0 52 -51 78q-40 21 -96 21q-111 0 -231 -105l-142 172q102 76 174 101q109 36 236 36q397 0 397 -297l2 -479q0 -61 10 -84q15 -28 72 -37v-188q-61 -20 -96 -20q-107 0 -227 126q-144 -129 -289 -129q-139 0 -215 82 q-78 84 -78 222zM328 305q0 -106 100 -106q145 0 145 217v116q-103 -3 -174 -65t-71 -162z" />
<glyph unicode="b" horiz-adv-x="1024" d="M102 0v1475h287v-512h33q113 122 258 122q285 0 285 -417v-250q0 -173 -62 -291q-81 -152 -235 -152q-153 0 -279 156v-131h-287zM389 340q0 -29 53 -64q52 -34 86 -34q131 0 131 209v219q0 190 -108 190q-52 0 -162 -88v-432z" />
<glyph unicode="c" horiz-adv-x="901" d="M61 383v301q0 187 103 305q105 117 291 117q167 0 272 -96q113 -101 113 -265v-8h-246q-14 62 -37 88q-26 33 -86 33q-81 0 -109 -78q-16 -41 -16 -147v-170q0 -250 121 -250q113 0 113 137v19h260q0 -97 -9 -138q-11 -60 -61 -122q-107 -132 -307 -132q-103 0 -191 39 q-103 44 -149 119q-62 95 -62 248z" />
<glyph unicode="d" horiz-adv-x="1024" d="M61 330v395q0 149 50 244q65 123 200 123q151 0 303 -131v514h287v-1475h-287v109q-15 -12 -20 -17q-84 -69 -117 -88q-56 -29 -137 -29q-137 0 -213 113q-66 101 -66 242zM369 389q0 -79 14 -104q21 -41 90 -41q68 0 141 73v451q-90 90 -145 90q-100 0 -100 -143v-326z " />
<glyph unicode="e" horiz-adv-x="1024" d="M123 418v274q0 253 151 348q111 66 232 66q130 0 219 -57q98 -59 137 -177q39 -116 39 -331v-70h-512q-4 -66 -4 -70q0 -90 49 -145q52 -55 139 -55q122 0 281 84l47 -226q-210 -79 -344 -79q-120 0 -221 43q-119 52 -166 147q-47 100 -47 248zM389 655h266v93 q0 59 -41 106q-44 47 -104 47q-53 0 -88 -47q-33 -44 -33 -104v-95z" />
<glyph unicode="f" horiz-adv-x="675" d="M0 840v225h164v166q0 244 334 244h157v-228h-96q-78 0 -98 -57q-10 -30 -10 -125h204v-225h-204v-840h-287v840h-164z" />
<glyph unicode="g" horiz-adv-x="1024" d="M82 291v450q0 138 70 226q76 98 208 98q178 0 295 -197v176h267l-2 -985q0 -220 -121 -335t-342 -115q-159 0 -262 86q-44 38 -93 92l174 125q88 -98 181 -98q98 0 139 47q39 45 39 151v133q-179 -147 -279 -147q-118 0 -194 88q-80 89 -80 205zM389 338q0 -94 98 -94 q66 0 146 71v392q-82 73 -135 73q-109 0 -109 -123v-319z" />
<glyph unicode="h" horiz-adv-x="1024" d="M102 0v1475h287v-557q179 167 307 167q118 0 185 -94q61 -85 61 -205v-786h-287v674q0 141 -100 141q-67 0 -166 -108v-707h-287z" />
<glyph unicode="i" horiz-adv-x="573" d="M143 0v1065h287v-1065h-287zM143 1229v266h287v-266h-287z" />
<glyph unicode="j" horiz-adv-x="573" d="M-41 -102q12 -2 55 -2q80 0 115 30t35 111v1028h287v-1088q0 -111 -21 -170q-30 -83 -113 -124q-101 -52 -258 -52q-54 0 -100 19v248zM164 1229v266h287v-266h-287z" />
<glyph unicode="k" horiz-adv-x="1024" d="M82 0v1475h289v-887l243 477h318l-268 -477l325 -588h-325l-293 567v-567h-289z" />
<glyph unicode="l" horiz-adv-x="573" d="M143 0v1475h287v-1475h-287z" />
<glyph unicode="m" horiz-adv-x="1597" d="M102 0v1065h267v-174q105 114 135 135q80 59 174 59q89 0 149 -51q64 -54 78 -139q168 192 322 192q140 0 209 -106q59 -89 59 -236v-745h-287v700q0 48 -24 82q-27 37 -72 37q-70 0 -170 -112v-707h-287v727q0 40 -28 68q-26 26 -70 26q-69 0 -168 -114v-707h-287z" />
<glyph unicode="n" horiz-adv-x="1024" d="M102 0v1065h267v-170l57 57q78 78 106 95q55 38 136 38q130 0 206 -108q68 -95 68 -232v-745h-307v731q0 84 -68 84q-77 0 -149 -78q-27 -27 -27 -75l-2 -662h-287z" />
<glyph unicode="o" horiz-adv-x="1024" d="M84 473v180q0 455 426 455q434 0 434 -438v-207q0 -490 -422 -490q-438 0 -438 500zM389 346q0 -52 33 -88q34 -37 84 -37q54 0 92 35q39 33 39 90v404q0 51 -35 92q-38 41 -90 41q-53 0 -86 -39q-37 -40 -37 -94v-404z" />
<glyph unicode="p" horiz-adv-x="1024" d="M102 -389v1454h267v-172q2 2 11 13.5t17 19.5q70 81 117 112q71 47 154 47q82 0 149 -49q67 -52 94 -129q33 -90 33 -237v-246q0 -287 -67 -363q-29 -34 -91 -59q-64 -25 -110 -25q-140 0 -287 150v-516h-287zM389 332q0 -49 45 -78q44 -33 92 -33q133 0 133 170l-2 256 q0 63 -24 109q-30 59 -88 59q-39 0 -103 -49l-53 -41v-393z" />
<glyph unicode="q" horiz-adv-x="1024" d="M82 317v408q0 139 65 242q75 118 211 118q89 0 172 -59q73 -50 125 -137v176h267v-1454h-287v520q-3 -3 -22 -21t-33 -32q-59 -59 -99 -78q-51 -23 -123 -23q-276 0 -276 340zM367 428q0 -94 14 -135q25 -72 98 -72q62 0 156 70v436q0 25 -62 49q-64 27 -94 27 q-112 0 -112 -152v-223z" />
<glyph unicode="r" horiz-adv-x="798" d="M102 0v1065h267v-215q113 146 153 174q68 48 174 63v-368q-142 -15 -307 -88v-631h-287z" />
<glyph unicode="s" horiz-adv-x="798" d="M41 117l137 186q120 -117 221 -117q99 0 99 78q0 48 -41 78q-33 23 -82 45q-30 13 -94 49q-85 48 -123 76q-115 83 -115 242q0 151 111 245q103 86 258 86q151 0 313 -110l-121 -182q-122 67 -201 67q-98 0 -98 -59q0 -47 72 -88q1 -1 13.5 -6t40 -16.5t58.5 -24.5 q275 -115 275 -357q0 -87 -43 -166q-46 -81 -121 -118q-98 -48 -227 -48q-107 0 -180 31q-69 30 -152 109z" />
<glyph unicode="t" horiz-adv-x="675" d="M20 840v225h144v369h287v-369h184v-225h-184v-498q0 -71 26 -94q28 -25 101 -25q3 0 57 4v-225q-99 -22 -172 -22q-92 0 -166 45q-77 47 -104 129q-29 89 -29 206v480h-144z" />
<glyph unicode="u" horiz-adv-x="1024" d="M102 319v746h287v-733q0 -88 98 -88q47 0 95 26q51 26 51 68l2 727h307v-1065h-287v156q-59 -88 -114 -129q-71 -50 -164 -50q-143 0 -213 105q-62 89 -62 237z" />
<glyph unicode="v" horiz-adv-x="901" d="M20 1065h289l154 -561l131 561h291l-295 -1065h-268z" />
<glyph unicode="w" horiz-adv-x="1474" d="M72 1065h264l151 -598l152 598h221l156 -598l149 598h256l-301 -1065h-209l-161 631l-175 -631h-210z" />
<glyph unicode="x" horiz-adv-x="1024" d="M61 0l301 541l-286 524h305l137 -287l133 287h301l-278 -520l303 -545h-297l-160 285l-147 -285h-312z" />
<glyph unicode="y" horiz-adv-x="901" d="M18 -80q38 -6 78 -6q213 0 213 168q0 42 -84 317l-207 666h285l152 -512l123 512h288l-297 -1069q-7 -32 -20 -72q-37 -117 -125 -190q-93 -78 -213 -78q-84 0 -193 33v231z" />
<glyph unicode="z" horiz-adv-x="901" d="M82 0v186l416 674h-396v205h738v-184l-416 -676h416v-205h-758z" />
<glyph unicode="{" horiz-adv-x="573" d="M123 778v324l166 332h166l-131 -349h127v-307h-328z" />
<glyph unicode="|" horiz-adv-x="573" d="M115 801l135 346h-123v321h328v-333l-168 -334h-172z" />
<glyph unicode="&#xa4;" horiz-adv-x="901" d="M86 678q0 104 37 168q34 55 125 119q-78 44 -111 92q-33 47 -33 133q0 142 95 219q85 70 233 70q145 0 240 -74q102 -79 102 -221q0 -123 -139 -232q89 -66 115 -112q38 -61 38 -156q0 -147 -100 -240q-101 -98 -248 -98q-150 0 -254 90q-100 87 -100 242zM279 682 q0 -70 47 -123t116 -53q73 0 119 55q47 56 47 129q0 72 -45 133q-46 58 -121 58q-71 0 -118 -62q-45 -60 -45 -137zM281 1184q0 -68 45 -113q46 -49 110 -49q60 0 107 41q45 39 45 102q0 68 -43 117q-46 49 -113 49q-62 0 -106 -41q-45 -42 -45 -106z" />
<glyph unicode="&#xa5;" horiz-adv-x="901" d="M127 684v420q0 165 88 266q89 105 252 105q110 0 199 -62q92 -64 118 -166q21 -76 21 -180v-387q0 -146 -94 -240t-242 -94q-152 0 -246 94q-96 96 -96 244zM311 713q0 -77 37 -135q44 -68 115 -68q74 0 115 53q40 52 40 129v447q0 68 -36 116q-44 56 -107 56 q-70 0 -115 -54q-47 -53 -47 -124z" />
<glyph unicode="&#xa6;" horiz-adv-x="901" d="M246 1085v168q166 57 272 222h137v-1106h-184v843q-95 -86 -225 -127z" />
<glyph unicode="&#xa7;" horiz-adv-x="901" d="M123 369v47q0 92 49 174q38 58 119 139l250 252q75 75 75 176q0 69 -38 113q-39 45 -111 45q-139 0 -160 -168h-182v31q0 137 104 219q96 78 234 78q150 0 244 -82q96 -84 96 -230q0 -183 -135 -297l-193 -164q-74 -62 -117 -149h441v-184h-676z" />
<glyph unicode="&#xa8;" horiz-adv-x="901" d="M100 635h176q3 -68 48 -107t114 -39q76 0 119 52t43 129q0 170 -176 170h-117v164h99q190 0 190 157q0 66 -47 107q-46 43 -113 43q-104 0 -151 -103h-183v13q0 103 115 174q101 61 209 61q154 0 240 -63q104 -73 104 -215q0 -93 -39 -146q-32 -43 -121 -96 q99 -68 133 -115q50 -68 50 -166q0 -143 -107 -231q-98 -82 -246 -82q-123 0 -213 53q-108 61 -123 172q-4 20 -4 68z" />
<glyph unicode="&#xa9;" horiz-adv-x="901" d="M82 635v166l416 674h219v-697h123v-143h-123v-266h-185v266h-450zM244 778h288l3 506l-289 -471z" />
<glyph unicode="&#xaa;" horiz-adv-x="901" d="M129 625v8h205v-29q0 -115 121 -115q77 0 123 76q36 62 36 148q0 211 -165 211q-75 0 -150 -84h-135l45 635h555v-185h-410l-18 -264q83 59 160 59q145 0 229 -112q80 -106 80 -252q0 -229 -154 -318q-94 -55 -207 -55q-129 0 -219 72q-96 78 -96 205z" />
<glyph unicode="&#xab;" horiz-adv-x="901" d="M102 803v223q0 274 146 383q82 61 194 61q121 0 224 -77q109 -83 112 -205h-184q-58 125 -145 125q-162 0 -162 -269q0 -66 2 -86q115 68 207 68q137 0 219 -94q84 -96 84 -232q0 -89 -39 -168q-42 -85 -111 -133q-80 -53 -203 -53q-180 0 -270 146q-74 121 -74 311z M285 698q0 -82 41 -135q46 -61 123 -61q74 0 114 55q43 55 43 131q0 193 -157 193q-76 0 -119 -52q-45 -51 -45 -131z" />
<glyph unicode="&#xac;" horiz-adv-x="901" d="M119 1348v170h676v-142l-355 -962h-213l391 934h-499z" />
<glyph unicode="&#xad;" horiz-adv-x="1024" d="M61 410v204h922v-204h-922z" />
<glyph unicode="&#xae;" horiz-adv-x="901" d="M98 1112q0 160 92 260q91 98 252 98q355 0 355 -507v-132q0 -203 -82 -331q-95 -154 -287 -154q-105 0 -184 55q-82 58 -109 156q-9 38 -16 76h182q18 -65 47 -94q32 -29 92 -29q97 0 131 70q23 51 23 159q0 80 -2 107q-126 -72 -205 -72q-135 0 -215 105q-74 95 -74 233 zM283 1124q0 -79 36 -135q44 -65 117 -65q78 0 117 57q43 58 43 135q0 195 -156 195q-77 0 -116 -54q-41 -53 -41 -133z" />
<glyph unicode="&#xb0;" d="M102 1110v176q95 36 150 72q55 40 127 117h123v-986h-203v717q-88 -68 -197 -96zM299 -225l889 1700h143l-885 -1700h-147zM1008 57q0 83 39 142q25 39 102 106q-125 101 -125 211q0 126 102 197q86 63 220 63q132 0 223 -63q104 -73 104 -199q0 -66 -39 -119 q-24 -31 -90 -90q79 -60 107 -104q41 -62 41 -142q0 -129 -107 -211q-97 -75 -231 -75q-141 0 -238 69q-108 77 -108 215zM1219 84q0 -64 32 -104q34 -43 97 -43q62 0 96 40q35 41 35 105q0 59 -35 100q-34 43 -94 43q-57 0 -95 -41q-36 -39 -36 -100zM1221 498 q0 -48 34 -82q36 -33 86 -33t89 33q40 34 40 80q0 52 -34 86q-35 32 -90 32q-54 0 -89 -32q-36 -33 -36 -84z" />
<glyph unicode="&#xb1;" d="M61 522v92h1680v-92h-1680zM193 98v166q103 26 161 64q54 33 119 123h150v-822h-205v555q-103 -65 -225 -86zM522 899v21l223 2q21 -82 129 -82q51 0 93 26q45 26 45 74q0 84 -94 84h-70v145l59 -2q36 0 60 27q24 30 24 68q0 90 -108 90q-93 0 -158 -103h-182 q0 123 114 189q96 57 226 57q129 0 211 -43q106 -54 106 -172q0 -52 -26 -94q-14 -24 -66 -80q111 -102 111 -188q0 -118 -113 -179q-88 -49 -219 -49q-213 0 -307 101q-58 58 -58 108zM911 20q0 429 369 429q96 0 186 -41q104 -48 131 -129q7 -20 9 -54h-211q-16 49 -49 58 q-18 6 -80 6q-136 0 -136 -144q0 -5 2 -22t3 -27q109 41 184 41q115 0 203 -65q100 -72 100 -181q0 -127 -104 -200q-92 -64 -226 -64q-262 0 -338 174q-43 98 -43 219zM1135 -109q0 -98 127 -98q141 0 141 107q0 100 -129 100q-48 0 -94 -27q-45 -29 -45 -82z" />
<glyph unicode="&#xb2;" d="M102 1098v188q98 21 156 64q44 33 119 123h135v-1002h-215v715q-88 -64 -195 -88zM297 -225l893 1698h147l-880 -1698h-160zM963 0v195l378 563h277v-594h102v-164h-102v-225h-205v225h-450zM1110 164h303v444z" />
<glyph unicode="&#xb3;" d="M61 522v92h1680v-92h-1680zM186 86v170q103 28 152 63q42 27 117 115h155v-799h-204v547q-107 -68 -220 -96zM526 897h205q50 -68 123 -68q56 0 98 33q43 34 43 88q0 51 -39 84t-94 33q-66 0 -117 -45h-198l28 469h586v-174h-430v-135q85 39 174 39q123 0 215 -68 q101 -73 101 -195q0 -136 -117 -215q-104 -69 -244 -69q-105 0 -186 37q-106 44 -133 127q-9 21 -15 59zM911 18q0 422 359 422q228 0 305 -147q16 -31 29 -68h-211q-35 68 -117 68q-92 0 -127 -62q-22 -40 -25 -147q82 49 174 49q129 0 215 -63q99 -70 99 -195t-107 -192 q-88 -58 -221 -58q-373 0 -373 393zM1128 -106q0 -56 39 -82q42 -31 95 -31q147 0 147 108q0 58 -39 84q-44 29 -98 29q-144 0 -144 -108z" />
<glyph unicode="&#xb4;" d="M82 752h197q34 -107 129 -107q122 0 122 125q0 51 -30 88q-32 38 -84 41l-111 4v160h94q52 0 90 35q39 33 39 88q0 52 -34 86q-35 35 -86 35q-109 0 -127 -103h-199q9 134 102 203q84 63 224 63q130 0 221 -65q106 -72 106 -197q0 -148 -145 -207q168 -107 168 -243 q0 -132 -105 -215q-101 -78 -231 -78q-154 0 -242 67q-98 73 -98 220zM381 -227l889 1697h153l-872 -1697h-170zM1044 59q0 141 154 244q-135 92 -135 209q0 124 98 197q85 65 217 65q130 0 219 -63q105 -70 105 -195q0 -116 -133 -211q81 -65 108 -104q43 -61 43 -142 q0 -140 -102 -217q-94 -73 -236 -73q-140 0 -233 75q-105 83 -105 215zM1247 76q0 -59 37 -99q40 -43 96 -43q59 0 97 41q36 42 36 103q0 58 -36 100q-39 45 -97 45q-55 0 -94 -45t-39 -102zM1251 498q0 -56 35 -86q38 -35 90 -35q49 0 84 35q37 34 37 84q0 116 -121 116 q-54 0 -88 -30q-37 -30 -37 -84z" />
<glyph unicode="&#xb6;" d="M102 1098v188q98 21 156 64q43 34 119 125h135l-2 -1002l-203 -2v715q-92 -63 -205 -88zM315 -227l852 1702h172l-864 -1700zM1020 -225q9 147 125 272q31 35 119 123l129 129q102 102 102 168q0 58 -37 92q-38 35 -94 35q-124 0 -127 -143h-215v24q0 136 104 221 q96 78 236 78q150 0 240 -78q98 -82 98 -227q0 -162 -154 -283l-121 -94l-94 -82v-30h369v-205h-680z" />
<glyph unicode="&#xb8;" d="M78 737h207q21 -102 110 -102q74 0 113 45q41 47 41 119q0 70 -43 116q-45 48 -113 48q-73 0 -123 -62h-166l37 574h572v-195h-410l-2 -207q78 35 143 35q138 0 224 -86q88 -88 88 -225q0 -145 -99 -234q-100 -92 -243 -92q-73 0 -152 29q-87 35 -119 90l-51 90z M373 -227l870 1702h154l-862 -1700zM1032 55q0 87 51 150q39 45 125 102q-143 70 -143 205q0 131 94 201q86 65 219 65q124 0 219 -65q109 -77 109 -195q0 -106 -137 -213q157 -106 157 -246q0 -131 -110 -213q-98 -73 -234 -73q-140 0 -237 69q-113 79 -113 213zM1253 86 q0 -61 31 -106q34 -43 94 -43q63 0 97 40t34 105q0 60 -34 100q-34 43 -95 43q-59 0 -92 -39q-35 -41 -35 -100zM1253 496q0 -109 117 -109q131 0 131 113v10q0 45 -39 76q-39 28 -84 28q-58 0 -90 -32q-35 -35 -35 -86z" />
<glyph unicode="&#xb9;" d="M61 522v92h1680v-92h-1680zM172 57v172q94 15 156 58q36 25 116 121h144v-797h-205v541q-70 -53 -98 -64q-43 -17 -113 -31zM180 1124v172q99 16 156 58q34 26 117 121h141v-797h-203v541q-101 -75 -211 -95zM899 -2q0 418 365 418q115 0 211 -47q122 -58 122 -160v-21 h-204q-30 68 -117 68q-164 0 -170 -209q92 59 182 59q82 0 166 -38q95 -45 127 -111q18 -37 18 -96q0 -173 -163 -234q-82 -33 -183 -33q-178 0 -270 115q-84 107 -84 289zM954 1124v172q99 16 156 58q34 26 117 121h143v-797h-205v541q-89 -71 -211 -95zM1126 -141 q0 -113 131 -113q148 0 148 109q0 110 -137 110q-142 0 -142 -106z" />
<glyph unicode="&#xba;" d="M59 733v21h197q18 -62 45 -86q28 -25 90 -25q55 0 90 35t35 90q0 130 -123 133l-108 2v162h92q56 0 92 33q39 33 39 88q0 123 -123 123q-110 0 -125 -101h-199q9 131 105 203q88 64 227 64q128 0 219 -60q105 -71 105 -192q0 -83 -31 -131q-33 -44 -113 -88 q84 -51 119 -99q41 -56 41 -145q0 -85 -49 -158q-49 -76 -125 -106q-65 -27 -160 -27q-140 0 -231 61q-109 71 -109 203zM412 -225l874 1700h156l-879 -1700h-151zM985 0v215l379 563h276v-614h103v-164h-103v-225h-204v225h-451zM1133 164h303l-2 448z" />
<glyph unicode="&#xbb;" d="M61 522v92h1680v-92h-1680zM172 1124v172q94 15 156 58q36 25 116 121h144v-797h-205v541q-88 -71 -211 -95zM178 78v164q108 34 152 63q55 38 106 123h152v-815h-205v543q-91 -56 -205 -78zM893 10q0 418 371 418q85 0 170 -31q101 -37 131 -102q12 -27 18 -90h-197 q-26 63 -114 63q-164 0 -170 -207q94 60 180 60q82 0 168 -39q93 -43 127 -113q18 -41 18 -96q0 -172 -163 -233q-85 -33 -185 -33q-179 0 -270 114q-84 107 -84 289zM905 901h213q18 -84 129 -84q45 0 94 27q43 27 43 78q0 82 -100 82h-63v141l43 -2q43 -3 73 24 q31 28 31 72q0 47 -33 70q-35 24 -80 24q-59 0 -88 -16q-30 -16 -51 -70h-203q9 75 68 131q105 97 281 97q127 0 206 -43q103 -56 103 -172q0 -67 -25 -103q-22 -35 -88 -70q135 -73 135 -182q0 -77 -57 -137q-90 -96 -266 -96q-165 0 -240 37q-104 49 -125 192zM1120 -129 q0 -56 39 -82q42 -31 94 -31q57 0 99 25q49 27 49 84q0 58 -39 84q-44 29 -98 29q-144 0 -144 -109z" />
<glyph unicode="&#xbc;" d="M90 1475h674v-140q-178 -397 -348 -864h-217l331 799h-438zM326 -225l870 1700h152l-869 -1700h-153zM1067 70q0 79 37 137q34 53 98 106q-129 105 -129 201q0 122 107 197q94 67 221 67t219 -63q104 -70 104 -191q0 -77 -36 -127q-21 -32 -101 -88q80 -65 109 -104 q45 -64 45 -142q0 -137 -103 -217q-94 -73 -235 -73q-143 0 -236 75q-100 81 -100 222zM1276 90q0 -153 125 -153q123 0 123 145q0 143 -123 143q-61 0 -90 -39q-35 -41 -35 -96zM1276 496q0 -109 125 -109q123 0 123 113q0 52 -37 82q-35 32 -88 32t-88 -30 q-35 -35 -35 -88z" />
<glyph unicode="&#xbd;" d="M61 522v92h1680v-92h-1680zM197 59v185q85 14 143 57q38 25 111 111h155v-799h-205v547q-112 -71 -204 -101zM203 1120v183q93 22 145 57q35 24 111 113h153v-801h-204v547q-95 -62 -205 -99zM901 879h205q50 -68 123 -68q56 0 98 33q43 34 43 88q0 53 -39 82 q-39 33 -94 33q-63 0 -115 -46h-200l30 472h584v-175h-430v-137q85 39 176 39q124 0 215 -67q100 -72 100 -195q0 -139 -116 -215q-103 -68 -246 -68q-105 0 -186 37q-104 44 -134 127q-1 1 -14 60zM922 -8q0 422 358 422q228 0 305 -148q17 -34 29 -67h-211q-34 67 -117 67 q-91 0 -125 -61q-25 -49 -28 -148q82 49 174 49q131 0 217 -63q98 -70 98 -195q0 -127 -119 -194q-98 -55 -233 -55q-178 0 -266 110q-82 101 -82 283zM1135 -129q0 -56 39 -82q42 -31 94 -31q147 0 147 109q0 58 -39 84q-44 29 -98 29q-143 0 -143 -109z" />
<glyph unicode="&#xbe;" d="M102 1098v188q98 21 156 64q43 34 119 125h135v-1004h-205v715q-92 -63 -205 -88zM295 -248l883 1723h157l-886 -1721zM1012 39h198q38 -121 129 -121q68 0 105 43q39 45 39 115q0 170 -156 170q-61 0 -110 -49l-173 10l33 551h572l-2 -205h-418v-191q64 46 141 46 q138 0 232 -91q94 -88 94 -227q0 -148 -99 -242q-101 -96 -243 -96q-188 0 -283 127q-41 57 -59 160z" />
<glyph unicode="&#xbf;" d="M51 492q0 159 193 337q116 110 196 185q56 56 72 94q8 19 8 66q0 124 -121 124q-131 0 -131 -145v-6h-217v29q0 143 107 231q98 82 243 82q137 0 238 -84q104 -88 104 -227q0 -156 -131 -269q-37 -32 -139 -108q-26 -18 -104 -88v-37h350v-184h-668zM401 -244l895 1737 h162l-895 -1737h-162zM1096 43h198q22 -64 45 -84q28 -22 88 -22q63 0 97 40q35 41 35 105q0 166 -154 166q-60 0 -105 -45h-176l25 553h573v-185h-409v-204q71 47 141 47q136 0 232 -90q94 -88 94 -226q0 -140 -103 -243q-101 -101 -245 -101q-76 0 -154 35q-80 39 -121 94 q-43 58 -61 160z" />
<glyph unicode="&#xc0;" d="M70 754l217 2v-25q0 -42 35 -63q38 -23 77 -23q56 0 97 35q41 38 41 92q0 56 -43 102t-101 46h-80v165h95q114 0 114 109q0 55 -33 84q-33 33 -88 33q-113 0 -131 -103h-198q9 131 112 209q102 76 230 76q122 0 211 -68q100 -72 100 -190q0 -87 -29 -137 q-28 -48 -110 -94q178 -99 178 -244q0 -129 -115 -215q-103 -78 -239 -78q-212 0 -297 131q-43 64 -43 156zM365 -248l895 1741h172l-885 -1741h-182zM1067 20v21h207q15 -107 115 -107q64 0 98 46q35 47 35 110q0 160 -136 160q-50 0 -112 -45h-170l16 569h570v-194h-410 l-6 -191q77 39 153 39q130 0 224 -94t94 -225q0 -139 -96 -246q-94 -107 -238 -107q-171 0 -289 133q-55 64 -55 131z" />
<glyph unicode="&#xc1;" d="M45 696v201l414 578h239v-615h125v-164h-125v-223h-186v223h-467zM211 860h303v457zM408 -248l888 1723h154l-885 -1721zM1090 41h202q6 -54 43 -88q38 -35 90 -35q56 0 97 47q41 50 41 107q0 174 -150 174q-50 0 -100 -41h-183l23 551l571 2v-205h-409v-164 q90 19 137 19q134 0 223 -86q90 -87 90 -220q0 -167 -88 -258q-89 -92 -256 -92q-310 0 -331 289z" />
<glyph unicode="&#xc2;" d="M61 522v92h1680v-92h-1680zM184 80v182q86 15 144 57q35 23 110 111h156v-799h-205v547q-88 -57 -205 -98zM553 1137v182q85 14 143 57q38 25 111 111h156v-799h-205v547q-92 -60 -205 -98zM901 14q0 204 72 308q84 118 282 118q241 0 314 -147q8 -12 28 -68h-211 q-22 45 -53 56q-15 6 -76 6q-147 0 -147 -187v-24q89 53 188 53q130 0 211 -63q88 -70 88 -195q0 -131 -104 -201q-88 -61 -227 -61q-186 0 -279 112q-86 106 -86 293zM1118 -117q0 -56 39 -82q41 -30 92 -30q150 0 150 108q0 113 -139 113q-142 0 -142 -109z" />
<glyph unicode="&#xc3;" d="M61 522v92h1680v-92h-1680zM180 96v172q99 16 156 58q37 27 117 120h141v-796h-203v540q-99 -73 -211 -94zM573 1331v164l674 -2v-100l-334 -697h-225l316 635h-431zM899 33q0 418 365 418q302 0 340 -226h-211q-31 66 -117 66q-164 0 -170 -207q92 59 182 59 q87 0 166 -39q94 -45 127 -112q18 -38 18 -96q0 -171 -163 -232q-85 -33 -183 -33q-178 0 -270 115q-84 104 -84 287zM1124 -104q0 -49 45 -78q41 -27 88 -27q46 0 95 27q43 27 43 78q0 46 -37 73q-38 30 -84 33q-50 3 -98 -25q-52 -30 -52 -81z" />
<glyph unicode="&#xc4;" d="M61 522v92h1680v-92h-1680zM182 100v162q100 24 154 62q30 20 115 125h143v-818h-205v555q-53 -42 -92 -59q-37 -15 -115 -27zM494 1251q0 126 110 193q89 57 227 57t213 -37q94 -46 134 -161q30 -94 30 -193q0 -207 -73 -305q-86 -115 -285 -115q-136 0 -225 47 q-114 58 -117 183h203q12 -76 114 -76q162 0 168 207q-94 -60 -186 -60q-120 0 -211 70q-102 77 -102 190zM715 1237q0 -44 41 -74q41 -26 82 -26q55 0 100 26q53 30 53 84q0 47 -35 74q-38 30 -84 33q-58 3 -104 -27q-53 -33 -53 -90zM895 29q0 426 365 426q131 0 219 -49 q113 -61 116 -179l-206 2q-31 66 -117 66q-164 0 -170 -207q95 59 182 59q86 0 170 -38q84 -40 123 -113q18 -38 18 -98q0 -133 -94 -203q-87 -66 -221 -66q-385 0 -385 400zM1118 -106q0 -49 45 -78q41 -27 88 -27q46 0 92 27q43 27 43 78q0 46 -34 73q-39 28 -84 31 q-51 3 -99 -25q-51 -29 -51 -79z" />
<glyph unicode="&#xc6;" d="M0 481q265 182 346 318q33 55 78 168q82 -125 82 -197q0 -71 -78 -152h1374v-262h-1374q72 -60 72 -149q0 -88 -70 -207q-22 45 -80 158q-65 115 -149 184q-30 27 -201 139z" />
<glyph unicode="&#xc7;" d="M123 389v1045l164 55v-514q74 93 112 123q70 55 152 55q111 0 174 -90q53 -77 53 -195v-479h-164v428q0 77 -24 135q-35 78 -101 78q-59 0 -137 -84q-41 -47 -53 -74t-12 -86v-397h-164zM979 756q0 149 78 270q89 139 231 139q134 0 228 -149v418l165 55v-1045l-165 -55 v131q-109 -151 -236 -151q-143 0 -227 127q-74 112 -74 260zM1149 764q0 -97 33 -162q43 -88 127 -88q93 0 145 88q43 73 43 174q0 95 -37 156q-46 76 -133 76q-92 0 -139 -80q-39 -62 -39 -164z" />
<glyph unicode="&#xc8;" d="M0 481q265 182 346 318q33 55 78 168q82 -125 82 -197q0 -71 -78 -152h946q-71 53 -71 142q0 90 69 207q22 -45 80 -158q64 -113 150 -184q37 -33 200 -140q-266 -183 -346 -317q-33 -55 -78 -168q-82 125 -82 197q0 70 78 151h-946q72 -54 72 -141q0 -88 -70 -207 q-22 45 -80 158q-65 115 -149 184q-30 27 -201 139z" />
<glyph unicode="&#xc9;" d="M143 389v701l164 57v-152q89 89 117 111q75 57 147 57q93 0 150 -69t57 -164v-541h-164v524q0 48 -28 93q-30 43 -78 43q-63 0 -125 -80q-76 -98 -76 -209v-371h-164zM983 389v1045l164 51v-711l307 373h205l-309 -363v-24l309 -371h-205l-307 371v-371h-164z" />
<glyph unicode="&#xca;" d="M418 98q104 70 192 70t148 -72v1534l262 -2v-1532q81 78 151 78q72 0 197 -82q-183 -70 -299 -186q-66 -66 -186 -238q-58 92 -183 252q-66 63 -282 178z" />
<glyph unicode="&#xcb;" d="M61 -369v1823h1659v-1823h-1659zM205 -225h1372v1536h-1372v-1536zM492 0v1085h348q204 0 299 -59q139 -89 139 -264q0 -233 -236 -291l213 -471h-237l-207 451h-94v-451h-225zM717 635h133q94 0 135 20q59 27 59 113q0 89 -63 115q-41 18 -141 18h-123v-266z" />
<glyph unicode="&#xcc;" d="M127 395l55 133h336l131 340h-379l58 133h350l182 523h164l-193 -523h308l186 523h158l-187 -523h330l-39 -133h-332l-116 -340h344l-45 -133h-342l-181 -512h-159l176 512h-305l-187 -512h-151l184 512h-346zM678 528h297l121 340h-301z" />
<glyph unicode="&#xcd;" horiz-adv-x="901" d="M41 1159v49h307l86 267h53l86 -267h308v-49l-226 -158l82 -274l-51 -47l-217 160l-236 -160l-49 47l82 274z" />
<glyph unicode="&#xce;" horiz-adv-x="929" d="M78 352l379 942h6l379 -942l-307 226v-615h-150v615z" />
<glyph unicode="&#xcf;" d="M225 582l666 915l680 -915l-670 -936z" />
<glyph unicode="&#xd0;" d="M61 -369v1823h1659v-1823h-1659zM205 -225h1372v1536h-1372v-1536zM455 217l174 111q133 -183 309 -183q63 0 115 37q53 38 53 97q0 92 -219 184q-167 69 -252 139q-129 105 -129 242q0 141 110 223q101 76 246 76q131 0 258 -68q124 -70 183 -184l-170 -115 q-125 168 -273 168q-123 0 -123 -98q0 -80 133 -139q223 -100 330 -183q123 -94 123 -252q0 -153 -123 -245q-113 -84 -270 -84q-305 0 -475 274z" />
<glyph unicode="&#xd1;" d="M61 -369v1823h1659v-1823h-1659zM205 -225h1372v1536h-1372v-1536zM430 922v204h922v-204h-348v-922h-226v922h-348z" />
<glyph unicode="&#xd2;" d="M0 0v143h1802v-143h-1802z" />
<glyph unicode="&#xd3;" horiz-adv-x="901" d="M0 0v143h901v-143h-901z" />
<glyph unicode="&#xd4;" d="M143 92l625 625l-625 624l144 144l624 -625l625 625l139 -148l-620 -620l624 -625l-143 -143l-625 624l-624 -624z" />
<glyph unicode="&#xd5;" d="M266 553v184h533v553h184v-553h533v-184h-533v-553h-184v553h-533z" />
<glyph unicode="&#xd6;" d="M61 -348v1802h1659v-1802h-1659zM205 -205h1392v1536h-1392v-1536zM608 563q0 116 84 197q82 82 203 82t207 -80t86 -199q0 -123 -86 -203q-88 -79 -211 -79q-118 0 -199 81q-84 84 -84 201z" />
<glyph unicode="&#xd7;" d="M139 1018l109 176l532 -324l2 646h213l2 -642l533 320l108 -176l-542 -322l538 -313l-94 -172l-543 317l-2 -630h-213l-2 630l-542 -317l-95 172l541 319z" />
<glyph unicode="&#xd8;" d="M0 348v262h1374q-71 59 -71 150q0 90 69 207q22 -45 80 -158q64 -113 150 -184q37 -33 200 -140q-266 -183 -346 -317q-33 -55 -78 -168q-82 125 -82 197q0 70 78 151h-1374z" />
<glyph unicode="&#xd9;" d="M418 1196q69 36 155 82q108 61 183 149q25 27 137 199q183 -266 317 -346q55 -33 168 -78q-125 -82 -196 -82t-152 78v-1532l-262 -2v1534q-60 -72 -147 -72q-90 0 -203 70z" />
<glyph unicode="&#xda;" d="M418 98q104 70 192 70t148 -72v1534l262 -2v-1532q81 78 151 78q72 0 197 -82q-183 -70 -299 -186q-66 -66 -186 -238q-58 92 -183 252q-66 63 -282 178z" />
<glyph unicode="&#xdb;" horiz-adv-x="2703" d="M102 358l230 93v-127q0 -67 43 -113q47 -47 110 -47q154 0 154 221v1069h227v-1051q0 -446 -362 -446q-216 0 -305 133q-61 90 -97 268zM1270 0v1430l205 79v-1509h-205zM1802 -104h68q42 -60 80 -60q55 0 108 84q68 109 68 174q0 19 -23 90l-301 881h195l227 -707 l197 707h192l-311 -987q-70 -227 -170 -336q-62 -68 -184 -68q-88 0 -146 25v197z" />
<glyph unicode="&#xdc;" horiz-adv-x="2703" d="M61 0v1454h306l247 -1065l201 1065h332v-1454h-184l2 1298l-269 -1298h-184l-264 1247l2 -1249zM1264 258q0 221 155 315q83 53 154 68q58 13 168 16v162q0 92 -109 92q-101 0 -278 -80l-66 134q109 64 166 86q87 34 184 34q126 0 205 -67q82 -67 82 -191v-591 q0 -90 103 -93v-161q-40 -5 -70 -5q-81 0 -117 33q-39 33 -69 113h-25q-61 -84 -100 -109q-59 -41 -140 -41q-118 0 -184 84q-59 77 -59 201zM1450 301q0 -158 106 -158q65 0 125 54t60 118v220q-207 -24 -268 -129q-23 -44 -23 -105zM1989 1065h180l186 -655l150 655h164 l-279 -1176q-58 -241 -272 -241q-57 0 -111 28l2 199l29 2q29 -45 82 -45q70 0 108 84q15 34 41 145z" />
<glyph unicode="&#xdd;" horiz-adv-x="2703" d="M61 0l392 1454h247l398 -1454h-215l-68 287h-465l-67 -287h-222zM403 471h363l-184 743zM1124 1044h205l2 -796q0 -111 66 -111q53 0 131 96q67 82 67 189v622h185l2 -995l-166 -86v234l-29 -33l-67 -82q-86 -105 -201 -105q-193 0 -193 277zM1937 563q0 240 76 371 q37 63 105 104q70 43 141 43q161 0 217 -170l21 -14v147h143v-991q0 -158 -103 -258q-104 -98 -266 -98q-102 0 -246 39l3 192l71 11q53 -74 144 -74q93 0 153 51q63 54 60 143l-5 191q-95 -148 -225 -148q-61 0 -117 39q-64 44 -94 90q-78 119 -78 332zM2124 604 q0 -140 18 -207q34 -125 135 -125q199 0 187 306l-2 47q-12 299 -158 299q-180 0 -180 -320z" />
<glyph unicode="&#xde;" horiz-adv-x="2703" d="M61 362l226 68q-2 -18 -2 -59q0 -215 149 -215q82 0 125 75q35 62 35 150v1073h225v-1053q0 -452 -391 -452q-189 0 -272 133q-55 87 -95 280zM1024 186v879h184l-2 -823q0 -121 80 -121q61 0 178 141q72 87 72 156v647h184v-1020l-184 -74v224q-168 -222 -315 -222 q-90 0 -144 60q-53 62 -53 153zM1946 2v1018l184 74v-226q156 217 315 217q195 0 195 -260l2 -825h-180v809q0 46 -31 82q-30 35 -80 35q-56 0 -139 -103q-84 -107 -84 -161v-660h-182z" />
<glyph unicode="&#xdf;" horiz-adv-x="2703" d="M61 0l388 1454h245l404 -1454h-219l-76 307h-451l-78 -307h-213zM397 492h365l-187 702zM1210 -344v1366l166 80v-240h15q36 93 98 152q77 71 162 71q163 0 252 -200q67 -152 67 -340t-67 -340q-88 -205 -250 -205q-127 0 -262 199v-543h-181zM1395 565q0 -123 6 -166 q12 -80 67 -153q63 -84 138 -84q95 0 141 125q33 85 33 205q0 428 -178 428q-116 0 -168 -129q-39 -88 -39 -226zM2114 0v1024l184 66v-351h16q112 272 312 355v-316q-14 2 -64 2q-68 0 -145 -59q-119 -88 -119 -229v-492h-184z" />
<glyph unicode="&#xe0;" horiz-adv-x="2703" d="M41 0v1475h313l244 -1084l217 1084h311v-1475h-184v1270l-256 -1270h-172l-289 1270v-1270h-184zM1249 258q0 87 49 172t125 137q75 51 160 70q56 14 178 20v164q0 43 -37 70q-39 31 -79 31q-110 0 -256 -88l-21 -13l-78 142q243 120 375 120q123 0 201 -69 q80 -74 80 -193v-585q0 -95 67 -95q27 0 35 2v-163q-21 -3 -57 -3q-136 0 -201 146h-29q-140 -146 -264 -146q-109 0 -180 89q-68 83 -68 192zM1454 295q0 -60 27 -107q30 -53 88 -53q74 0 131 45q61 46 61 117v238q-134 -20 -207 -62q-100 -60 -100 -178zM2148 0v1024 l164 63v-393h21q92 268 225 357q35 21 104 36v-307h-32q-109 0 -197 -61q-100 -69 -100 -170v-549h-185z" />
<glyph unicode="&#xe1;" horiz-adv-x="2703" d="M102 0v1475h738v-205h-512v-430h430v-185h-430v-655h-226zM860 532q0 199 76 330q123 217 334 217q200 0 311 -178q53 -84 68 -174q12 -67 12 -190v-45h-596v-66q0 -120 53 -197q61 -88 178 -88q99 0 189 84l112 -112q-125 -131 -325 -131q-214 0 -322 176 q-90 149 -90 374zM1063 635h414q-6 114 -52 190q-60 97 -161 97q-97 0 -152 -101q-43 -75 -49 -186zM1843 39l2 1376l203 78v-584q109 160 260 160q175 0 258 -188q62 -139 62 -340q0 -200 -68 -357q-88 -211 -262 -211q-131 0 -264 201v-197zM2034 522q0 -212 102 -317 q59 -62 121 -62q99 0 149 152q35 110 35 231q0 130 -31 232q-46 149 -151 149q-119 0 -178 -141q-47 -112 -47 -244z" />
<glyph unicode="&#xe2;" horiz-adv-x="2703" d="M57 336l224 92q-2 -20 -2 -72q0 -87 34 -145q43 -70 125 -70q74 0 115 66q33 50 33 133v1114h225v-1130q0 -173 -96 -283q-95 -109 -269 -109q-188 0 -282 113q-81 100 -107 291zM950 231q0 212 164 314q92 57 191 76q58 11 202 14v147q0 105 -131 105q-98 0 -268 -92 l-23 -13l-90 150q231 129 381 129q146 0 230 -84q86 -86 86 -232v-538q0 -71 34 -80q20 -4 48 -4v-164q-10 -2 -52 -2q-86 0 -133 41q-32 29 -69 125h-13q-84 -91 -127 -119q-74 -51 -161 -51q-127 0 -197 76q-72 78 -72 202zM1141 260q0 -61 39 -106t98 -45q106 0 170 79 q59 74 59 185v141q-119 -12 -182 -31q-76 -23 -129 -82q-55 -61 -55 -141zM1937 -20v1005l185 90v-225l28 33q144 164 283 164q201 0 201 -238v-829h-185v843q0 78 -84 78q-129 0 -202 -162q-41 -90 -41 -157v-602h-185z" />
<glyph unicode="&#xe3;" horiz-adv-x="2703" d="M61 -20v1474h357q341 0 473 -266q94 -192 94 -451q0 -655 -446 -735q-132 -22 -357 -22h-121zM266 186l33 -2q23 -2 84 -2q249 0 328 180q51 111 51 402q0 348 -146 448q-76 52 -276 52h-74v-1078zM1087 477q0 229 89 393q109 201 321 201q81 0 158 -41q77 -40 117 -108 q47 -78 63 -187q8 -52 8 -198v-23q-2 -10 -2 -22h-573q0 -143 37 -236q53 -135 170 -135q95 0 211 88l96 -98q-85 -73 -146 -103q-75 -35 -174 -35q-197 0 -295 162q-80 133 -80 342zM1290 635h369v51q0 238 -168 238q-186 0 -201 -289zM1964 500q0 190 25 293 q35 128 118 202q85 76 213 76q118 0 201 -65q82 -64 117 -179l-150 -84q-50 160 -164 160q-176 0 -176 -358q0 -163 21 -246q41 -156 153 -156q125 0 166 183l166 -70q-31 -91 -65 -143q-92 -142 -267 -142q-138 0 -235 97q-88 88 -109 233q-14 95 -14 199z" />
<glyph unicode="&#xe4;" horiz-adv-x="2703" d="M82 0v1475h266l430 -1108v1108h187v-1475h-252l-447 1126v-1126h-184zM1133 551q0 172 28 270q36 124 127 191q95 71 217 71q223 0 312 -213q49 -116 49 -317q0 -283 -72 -406q-101 -165 -291 -165q-118 0 -207 65q-91 70 -125 178q-38 115 -38 326zM1313 545 q0 -174 20 -244q41 -141 164 -141q163 0 178 223q4 86 4 125v49q0 125 -8 174q-27 191 -172 191q-121 0 -162 -140q-24 -82 -24 -237zM1946 1065h186l174 -862l164 862h180l-244 -1065h-206z" />
<glyph unicode="&#xe5;" horiz-adv-x="2703" d="M82 713q0 305 98 508q129 270 400 270q267 0 387 -270q86 -195 86 -504q0 -304 -88 -496q-120 -262 -387 -262q-276 0 -402 254q-94 189 -94 500zM309 711q0 -194 43 -336q65 -219 213 -219q266 0 266 571q0 565 -258 565q-138 0 -208 -211q-56 -165 -56 -370zM1210 526 q0 382 232 506q77 41 160 41q154 0 243 -108q44 -54 88 -129l-161 -101q-56 164 -175 164q-204 0 -204 -381q0 -132 41 -235q59 -142 170 -142q117 0 182 195l168 -80q-35 -129 -129 -205q-95 -80 -223 -80q-92 0 -181 47q-88 49 -129 127q-82 152 -82 381zM2032 819v144 h163v221l185 166v-387h184v-144h-184v-561q0 -66 14 -86q16 -29 76 -29q68 0 156 58v-156q-127 -74 -205 -74q-101 0 -162 64q-64 64 -64 166v618h-163z" />
<glyph unicode="&#xe6;" horiz-adv-x="2703" d="M20 240l187 116q90 -121 112 -143q76 -76 158 -76q197 0 197 219q0 107 -64 168q-42 42 -159 99q-296 144 -363 307q-31 76 -31 164q0 171 111 276q110 107 285 107t290 -121q57 -60 121 -154l-168 -110q-79 91 -112 120q-72 60 -150 60q-71 0 -123 -43q-51 -42 -51 -113 q0 -113 139 -205l301 -200q183 -121 183 -363q0 -188 -105 -299q-107 -110 -295 -110q-218 0 -356 163q-26 29 -107 138zM1016 494q0 366 211 510q86 59 184 59q85 0 168 -47q82 -49 125 -125q61 -107 61 -275q0 -4 -0.5 -18.5t-1.5 -44t-2 -61.5h-553v-80q0 -291 181 -291 q112 0 213 88l110 -115q-93 -72 -147 -98q-75 -37 -170 -37q-209 0 -303 174q-76 137 -76 361zM1223 633l352 2q2 10 2 49q0 87 -47 152t-131 65q-173 0 -176 -268zM1946 -348v1372l143 57v-262h14q120 250 256 250q151 0 240 -207q38 -84 47 -135q16 -85 16 -203 q0 -196 -55 -336q-76 -196 -242 -196q-144 0 -235 168v-508h-184zM2111 524q0 -119 43 -223q59 -139 160 -139q108 0 142 125q18 64 18 211q0 403 -154 403q-108 0 -166 -143q-43 -107 -43 -234z" />
<glyph unicode="&#xe7;" d="M41 547q0 358 250 608q251 248 612 248q357 0 604 -250q246 -252 246 -610q0 -357 -248 -602q-248 -248 -604 -248q-361 0 -610 246q-250 250 -250 608zM180 551q0 -300 205 -508q205 -211 504 -211q301 0 510 209t209 510q0 299 -207 506t-506 207t-506 -207 q-209 -206 -209 -506zM549 0v1085h696v-184h-471v-266h389v-184l-389 2v-453h-225z" />
<glyph unicode="&#xe8;" d="M41 553q0 356 250 600q253 244 610 244q364 0 617 -250q254 -248 254 -615q0 -364 -259 -608q-261 -243 -626 -243q-358 0 -602 256t-244 616zM186 557q0 -305 205 -516q205 -214 506 -217q303 -3 516 207q211 211 211 516q0 301 -211 506q-210 204 -516 204 q-298 0 -504 -200q-207 -204 -207 -500zM500 528q0 584 430 584q149 0 250 -82q102 -82 123 -227l-220 -35q-19 81 -47 109q-35 38 -108 38q-159 0 -189 -200q-10 -75 -10 -158q0 -159 25 -242q40 -137 168 -137q75 0 122 47q49 52 52 125l233 -43q-56 -164 -139 -241 q-95 -89 -256 -89q-222 0 -336 173q-98 146 -98 378z" />
<glyph unicode="&#xe9;" d="M33 549q0 357 252 600q252 246 610 246q357 0 606 -246q250 -250 250 -606q0 -362 -254 -604q-255 -246 -614 -246t-604 248q-246 249 -246 608zM178 549q0 -301 205 -506q207 -207 502 -207q300 0 510 207q209 206 209 506q0 297 -207 498q-205 202 -506 202 q-298 0 -504 -200q-209 -203 -209 -500zM530 0v1085h373q157 0 215 -18q88 -27 142 -115q53 -86 53 -184q0 -190 -156 -270q-1 -1 -76 -33l211 -465h-235l-209 451h-92v-451h-226zM756 635h131q188 0 188 125q0 144 -178 141l-141 -2v-264z" />
<glyph unicode="&#xea;" d="M37 545q0 358 250 608q248 248 610 248q357 0 604 -250q248 -248 248 -608q0 -358 -246 -604q-249 -246 -606 -246q-359 0 -608 246q-252 249 -252 606zM174 549q0 -300 205 -508q205 -211 504 -211q301 0 510 209t209 510q0 300 -205 508q-207 207 -506 207 q-301 0 -508 -207q-209 -206 -209 -508zM485 860v184h799v-184h-266v-880h-246v880h-287z" />
<glyph unicode="&#xeb;" d="M61 -369v1823h1659v-1823h-1659zM205 -225h1372v1536h-1372v-1536zM471 20v1127h346q236 0 369 -86q229 -149 229 -488q0 -245 -119 -391q-128 -162 -366 -162h-459zM696 207h191q157 0 233 110q68 95 68 258q0 386 -301 386h-191v-754z" />
<glyph unicode="&#xec;" d="M84 -369v1823h1659v-1823h-1659zM229 -229h1373v1536h-1373v-1536zM451 -20v1126h368q168 0 221 -6q206 -24 301 -166q76 -110 76 -377q0 -265 -71 -383q-120 -194 -416 -194h-479zM778 225h56q212 0 247 142q11 49 11 143v18l-2 140q-3 213 -279 213h-33v-656z" />
<glyph unicode="&#xed;" horiz-adv-x="2703" d="M0 -348v1823h2703v-1823h-2703zM143 -205h2417v1536h-2417v-1536zM369 0v1147h288q387 0 512 -248q74 -145 74 -307q0 -265 -125 -420q-138 -172 -393 -172h-356zM573 207h103q109 0 170 22q81 29 123 115q51 105 51 221q0 98 -31 189q-37 110 -106 147q-68 39 -178 39 h-132v-733zM1413 0v1147h225v-471h492v471h205v-1147h-205v492h-492v-492h-225z" />
<glyph unicode="&#xee;" horiz-adv-x="2703" d="M0 -348v1823h2703v-1823h-2703zM143 -205h2417v1536h-2417v-1536zM328 0v1126h458q108 0 195 -43q99 -45 147 -133q64 -113 64 -364q0 -301 -82 -420q-114 -166 -344 -166h-438zM635 248h102q103 0 140 110q20 59 20 195q0 166 -43 247.5t-129 80.5l-90 -2v-631zM1352 0 v1126h307v-409h409v409h308v-1126h-308v451h-409v-451h-307z" />
<glyph unicode="&#xef;" d="M78 698q0 349 237 592q238 244 584 244q347 0 596 -231q248 -233 248 -580q0 -352 -238 -602q-241 -250 -592 -250q-348 0 -591 240q-244 241 -244 587zM268 696q0 -114 31 -202q27 -77 102 -181l394 392l-400 382q-72 -122 -94 -186q-33 -88 -33 -205zM532 193 q109 -79 173 -105q82 -29 196 -29q129 0 209 29q59 20 182 105l-374 387zM532 1221l383 -394l385 387q-109 78 -176 103q-85 31 -200 31q-117 0 -205 -33q-66 -23 -187 -94zM1051 709l379 -383q78 112 98 172q28 74 28 196q0 118 -30 207q-21 61 -96 186z" />
<glyph unicode="&#xf0;" d="M164 1104l188 192l1080 -1089q21 116 71 174q52 61 162 102l-25 -127q-30 -156 -30 -227q0 -51 14 -149l23 -164q-191 37 -304 37q-159 0 -339 -80q26 117 83 180q59 65 177 86z" />
<glyph unicode="&#xf1;" horiz-adv-x="901" d="M102 582q0 211 211 325v547h289v-547q213 -115 213 -325q0 -151 -102 -256q-104 -107 -254 -107q-152 0 -254 105q-103 106 -103 258z" />
<glyph unicode="&#xf2;" d="M287 721q3 248 178 414q177 168 426 168q252 0 432 -168q178 -172 178 -422q0 -261 -180 -441t-440 -180q-254 0 -428 189q-169 184 -166 440z" />
<glyph unicode="&#xf3;" d="M143 389v701l164 67v-162q87 90 117 111q75 57 147 57q93 0 150 -69t57 -164v-541h-164v524q0 46 -28 88q-30 41 -78 41q-63 0 -125 -77q-76 -94 -76 -199v-377h-164zM983 762q0 171 86 289q95 129 262 129q168 0 262 -125q88 -113 88 -283q0 -182 -82 -289 q-89 -121 -266 -121q-175 0 -266 117q-84 107 -84 283zM1147 793q0 -125 29 -191q44 -90 155 -90q189 0 189 260q0 268 -185 268q-188 0 -188 -247z" />
<glyph unicode="&#xf4;" horiz-adv-x="901" d="M41 512v102h819v-102h-819zM111 -369q18 116 98 205q62 69 180 146l111 73q94 64 94 133q0 55 -41 82q-42 31 -96 31q-141 0 -156 -137h-182q3 87 59 158q100 127 271 127q134 0 225 -64q104 -70 104 -199q0 -146 -114 -223l-265 -178h379v-154h-667zM176 1157v158 q98 39 143 69q50 33 113 111h113v-799h-170v555q-99 -61 -199 -94z" />
<glyph unicode="&#xf5;" horiz-adv-x="901" d="M41 512v102h819v-102h-819zM82 2l379 449h215v-492h143v-143h-143v-185h-164v185h-430v186zM164 1157v158q98 39 143 69q50 33 113 111h112v-799h-163v555q-81 -47 -205 -94zM229 -41h283v332z" />
<glyph unicode="&#xf6;" horiz-adv-x="901" d="M41 512v102h819v-102h-819zM82 2l379 449h215v-492h143v-143h-143v-185h-164v185h-430v186zM123 926v16h184v-18q0 -43 51 -66q39 -20 86 -20q150 0 150 112q0 94 -102 94h-82v144h84q100 0 100 80q0 53 -51 82q-41 24 -99 24q-113 0 -137 -104h-184q9 120 110 184 q89 59 216 59q123 0 215 -51q114 -62 114 -174q0 -81 -121 -164q121 -77 121 -192q0 -127 -106 -187q-88 -51 -219 -51q-134 0 -220 51q-110 61 -110 181zM229 -41h283v332z" />
<glyph unicode="&#xf7;" horiz-adv-x="1249" d="M-61 723q0 282 92 521t250 378t344 139t344 -139t250 -378t92 -521t-92 -521t-250 -378t-344 -139t-344 139t-250 378t-92 521zM250 0h760v248h-473v1206h-287v-1454z" />
<glyph unicode="&#x2000;" horiz-adv-x="880" />
<glyph unicode="&#x2001;" horiz-adv-x="1761" />
<glyph unicode="&#x2002;" horiz-adv-x="880" />
<glyph unicode="&#x2003;" horiz-adv-x="1761" />
<glyph unicode="&#x2004;" horiz-adv-x="587" />
<glyph unicode="&#x2005;" horiz-adv-x="440" />
<glyph unicode="&#x2006;" horiz-adv-x="293" />
<glyph unicode="&#x2007;" horiz-adv-x="293" />
<glyph unicode="&#x2008;" horiz-adv-x="220" />
<glyph unicode="&#x2009;" horiz-adv-x="352" />
<glyph unicode="&#x200a;" horiz-adv-x="97" />
<glyph unicode="&#x2010;" horiz-adv-x="1024" d="M61 410v204h922v-204h-922z" />
<glyph unicode="&#x2011;" horiz-adv-x="1024" d="M61 410v204h922v-204h-922z" />
<glyph unicode="&#x2012;" horiz-adv-x="1024" d="M61 410v204h922v-204h-922z" />
<glyph unicode="&#x2013;" horiz-adv-x="1126" d="M61 410v204h1024v-204h-1024z" />
<glyph unicode="&#x2014;" horiz-adv-x="2150" d="M61 410v204h2048v-204h-2048z" />
<glyph unicode="&#x202f;" horiz-adv-x="352" />
<glyph unicode="&#x205f;" horiz-adv-x="440" />
<glyph unicode="&#xe000;" horiz-adv-x="1064" d="M0 0v1065h1065v-1065h-1065z" />
</font>
</defs>
</svg>
