<?xml version="1.0" standalone="no"?>
<!DOCTYPE svg PUBLIC "-//W3C//DTD SVG 1.1//EN" "http://www.w3.org/Graphics/SVG/1.1/DTD/svg11.dtd" >
<svg xmlns="http://www.w3.org/2000/svg">
<metadata></metadata>
<defs>
<font id="paddockext10001100bold" horiz-adv-x="1638" >
<font-face units-per-em="2048" ascent="1638" descent="-410" />
<missing-glyph horiz-adv-x="409" />
<glyph horiz-adv-x="2048" />
<glyph horiz-adv-x="2048" />
<glyph unicode="&#xd;" horiz-adv-x="2048" />
<glyph unicode=" "  horiz-adv-x="409" />
<glyph unicode="&#x09;" horiz-adv-x="409" />
<glyph unicode="&#xa0;" horiz-adv-x="409" />
<glyph unicode="!" horiz-adv-x="727" d="M205 0v328h297v-328h-297zM205 1454h319l-57 -942h-211z" />
<glyph unicode="&#x22;" horiz-adv-x="0" />
<glyph unicode="#" horiz-adv-x="819" d="M313 76q0 46 27 80q25 32 72 32q44 0 69 -32q27 -35 27 -80q0 -46 -27 -80q-30 -35 -69 -35q-46 0 -72 33q-27 34 -27 82z" />
<glyph unicode="$" horiz-adv-x="819" d="M39 373l2 36v3v39h207q-2 -14 -2 -56q0 -80 22 -119q21 -38 90 -59v416q-160 95 -225 172q-94 110 -94 276q0 204 133 310q63 51 186 63v102h97v-102q186 -3 270 -151q45 -80 45 -207v-31h-207q0 3 1 9.5t1 10.5v21q0 130 -110 151v-383q110 -72 194 -141 q139 -115 139 -330q0 -165 -92 -280q-91 -113 -241 -125v-264h-97v264q-144 15 -233 113q-86 100 -86 262zM246 1102q0 -64 30 -105q24 -27 82 -67v325q-112 -9 -112 -153zM455 217q63 29 84 59q24 34 24 101q0 135 -108 201v-361z" />
<glyph unicode="%" d="M72 1034q-3 165 102 279q102 117 252 117q148 0 250 -111q102 -114 102 -272q0 -162 -104 -269q-105 -108 -250 -108q-144 0 -248 104t-104 260zM270 1057q0 -73 43 -131q45 -60 111 -60q70 0 119 52t49 126q0 81 -49 136q-45 57 -121 57q-65 0 -109 -53 q-43 -55 -43 -127zM344 -246l801 1721h143l-809 -1721h-135zM856 168q0 170 102 281q102 114 254 114q147 0 248 -110q105 -111 105 -271t-105 -268q-106 -109 -250 -109q-138 0 -247 103q-104 104 -107 260zM1053 188q0 -75 43 -133q39 -57 108 -57q71 0 119 51 q49 52 49 127q0 80 -49 135q-46 58 -121 58q-64 0 -106 -54q-43 -55 -43 -127z" />
<glyph unicode="&#x26;" horiz-adv-x="1341" d="M76 453q0 211 139 356q52 52 150 100q-82 169 -82 269q0 156 108 241q94 76 244 76t237 -72q101 -81 101 -239q0 -124 -82 -221q-45 -51 -176 -150q93 -164 203 -297q64 113 114 287l240 -92q-30 -119 -74 -203l-43 -88l-57 -119q82 -16 168 -16v-305q-18 -3 -58 -3 q-100 0 -164 25q-63 29 -139 102q-110 -75 -172 -98q-74 -26 -190 -26q-285 0 -410 241q-57 105 -57 232zM354 483q0 -101 60 -170t153 -69q77 0 152 57q-142 167 -242 401q-123 -92 -123 -219zM522 1202q0 -76 76 -188q150 81 150 180q0 115 -113 115q-41 0 -78 -29 q-35 -30 -35 -78z" />
<glyph unicode="'" horiz-adv-x="522" d="M104 801l123 346h-112v321h299v-333l-154 -334h-156z" />
<glyph unicode="(" horiz-adv-x="819" d="M137 600q0 176 56 383q50 191 137 358q33 65 78 134h278q-152 -263 -201 -404q-67 -198 -67 -450q0 -270 71 -480q61 -173 216 -428h-277q-133 209 -195 379q-96 265 -96 508z" />
<glyph unicode=")" horiz-adv-x="819" d="M133 -289q168 257 225 420q64 192 64 477q0 296 -60 467q-56 168 -227 400h287q155 -248 213 -420q65 -198 65 -473q0 -255 -71 -459q-55 -162 -201 -412h-295z" />
<glyph unicode="*" horiz-adv-x="819" d="M84 1106l49 223l258 -162l-67 308h206l-63 -308l258 168l47 -209l-268 -28l217 -228l-164 -135l-129 324l-106 -322l-168 117l221 246z" />
<glyph unicode="+" horiz-adv-x="819" d="M35 1014q0 177 106 280q102 99 265 99h397v-123h-94v-1372h-111v1372h-149v-1372h-111v764q-154 30 -225 104q-78 84 -78 248z" />
<glyph unicode="," horiz-adv-x="409" d="M74 -348l121 348h-117v328h297l-2 -340l-150 -336h-149z" />
<glyph unicode="-" horiz-adv-x="931" d="M55 410v204h838v-204h-838z" />
<glyph unicode="." horiz-adv-x="409" d="M74 0v328h299v-328h-299z" />
<glyph unicode="/" horiz-adv-x="614" d="M18 -225l390 1720h198l-387 -1720h-201z" />
<glyph unicode="0" horiz-adv-x="819" d="M53 518v475q0 324 174 457q87 66 191 66q171 0 270 -150q90 -137 90 -332l2 -549q0 -508 -364 -508q-363 0 -363 541zM297 406q0 -201 121 -201t121 209v659q0 219 -119 219q-123 0 -123 -202v-684z" />
<glyph unicode="1" horiz-adv-x="819" d="M186 981v248q92 28 164 100q59 63 115 166h168v-1495h-242v1104q-58 -74 -88 -92q-40 -28 -117 -31z" />
<glyph unicode="2" horiz-adv-x="819" d="M37 0q0 240 72 375q56 105 133 209l168 225q92 127 92 281q0 180 -103 180q-102 0 -102 -144v-41h-242q0 5 -1 28.5t-1 41.5q0 146 109 246q104 90 237 90q150 0 260 -113q107 -116 107 -280q0 -219 -229 -496l-131 -158q-87 -107 -113 -198h471v-246h-727z" />
<glyph unicode="3" horiz-adv-x="819" d="M55 369h244v-11q0 -157 117 -157q125 0 125 176v106q0 119 -47 166q-46 49 -156 49q-31 0 -41 -2v205q10 -2 39 -2q77 0 127 41q59 47 59 127v94q0 47 -33 92q-33 39 -81 39q-82 0 -109 -125h-244q59 351 348 351q159 0 261 -99q104 -104 104 -276q0 -127 -37 -197 q-28 -61 -127 -147q175 -111 178 -297l2 -125q3 -171 -108 -285q-106 -112 -264 -112q-105 0 -193 51q-97 57 -133 155q-28 76 -31 183z" />
<glyph unicode="4" horiz-adv-x="819" d="M29 369v260l370 864h297v-901h113v-223h-113v-367h-247v367h-420zM209 592h240v594z" />
<glyph unicode="5" horiz-adv-x="819" d="M57 369h254q0 -164 109 -164q123 0 123 217v133q0 80 -29 143q-38 78 -104 78q-58 0 -99 -80h-219l21 820h632v-267h-434v-303q85 55 150 55q141 0 235 -129q88 -119 88 -280v-170q0 -112 -47 -221q-47 -115 -131 -170q-77 -51 -186 -51q-165 0 -264 102q-96 107 -99 287 z" />
<glyph unicode="6" horiz-adv-x="819" d="M55 1073q0 223 97 334q114 129 272 129q137 0 235 -98q97 -105 97 -250v-21h-234q-12 142 -106 142q-51 0 -84 -39q-35 -41 -35 -94v-318q84 66 164 66q84 0 155 -45q78 -47 111 -121q41 -93 41 -271q0 -350 -172 -458q-79 -49 -174 -49q-169 0 -268 129q-97 126 -97 311 zM299 352q0 -54 27 -100q27 -47 80 -47q55 0 90 65q26 51 26 119v156q0 60 -26 108q-34 58 -84 58q-54 0 -113 -86v-273z" />
<glyph unicode="7" horiz-adv-x="819" d="M55 1208v267h729v-207q-126 -292 -258 -824q-34 -142 -116 -444h-248q115 435 172 627q73 246 192 581h-471z" />
<glyph unicode="8" horiz-adv-x="819" d="M59 328v184q0 95 50 166q37 56 118 123q-79 65 -114 117q-41 64 -41 161v121q0 142 98 227q91 82 223 82q152 0 244 -69q111 -82 111 -238v-133q0 -87 -46 -158q-40 -57 -110 -114q88 -58 125 -107q51 -66 51 -160v-200q0 -80 -41 -158q-45 -85 -100 -129 q-84 -66 -219 -66q-141 0 -246 97q-103 100 -103 254zM303 319q0 -55 33 -94q30 -41 80 -41q51 0 80 39q30 41 30 92v248q0 51 -30 92t-80 41q-51 0 -80 -39q-33 -39 -33 -92v-246zM303 1022q0 -47 31 -86q30 -37 76 -37q41 0 69 31q29 32 29 76v178q0 48 -27 88 q-23 39 -67 39q-50 0 -80 -37q-31 -39 -31 -90v-162z" />
<glyph unicode="9" horiz-adv-x="819" d="M49 995q0 168 14 234q24 120 107 194q106 95 246 95q225 0 319 -242q45 -110 45 -240v-530q0 -145 -41 -270q-50 -151 -147 -211q-77 -50 -195 -50q-221 0 -301 177q-31 73 -43 194h254q3 -151 101 -151q110 0 110 211v225q-92 -62 -166 -62q-80 0 -153 49 q-71 48 -107 127q-43 113 -43 250zM291 1059q0 -260 129 -260q60 0 100 82v284q0 44 -31 86q-29 39 -71 39q-127 0 -127 -231z" />
<glyph unicode=":" horiz-adv-x="614" d="M150 0v328h296v-328h-296zM150 614v328h296v-328h-296z" />
<glyph unicode=";" horiz-adv-x="614" d="M154 0v328h297v-346l-154 -330h-143l114 348h-114zM154 614v328h297v-328h-297z" />
<glyph unicode="&#x3c;" d="M0 0v143h1638v-143h-1638z" />
<glyph unicode="=" horiz-adv-x="819" d="M0 451v184h819v-184h-819z" />
<glyph unicode="&#x3e;" d="M0 451v184h1638v-184h-1638z" />
<glyph unicode="?" horiz-adv-x="931" d="M74 1198q61 110 100 154q59 71 141 98q73 27 150 27q160 0 260 -74q113 -85 113 -254q0 -113 -93 -217l-114 -123q-68 -74 -68 -270v-29h-244q-6 65 -6 121q0 169 150 360q88 110 88 166q0 90 -92 90q-66 0 -101 -53q-19 -24 -51 -119zM279 0v328h299v-328h-299z" />
<glyph unicode="@" d="M96 616q0 331 191 560q110 130 280 206q170 72 334 72q174 0 330 -90q167 -99 239 -260q64 -140 64 -334q0 -199 -107 -364q-118 -183 -290 -183q-173 0 -203 125h-25q-95 -123 -217 -123q-107 0 -182 84q-74 83 -74 205q0 123 68 244q72 122 168 182q71 45 157 45 q79 0 123 -35q42 -36 66 -121l51 134h184l-118 -465q-15 -53 -15 -82q0 -68 54 -68q47 0 118 68q131 128 131 352q0 249 -153 399q-147 144 -377 144q-280 0 -463 -201q-182 -197 -182 -508q0 -184 49 -297q50 -121 176 -229q138 -117 385 -117q254 0 410 102q60 37 112 76 l11 8l53 -77q-181 -142 -299 -183q-143 -51 -295 -51q-210 0 -391 94q-207 108 -291 291q-72 153 -72 397zM674 465q0 -119 76 -119q86 0 141 125q63 147 63 274q0 45 -18 86q-24 50 -64 50q-86 0 -147 -168q-51 -131 -51 -248z" />
<glyph unicode="A" horiz-adv-x="1247" d="M74 0l387 1454h364l361 -1454h-299l-49 266l-400 -2l-65 -264h-299zM502 553h268l-113 500v73h-36v-71z" />
<glyph unicode="B" horiz-adv-x="1247" d="M168 0v1454h520q165 0 273 -102q104 -104 104 -285q0 -220 -164 -309q89 -63 135 -137q49 -76 49 -193q0 -146 -32 -223q-41 -96 -142 -160q-68 -45 -149 -45h-594zM467 223h88q233 0 233 205q0 110 -55 150q-43 34 -149 34h-117v-389zM469 860h135q76 0 119 49t43 131 q0 166 -166 166h-131v-346z" />
<glyph unicode="C" horiz-adv-x="1136" d="M113 563v375q0 557 452 557q208 0 330 -119q129 -126 129 -350v-43l-297 -2v66q0 161 -143 161q-156 0 -156 -204v-566q0 -92 33 -143q39 -51 123 -51q145 0 145 194v74h313v-68q0 -143 -59 -258q-119 -229 -379 -229q-21 0 -29 2q-169 12 -233 45q-229 116 -229 559z " />
<glyph unicode="D" horiz-adv-x="1247" d="M168 0v1454h432q237 0 365 -143q131 -146 131 -404v-315q0 -278 -86 -420q-105 -172 -344 -172h-498zM465 268h123q192 0 192 250v373q0 297 -215 297h-100v-920z" />
<glyph unicode="E" horiz-adv-x="1247" d="M168 0v1454h911v-287h-614v-266h428v-287h-428v-327h614v-287h-911z" />
<glyph unicode="F" horiz-adv-x="1136" d="M168 0v1454h874v-287h-577v-266h391v-287h-391v-614h-297z" />
<glyph unicode="G" horiz-adv-x="1247" d="M168 621l2 360q0 252 121 391q120 141 348 141q124 0 235 -51q130 -62 181 -170q37 -81 43 -248h-297l-2 29q-3 64 -47 111q-42 45 -103 45q-66 0 -117 -51q-49 -52 -49 -125v-541q0 -256 164 -256q92 0 121 59q26 45 29 152l2 65h-166v267h465v-799h-131l-37 100 q-93 -74 -146 -96q-73 -31 -166 -31q-149 0 -268 90q-122 91 -157 250q-25 109 -25 272v36z" />
<glyph unicode="H" horiz-adv-x="1341" d="M186 0v1454h297v-553h391v553h300v-1454h-300v614h-391v-614h-297z" />
<glyph unicode="I" horiz-adv-x="727" d="M55 0v184h150v1086h-150v184h615v-184h-148v-1086h148v-184h-615z" />
<glyph unicode="J" horiz-adv-x="931" d="M74 406v65h262v-133q0 -113 84 -113q82 0 82 111v1118h317v-1051q0 -151 -57 -268q-88 -178 -316 -178q-201 0 -290 115q-82 111 -82 334z" />
<glyph unicode="K" horiz-adv-x="1247" d="M131 0v1454h297v-668l397 668h349l-429 -676l472 -778h-355l-434 731v-731h-297z" />
<glyph unicode="L" horiz-adv-x="1136" d="M168 0v1454h297v-1167h596v-287h-893z" />
<glyph unicode="M" d="M186 0v1454h406l229 -897l221 897h410v-1454h-278l2 1092l-258 -1092h-207l-265 1130v-1130h-260z" />
<glyph unicode="N" horiz-adv-x="1341" d="M186 0v1454h295l393 -801v801h281v-1454h-258l-432 881v-881h-279z" />
<glyph unicode="O" horiz-adv-x="1136" d="M113 547v450q3 234 125 377q125 146 329 146q470 0 473 -516l2 -457v-11q0 -349 -196 -479q-124 -80 -266 -80q-231 0 -355 160q-112 144 -112 397v13zM424 436q0 -70 45 -121t111 -51q60 0 102 51q41 53 41 121v590q0 81 -43 139q-45 60 -115 60q-64 0 -104 -70 q-37 -58 -37 -135v-584z" />
<glyph unicode="P" horiz-adv-x="1247" d="M168 0v1454h436q227 0 354 -106q144 -120 144 -363q0 -154 -76 -276q-77 -123 -207 -164q-105 -31 -213 -31h-141v-514h-297zM465 778h100q221 0 221 199q0 206 -213 209l-108 2v-410z" />
<glyph unicode="Q" horiz-adv-x="1136" d="M55 424v616q0 224 127 351q122 122 326 122q202 0 332 -124q129 -126 129 -342v-619q0 -105 -31 -178q67 -46 141 -49v-322q-10 -2 -47 -2q-172 0 -239 174q-168 -82 -297 -82q-189 0 -314 125q-127 127 -127 330zM373 401q0 -58 43 -98q42 -39 98 -39q24 0 82 25v78 q-53 23 -94 67v262h65q43 -62 99 -82v459q0 68 -43 111q-45 45 -107 45q-56 0 -100 -41q-43 -40 -43 -103v-684z" />
<glyph unicode="R" horiz-adv-x="1247" d="M166 0l2 1454l416 -2q124 0 186 -12q111 -22 170 -78q143 -131 143 -346q0 -180 -55 -262q-56 -83 -211 -129l297 -625h-332l-247 573h-70l-2 -573h-297zM463 803h110q193 0 193 207q0 180 -141 180h-162v-387z" />
<glyph unicode="S" horiz-adv-x="1136" d="M66 295l237 166q64 -101 107 -144q62 -59 151 -59q69 0 115 37q53 44 53 113q0 79 -57 127q-40 32 -123 61q-465 173 -465 502q0 195 143 311q128 104 312 104q102 0 206 -40q114 -47 177 -121q14 -18 61 -90l-217 -179q-72 99 -100 119q-56 47 -136 47q-58 0 -104 -37 q-45 -39 -45 -100q0 -109 199 -186q173 -67 233 -105q123 -75 176 -190q43 -93 43 -193q0 -204 -149 -338q-141 -123 -332 -123q-149 0 -242 46q-110 52 -186 174q-30 46 -57 98z" />
<glyph unicode="T" horiz-adv-x="1136" d="M92 1167v287h969v-287h-334v-1167h-281v1167h-354z" />
<glyph unicode="U" horiz-adv-x="1341" d="M186 461v993l299 -2l-2 -975q0 -86 49 -147q52 -64 127 -64q82 0 142 76q53 71 53 166v944l301 2v-917q0 -557 -485 -557q-219 0 -346 118q-138 129 -138 363z" />
<glyph unicode="V" horiz-adv-x="1247" d="M41 1456h319l256 -1020l256 1020h312l-391 -1456h-342z" />
<glyph unicode="W" horiz-adv-x="1751" d="M74 1454h282l189 -969l203 969h264l200 -948l191 948h266l-313 -1454h-275l-202 940l-195 -940h-283z" />
<glyph unicode="X" horiz-adv-x="1247" d="M74 0l379 772l-365 682h313l234 -442l215 442h340l-373 -682l383 -772h-321l-244 518l-234 -518h-327z" />
<glyph unicode="Y" horiz-adv-x="1247" d="M66 1454h325l238 -534l245 534h324l-416 -901v-553h-299v567z" />
<glyph unicode="Z" horiz-adv-x="1136" d="M98 0v256l574 911h-527v287h912v-233l-565 -934h565v-287h-959z" />
<glyph unicode="[" horiz-adv-x="819" d="M131 -287v1721h539v-164h-297v-1393h297v-164h-539z" />
<glyph unicode="\" horiz-adv-x="409" d="M150 -451v2048h92v-2048h-92z" />
<glyph unicode="]" horiz-adv-x="819" d="M150 -123h296v1393h-296v164h538v-1721h-538v164z" />
<glyph unicode="^" horiz-adv-x="819" d="M74 911v258l303 -71l-82 377h248l-82 -377l303 71v-258l-301 76q28 -137 76 -268q-64 -412 -78 -762h-88q-12 355 -80 760q57 144 82 270z" />
<glyph unicode="_" horiz-adv-x="819" d="M55 236v280l322 -110q-39 149 -92 319q44 112 82 254l-312 -84v254l303 -70l-77 396h258l-78 -396l299 90v-272l-311 90q17 -121 71 -262q-36 -139 -67 -313l311 104v-280l-303 75l74 -372h-250l73 372z" />
<glyph unicode="`" d="M317 88q0 46 27 80q26 33 70 33q43 0 69 -33q29 -37 29 -80t-29 -80q-27 -35 -69 -35q-44 0 -70 33q-27 35 -27 82zM1130 88q0 46 27 80q29 33 72 33q42 0 71 -33q27 -34 27 -80t-27 -80q-30 -35 -71 -35q-43 0 -72 33q-27 34 -27 82z" />
<glyph unicode="a" horiz-adv-x="931" d="M35 281q0 237 213 346q99 49 274 69v86q0 51 -47 78q-38 21 -88 21q-100 0 -211 -105l-127 172q91 76 158 101q98 36 213 36q359 0 362 -297l2 -479q0 -63 9 -84q16 -28 65 -37v-188q-56 -20 -88 -20q-96 0 -207 126q-129 -129 -262 -129q-125 0 -195 82q-71 83 -71 222z M297 305q0 -106 92 -106q133 0 133 217v116q-95 -3 -160 -65t-65 -162z" />
<glyph unicode="b" horiz-adv-x="931" d="M92 0v1475h262v-512h29q104 122 235 122q259 0 259 -417v-250q0 -173 -56 -291q-71 -152 -215 -152q-138 0 -252 156v-131h-262zM354 340q0 -29 47 -64q49 -34 80 -34q119 0 119 209v219q0 190 -98 190q-50 0 -148 -88v-432z" />
<glyph unicode="c" horiz-adv-x="819" d="M55 383v301q0 184 95 305q94 117 264 117q152 0 248 -96q102 -102 102 -265v-8h-223q-15 65 -35 88q-23 33 -78 33q-74 0 -98 -78q-15 -46 -15 -147v-170q0 -250 109 -250q102 0 102 137v19h238q0 -84 -8 -138q-11 -58 -56 -122q-97 -132 -280 -132q-93 0 -172 39 q-92 44 -135 119q-58 99 -58 248z" />
<glyph unicode="d" horiz-adv-x="931" d="M55 330v395q0 146 45 244q58 123 183 123q136 0 276 -131v514h260v-1475h-260v109q-5 -4 -18 -17q-79 -71 -107 -88q-53 -29 -125 -29q-124 0 -194 113q-60 102 -60 242zM336 389q0 -77 12 -104q18 -41 82 -41q62 0 129 73v451q-84 90 -133 90q-90 0 -90 -143v-326z" />
<glyph unicode="e" horiz-adv-x="931" d="M113 418v274q0 254 137 348q97 66 211 66q115 0 198 -57q90 -60 125 -177q35 -122 35 -331v-70h-465q-4 -66 -4 -70q0 -91 45 -145q46 -55 127 -55q107 0 254 84l43 -226q-192 -79 -313 -79q-111 0 -201 43q-107 50 -151 147q-41 93 -41 248zM354 655h242v93 q0 61 -39 106q-38 47 -94 47q-50 0 -80 -47q-29 -50 -29 -104v-95z" />
<glyph unicode="f" horiz-adv-x="614" d="M0 840v225h150v166q0 244 303 244h143v-228h-88q-70 0 -88 -57q-10 -30 -10 -125h186v-225h-186v-840h-260v840h-150z" />
<glyph unicode="g" horiz-adv-x="931" d="M74 291v450q0 135 63 226q70 98 191 98q160 0 268 -197v176h242l-2 -985q0 -220 -109 -335q-112 -115 -311 -115q-145 0 -240 86q-40 40 -84 92l160 125q79 -98 164 -98q89 0 127 47q35 47 35 151v133q-164 -147 -254 -147q-106 0 -179 88q-71 89 -71 205zM354 338 q0 -94 88 -94q59 0 133 71v392q-73 73 -122 73q-99 0 -99 -123v-319z" />
<glyph unicode="h" horiz-adv-x="931" d="M92 0v1475h262v-557q164 167 279 167q107 0 168 -94q55 -85 55 -205v-786h-260v674q0 141 -92 141q-62 0 -150 -108v-707h-262z" />
<glyph unicode="i" horiz-adv-x="522" d="M131 0v1065h260v-1065h-260zM131 1229v266h260v-266h-260z" />
<glyph unicode="j" horiz-adv-x="522" d="M-37 -102q10 -2 49 -2q77 0 107 30q31 31 31 111v1028h260v-1088q0 -108 -19 -170q-27 -83 -102 -124q-91 -52 -236 -52q-47 0 -90 19v248zM150 1229v266h260v-266h-260z" />
<glyph unicode="k" horiz-adv-x="931" d="M74 0v1475h264v-887l221 477h289l-244 -477l295 -588h-295l-266 567v-567h-264z" />
<glyph unicode="l" horiz-adv-x="522" d="M131 0v1475h260v-1475h-260z" />
<glyph unicode="m" horiz-adv-x="1452" d="M92 0v1065h244v-174q81 101 123 135q71 59 157 59q82 0 136 -51q56 -53 71 -139q152 192 293 192q129 0 189 -106q55 -88 55 -236v-745h-262v700q0 49 -23 82q-24 37 -63 37q-66 0 -156 -112v-707h-260v727q0 41 -27 68q-23 26 -63 26q-63 0 -152 -114v-707h-262z" />
<glyph unicode="n" horiz-adv-x="931" d="M92 0v1065h244v-170l51 57q71 77 96 95q52 38 123 38q122 0 189 -108q61 -94 61 -232v-745h-278v731q0 84 -62 84q-71 0 -137 -78q-23 -30 -23 -75l-2 -662h-262z" />
<glyph unicode="o" horiz-adv-x="931" d="M76 473v180q0 455 387 455q395 0 395 -438v-207q0 -490 -383 -490q-399 0 -399 500zM354 346q0 -48 29 -88q30 -37 78 -37q49 0 84 35t35 90v404q0 47 -33 92q-35 41 -82 41q-49 0 -78 -39q-33 -39 -33 -94v-404z" />
<glyph unicode="p" horiz-adv-x="931" d="M92 -389v1454h244v-172q15 23 24 33q68 83 107 112q65 47 139 47q76 0 137 -49q62 -53 86 -129q29 -102 29 -237v-246q0 -287 -61 -363q-28 -36 -82 -59q-58 -25 -101 -25q-128 0 -260 150v-516h-262zM354 332q0 -50 41 -78q39 -33 84 -33q121 0 121 170l-2 256 q0 58 -23 109q-27 59 -79 59q-37 0 -95 -49l-47 -41v-393z" />
<glyph unicode="q" horiz-adv-x="931" d="M74 317v408q0 139 59 242q69 118 193 118q81 0 155 -59q65 -48 115 -137v176h242v-1454h-260v520q-3 -3 -20.5 -21t-31.5 -32q-50 -55 -88 -78q-48 -23 -112 -23q-252 0 -252 340zM334 428q0 -92 12 -135q21 -72 90 -72q54 0 142 70v436q0 25 -58 49q-56 27 -84 27 q-102 0 -102 -152v-223z" />
<glyph unicode="r" horiz-adv-x="727" d="M92 0v1065h244v-215q100 145 139 174q59 47 158 63v-368q-130 -15 -279 -88v-631h-262z" />
<glyph unicode="s" horiz-adv-x="727" d="M37 117l125 186q108 -117 200 -117q91 0 91 78q0 48 -37 78q-27 22 -76 45q-49 27 -84 49q-75 46 -113 76q-104 82 -104 242q0 152 100 245q92 86 236 86q138 0 284 -110l-110 -182q-110 67 -182 67q-91 0 -91 -59q0 -47 66 -88l12 -5q13 -6 37.5 -17t52.5 -25 q250 -114 250 -357q0 -89 -39 -166q-40 -81 -110 -118q-88 -48 -207 -48q-94 0 -164 31q-58 27 -137 109z" />
<glyph unicode="t" horiz-adv-x="614" d="M18 840v225h132v369h260v-369h168v-225h-168v-498q0 -70 24 -94q25 -25 90 -25q4 0 54 4v-225q-93 -22 -158 -22q-85 0 -150 45q-69 45 -96 129q-24 83 -24 206v480h-132z" />
<glyph unicode="u" horiz-adv-x="931" d="M92 319v746h262v-733q0 -88 88 -88q43 0 88 26q45 28 45 68l3 727h278v-1065h-260v156q-57 -90 -104 -129q-65 -50 -150 -50q-128 0 -192 105q-58 92 -58 237z" />
<glyph unicode="v" horiz-adv-x="819" d="M18 1065h263l139 -561l121 561h264l-268 -1065h-244z" />
<glyph unicode="w" horiz-adv-x="1341" d="M66 1065h239l137 -598l140 598h200l142 -598l135 598h233l-274 -1065h-189l-147 631l-160 -631h-190z" />
<glyph unicode="x" horiz-adv-x="931" d="M55 0l275 541l-260 524h276l125 -287l121 287h274l-254 -520l277 -545h-271l-145 285l-135 -285h-283z" />
<glyph unicode="y" horiz-adv-x="819" d="M16 -80q34 -6 72 -6q193 0 193 168q0 49 -76 317l-189 666h260l138 -512l110 512h264l-270 -1069l-18 -72q-34 -118 -115 -190q-84 -78 -192 -78q-77 0 -177 33v231z" />
<glyph unicode="z" horiz-adv-x="819" d="M74 0v186l379 674h-361v205h672v-184l-379 -676h379v-205h-690z" />
<glyph unicode="{" horiz-adv-x="522" d="M113 778v324l149 332h152l-119 -349h115v-307h-297z" />
<glyph unicode="|" horiz-adv-x="522" d="M104 801l123 346h-112v321h299v-333l-154 -334h-156z" />
<glyph unicode="&#xa4;" horiz-adv-x="819" d="M78 678q0 103 35 168q25 51 112 119q-71 44 -100 92q-31 51 -31 133q0 142 86 219q79 70 213 70q131 0 217 -74q95 -83 95 -221q0 -123 -127 -232q77 -64 104 -112q35 -65 35 -156q0 -145 -92 -240q-91 -98 -226 -98q-139 0 -229 90q-92 89 -92 242zM254 682 q0 -71 43 -123q41 -53 104 -53q66 0 109 55t43 129t-41 133q-43 58 -111 58q-65 0 -106 -62q-41 -58 -41 -137zM256 1184q0 -69 41 -113q40 -49 100 -49q56 0 97 41t41 102q0 67 -41 117q-40 49 -101 49q-57 0 -98 -41q-39 -42 -39 -106z" />
<glyph unicode="&#xa5;" horiz-adv-x="819" d="M115 684v420q0 161 82 266q80 105 227 105q102 0 182 -62q84 -65 107 -166q18 -76 18 -180v-387q0 -145 -86 -240q-85 -94 -219 -94q-135 0 -223 94q-88 97 -88 244zM283 713q0 -77 34 -135q38 -68 103 -68q66 0 104 53q39 55 39 129v447q0 66 -35 116q-38 56 -96 56 q-62 0 -104 -54q-43 -52 -43 -124z" />
<glyph unicode="&#xa6;" horiz-adv-x="819" d="M223 1085v168q154 59 248 222h125v-1106h-168v843q-86 -86 -205 -127z" />
<glyph unicode="&#xa7;" horiz-adv-x="819" d="M113 369v47q0 92 43 174q29 51 108 139l228 252q69 78 69 176q0 70 -37 113q-36 45 -100 45q-127 0 -145 -168h-166v31q0 135 96 219q87 78 211 78q138 0 223 -82q86 -83 86 -230q0 -183 -123 -297l-174 -164q-65 -59 -106 -149h401v-184h-614z" />
<glyph unicode="&#xa8;" horiz-adv-x="819" d="M92 635h160q0 -67 43 -107q39 -39 104 -39q70 0 107 52q39 51 39 129q0 170 -160 170h-106v164h90q174 0 174 157q0 67 -43 107q-43 43 -103 43q-95 0 -139 -103h-166v13q0 103 105 174q91 61 190 61q139 0 217 -63q96 -75 96 -215q0 -91 -34 -146q-26 -40 -111 -96 q90 -68 121 -115q45 -65 45 -166q0 -141 -96 -231q-91 -82 -226 -82q-110 0 -192 53q-98 61 -113 172q-2 10 -2 68z" />
<glyph unicode="&#xa9;" horiz-adv-x="819" d="M74 635v166l379 674h198v-697h113v-143h-113v-266h-168v266h-409zM221 778h262l2 506l-262 -471z" />
<glyph unicode="&#xaa;" horiz-adv-x="819" d="M117 625v8h186v-29q0 -115 111 -115q70 0 110 76q35 65 35 148q0 211 -151 211q-67 0 -136 -84h-122l40 635h504v-185h-372l-17 -264q74 59 146 59q130 0 208 -112q72 -107 72 -252q0 -231 -139 -318q-85 -55 -189 -55q-117 0 -198 72q-88 79 -88 205z" />
<glyph unicode="&#xab;" horiz-adv-x="819" d="M92 803v223q0 274 133 383q76 61 176 61q114 0 203 -77q100 -81 103 -205h-166q-52 125 -133 125q-148 0 -148 -269q0 -21 1 -49.5t1 -36.5q106 68 189 68q122 0 198 -94q78 -96 78 -232q0 -87 -37 -168q-36 -84 -100 -133q-71 -53 -184 -53q-162 0 -246 146 q-68 121 -68 311zM258 698q0 -80 39 -135q40 -61 111 -61q67 0 104 55q39 53 39 131q0 193 -143 193q-69 0 -109 -52q-41 -53 -41 -131z" />
<glyph unicode="&#xac;" horiz-adv-x="819" d="M109 1348v170h614v-142l-324 -962h-192l356 934h-454z" />
<glyph unicode="&#xad;" horiz-adv-x="931" d="M55 410v204h838v-204h-838z" />
<glyph unicode="&#xae;" horiz-adv-x="819" d="M90 1112q0 163 84 260q82 98 227 98q324 0 324 -507v-132q0 -198 -76 -331q-86 -154 -260 -154q-95 0 -168 55q-75 59 -98 156q-3 12 -14 76h165q15 -66 43 -94q29 -29 82 -29q91 0 121 70q21 54 21 159q0 25 -1 60.5t-1 46.5q-116 -72 -187 -72q-122 0 -196 105 q-66 92 -66 233zM256 1124q0 -76 35 -135q38 -65 106 -65t107 57q39 61 39 135q0 195 -144 195q-67 0 -106 -54q-37 -52 -37 -133z" />
<glyph unicode="&#xb0;" d="M92 1110v176q89 37 137 72q44 33 115 117h113v-986h-185v717q-83 -68 -180 -96zM272 -225l807 1700h131l-804 -1700h-134zM915 57q0 81 37 142q19 36 92 106q-112 100 -112 211q0 126 92 197q81 63 199 63q121 0 202 -63q97 -75 97 -199q0 -64 -37 -119q-17 -28 -82 -90 q73 -60 98 -104q37 -61 37 -142q0 -127 -96 -211q-87 -75 -211 -75q-130 0 -217 69q-99 79 -99 215zM1108 84q0 -59 31 -104q30 -43 86 -43q58 0 88 40q30 41 30 105q0 60 -30 100q-30 43 -86 43q-51 0 -86 -41q-33 -39 -33 -100zM1110 498q0 -49 33 -82q29 -33 76 -33 q45 0 81 33q37 34 37 80q0 49 -32 86q-32 32 -82 32q-48 0 -80 -32q-33 -33 -33 -84z" />
<glyph unicode="&#xb1;" d="M55 522v92h1528v-92h-1528zM174 98v166q94 25 150 64q46 32 106 123h135v-822h-186v555q-93 -65 -205 -86zM475 899v21l203 2q21 -82 117 -82q47 0 86 26t39 74q0 84 -86 84h-64v145l55 -2q33 0 54 27q22 31 22 68q0 90 -98 90q-85 0 -144 -103h-165q0 122 104 189 q86 57 205 57q117 0 190 -43q99 -56 99 -172q0 -49 -25 -94q-15 -27 -59 -80q100 -100 100 -188q0 -118 -102 -179q-82 -49 -199 -49q-193 0 -281 101q-51 57 -51 108zM829 20q0 429 334 429q90 0 170 -41q92 -47 119 -129q5 -16 8 -54h-192q-16 49 -45 58q-15 6 -72 6 q-123 0 -123 -144q0 -26 4 -49q96 41 166 41q105 0 184 -65q93 -75 93 -181q0 -124 -95 -200q-86 -64 -204 -64q-241 0 -308 174q-39 95 -39 219zM1032 -109q0 -98 115 -98q129 0 129 107q0 100 -119 100q-45 0 -84 -27q-41 -28 -41 -82z" />
<glyph unicode="&#xb2;" d="M92 1098v188q88 20 144 64q35 30 106 123h123v-1002h-195v715q-79 -64 -178 -88zM270 -225l811 1698h136l-801 -1698h-146zM874 0v195l345 563h251v-594h95v-164h-95v-225h-186v225h-410zM1010 164h274v444z" />
<glyph unicode="&#xb3;" d="M55 522v92h1528v-92h-1528zM170 86v170q90 28 137 63q37 26 107 115h141v-799h-186v547q-95 -67 -199 -96zM479 897h187q44 -68 110 -68q51 0 90 33q39 36 39 88q0 50 -37 84q-36 33 -84 33q-58 0 -106 -45h-180l24 469h533v-174h-389v-135q77 39 157 39q112 0 195 -68 q92 -74 92 -195q0 -135 -106 -215q-94 -69 -222 -69q-95 0 -170 37q-92 43 -120 127q-12 40 -13 59zM829 18q0 422 326 422q209 0 277 -147q5 -9 26 -68h-192q-30 68 -107 68q-85 0 -115 -62q-19 -39 -22 -147q73 49 158 49q118 0 196 -63q88 -70 88 -195q0 -127 -96 -192 q-79 -58 -201 -58q-338 0 -338 393zM1026 -106q0 -55 37 -82q36 -31 84 -31q133 0 133 108q0 59 -35 84q-40 29 -88 29q-131 0 -131 -108z" />
<glyph unicode="&#xb4;" d="M74 752h180q30 -107 117 -107q110 0 110 125q0 53 -28 88q-25 38 -74 41l-103 4v160h86q49 0 84 35t35 88q0 49 -32 86q-30 35 -78 35q-100 0 -115 -103h-182q9 133 94 203q75 63 203 63q118 0 200 -65q97 -72 97 -197q0 -149 -131 -207q151 -107 151 -243 q0 -133 -94 -215q-90 -78 -211 -78q-140 0 -219 67q-90 75 -90 220zM346 -227l809 1697h139l-792 -1697h-156zM950 59q0 143 140 244q-123 91 -123 209q0 124 88 197q79 65 198 65q118 0 199 -63q94 -70 94 -195q0 -118 -121 -211q79 -69 101 -104q39 -64 39 -142 q0 -137 -95 -217q-85 -73 -213 -73q-126 0 -213 75q-94 82 -94 215zM1135 76q0 -61 32 -99q37 -43 88 -43q56 0 86 41q35 44 35 103q0 56 -35 100q-33 45 -86 45t-86 -45q-34 -42 -34 -102zM1137 498q0 -54 32 -86q35 -35 82 -35q43 0 78 35q33 38 33 84q0 116 -111 116 q-47 0 -82 -30q-32 -32 -32 -84z" />
<glyph unicode="&#xb6;" d="M92 1098v188q92 21 144 64q43 39 106 125h123l-2 -1002l-184 -2v715q-85 -64 -187 -88zM287 -227l774 1702h158l-787 -1700zM928 -225q6 145 112 272q34 41 109 123l117 129q94 105 94 168q0 57 -35 92t-86 35q-112 0 -115 -143h-194v24q0 136 94 221q87 78 215 78 q133 0 217 -78q90 -84 90 -227q0 -163 -141 -283l-109 -94l-86 -82v-30h336v-205h-618z" />
<glyph unicode="&#xb8;" d="M72 737h186q21 -102 100 -102q67 0 103 45q39 45 39 119q0 68 -39 116q-42 48 -103 48q-65 0 -112 -62h-152l35 574h518v-195h-371l-2 -207q72 35 129 35q125 0 205 -86q78 -87 78 -225q0 -146 -88 -234q-89 -92 -221 -92q-67 0 -139 29q-83 37 -107 90l-47 90zM338 -227 l792 1702h140l-785 -1700zM938 55q0 88 47 150q26 38 113 102q-129 71 -129 205q0 130 86 201q77 65 198 65q113 0 199 -65q98 -76 98 -195q0 -106 -125 -213q144 -105 144 -246q0 -131 -101 -213q-88 -73 -211 -73q-130 0 -217 69q-102 79 -102 213zM1139 86q0 -61 28 -106 q30 -43 86 -43q54 0 88 40q31 42 31 105q0 58 -31 100q-34 43 -86 43q-57 0 -86 -39q-30 -40 -30 -100zM1139 496q0 -109 106 -109q119 0 119 113v10q0 44 -35 76q-36 28 -76 28q-54 0 -82 -32q-32 -37 -32 -86z" />
<glyph unicode="&#xb9;" d="M55 522v92h1528v-92h-1528zM156 57v172q84 14 141 58q32 23 106 121h132v-797h-187v541q-62 -52 -90 -64q-42 -18 -102 -31zM164 1124v172q90 16 141 58q29 23 107 121h129v-797h-185v541q-89 -74 -192 -95zM817 -2q0 418 332 418q103 0 192 -47q111 -58 111 -160v-21 h-186q-27 68 -107 68q-147 0 -153 -209q83 59 165 59q76 0 150 -38q89 -45 117 -111q16 -40 16 -96q0 -173 -149 -234q-73 -33 -166 -33q-163 0 -246 115q-76 109 -76 289zM868 1124v172q88 15 142 58q26 21 106 121h129v-797h-186v541q-79 -70 -191 -95zM1024 -141 q0 -113 119 -113q135 0 135 109q0 110 -125 110q-129 0 -129 -106z" />
<glyph unicode="&#xba;" d="M53 733v21h180q15 -60 41 -86q25 -25 82 -25q47 0 82 35q31 36 31 90q0 130 -111 133l-100 2v162h84q50 0 86 33q33 33 33 88q0 123 -111 123q-99 0 -114 -101h-181q9 133 97 203q79 64 206 64q114 0 199 -60q94 -70 94 -192q0 -83 -28 -131q-23 -40 -101 -88 q77 -53 107 -99q37 -55 37 -145q0 -85 -43 -158q-47 -77 -115 -106q-59 -27 -146 -27q-126 0 -208 61q-101 70 -101 203zM375 -225l794 1700h142l-799 -1700h-137zM895 0v215l344 563h252v-614h94v-164h-94v-225h-186v225h-410zM1030 164h275l-2 448z" />
<glyph unicode="&#xbb;" d="M55 522v92h1528v-92h-1528zM156 1124v172q84 14 141 58q32 23 106 121h132v-797h-187v541q-84 -72 -192 -95zM162 78v164q98 34 137 63q51 39 98 123h138v-815h-187v543q-83 -57 -186 -78zM811 10q0 418 338 418q78 0 154 -31q90 -37 120 -102q12 -36 17 -90h-180 q-23 63 -103 63q-150 0 -156 -207q85 60 164 60q74 0 154 -39q86 -45 115 -113q16 -43 16 -96q0 -171 -150 -233q-76 -33 -165 -33q-167 0 -246 114q-78 107 -78 289zM823 901h193q18 -84 119 -84q42 0 84 27q41 27 41 78q0 82 -93 82h-57v141l39 -2q41 -3 68 24 q26 26 26 72q0 45 -31 70q-30 24 -71 24q-51 0 -80 -16q-25 -16 -47 -70h-185q9 75 62 131q94 97 256 97q115 0 188 -43q92 -56 92 -172q0 -71 -22 -103q-19 -34 -80 -70q123 -74 123 -182q0 -77 -51 -137q-81 -96 -242 -96q-149 0 -219 37q-95 50 -113 192zM1018 -129 q0 -55 37 -82q39 -31 84 -31q51 0 90 25q45 28 45 84q0 57 -37 84q-40 29 -88 29q-131 0 -131 -109z" />
<glyph unicode="&#xbc;" d="M82 1475h612v-140q-161 -397 -315 -864h-199l301 799h-397zM297 -225l790 1700h138l-789 -1700h-139zM971 70q0 81 33 137q30 51 90 106q-119 104 -119 201q0 124 98 197q85 67 201 67q115 0 199 -63q94 -70 94 -191q0 -77 -33 -127q-21 -35 -90 -88q73 -67 98 -104 q41 -62 41 -142q0 -138 -94 -217q-85 -73 -213 -73q-131 0 -215 75q-90 81 -90 222zM1159 90q0 -153 115 -153q110 0 110 145q0 143 -110 143q-55 0 -84 -39q-31 -42 -31 -96zM1159 496q0 -109 115 -109q110 0 110 113q0 54 -32 82q-32 32 -80 32q-52 0 -82 -30 q-31 -36 -31 -88z" />
<glyph unicode="&#xbd;" d="M55 522v92h1528v-92h-1528zM178 59v185q80 15 131 57q37 29 101 111h141v-799h-186v547q-96 -68 -187 -101zM184 1120v183q83 21 133 57q34 27 101 113h139v-801h-186v547q-86 -62 -187 -99zM819 879h187q44 -68 110 -68q51 0 90 33t39 88q0 52 -37 82q-33 33 -84 33 q-55 0 -104 -46h-182l28 472h531v-175h-391v-137q77 39 159 39q112 0 197 -67q90 -75 90 -195q0 -140 -106 -215q-89 -68 -224 -68q-95 0 -170 37q-94 45 -121 127q0 5 -12 60zM838 -8q0 422 325 422q208 0 279 -148q9 -19 24 -67h-190q-30 67 -107 67q-80 0 -114 -61 q-22 -49 -25 -148q76 49 158 49q118 0 196 -63q91 -72 91 -195q0 -128 -109 -194q-88 -55 -211 -55q-162 0 -244 110q-73 101 -73 283zM1032 -129q0 -55 35 -82q39 -31 86 -31q133 0 133 109q0 57 -37 84q-37 29 -88 29q-129 0 -129 -109z" />
<glyph unicode="&#xbe;" d="M92 1098v188q92 21 144 64q43 39 106 125h123v-1004h-186v715q-85 -64 -187 -88zM268 -248l803 1723h143l-806 -1721zM920 39h180q35 -121 119 -121q60 0 94 43q35 43 35 115q0 170 -142 170q-54 0 -100 -49l-156 10l29 551h520l-2 -205h-381v-191q61 46 129 46 q126 0 211 -91q86 -89 86 -227q0 -146 -90 -242t-221 -96q-172 0 -258 127q-34 51 -53 160z" />
<glyph unicode="&#xbf;" d="M47 492q0 160 174 337q15 16 74.5 77.5t103.5 107.5q53 56 66 94q8 19 8 66q0 124 -111 124q-118 0 -118 -145v-6h-197v29q0 145 96 231q88 82 222 82q127 0 217 -84q94 -88 94 -227q0 -156 -119 -269q-53 -49 -127 -108q-28 -22 -94 -88v-37h317v-184h-606zM365 -244 l813 1737h147l-813 -1737h-147zM995 43h183q19 -65 41 -84q25 -22 79 -22q56 0 86 40q33 39 33 105q0 166 -139 166q-54 0 -96 -45h-160l22 553h523v-185h-373v-204q62 47 127 47q124 0 211 -90q86 -89 86 -226q0 -140 -92 -243q-94 -101 -226 -101q-67 0 -139 35 q-72 39 -108 94q-40 58 -58 160z" />
<glyph unicode="&#xc0;" d="M63 754l197 2v-25q0 -43 33 -63q33 -23 69 -23q51 0 89 35q36 36 36 92q0 58 -38 102q-40 46 -91 46h-73v165h86q104 0 104 109q0 53 -31 84q-29 33 -79 33q-104 0 -119 -103h-180q6 128 102 209q88 76 209 76q110 0 190 -68q92 -74 92 -190q0 -92 -26 -137 q-23 -45 -101 -94q162 -98 162 -244q0 -130 -104 -215q-93 -78 -217 -78q-195 0 -271 131q-39 62 -39 156zM332 -248l813 1741h155l-802 -1741h-166zM971 20v21h186q15 -107 105 -107q60 0 90 46t30 110q0 160 -122 160q-46 0 -103 -45h-153l14 569h518v-194h-373l-6 -191 q71 39 141 39q118 0 203 -94q86 -95 86 -225q0 -138 -88 -246q-88 -107 -217 -107q-153 0 -262 133q-49 64 -49 131z" />
<glyph unicode="&#xc1;" d="M41 696v201l377 578h217v-615h113v-164h-113v-223h-170v223h-424zM193 860h274v457zM371 -248l807 1723h141l-805 -1721zM991 41h185q3 -53 38 -88t82 -35q48 0 86 47q39 48 39 107q0 174 -137 174q-46 0 -90 -41h-166l21 551l518 2v-205h-371v-164q81 19 125 19 q123 0 203 -86q82 -88 82 -220q0 -164 -82 -258q-80 -92 -232 -92q-283 0 -301 289z" />
<glyph unicode="&#xc2;" d="M55 522v92h1528v-92h-1528zM168 80v182q77 15 129 57q27 20 102 111h142v-799h-187v547q-87 -61 -186 -98zM502 1137v182q79 14 131 57q30 22 100 111h141v-799h-186v547q-84 -61 -186 -98zM819 14q0 208 66 308q75 118 256 118q217 0 284 -147q6 -8 27 -68h-192 q-18 44 -48 56q-15 6 -69 6q-133 0 -133 -187v-24q80 53 170 53q120 0 192 -63q80 -71 80 -195q0 -131 -94 -201q-82 -61 -207 -61q-170 0 -254 112q-78 107 -78 293zM1016 -117q0 -55 37 -82q35 -30 84 -30q135 0 135 108q0 113 -127 113q-129 0 -129 -109z" />
<glyph unicode="&#xc3;" d="M55 522v92h1528v-92h-1528zM164 96v172q90 16 141 58q31 25 107 120h129v-796h-185v540q-87 -72 -192 -94zM522 1331v164l613 -2v-100l-306 -697h-204l286 635h-389zM817 33q0 418 332 418q274 0 309 -226h-192q-28 66 -107 66q-147 0 -153 -207q83 59 165 59 q79 0 150 -39q89 -45 117 -112q16 -40 16 -96q0 -171 -149 -232q-76 -33 -166 -33q-160 0 -246 115q-76 105 -76 287zM1022 -104q0 -48 41 -78q37 -27 80 -27q40 0 86 27q39 26 39 78q0 47 -33 73q-35 30 -78 33q-46 3 -88 -25q-47 -30 -47 -81z" />
<glyph unicode="&#xc4;" d="M55 522v92h1528v-92h-1528zM166 100v162q92 24 139 62q32 23 105 125h131v-818h-187v555q-48 -42 -86 -59q-29 -15 -102 -27zM449 1251q0 125 100 193q83 57 207 57t194 -37q85 -48 121 -161q27 -95 27 -193q0 -204 -66 -305q-80 -115 -260 -115q-122 0 -205 47 q-103 57 -106 183h184q12 -76 105 -76q147 0 153 207q-85 -60 -170 -60q-108 0 -190 70q-94 76 -94 190zM649 1237q0 -42 37 -74q37 -26 76 -26q51 0 90 26q49 30 49 84q0 48 -33 74q-35 30 -75 33q-52 3 -95 -27q-49 -34 -49 -90zM813 29q0 426 332 426q119 0 198 -49 q104 -61 107 -179l-188 2q-28 66 -105 66q-150 0 -156 -207q89 59 166 59q78 0 156 -38q75 -40 111 -113q16 -33 16 -98q0 -132 -86 -203q-78 -66 -201 -66q-350 0 -350 400zM1016 -106q0 -48 41 -78q37 -27 80 -27q40 0 86 27q37 27 37 78q0 45 -31 73q-36 28 -76 31 q-48 3 -90 -25q-47 -30 -47 -79z" />
<glyph unicode="&#xc6;" d="M0 481q239 181 315 318q26 51 70 168q76 -130 76 -197q0 -71 -72 -152h1249v-262h-1249q66 -60 66 -149q0 -88 -64 -207q-37 87 -74 158q-53 108 -135 184q-25 25 -182 139z" />
<glyph unicode="&#xc7;" d="M113 389v1045l147 55v-514q64 89 102 123q64 55 140 55q101 0 157 -90q48 -74 48 -195v-479h-148v428q0 74 -22 135q-31 78 -93 78q-53 0 -125 -84q-38 -47 -47 -74q-12 -27 -12 -86v-397h-147zM891 756q0 148 70 270q83 139 210 139q122 0 207 -149v418l150 55v-1045 l-150 -55v131q-100 -151 -215 -151q-132 0 -207 127q-65 107 -65 260zM1044 764q0 -92 31 -162q37 -88 115 -88q85 0 131 88q41 74 41 174q0 94 -35 156q-40 76 -121 76q-83 0 -127 -80q-35 -65 -35 -164z" />
<glyph unicode="&#xc8;" d="M0 481q239 181 315 318q26 51 70 168q76 -130 76 -197q0 -71 -72 -152h860q-65 53 -65 142q0 90 63 207q37 -87 74 -158q53 -108 135 -184q29 -29 182 -140q-240 -181 -315 -317q-26 -51 -70 -168q-75 129 -75 197q0 71 71 151h-860q66 -54 66 -141q0 -88 -64 -207 q-37 87 -74 158q-53 108 -135 184q-25 25 -182 139z" />
<glyph unicode="&#xc9;" d="M131 389v701l148 57v-152q87 94 106 111q69 57 135 57q84 0 135 -69q52 -70 52 -164v-541h-148v524q0 44 -27 93q-27 43 -71 43q-57 0 -113 -80q-69 -101 -69 -209v-371h-148zM893 389v1045l149 51v-711l279 373h186l-280 -363v-24l280 -371h-186l-279 371v-371h-149z " />
<glyph unicode="&#xca;" d="M379 98q94 70 176 70q79 0 133 -72v1534l240 -2v-1532q72 78 137 78t178 -82q-167 -71 -270 -186q-67 -73 -170 -238q-65 107 -166 252q-60 63 -258 178z" />
<glyph unicode="&#xcb;" d="M55 -369v1823h1510v-1823h-1510zM186 -225h1248v1536h-1248v-1536zM446 0v1085h318q187 0 270 -59q127 -87 127 -264q0 -232 -213 -291l193 -471h-215l-189 451h-86v-451h-205zM651 635h121q87 0 123 20q55 27 55 113q0 88 -59 115q-37 18 -127 18h-113v-266z" />
<glyph unicode="&#xcc;" d="M115 395l51 133h305l119 340h-344l51 133h319l166 523h150l-176 -523h278l170 523h144l-170 -523h301l-35 -133h-303l-107 -340h314l-41 -133h-312l-164 -512h-145l162 512h-279l-170 -512h-137l168 512h-315zM616 528h271l108 340h-272z" />
<glyph unicode="&#xcd;" horiz-adv-x="819" d="M37 1159v49h280l78 267h47l80 -267h279v-49l-205 -158l74 -274l-45 -47l-199 160l-213 -160l-45 47l74 274z" />
<glyph unicode="&#xce;" horiz-adv-x="845" d="M70 352l346 942h4l344 -942l-279 226v-615h-135v615z" />
<glyph unicode="&#xcf;" d="M205 582l604 915l618 -915l-608 -936z" />
<glyph unicode="&#xd0;" d="M59 -317v1822h1508v-1822h-1508zM190 -174h1248v1536h-1248v-1536zM418 268l157 111q118 -182 281 -182q57 0 105 36q49 37 49 97q0 92 -201 184q-149 67 -227 139q-119 107 -119 242q0 137 100 223q98 76 225 76q116 0 234 -70q113 -67 166 -182l-154 -115 q-115 168 -248 168q-112 0 -112 -98q0 -80 121 -139q208 -105 301 -183q110 -98 110 -251q0 -155 -110 -246q-100 -84 -246 -84q-283 0 -432 274z" />
<glyph unicode="&#xd1;" d="M55 -369v1823h1510v-1823h-1510zM186 -225h1248v1536h-1248v-1536zM391 922v204h838v-204h-318v-922h-204v922h-316z" />
<glyph unicode="&#xd2;" d="M0 0v143h1638v-143h-1638z" />
<glyph unicode="&#xd3;" horiz-adv-x="819" d="M0 0v143h819v-143h-819z" />
<glyph unicode="&#xd4;" d="M131 92l567 625l-567 624l129 144l569 -625l568 625l127 -148l-566 -620l568 -625l-129 -143l-568 624l-569 -624z" />
<glyph unicode="&#xd5;" d="M242 553v184h485v553h166v-553h485v-184h-485v-553h-166v553h-485z" />
<glyph unicode="&#xd6;" d="M55 -348v1802h1510v-1802h-1510zM186 -205h1266v1536h-1266v-1536zM553 563q0 118 76 197q76 82 184 82q111 0 188 -80q78 -78 78 -199q0 -122 -78 -203q-79 -79 -192 -79q-108 0 -180 81q-76 82 -76 201z" />
<glyph unicode="&#xd7;" d="M127 1018l98 176l484 -324l2 646h194l2 -642l484 320l98 -176l-494 -322l490 -313l-84 -172l-494 317l-2 -630h-194l-2 630l-494 -317l-84 172l492 319z" />
<glyph unicode="&#xd8;" d="M0 348v262h1249q-65 59 -65 150q0 90 63 207q37 -87 74 -158q53 -108 135 -184q29 -29 182 -140q-240 -181 -315 -317q-26 -51 -70 -168q-75 129 -75 197q0 71 71 151h-1249z" />
<glyph unicode="&#xd9;" d="M379 1196q122 70 143 82q100 63 164 149q32 41 125 199q166 -264 289 -346q59 -37 153 -78q-113 -82 -178 -82q-64 0 -139 78v-1532l-238 -2v1534q-57 -72 -135 -72q-80 0 -184 70z" />
<glyph unicode="&#xda;" d="M379 98q94 70 176 70q79 0 133 -72v1534l240 -2v-1532q72 78 137 78t178 -82q-167 -71 -270 -186q-67 -73 -170 -238q-65 107 -166 252q-60 63 -258 178z" />
<glyph unicode="&#xdb;" horiz-adv-x="2457" d="M92 358l209 93v-127q0 -66 41 -113t98 -47q142 0 142 221v1069h206v-1051q0 -446 -329 -446q-199 0 -279 133q-58 93 -88 268zM1155 0v1430l186 79v-1509h-186zM1638 -104h62q38 -60 72 -60q50 0 100 84q61 107 61 174q0 18 -20 90l-275 881h177l206 -707l181 707h174 l-283 -987q-63 -222 -156 -336q-56 -68 -165 -68q-82 0 -134 25v197z" />
<glyph unicode="&#xdc;" horiz-adv-x="2457" d="M55 0v1454h279l225 -1065l182 1065h301v-1454h-168l3 1298l-244 -1298h-168l-240 1247l2 -1249zM1149 258q0 220 141 315q74 53 140 68q51 13 153 16v162q0 92 -98 92q-94 0 -254 -80l-60 134q97 63 150 86q81 34 168 34q115 0 188 -67q74 -68 74 -191v-591q0 -90 92 -93 v-161q-35 -5 -63 -5q-74 0 -107 33q-37 37 -63 113h-23q-53 -81 -90 -109q-53 -41 -127 -41q-108 0 -168 84q-53 77 -53 201zM1319 301q0 -158 96 -158q61 0 115 54q53 53 53 118v220q-189 -24 -244 -129q-20 -39 -20 -105zM1808 1065h164l168 -655l137 655h150l-254 -1176 q-52 -241 -248 -241q-49 0 -100 28l2 199l26 2q26 -45 74 -45q63 0 98 84q12 28 37 145z" />
<glyph unicode="&#xdd;" horiz-adv-x="2457" d="M55 0l357 1454h225l360 -1454h-194l-62 287h-424l-61 -287h-201zM367 471h329l-168 743zM1022 1044h186l2 -796q0 -111 60 -111q47 0 119 96q61 82 61 189v622h168l2 -995l-152 -86v234l-24 -33l-62 -82q-80 -105 -184 -105q-174 0 -174 277zM1761 563q0 240 70 371 q35 65 94 104q64 43 129 43q147 0 197 -170l18 -14v147h131v-991q0 -160 -94 -258t-242 -98q-90 0 -223 39l2 192l66 11q50 -74 129 -74q84 0 141 51q56 53 53 143l-4 191q-86 -148 -205 -148q-53 0 -106 39q-58 45 -84 90q-72 115 -72 332zM1931 604q0 -143 17 -207 q30 -125 123 -125q182 0 170 306l-3 47q-12 299 -143 299q-164 0 -164 -320z" />
<glyph unicode="&#xde;" horiz-adv-x="2457" d="M55 362l205 68q0 -8 -1 -27.5t-1 -31.5q0 -215 137 -215q73 0 113 75q33 68 33 150v1073h204v-1053q0 -452 -356 -452q-171 0 -248 133q-49 87 -86 280zM932 186v879h166l-2 -823q0 -121 73 -121q54 0 162 141q66 87 66 156v647h168v-1020l-168 -74v224 q-151 -222 -287 -222q-80 0 -131 60q-47 58 -47 153zM1769 2v1018l166 74v-226q144 217 287 217q178 0 178 -260l2 -825h-164v809q0 46 -28 82q-27 35 -72 35q-50 0 -127 -103q-76 -104 -76 -161v-660h-166z" />
<glyph unicode="&#xdf;" horiz-adv-x="2457" d="M55 0l353 1454h223l366 -1454h-198l-70 307h-410l-69 -307h-195zM360 492h332l-170 702zM1100 -344v1366l151 80v-240h13q30 89 90 152q68 71 147 71q147 0 230 -200q61 -152 61 -340t-61 -340q-82 -205 -228 -205q-116 0 -239 199v-543h-164zM1268 565q0 -123 6 -166 q8 -74 61 -153q57 -84 125 -84q87 0 127 125q31 91 31 205q0 428 -162 428q-104 0 -153 -129q-35 -93 -35 -226zM1921 0v1024l168 66v-351h14q103 273 283 355v-316q-12 2 -57 2q-60 0 -131 -59q-109 -89 -109 -229v-492h-168z" />
<glyph unicode="&#xe0;" horiz-adv-x="2457" d="M37 0v1475h285l221 -1084l198 1084h283v-1475h-168v1270l-231 -1270h-158l-262 1270v-1270h-168zM1137 258q0 87 43 172q46 84 114 137q70 52 146 70q51 14 162 20v164q0 43 -35 70q-31 31 -72 31q-99 0 -233 -88l-19 -13l-69 142q218 120 339 120q110 0 185 -69 q71 -74 71 -193v-585q0 -95 62 -95q23 0 31 2v-163q-18 -3 -52 -3q-123 0 -182 146h-26q-128 -146 -240 -146q-99 0 -164 89q-61 82 -61 192zM1321 295q0 -59 25 -107q27 -53 79 -53q67 0 121 45q56 47 56 117v238q-123 -20 -189 -62q-92 -62 -92 -178zM1954 0v1024l147 63 v-393h19q87 270 204 357q29 20 97 36v-307h-31q-96 0 -178 -61q-92 -71 -92 -170v-549h-166z" />
<glyph unicode="&#xe1;" horiz-adv-x="2457" d="M92 0v1475h672v-205h-467v-430h391v-185h-391v-655h-205zM782 532q0 197 68 330q114 217 305 217q181 0 283 -178q46 -81 61 -174q10 -75 10 -190v-45h-540v-66q0 -120 47 -197q58 -88 162 -88q88 0 172 84l102 -112q-113 -131 -295 -131q-198 0 -293 176 q-82 146 -82 374zM967 635h374q-3 110 -45 190q-54 97 -147 97q-88 0 -137 -101q-39 -73 -45 -186zM1675 39l2 1376l185 78v-584q100 160 237 160q160 0 234 -188q55 -137 55 -340q0 -202 -61 -357q-79 -211 -238 -211q-119 0 -240 201v-197zM1849 522q0 -210 93 -317 q56 -62 110 -62q91 0 135 152q33 119 33 231q0 126 -29 232q-43 149 -137 149q-110 0 -162 -141q-43 -110 -43 -244z" />
<glyph unicode="&#xe2;" horiz-adv-x="2457" d="M51 336l205 92q-2 -20 -2 -72q0 -85 31 -145q40 -70 114 -70q68 0 103 66q30 53 30 133v1114h205v-1130q0 -176 -88 -283q-86 -109 -243 -109q-171 0 -256 113q-72 97 -99 291zM864 231q0 212 150 314q80 57 172 76q53 11 184 14v147q0 105 -119 105q-89 0 -243 -92 l-21 -13l-82 150q209 129 346 129q131 0 209 -84q78 -87 78 -232v-538q0 -71 31 -80q20 -4 43 -4v-164q-10 -2 -45 -2q-79 0 -123 41q-34 34 -62 125h-12q-70 -86 -115 -119q-68 -51 -147 -51q-114 0 -178 76q-66 75 -66 202zM1036 260q0 -60 37 -106q33 -45 88 -45 q98 0 156 79q53 74 53 185v141q-106 -11 -166 -31q-68 -23 -117 -82q-51 -63 -51 -141zM1761 -20v1005l168 90v-225l27 33q129 164 256 164q182 0 182 -238v-829h-168v843q0 78 -76 78q-117 0 -184 -162q-37 -87 -37 -157v-602h-168z" />
<glyph unicode="&#xe3;" horiz-adv-x="2457" d="M55 -20v1474h324q313 0 430 -266q86 -195 86 -451q0 -655 -406 -735q-119 -22 -323 -22h-111zM242 186l30 -2q18 -2 76 -2q227 0 297 180q47 108 47 402q0 350 -131 448q-70 52 -252 52h-67v-1078zM989 477q0 228 80 393q100 201 293 201q72 0 143 -41q71 -40 105 -108 q43 -76 59 -187q6 -58 6 -198v-23q0 -6 -1 -13t-1 -9h-520q0 -146 33 -236q46 -135 155 -135q87 0 191 88l88 -98q-84 -78 -133 -103q-65 -35 -158 -35q-180 0 -268 162q-72 135 -72 342zM1174 635h333v51q0 238 -151 238q-170 0 -182 -289zM1786 500q0 202 22 293 q26 121 107 202q79 76 194 76q106 0 183 -65q76 -64 106 -179l-135 -84q-47 160 -149 160q-160 0 -160 -358q0 -163 18 -246q34 -156 139 -156q111 0 152 183l150 -70q-25 -82 -60 -143q-83 -142 -242 -142q-127 0 -215 97q-80 89 -98 233q-12 102 -12 199z" />
<glyph unicode="&#xe4;" horiz-adv-x="2457" d="M74 0v1475h243l390 -1108v1108h170v-1475h-230l-405 1126v-1126h-168zM1030 551q0 172 25 270q36 126 116 191q86 71 197 71q203 0 283 -213q45 -113 45 -317q0 -289 -66 -406q-88 -165 -264 -165q-105 0 -188 65q-84 72 -113 178q-35 125 -35 326zM1194 545 q0 -171 18 -244q34 -141 150 -141q147 0 162 223q2 43 2 125v49q0 119 -6 174q-27 191 -158 191q-107 0 -145 -140q-23 -79 -23 -237zM1769 1065h168l160 -862l148 862h163l-221 -1065h-188z" />
<glyph unicode="&#xe5;" horiz-adv-x="2457" d="M74 713q0 299 90 508q117 270 362 270t353 -270q77 -195 77 -504q0 -304 -79 -496q-108 -262 -353 -262q-250 0 -364 254q-86 192 -86 500zM281 711q0 -190 38 -336q62 -219 195 -219q242 0 242 571q0 565 -234 565q-126 0 -190 -211q-51 -159 -51 -370zM1100 526 q0 383 211 506q71 41 145 41q139 0 221 -108q34 -45 80 -129l-147 -101q-50 164 -158 164q-186 0 -186 -381q0 -134 37 -235q53 -142 155 -142q107 0 166 195l152 -80q-30 -127 -117 -205q-86 -80 -203 -80q-84 0 -164 47q-77 48 -116 127q-76 152 -76 381zM1847 819v144 h150v221l166 166v-387h168v-144h-168v-561q0 -66 14 -86q16 -29 68 -29q62 0 141 58v-156q-115 -74 -184 -74q-92 0 -150 64q-55 64 -55 166v618h-150z" />
<glyph unicode="&#xe6;" horiz-adv-x="2457" d="M18 240l170 116q70 -105 103 -143q67 -76 143 -76q178 0 178 219q0 108 -57 168q-38 41 -145 99q-269 145 -330 307q-29 79 -29 164q0 170 103 276q98 107 258 107q158 0 264 -121q42 -50 110 -154l-153 -110q-60 77 -103 120q-66 60 -135 60q-66 0 -112 -43 q-47 -44 -47 -113q0 -114 126 -205l275 -200q166 -120 166 -363q0 -186 -96 -299q-94 -110 -267 -110q-196 0 -325 163q-33 42 -97 138zM924 494q0 367 192 510q77 59 166 59q80 0 154 -47q76 -51 112 -125q58 -113 58 -275q0 -4 -0.5 -18.5t-1.5 -44t-2 -61.5h-504v-80 q0 -291 164 -291q103 0 194 88l100 -115q-82 -70 -133 -98q-70 -37 -155 -37q-190 0 -275 174q-69 135 -69 361zM1112 633l320 2q2 10 2 49q0 88 -43 152q-44 65 -119 65q-157 0 -160 -268zM1769 -348v1372l129 57v-262h15q108 250 231 250q136 0 219 -207q33 -90 43 -135 q15 -99 15 -203q0 -199 -51 -336q-67 -196 -220 -196q-130 0 -215 168v-508h-166zM1919 524q0 -114 39 -223q53 -139 145 -139q99 0 129 125q17 73 17 211q0 403 -140 403q-99 0 -151 -143q-39 -112 -39 -234z" />
<glyph unicode="&#xe7;" d="M37 547q0 361 229 608q227 248 555 248q323 0 549 -250q223 -250 223 -610q0 -359 -225 -602q-224 -248 -549 -248q-327 0 -555 246q-227 248 -227 608zM164 551q0 -301 186 -508q187 -211 459 -211t463 209q190 208 190 510q0 300 -188 506q-189 207 -461 207 q-269 0 -461 -207q-188 -206 -188 -506zM500 0v1085h633v-184h-428v-266h352v-184l-352 2v-453h-205z" />
<glyph unicode="&#xe8;" d="M37 553q0 359 229 600q229 244 553 244q329 0 561 -250q230 -248 230 -615q0 -366 -236 -608q-234 -243 -567 -243q-328 0 -549 256t-221 616zM170 557q0 -306 186 -516q184 -214 459 -217q277 -3 469 207q193 211 193 516q0 301 -193 506q-192 204 -469 204 q-269 0 -457 -200t-188 -500zM455 528q0 584 391 584q136 0 227 -82q93 -84 111 -227l-199 -35q-20 83 -43 109q-32 38 -98 38q-145 0 -172 -200q-8 -60 -8 -158q0 -169 22 -242q37 -137 152 -137q68 0 112 47q42 48 45 125l213 -43q-50 -163 -127 -241q-86 -89 -231 -89 q-202 0 -307 173q-88 146 -88 378z" />
<glyph unicode="&#xe9;" d="M31 549q0 358 227 600q231 246 555 246q325 0 553 -246q225 -249 225 -606q0 -363 -229 -604q-234 -246 -559 -246q-329 0 -549 248q-223 247 -223 608zM162 549q0 -302 186 -506q189 -207 457 -207q271 0 463 207q190 205 190 506q0 298 -188 498q-187 202 -461 202 q-268 0 -459 -200q-188 -203 -188 -500zM481 0v1085h340q143 0 195 -18q79 -26 131 -115q47 -86 47 -184q0 -190 -141 -270q-13 -6 -70 -33l193 -465h-215l-191 451h-84v-451h-205zM686 635h121q170 0 170 125q0 144 -162 141l-129 -2v-264z" />
<glyph unicode="&#xea;" d="M33 545q0 360 227 608t555 248q325 0 551 -250q223 -247 223 -608q0 -360 -223 -604q-225 -246 -551 -246q-325 0 -553 246q-229 247 -229 606zM158 549q0 -298 186 -508q187 -211 459 -211t463 209q190 208 190 510q0 301 -186 508q-189 207 -461 207t-461 -207 q-190 -205 -190 -508zM440 860v184h727v-184h-241v-880h-224v880h-262z" />
<glyph unicode="&#xeb;" d="M55 -369v1823h1510v-1823h-1510zM186 -225h1248v1536h-1248v-1536zM428 20v1127h315q213 0 334 -86q209 -150 209 -488q0 -248 -108 -391q-116 -162 -332 -162h-418zM633 207h174q141 0 211 110q61 94 61 258q0 386 -272 386h-174v-754z" />
<glyph unicode="&#xec;" d="M76 -369v1823h1509v-1823h-1509zM209 -229h1247v1536h-1247v-1536zM410 -20v1126h335q155 0 201 -6q187 -24 273 -166q69 -109 69 -377q0 -265 -65 -383q-108 -194 -377 -194h-436zM707 225h51q195 0 225 142q10 45 10 143v18l-2 140q-3 213 -254 213h-30v-656z" />
<glyph unicode="&#xed;" horiz-adv-x="2457" d="M0 -348v1823h2458v-1823h-2458zM131 -205h2196v1536h-2196v-1536zM336 0v1147h262q348 0 465 -248q67 -143 67 -307q0 -264 -114 -420q-123 -172 -357 -172h-323zM522 207h92q99 0 154 22q74 29 113 115q47 109 47 221q0 94 -29 189q-34 109 -96 147q-62 39 -162 39h-119 v-733zM1284 0v1147h205v-471h446v471h187v-1147h-187v492h-446v-492h-205z" />
<glyph unicode="&#xee;" horiz-adv-x="2457" d="M0 -348v1823h2458v-1823h-2458zM131 -205h2196v1536h-2196v-1536zM297 0v1126h418q97 0 176 -43q91 -46 135 -133q57 -111 57 -364q0 -301 -73 -420q-105 -166 -314 -166h-399zM578 248h92q93 0 127 110q18 61 18 195q0 166 -39 248t-117 80l-81 -2v-631zM1229 0v1126 h278v-409h373v409h281v-1126h-281v451h-373v-451h-278z" />
<glyph unicode="&#xef;" d="M72 698q0 348 215 592t530 244t543 -231q225 -234 225 -580q0 -350 -217 -602q-218 -250 -539 -250q-315 0 -536 240q-221 241 -221 587zM244 696q0 -113 28 -202q24 -77 93 -181l358 392l-365 382q-64 -118 -84 -186q-30 -91 -30 -205zM483 193q96 -78 158 -105 q73 -29 178 -29q117 0 191 29q52 19 166 105l-342 387zM483 1221l348 -394l351 387q-97 78 -160 103q-79 31 -182 31q-108 0 -187 -33q-56 -21 -170 -94zM954 709l346 -383q71 113 89 172q26 77 26 196q0 112 -29 207q-19 65 -86 186z" />
<glyph unicode="&#xf0;" d="M150 1104l169 192l981 -1089q21 116 68 174q47 62 145 102l-22 -127q-27 -156 -27 -227q0 -35 13 -149l20 -164q-173 37 -276 37q-145 0 -310 -80q23 116 78 180q53 65 160 86z" />
<glyph unicode="&#xf1;" horiz-adv-x="819" d="M92 582q0 210 193 325v547h262v-547q194 -114 194 -325q0 -152 -94 -256q-94 -107 -229 -107q-140 0 -232 105q-94 108 -94 258z" />
<glyph unicode="&#xf2;" d="M260 721q3 250 164 414q158 168 385 168q233 0 393 -168q162 -171 162 -422q0 -262 -164 -441q-162 -180 -399 -180q-232 0 -389 189q-155 187 -152 440z" />
<glyph unicode="&#xf3;" d="M131 389v701l148 67v-162q82 92 106 111q69 57 135 57q84 0 135 -69q52 -70 52 -164v-541h-148v524q0 42 -27 88q-27 41 -71 41q-57 0 -113 -77q-69 -97 -69 -199v-377h-148zM893 762q0 171 80 289q85 129 237 129q153 0 238 -125q80 -115 80 -283q0 -180 -74 -289 q-83 -121 -242 -121q-158 0 -241 117q-78 107 -78 283zM1042 793q0 -129 27 -191q38 -90 141 -90q172 0 172 260q0 268 -168 268q-172 0 -172 -247z" />
<glyph unicode="&#xf4;" horiz-adv-x="819" d="M37 512v102h745v-102h-745zM100 -369q19 119 90 205q53 65 164 146l101 73q86 65 86 133q0 56 -39 82q-39 31 -86 31q-130 0 -142 -137h-165q3 87 53 158q89 127 246 127q122 0 204 -64q95 -71 95 -199q0 -148 -103 -223l-242 -178h345v-154h-607zM160 1157v158 q91 40 131 69q47 34 102 111h103v-799h-156v555q-89 -61 -180 -94z" />
<glyph unicode="&#xf5;" horiz-adv-x="819" d="M37 512v102h745v-102h-745zM74 2l346 449h194v-492h131v-143h-131v-185h-149v185h-391v186zM150 1157v158q86 38 129 69q47 34 102 111h102v-799h-147v555q-82 -52 -186 -94zM209 -41h256v332z" />
<glyph unicode="&#xf6;" horiz-adv-x="819" d="M37 512v102h745v-102h-745zM74 2l346 449h194v-492h131v-143h-131v-185h-149v185h-391v186zM113 926v16h166v-18q0 -42 47 -66q36 -20 77 -20q138 0 138 112q0 94 -95 94h-73v144h76q92 0 92 80q0 52 -47 82q-37 24 -91 24q-100 0 -124 -104h-166q9 120 100 184 q80 59 195 59q113 0 196 -51q103 -62 103 -174q0 -83 -109 -164q109 -75 109 -192q0 -127 -97 -187q-79 -51 -198 -51q-122 0 -199 51q-100 60 -100 181zM209 -41h256v332z" />
<glyph unicode="&#xf7;" horiz-adv-x="1136" d="M-55 723q0 211 49 403t132.5 331.5t198.5 221.5t242 82q169 0 313 -139t228 -378t84 -521t-84 -521t-228 -378t-313 -139q-127 0 -242 82t-198.5 221.5t-132.5 331.5t-49 403zM227 0h691v248h-431v1206h-260v-1454z" />
<glyph unicode="&#x2000;" horiz-adv-x="880" />
<glyph unicode="&#x2001;" horiz-adv-x="1761" />
<glyph unicode="&#x2002;" horiz-adv-x="880" />
<glyph unicode="&#x2003;" horiz-adv-x="1761" />
<glyph unicode="&#x2004;" horiz-adv-x="587" />
<glyph unicode="&#x2005;" horiz-adv-x="440" />
<glyph unicode="&#x2006;" horiz-adv-x="293" />
<glyph unicode="&#x2007;" horiz-adv-x="293" />
<glyph unicode="&#x2008;" horiz-adv-x="220" />
<glyph unicode="&#x2009;" horiz-adv-x="352" />
<glyph unicode="&#x200a;" horiz-adv-x="97" />
<glyph unicode="&#x2010;" horiz-adv-x="931" d="M55 410v204h838v-204h-838z" />
<glyph unicode="&#x2011;" horiz-adv-x="931" d="M55 410v204h838v-204h-838z" />
<glyph unicode="&#x2012;" horiz-adv-x="931" d="M55 410v204h838v-204h-838z" />
<glyph unicode="&#x2013;" horiz-adv-x="1117" d="M55 410v204h1024v-204h-1024z" />
<glyph unicode="&#x2014;" horiz-adv-x="2141" d="M55 410v204h2048v-204h-2048z" />
<glyph unicode="&#x202f;" horiz-adv-x="352" />
<glyph unicode="&#x205f;" horiz-adv-x="440" />
<glyph unicode="&#x25fc;" horiz-adv-x="1064" d="M0 0v1065h1065v-1065h-1065z" />
</font>
</defs>
</svg>
