<?xml version="1.0" standalone="no"?>
<!DOCTYPE svg PUBLIC "-//W3C//DTD SVG 1.1//EN" "http://www.w3.org/Graphics/SVG/1.1/DTD/svg11.dtd" >
<svg xmlns="http://www.w3.org/2000/svg">
<metadata></metadata>
<defs>
<font id="paddockext15001600bold" horiz-adv-x="1689" >
<font-face units-per-em="2048" ascent="1638" descent="-410" />
<missing-glyph horiz-adv-x="421" />
<glyph horiz-adv-x="2048" />
<glyph horiz-adv-x="2048" />
<glyph unicode="&#xd;" horiz-adv-x="2048" />
<glyph unicode=" "  horiz-adv-x="421" />
<glyph unicode="&#x09;" horiz-adv-x="421" />
<glyph unicode="&#xa0;" horiz-adv-x="421" />
<glyph unicode="!" horiz-adv-x="749" d="M211 0v328h307v-328h-307zM211 1454h330l-60 -942h-217z" />
<glyph unicode="&#x22;" horiz-adv-x="0" />
<glyph unicode="#" horiz-adv-x="845" d="M322 76q0 46 30 80q25 32 72 32t72 -32q28 -36 28 -80t-28 -80q-27 -35 -72 -35q-46 0 -72 33q-30 35 -30 82z" />
<glyph unicode="$" horiz-adv-x="845" d="M41 373l2 36v3v39h213q-2 -14 -2 -56q0 -85 22 -119q21 -37 95 -59v416q-171 97 -234 172q-96 108 -96 276q0 205 135 310q65 51 195 63v102h98v-102q192 -3 279 -151q47 -83 47 -207v-31h-213q0 12 2 20v21q0 130 -115 151v-383q118 -75 201 -141q143 -116 143 -330 q0 -163 -94 -280q-93 -113 -250 -125v-264h-98v264q-150 15 -242 113q-88 98 -88 262zM254 1102q0 -66 33 -105q19 -24 84 -67v325q-117 -9 -117 -153zM469 217q65 28 86 59q27 34 27 101q0 134 -113 201v-361z" />
<glyph unicode="%" d="M74 1034q-3 166 104 279q108 117 262 117q151 0 256 -111q107 -113 107 -272q0 -160 -109 -269q-108 -108 -256 -108q-149 0 -256 104q-108 105 -108 260zM279 1057q0 -74 45 -131q48 -60 114 -60q72 0 121 52q51 51 51 126q0 81 -49 136q-51 57 -125 57q-65 0 -112 -53 q-45 -54 -45 -127zM354 -246l828 1721h147l-835 -1721h-140zM883 168q0 168 104 281q108 114 262 114q152 0 256 -110q109 -112 109 -271t-109 -268t-258 -109q-145 0 -254 103q-107 104 -110 260zM1085 188q0 -75 43 -133q45 -57 115 -57q73 0 121 51q51 51 51 127 q0 80 -49 135q-52 58 -125 58q-65 0 -113 -54q-43 -55 -43 -127z" />
<glyph unicode="&#x26;" horiz-adv-x="1382" d="M78 453q0 211 145 356q50 52 154 100q-86 164 -86 269q0 155 112 241q98 76 252 76q153 0 246 -72q100 -78 100 -239q0 -129 -83 -221q-41 -46 -181 -150q96 -164 209 -297q67 114 117 287l248 -92q-30 -119 -74 -203l-47 -88l-57 -119q82 -16 174 -16v-305 q-21 -3 -62 -3q-104 0 -168 25q-66 30 -143 102q-113 -75 -178 -98q-74 -26 -197 -26q-294 0 -422 241q-59 109 -59 232zM365 483q0 -104 63 -170q60 -69 158 -69q78 0 155 57q-147 169 -249 401q-127 -92 -127 -219zM539 1202q0 -79 77 -188q154 80 154 180q0 115 -115 115 q-42 0 -82 -29q-34 -30 -34 -78z" />
<glyph unicode="'" horiz-adv-x="538" d="M106 801l127 346h-114v321h307v-333l-158 -334h-162z" />
<glyph unicode="(" horiz-adv-x="845" d="M141 600q0 179 58 383q49 188 141 358q26 50 80 134h287q-157 -267 -205 -404q-72 -195 -72 -450q0 -273 76 -480q63 -179 219 -428h-283q-139 212 -202 379q-99 261 -99 508z" />
<glyph unicode=")" horiz-adv-x="845" d="M137 -289q176 260 232 420q67 192 67 477q0 293 -61 467q-59 168 -236 400h297q162 -253 219 -420q68 -198 68 -473q0 -246 -74 -459q-59 -162 -207 -412h-305z" />
<glyph unicode="*" horiz-adv-x="845" d="M86 1106l51 223l266 -162l-69 308h213l-66 -308l267 168l49 -209l-277 -28l223 -228l-170 -135l-131 324l-110 -322l-174 117l227 246z" />
<glyph unicode="+" horiz-adv-x="845" d="M37 1014q0 178 108 280q105 99 273 99h409v-123h-96v-1372h-115v1372h-153v-1372h-115v764q-160 30 -231 104q-80 83 -80 248z" />
<glyph unicode="," horiz-adv-x="421" d="M78 -348l123 348h-121v328h305v-340l-154 -336h-153z" />
<glyph unicode="-" horiz-adv-x="960" d="M57 410v204h865v-204h-865z" />
<glyph unicode="." horiz-adv-x="421" d="M76 328h309v-328h-307z" />
<glyph unicode="/" horiz-adv-x="632" d="M18 -225l402 1720h207l-400 -1720h-209z" />
<glyph unicode="0" horiz-adv-x="845" d="M55 518v475q0 325 178 457q91 66 197 66q179 0 281 -150q92 -136 92 -332l2 -549q0 -508 -377 -508q-373 0 -373 541zM307 406q0 -201 123 -201q125 0 125 209v659q0 219 -121 219q-127 0 -127 -202v-684z" />
<glyph unicode="1" horiz-adv-x="845" d="M193 981v248q95 28 167 100q64 64 119 166h174v-1495h-250v1104q-62 -75 -90 -92q-40 -28 -120 -31z" />
<glyph unicode="2" horiz-adv-x="845" d="M39 0q0 240 72 375q59 105 139 209l172 225q96 128 96 281q0 180 -104 180q-109 0 -109 -144q0 -31 2 -41h-250q-2 14 -2 70q0 148 113 246q104 90 246 90q153 0 266 -113q108 -114 108 -280q0 -222 -235 -496l-135 -158q-89 -109 -117 -198h485v-246h-747z" />
<glyph unicode="3" horiz-adv-x="845" d="M57 369h252v-11q0 -157 119 -157q129 0 129 176v106q0 120 -49 166q-46 49 -160 49q-33 0 -41 -2v205q8 -2 39 -2q78 0 131 41q62 47 62 127v94q0 51 -35 92q-33 39 -84 39q-84 0 -111 -125h-252q59 351 359 351q163 0 268 -99q107 -104 107 -276q0 -127 -37 -197 q-30 -64 -129 -147q179 -111 182 -297l2 -125q3 -168 -111 -285q-112 -112 -274 -112q-106 0 -197 51q-99 54 -139 155q-28 76 -31 183z" />
<glyph unicode="4" horiz-adv-x="845" d="M29 369v260l385 864h305v-901h117v-223h-117v-367h-256v367h-434zM215 592h248v594z" />
<glyph unicode="5" horiz-adv-x="845" d="M59 369h263q0 -164 110 -164q127 0 127 217v133q0 80 -29 143q-38 78 -108 78q-59 0 -100 -80h-226l21 820h651v-267h-446v-303q88 55 153 55q145 0 244 -129q90 -122 90 -280v-170q0 -114 -49 -221q-51 -116 -133 -170q-80 -51 -195 -51q-171 0 -270 102 q-100 103 -103 287z" />
<glyph unicode="6" horiz-adv-x="845" d="M57 1073q0 226 99 334q120 129 282 129q141 0 242 -98q100 -103 100 -250v-21h-241q-12 142 -111 142q-53 0 -86 -39q-35 -41 -35 -94v-318q84 66 168 66q85 0 162 -45q76 -46 113 -121q43 -98 43 -271q0 -350 -179 -458q-82 -49 -178 -49q-176 0 -278 129 q-99 123 -99 311zM309 352q0 -54 27 -100q30 -47 82 -47q57 0 92 65q29 51 29 119v156q0 60 -29 108q-34 58 -86 58q-56 0 -115 -86v-273z" />
<glyph unicode="7" horiz-adv-x="845" d="M57 1208v267h752v-207q-126 -286 -266 -824q-44 -172 -121 -444h-254q108 407 176 627q71 230 199 581h-486z" />
<glyph unicode="8" horiz-adv-x="845" d="M61 328v184q0 95 50 166q39 55 122 123q-80 63 -116 117q-43 67 -43 161v121q0 143 100 227q98 82 232 82q154 0 251 -69q113 -82 113 -238v-133q0 -90 -47 -158q-27 -44 -113 -114q96 -63 129 -107q54 -66 54 -160v-200q0 -76 -43 -158q-43 -81 -103 -129 q-87 -66 -227 -66q-144 0 -252 97q-107 98 -107 254zM313 319q0 -55 33 -94q30 -41 82 -41q53 0 82 39q33 39 33 92v248q0 53 -33 92q-30 41 -82 41q-53 0 -82 -39q-33 -39 -33 -92v-246zM313 1022q0 -47 31 -86q34 -37 78 -37t72 31q30 30 30 76v178q0 49 -26 88t-72 39 q-48 0 -82 -37q-31 -39 -31 -90v-162z" />
<glyph unicode="9" horiz-adv-x="845" d="M49 995q0 154 17 234q24 119 108 194q109 95 254 95q236 0 330 -242q47 -115 47 -240v-530q0 -148 -43 -270q-49 -149 -152 -211q-80 -50 -200 -50q-230 0 -310 177q-33 67 -45 194h262q0 -151 103 -151q115 0 115 211v225q-95 -62 -173 -62q-81 0 -157 49 q-79 51 -109 127q-47 115 -47 250zM299 1059q0 -260 133 -260q62 0 105 82v284q0 44 -31 86q-29 39 -76 39q-131 0 -131 -231z" />
<glyph unicode=":" horiz-adv-x="632" d="M154 0v328h307v-328h-307zM154 614v328h307v-328h-307z" />
<glyph unicode=";" horiz-adv-x="632" d="M158 0v328h307v-346l-158 -330h-149l118 348h-118zM158 614v328h307v-328h-307z" />
<glyph unicode="&#x3c;" d="M0 0v143h1690v-143h-1690z" />
<glyph unicode="=" horiz-adv-x="845" d="M0 451v184h846v-184h-846z" />
<glyph unicode="&#x3e;" d="M0 451v184h1690v-184h-1690z" />
<glyph unicode="?" horiz-adv-x="960" d="M76 1198q58 104 102 154q61 70 146 98q76 27 155 27q166 0 269 -74q116 -85 116 -254q0 -113 -96 -217l-117 -123q-71 -74 -71 -270v-29h-250q-8 86 -8 121q0 167 155 360q92 112 92 166q0 90 -96 90q-66 0 -104 -53q-24 -36 -52 -119l-239 123h-2zM289 0v328h307v-328 h-307z" />
<glyph unicode="@" d="M100 616q0 330 195 560q111 129 291 206q173 72 344 72q178 0 340 -90q173 -99 248 -260q65 -142 65 -334q0 -199 -110 -364q-121 -183 -299 -183q-179 0 -209 125h-27q-99 -123 -223 -123q-113 0 -191 84q-75 84 -75 205q0 123 71 244t172 182q74 45 164 45 q81 0 125 -35q42 -34 70 -121l51 134h190l-123 -465q-14 -61 -14 -82q0 -68 55 -68q49 0 123 68q133 124 133 352q0 251 -157 399q-150 144 -387 144q-291 0 -480 -201q-186 -198 -186 -508q0 -184 49 -297q53 -121 182 -229q141 -117 398 -117q263 0 422 102q67 39 116 76 l11 8l57 -77q-184 -140 -309 -183q-149 -51 -305 -51q-217 0 -404 94q-211 106 -301 291q-72 153 -72 397zM694 465q0 -119 80 -119q89 0 144 125q67 149 67 274q0 45 -18 86q-24 50 -66 50q-89 0 -153 -168q-54 -139 -54 -248z" />
<glyph unicode="A" horiz-adv-x="1286" d="M78 0l397 1454h375l373 -1454h-310l-49 266l-413 -2l-66 -264h-307zM516 553h279l-117 500v73h-39v-71z" />
<glyph unicode="B" horiz-adv-x="1286" d="M172 0v1454h539q170 0 278 -102q109 -103 109 -285q0 -221 -168 -309q96 -68 139 -137q51 -79 51 -193q0 -139 -35 -223q-42 -97 -147 -160q-68 -45 -154 -45h-612zM481 223h90q242 0 242 205q0 108 -57 150q-46 34 -154 34h-121v-389zM483 860h142q74 0 120 49 q43 49 43 131q0 166 -170 166h-135v-346z" />
<glyph unicode="C" horiz-adv-x="1171" d="M115 563v375q0 557 469 557q215 0 340 -119q133 -127 133 -350v-43l-307 -2v66q0 161 -148 161q-160 0 -160 -204v-566q0 -92 33 -143q42 -51 127 -51q150 0 150 194v74h323v-68q0 -145 -61 -258q-125 -229 -389 -229q-25 0 -31 2q-176 12 -240 45q-239 117 -239 559z " />
<glyph unicode="D" horiz-adv-x="1286" d="M172 0v1454h446q246 0 377 -143q133 -142 133 -404v-315q0 -280 -88 -420q-108 -172 -352 -172h-516zM479 268h127q199 0 199 250v373q0 297 -221 297h-105v-920z" />
<glyph unicode="E" horiz-adv-x="1286" d="M172 0v1454h942v-287h-635v-266h443v-287h-443v-327h635v-287h-942z" />
<glyph unicode="F" horiz-adv-x="1171" d="M172 0v1454h903v-287h-596v-266h404v-287h-404v-614h-307z" />
<glyph unicode="G" horiz-adv-x="1286" d="M172 621l2 360q3 255 127 391q123 141 358 141q127 0 244 -51q133 -62 184 -170q40 -89 46 -248h-308l-2 29q-3 64 -47 111q-45 45 -106 45q-71 0 -119 -51q-51 -51 -51 -125v-541q0 -256 168 -256q92 0 125 59q25 43 28 152l2 65h-170v267h480v-799h-136l-39 100 q-97 -75 -149 -96q-76 -31 -172 -31q-152 0 -277 90q-126 91 -161 250q-27 117 -27 308z" />
<glyph unicode="H" horiz-adv-x="1382" d="M193 0v1454h307v-553h403v553h307v-1454h-307v614h-403v-614h-307z" />
<glyph unicode="I" horiz-adv-x="749" d="M57 0v184h154v1086h-154v184h635v-184h-155v-1086h155v-184h-635z" />
<glyph unicode="J" horiz-adv-x="960" d="M78 406v65h268v-133q0 -113 86 -113t86 111v1118h328v-1051q0 -147 -62 -268q-88 -178 -323 -178q-207 0 -299 115q-84 106 -84 334z" />
<glyph unicode="K" horiz-adv-x="1286" d="M135 0v1454h307v-668l408 668h360l-442 -676l485 -778h-364l-447 731v-731h-307z" />
<glyph unicode="L" horiz-adv-x="1171" d="M172 0v1454h307v-1167h615v-287h-922z" />
<glyph unicode="M" d="M193 0v1454h417l236 -897l229 897h422v-1454h-287l2 1092l-266 -1092h-213l-272 1130v-1130h-268z" />
<glyph unicode="N" horiz-adv-x="1382" d="M193 0v1454h303l407 -801v801h287v-1454h-264l-447 881v-881h-286z" />
<glyph unicode="O" horiz-adv-x="1171" d="M115 547l2 450q3 233 129 377q125 146 340 146q484 0 487 -516l2 -457q0 -358 -203 -490q-127 -80 -274 -80q-237 0 -367 160q-116 149 -116 410zM438 436q0 -73 45 -121q45 -51 115 -51q62 0 104 51q43 52 43 121v590q0 82 -45 139q-45 60 -116 60q-69 0 -109 -70 q-37 -58 -37 -135v-584z" />
<glyph unicode="P" horiz-adv-x="1286" d="M172 0v1454h451q236 0 366 -106q148 -121 148 -363q0 -151 -78 -276q-80 -123 -213 -164q-109 -31 -219 -31h-148v-514h-307zM479 778h105q227 0 227 199q0 206 -219 209l-113 2v-410z" />
<glyph unicode="Q" horiz-adv-x="1171" d="M57 424v616q0 226 131 351q125 122 336 122q210 0 340 -124q135 -126 135 -342v-619q0 -100 -30 -178h-2q70 -46 147 -49v-322q-12 -2 -51 -2q-176 0 -246 174q-174 -82 -307 -82q-194 0 -322 125q-131 125 -131 330zM383 401q0 -56 45 -98q42 -39 102 -39q26 0 84 25v78 q-56 24 -96 67v262h68q43 -62 102 -82v459q0 67 -47 111q-45 45 -109 45q-58 0 -102 -41q-47 -41 -47 -103v-684z" />
<glyph unicode="R" horiz-adv-x="1286" d="M170 0l2 1454l428 -2q130 0 195 -12q111 -21 174 -78q149 -131 149 -346q0 -177 -57 -262q-55 -82 -217 -129l305 -625h-342l-256 573h-72l-2 -573h-307zM477 803h115q196 0 196 207q0 180 -145 180h-166v-387z" />
<glyph unicode="S" horiz-adv-x="1171" d="M68 295l245 166q69 -104 109 -144q65 -59 156 -59q72 0 118 37q58 45 58 113q0 77 -62 127q-38 31 -125 61q-481 172 -481 502q0 194 147 311q131 104 322 104q106 0 213 -40q120 -48 182 -121q30 -38 64 -90l-226 -179q-69 95 -100 119q-59 47 -141 47q-61 0 -107 -37 q-47 -38 -47 -100q0 -110 205 -186q184 -69 242 -105q123 -74 180 -190q43 -87 43 -193q0 -205 -154 -338q-144 -123 -340 -123q-152 0 -250 46q-113 52 -192 174q-39 60 -59 98z" />
<glyph unicode="T" horiz-adv-x="1171" d="M96 1167v287h998v-287h-344v-1167h-289v1167h-365z" />
<glyph unicode="U" horiz-adv-x="1382" d="M193 461v993l309 -2l-2 -975q0 -87 51 -147q49 -64 129 -64q85 0 145 76q56 71 56 166v944l309 2v-917q0 -557 -498 -557q-228 0 -358 118q-141 129 -141 363z" />
<glyph unicode="V" horiz-adv-x="1286" d="M43 1456h330l262 -1020l266 1020h320l-404 -1456h-352z" />
<glyph unicode="W" horiz-adv-x="1804" d="M78 1454h289l196 -969l207 969h272l207 -948l197 948h274l-321 -1454h-283l-209 940l-202 -940h-289z" />
<glyph unicode="X" horiz-adv-x="1286" d="M78 0l389 772l-377 682h324l241 -442l219 442h353l-383 -682l395 -772h-332l-252 518l-239 -518h-338z" />
<glyph unicode="Y" horiz-adv-x="1286" d="M68 1454h335l246 -534l254 534h332l-428 -901v-553h-307v567z" />
<glyph unicode="Z" horiz-adv-x="1171" d="M102 0v256l590 911h-542v287h942v-233l-586 -934h586v-287h-990z" />
<glyph unicode="[" horiz-adv-x="845" d="M135 -287v1721h557v-164h-309v-1393h309v-164h-557z" />
<glyph unicode="\" horiz-adv-x="421" d="M154 -451v2048h96v-2048h-96z" />
<glyph unicode="]" horiz-adv-x="845" d="M154 -123h307v1393h-307v164h557v-1721h-557v164z" />
<glyph unicode="^" horiz-adv-x="845" d="M76 911v258l311 -71l-84 377h258l-86 -377l311 71v-258l-309 76q26 -125 78 -268q-66 -411 -78 -762h-92q-12 348 -84 760q58 139 84 270z" />
<glyph unicode="_" horiz-adv-x="845" d="M57 236v280l330 -110q-42 160 -94 319q40 97 86 254l-322 -84v254l312 -70l-78 396h264l-80 -396l309 90v-272l-321 90q17 -121 74 -262q-39 -140 -70 -313l319 104v-280l-311 75l76 -372h-258l76 372z" />
<glyph unicode="`" d="M326 88q0 44 28 80q26 33 72 33q45 0 74 -33q28 -36 28 -80t-28 -80q-30 -35 -74 -35q-43 0 -72 33q-28 36 -28 82zM1165 88q0 43 29 80q26 33 74 33q45 0 71 -33q29 -33 29 -80t-29 -80q-27 -35 -71 -35q-45 0 -74 33q-29 37 -29 82z" />
<glyph unicode="a" horiz-adv-x="960" d="M37 281q0 239 219 346q104 49 283 69v86q0 51 -50 78q-37 21 -90 21q-106 0 -217 -105l-133 172q102 79 164 101q101 36 221 36q370 0 373 -297l2 -479q0 -65 8 -84q16 -28 68 -37v-188q-56 -20 -90 -20q-102 0 -213 126q-135 -129 -271 -129q-129 0 -202 82 q-72 84 -72 222zM307 305q0 -106 94 -106q138 0 138 217v116q-96 -3 -164 -65t-68 -162z" />
<glyph unicode="b" horiz-adv-x="960" d="M96 0v1475h269v-512h30q107 122 242 122q268 0 268 -417v-250q0 -173 -59 -291q-74 -152 -219 -152q-142 0 -262 156v-131h-269zM365 340q0 -30 49 -64q52 -34 82 -34q122 0 122 209v219q0 190 -102 190q-47 0 -151 -88v-432z" />
<glyph unicode="c" horiz-adv-x="845" d="M57 383v301q0 185 97 305q99 117 272 117q157 0 256 -96q104 -101 104 -265v-8h-229q-15 65 -35 88q-26 33 -80 33q-74 0 -102 -78q-16 -50 -16 -147v-170q0 -250 114 -250q105 0 105 137v19h243q0 -97 -6 -138q-10 -56 -57 -122q-104 -132 -289 -132q-96 0 -178 39 q-94 41 -141 119q-58 99 -58 248z" />
<glyph unicode="d" horiz-adv-x="960" d="M57 330v395q0 148 47 244q59 123 187 123q141 0 284 -131v514h271v-1475h-271v109q-5 -4 -18 -17q-87 -74 -111 -88q-53 -29 -127 -29q-130 0 -200 113q-62 100 -62 242zM346 389q0 -77 12 -104q21 -41 86 -41q64 0 131 73v451q-84 90 -135 90q-94 0 -94 -143v-326z" />
<glyph unicode="e" horiz-adv-x="960" d="M115 418v274q0 254 143 348q101 66 217 66q119 0 205 -57q90 -59 129 -177q37 -118 37 -331v-70h-481q-1 -15 -3 -38.5t-2 -31.5q0 -88 48 -145q49 -55 129 -55q114 0 264 84l45 -226q-201 -79 -324 -79q-114 0 -207 43q-113 52 -157 147q-43 98 -43 248zM365 655h249v93 q0 61 -39 106q-41 47 -98 47q-52 0 -82 -47q-30 -46 -30 -104v-95z" />
<glyph unicode="f" horiz-adv-x="632" d="M0 840v225h154v166q0 244 313 244h147v-228h-90q-74 0 -92 -57q-10 -30 -10 -125h192v-225h-192v-840h-268v840h-154z" />
<glyph unicode="g" horiz-adv-x="960" d="M76 291v450q0 137 65 226q73 98 197 98q165 0 276 -197v176h250l-2 -985q0 -220 -112 -335q-115 -115 -322 -115q-151 0 -246 86q-37 34 -86 92l164 125q82 -98 168 -98q93 0 131 47q37 46 37 151v133q-170 -147 -262 -147q-109 0 -182 88q-76 92 -76 205zM365 338 q0 -94 92 -94q60 0 137 71v392q-76 73 -127 73q-102 0 -102 -123v-319z" />
<glyph unicode="h" horiz-adv-x="960" d="M96 0v1475h269v-557q170 167 288 167q108 0 172 -94q58 -85 58 -205v-786h-269v674q0 141 -94 141q-64 0 -155 -108v-707h-269z" />
<glyph unicode="i" horiz-adv-x="538" d="M135 0v1065h268v-1065h-268zM135 1229v266h268v-266h-268z" />
<glyph unicode="j" horiz-adv-x="538" d="M-39 -102q12 -2 53 -2q74 0 109 30q31 31 31 111v1028h268v-1088q0 -108 -19 -170q-27 -82 -106 -124q-94 -52 -242 -52q-51 0 -94 19v248zM154 1229v266h268v-266h-268z" />
<glyph unicode="k" horiz-adv-x="960" d="M76 1475h272v-887l227 477h299l-251 -477l305 -588h-305l-275 567v-567h-270z" />
<glyph unicode="l" horiz-adv-x="538" d="M135 0v1475h268v-1475h-268z" />
<glyph unicode="m" horiz-adv-x="1497" d="M96 0v1065h250v-174q90 109 127 135q74 59 162 59q84 0 141 -51q58 -55 72 -139q158 192 303 192q132 0 195 -106q55 -88 55 -236v-745h-268v700q0 46 -25 82q-21 37 -66 37q-66 0 -159 -112v-707h-269v727q0 42 -26 68t-66 26q-66 0 -157 -114v-707h-269z" />
<glyph unicode="n" horiz-adv-x="960" d="M96 0v1065h250v-170l53 57q77 80 101 95q52 38 127 38q121 0 192 -108q64 -94 64 -232v-745h-287v731q0 84 -64 84q-72 0 -141 -78q-24 -27 -24 -75l-2 -662h-269z" />
<glyph unicode="o" horiz-adv-x="960" d="M78 473v180q0 455 399 455q408 0 408 -438v-207q0 -490 -396 -490q-411 0 -411 500zM365 346q0 -50 30 -88q30 -37 80 -37q51 0 86 35q37 34 37 90v404q0 51 -35 92t-84 41q-51 0 -80 -39q-34 -40 -34 -94v-404z" />
<glyph unicode="p" horiz-adv-x="960" d="M96 -389v1454h250v-172q4 7 27 33q66 81 108 112q68 47 146 47q75 0 139 -49q64 -52 88 -129q31 -98 31 -237v-246q0 -287 -64 -363q-27 -34 -84 -59q-61 -25 -104 -25q-130 0 -268 150v-516h-269zM365 332q0 -48 43 -78q39 -33 86 -33q124 0 124 170l-2 256 q0 60 -22 109q-30 59 -84 59q-36 0 -94 -49l-51 -41v-393z" />
<glyph unicode="q" horiz-adv-x="960" d="M76 317v408q0 141 61 242q72 118 199 118q82 0 162 -59q67 -50 116 -137v176h250v-1454h-268v520l-53 -53q-57 -60 -92 -78q-48 -23 -115 -23q-260 0 -260 340zM344 428q0 -92 12 -135q25 -72 93 -72q56 0 147 70v436q0 25 -59 49q-59 27 -88 27q-105 0 -105 -152v-223z " />
<glyph unicode="r" horiz-adv-x="749" d="M96 0v1065h250v-215q101 143 143 174q62 48 164 63v-368q-133 -15 -288 -88v-631h-269z" />
<glyph unicode="s" horiz-adv-x="749" d="M39 117l129 186q111 -117 207 -117q92 0 92 78q0 47 -39 78q-23 19 -76 45q-45 23 -90 49q-69 42 -115 76q-106 81 -106 242q0 153 102 245q95 86 242 86q143 0 295 -110l-113 -182q-116 67 -188 67q-92 0 -92 -59q0 -47 65 -88q1 0 13.5 -5.5t38.5 -16.5t55 -25 q258 -114 258 -357q0 -86 -41 -166q-42 -80 -113 -118q-94 -48 -213 -48q-100 0 -170 31q-63 28 -141 109z" />
<glyph unicode="t" horiz-adv-x="632" d="M18 840v225h136v369h268v-369h174v-225h-174v-498q0 -70 27 -94q25 -25 92 -25q1 0 55 4v-225q-96 -22 -162 -22q-87 0 -155 45q-72 48 -99 129q-26 79 -26 206v480h-136z" />
<glyph unicode="u" horiz-adv-x="960" d="M96 319v746h269v-733q0 -88 92 -88q42 0 90 26q47 27 47 68l2 727h287v-1065h-269v156q-54 -87 -106 -129q-68 -50 -154 -50q-132 0 -200 105q-58 88 -58 237z" />
<glyph unicode="v" horiz-adv-x="845" d="M18 1065h273l143 -561l123 561h272l-276 -1065h-252z" />
<glyph unicode="w" horiz-adv-x="1382" d="M68 1065h247l142 -598l141 598h209l145 -598l140 598h241l-282 -1065h-197l-152 631l-163 -631h-197z" />
<glyph unicode="x" horiz-adv-x="960" d="M57 0l283 541l-268 524h284l129 -287l125 287h283l-262 -520l284 -545h-278l-150 285l-137 -285h-293z" />
<glyph unicode="y" horiz-adv-x="845" d="M16 -80q38 -6 74 -6q201 0 201 168q0 45 -80 317l-195 666h269l141 -512l115 512h272l-278 -1069q-3 -8 -9.5 -31.5t-11.5 -40.5q-33 -116 -117 -190q-87 -78 -198 -78q-80 0 -183 33v231z" />
<glyph unicode="z" horiz-adv-x="845" d="M76 186l391 674h-371v205h690v-184l-389 -676h389v-205h-708z" />
<glyph unicode="{" horiz-adv-x="538" d="M115 778v324l155 332h156l-123 -349h119v-307h-307z" />
<glyph unicode="|" horiz-adv-x="538" d="M106 801l127 346h-114v321h307v-333l-158 -334h-162z" />
<glyph unicode="&#xa4;" horiz-adv-x="845" d="M80 678q0 103 35 168q29 53 116 119q-74 46 -102 92q-31 51 -31 133q0 143 88 219q82 70 220 70q137 0 223 -74q96 -77 96 -221q0 -124 -129 -232q78 -62 106 -112q37 -64 37 -156q0 -143 -94 -240q-94 -98 -231 -98q-144 0 -240 90q-94 91 -94 242zM260 682 q0 -69 45 -123q44 -53 109 -53q66 0 112 55q43 55 43 129q0 75 -43 133t-110 58q-69 0 -113 -62q-43 -61 -43 -137zM262 1184q0 -67 43 -113q43 -49 105 -49q57 0 98 41q43 40 43 102q0 67 -41 117q-43 49 -104 49q-60 0 -101 -41q-43 -43 -43 -106z" />
<glyph unicode="&#xa5;" horiz-adv-x="845" d="M119 684v420q0 162 84 266q83 105 235 105q104 0 187 -62t110 -166q19 -81 19 -180v-387q0 -146 -88 -240t-226 -94q-140 0 -231 94q-90 96 -90 244zM291 713q0 -76 35 -135q41 -68 108 -68q69 0 107 53q39 51 39 129v447q0 70 -35 116q-41 56 -99 56q-63 0 -108 -54 q-42 -47 -45 -124z" />
<glyph unicode="&#xa6;" horiz-adv-x="845" d="M229 1253q156 58 256 222h129v-1106h-172v843q-93 -87 -211 -127z" />
<glyph unicode="&#xa7;" horiz-adv-x="845" d="M115 369v47q0 91 47 174q31 54 110 139l234 252q72 75 72 176q0 70 -37 113q-36 45 -103 45q-131 0 -149 -168h-172v31q0 137 98 219q90 78 219 78q142 0 230 -82q90 -84 90 -230q0 -182 -127 -297l-181 -164q-70 -61 -110 -149h414v-184h-635z" />
<glyph unicode="&#xa8;" horiz-adv-x="845" d="M94 635h166q0 -67 43 -107q42 -39 109 -39q70 0 110 52q41 53 41 129q0 170 -166 170h-108v164h92q178 0 178 157q0 68 -45 107q-43 43 -104 43q-100 0 -144 -103h-170v13q0 104 107 174q94 61 196 61q142 0 226 -63q98 -73 98 -215q0 -91 -37 -146q-25 -39 -115 -96 q95 -69 125 -115q47 -64 47 -166q0 -144 -100 -231q-91 -82 -229 -82q-116 0 -201 53q-103 62 -115 172q-4 20 -4 68z" />
<glyph unicode="&#xa9;" horiz-adv-x="845" d="M76 801l391 674h205v-697h114v-143h-114v-266h-172v266h-422zM229 778h271l2 506l-273 -471v-35z" />
<glyph unicode="&#xaa;" horiz-adv-x="845" d="M121 625v8h192v-29q0 -115 113 -115q75 0 115 76q34 58 34 148q0 211 -155 211q-70 0 -139 -84h-127l43 635h520v-185h-385l-17 -264q77 59 150 59q137 0 215 -112q74 -106 74 -252q0 -230 -144 -318q-88 -55 -194 -55q-121 0 -205 72q-90 78 -90 205z" />
<glyph unicode="&#xab;" horiz-adv-x="845" d="M96 803v223q0 275 135 383q79 61 183 61q116 0 211 -77q101 -82 104 -205h-172q-55 125 -137 125q-152 0 -152 -269q0 -21 1 -49.5t1 -36.5q109 68 195 68q129 0 205 -94q80 -95 80 -232q0 -87 -37 -168q-39 -86 -105 -133q-74 -53 -190 -53q-168 0 -252 146 q-70 119 -70 311zM266 698q0 -80 39 -135q43 -61 115 -61q68 0 108 55q41 56 41 131q0 193 -149 193q-70 0 -113 -52q-41 -53 -41 -131z" />
<glyph unicode="&#xac;" horiz-adv-x="845" d="M111 1348v170h634v-142l-331 -962h-201l367 934h-469z" />
<glyph unicode="&#xad;" horiz-adv-x="960" d="M57 410v204h865v-204h-865z" />
<glyph unicode="&#xae;" horiz-adv-x="845" d="M92 1112q0 160 86 260q85 98 236 98q334 0 334 -507v-132q0 -199 -78 -331q-89 -154 -269 -154q-98 0 -174 55q-76 58 -100 156q-9 38 -16 76h172q15 -64 45 -94q29 -29 86 -29q93 0 123 70q20 52 20 159q0 80 -2 107q-119 -72 -193 -72q-124 0 -200 105q-70 94 -70 233z M264 1124q0 -76 35 -135q41 -65 111 -65q71 0 110 57q39 61 39 135q0 195 -145 195q-72 0 -111 -54q-39 -51 -39 -133z" />
<glyph unicode="&#xb0;" d="M96 1110v176q94 38 142 72q47 35 116 117h117v-986h-190v717q-83 -68 -185 -96zM281 -225l833 1700h133l-829 -1700h-137zM944 57q0 81 37 142q23 39 96 106q-116 101 -116 211q0 129 96 197q81 63 205 63q120 0 208 -63q99 -73 99 -199q0 -64 -37 -119q-21 -30 -84 -90 q71 -59 100 -104q37 -61 37 -142q0 -129 -98 -211q-90 -75 -217 -75q-133 0 -223 69q-103 80 -103 215zM1143 84q0 -59 31 -104q34 -43 90 -43t90 40q32 38 32 105q0 62 -32 100q-34 43 -88 43q-53 0 -88 -41q-35 -38 -35 -100zM1145 498q0 -49 33 -82t79 -33q48 0 84 33 q37 34 37 80q0 54 -32 86t-84 32q-50 0 -82 -32q-35 -32 -35 -84z" />
<glyph unicode="&#xb1;" d="M57 522v92h1575v-92h-1575zM180 98v166q95 25 154 64q48 33 110 123h140v-822h-193v555q-96 -65 -211 -86zM489 899v21l209 2q21 -82 121 -82q49 0 88 26q41 27 41 74q0 84 -88 84h-65v145l55 -2q34 0 55 27q25 31 25 68q0 90 -103 90q-88 0 -147 -103h-172 q0 121 108 189q89 57 211 57q120 0 199 -43q98 -55 98 -172q0 -50 -24 -94q-15 -27 -62 -80q105 -102 105 -188q0 -118 -107 -179q-82 -49 -205 -49q-197 0 -288 101q-54 60 -54 108zM854 20q0 429 346 429q90 0 174 -41q96 -47 123 -129q5 -16 8 -54h-198q-16 49 -45 58 q-18 6 -76 6q-125 0 -125 -144q0 -26 2 -49q103 41 174 41q108 0 190 -65q95 -76 95 -181q0 -123 -99 -200q-89 -64 -211 -64q-247 0 -317 174q-41 100 -41 219zM1063 -109q0 -98 119 -98q133 0 133 107q0 100 -121 100q-46 0 -88 -27q-43 -30 -43 -82z" />
<glyph unicode="&#xb2;" d="M96 1098v188q95 22 146 64q41 32 110 123h127v-1002h-200v715q-81 -63 -183 -88zM279 -225l837 1698h137l-825 -1698h-149zM903 0v195l354 563h261v-594h96v-164h-96v-225h-193v225h-422zM1040 164h285v444z" />
<glyph unicode="&#xb3;" d="M57 522v92h1575v-92h-1575zM174 86v170q98 29 143 63q41 29 109 115h145v-799h-190v547q-99 -68 -207 -96zM494 897h192q47 -68 115 -68q53 0 92 33q41 35 41 88q0 51 -39 84q-36 33 -86 33q-63 0 -111 -45h-186l27 469h551v-174h-404v-135q79 39 162 39q117 0 203 -68 q94 -73 94 -195q0 -135 -111 -215q-97 -69 -227 -69q-98 0 -176 37q-99 46 -123 127q-7 17 -14 59zM854 18q0 422 336 422q216 0 287 -147q5 -9 26 -68h-196q-35 68 -111 68q-89 0 -119 -62q-22 -46 -22 -147q76 49 162 49q121 0 202 -63q92 -71 92 -195q0 -126 -100 -192 q-82 -58 -207 -58q-350 0 -350 393zM1059 -106q0 -55 37 -82q39 -31 86 -31q139 0 139 108q0 57 -37 84q-40 29 -92 29q-133 0 -133 -108z" />
<glyph unicode="&#xb4;" d="M76 1204q9 134 96 203q78 63 211 63q122 0 207 -65q100 -74 100 -197q0 -148 -137 -207q158 -109 158 -243q0 -132 -99 -215q-90 -78 -217 -78q-146 0 -225 67q-92 74 -92 220h182q34 -107 123 -107q115 0 115 125q0 49 -31 88q-25 38 -78 41l-102 4v160h88q48 0 86 35 q35 35 35 88t-33 86q-35 35 -80 35q-103 0 -121 -103h-186zM356 -227l834 1697h145l-819 -1697h-160zM979 59q0 141 143 244q-125 91 -125 209q0 125 93 197q79 65 202 65q121 0 205 -63q98 -70 98 -195q0 -117 -125 -211q80 -67 103 -104q41 -62 41 -142q0 -136 -96 -217 q-91 -73 -222 -73q-132 0 -219 75q-98 82 -98 215zM1169 76q0 -58 35 -99q37 -43 90 -43q55 0 90 41q35 44 35 103q0 57 -37 100q-33 45 -88 45q-52 0 -88 -45q-37 -46 -37 -102zM1174 498q0 -58 32 -86q35 -35 84 -35q45 0 80 35q33 33 33 84q0 116 -113 116q-50 0 -84 -30 q-32 -28 -32 -84z" />
<glyph unicode="&#xb6;" d="M96 1098v188q95 22 146 64q40 34 110 125h127l-2 -1002l-188 -2v715q-91 -64 -193 -88zM295 -227l799 1702h161l-809 -1700zM956 -225q6 146 117 272q15 18 111 123l121 129q96 99 96 168q0 59 -33 92q-38 35 -90 35q-116 0 -119 -143h-201v24q0 135 99 221q90 78 219 78 q141 0 225 -78q92 -83 92 -227q0 -164 -143 -283l-113 -94l-90 -82v-30h346v-205h-637z" />
<glyph unicode="&#xb8;" d="M74 737h192q21 -102 105 -102q68 0 104 45q39 45 39 119q0 71 -39 116q-45 48 -106 48q-68 0 -115 -62h-156l35 574h535v-195h-383l-2 -207q75 35 133 35q131 0 211 -86q82 -88 82 -225q0 -144 -93 -234q-92 -92 -229 -92q-65 0 -141 29q-83 36 -111 90l-49 90zM350 -227 l815 1702h144l-807 -1700zM967 55q0 85 49 150q34 43 117 102q-136 71 -136 205q0 129 90 201q80 65 205 65q119 0 205 -65q102 -77 102 -195q0 -105 -129 -213q148 -106 148 -246q0 -133 -102 -213q-94 -73 -220 -73q-133 0 -223 69q-106 80 -106 213zM1176 86 q0 -61 28 -106q30 -43 88 -43q56 0 90 40q33 39 33 105q0 61 -33 100q-34 43 -88 43q-55 0 -88 -39q-30 -40 -30 -100zM1176 496q0 -109 108 -109q123 0 123 113v10q0 47 -37 76q-36 28 -78 28q-56 0 -84 -32q-32 -32 -32 -86z" />
<glyph unicode="&#xb9;" d="M57 522v92h1575v-92h-1575zM162 57v172q85 14 145 58q38 28 109 121h135v-797h-193v541q-62 -52 -92 -64q-40 -17 -104 -31zM168 1296q92 15 147 58q35 28 109 121h133v-797h-190v541q-92 -74 -197 -95zM844 -2q0 418 340 418q106 0 198 -47q115 -59 115 -160v-21h-190 q-30 68 -111 68q-154 0 -160 -209q86 59 172 59q75 0 156 -38q86 -44 119 -111q16 -40 16 -96q0 -173 -153 -234q-76 -33 -170 -33q-168 0 -254 115q-78 107 -78 289zM895 1124v172q91 15 145 58q27 20 111 121h133v-797h-192v541q-83 -71 -197 -95zM1057 -141 q0 -113 123 -113q137 0 137 109q0 110 -129 110q-131 0 -131 -106z" />
<glyph unicode="&#xba;" d="M55 733v21h185q18 -61 43 -86q28 -25 84 -25q54 0 84 35q32 32 32 90q0 130 -114 133l-103 2v162h86q55 0 88 33q37 34 37 88q0 123 -117 123q-101 0 -116 -101h-187q9 131 99 203q82 64 213 64q119 0 204 -60q99 -70 99 -192q0 -81 -29 -131q-28 -44 -106 -88 q82 -52 112 -99q39 -58 39 -145q0 -84 -47 -158q-46 -76 -117 -106q-62 -27 -149 -27q-132 0 -217 61q-103 71 -103 203zM385 -225l821 1700h146l-824 -1700h-143zM924 0v215l354 563h260v-614h96v-164h-96v-225h-192v225h-422zM1061 164h285l-3 448z" />
<glyph unicode="&#xbb;" d="M57 522v92h1575v-92h-1575zM162 1124v172q85 14 145 58q38 28 109 121h135v-797h-193v541q-83 -71 -196 -95zM168 78v164q100 35 141 63q56 43 101 123h141v-815h-193v543q-81 -56 -190 -78zM838 10q0 418 346 418q80 0 159 -31q96 -38 123 -102q13 -30 19 -90h-185 q-26 63 -108 63q-154 0 -160 -207q88 60 170 60q78 0 158 -39q91 -46 119 -113q16 -43 16 -96q0 -171 -154 -233q-79 -33 -172 -33q-169 0 -254 114q-77 106 -77 289zM848 901h201q15 -84 120 -84q42 0 88 27q41 27 41 78q0 82 -94 82h-59v141l39 -2q42 -3 69 24 q29 26 29 72q0 45 -31 70q-34 24 -73 24q-55 0 -84 -16q-25 -16 -47 -70h-191q9 72 64 131q97 97 262 97q121 0 194 -43q97 -57 97 -172q0 -65 -23 -103q-23 -36 -84 -70q127 -72 127 -182q0 -78 -53 -137q-84 -96 -250 -96q-153 0 -223 37q-98 49 -119 192zM1051 -129 q0 -56 36 -82q39 -31 89 -31t92 25q45 26 45 84q0 57 -37 84q-40 29 -92 29q-133 0 -133 -109z" />
<glyph unicode="&#xbc;" d="M84 1475h633v-140q-158 -372 -328 -864h-203l312 799h-412zM305 -225l815 1700h144l-815 -1700h-144zM999 70q0 78 35 137q28 48 92 106q-120 105 -120 201q0 123 100 197q88 67 207 67q121 0 207 -63q96 -72 96 -191q0 -77 -33 -127q-22 -32 -94 -88q74 -65 100 -104 q43 -61 43 -142q0 -136 -96 -217q-88 -73 -221 -73q-134 0 -221 75q-95 86 -95 222zM1196 90q0 -153 117 -153t117 145q0 143 -117 143q-55 0 -84 -39q-33 -39 -33 -96zM1196 496q0 -109 117 -109t117 113q0 52 -35 82q-35 32 -84 32q-52 0 -82 -30q-33 -33 -33 -88z" />
<glyph unicode="&#xbd;" d="M57 522v92h1575v-92h-1575zM184 59v185q80 15 135 57q34 27 103 111h147v-799h-192v547q-101 -69 -193 -101zM190 1120v183q92 23 136 57q37 28 104 113h143v-801h-190v547q-89 -62 -193 -99zM846 879h190q47 -68 115 -68q53 0 92 33q41 33 41 88q0 52 -37 82 q-36 33 -88 33q-57 0 -106 -46h-189l29 472h547v-175h-404v-137q79 39 166 39q116 0 201 -67q94 -73 94 -195q0 -138 -108 -215q-95 -68 -232 -68q-96 0 -174 37q-98 45 -125 127q-3 3 -12 60zM864 -8q0 422 336 422q213 0 287 -148q6 -12 26 -67h-198q-30 67 -109 67 q-86 0 -116 -61q-23 -44 -29 -148q79 49 164 49q124 0 202 -63q95 -73 95 -195q0 -127 -113 -194q-91 -55 -219 -55q-165 0 -250 110q-76 101 -76 283zM1063 -129q0 -56 39 -82q39 -31 86 -31q139 0 139 109q0 57 -37 84q-44 29 -92 29q-135 0 -135 -109z" />
<glyph unicode="&#xbe;" d="M96 1098v188q95 22 146 64q40 34 110 125h127v-1004h-190v715q-91 -64 -193 -88zM276 -248l828 1723h147l-831 -1721zM948 39h187q35 -121 120 -121q65 0 99 43q37 46 37 115q0 170 -146 170q-58 0 -104 -49l-162 10l31 551h536l-2 -205h-393v-191q61 46 133 46 q128 0 219 -91q86 -89 86 -227q0 -147 -92 -242q-93 -96 -227 -96q-177 0 -266 127q-38 57 -56 160z" />
<glyph unicode="&#xbf;" d="M47 492q0 158 182 337q56 59 185 185q51 54 65 94q8 19 8 66q0 124 -112 124q-123 0 -123 -145v-6h-205v29q0 142 100 231q91 82 230 82q131 0 221 -84q98 -88 98 -227q0 -155 -123 -269q-41 -37 -129 -108q-23 -16 -98 -88v-37h328v-184h-627zM377 -244l837 1737h154 l-840 -1737h-151zM1028 43h184q22 -64 45 -84q22 -22 80 -22q60 0 90 40q33 39 33 105q0 166 -143 166q-56 0 -98 -45h-164l22 553h537v-185h-383v-204q65 47 133 47q127 0 217 -90q88 -91 88 -226q0 -139 -96 -243q-94 -101 -232 -101q-68 0 -143 35q-74 38 -113 94 q-42 61 -57 160z" />
<glyph unicode="&#xc0;" d="M66 754l202 2v-25q0 -40 33 -63q38 -23 74 -23q49 0 90 35q39 39 39 92q0 55 -41 102q-40 46 -94 46h-76v165h90q106 0 106 109q0 54 -30 84q-33 33 -82 33q-108 0 -123 -103h-186q6 126 104 209q95 76 215 76q113 0 199 -68q94 -76 94 -190q0 -85 -27 -137 q-28 -48 -104 -94q168 -100 168 -244q0 -129 -109 -215q-97 -78 -223 -78q-200 0 -279 131q-40 59 -40 156zM342 -248l840 1741h159l-829 -1741h-170zM999 20v21h195q12 -107 109 -107q58 0 92 46q32 50 32 110q0 160 -127 160q-49 0 -106 -45h-160l17 569h532v-194h-383 l-6 -191q71 39 143 39q123 0 211 -94q88 -97 88 -225q0 -139 -90 -246q-91 -107 -223 -107q-161 0 -270 133q-54 66 -54 131z" />
<glyph unicode="&#xc1;" d="M43 696v201l387 578h225v-615h117v-164h-117v-223h-176v223h-436zM199 860h282v457zM383 -248l831 1723h146l-830 -1721zM1022 41h190q3 -52 39 -88q35 -35 84 -35q51 0 92 47q37 49 37 107q0 174 -139 174q-47 0 -94 -41h-172l22 551l535 2v-205h-383v-164q84 19 129 19 q126 0 209 -86q84 -84 84 -220q0 -168 -84 -258q-83 -92 -238 -92q-290 0 -311 289z" />
<glyph unicode="&#xc2;" d="M57 522v92h1575v-92h-1575zM172 80v182q80 15 135 57q35 25 105 111h145v-799h-192v547q-83 -57 -193 -98zM518 1137v182q80 15 135 57q30 21 103 111h147v-799h-192v547q-86 -60 -193 -98zM844 14q0 207 67 308q78 118 267 118q222 0 292 -147q6 -8 27 -68h-197 q-21 44 -51 56q-15 6 -69 6q-140 0 -140 -187v-24q83 53 177 53q123 0 198 -63q82 -70 82 -195q0 -131 -98 -201q-82 -61 -213 -61q-176 0 -260 112q-82 104 -82 293zM1049 -117q0 -56 36 -82q37 -30 86 -30q140 0 140 108q0 113 -129 113q-133 0 -133 -109z" />
<glyph unicode="&#xc3;" d="M57 522v92h1575v-92h-1575zM168 268q92 15 147 58q37 30 109 120h133v-796h-190v540q-91 -73 -197 -94zM537 1495l632 -2v-100l-313 -697h-211l295 635h-401zM844 33q0 418 340 418q284 0 319 -226h-196q-31 66 -111 66q-154 0 -160 -207q86 59 172 59q82 0 156 -39 q85 -43 119 -112q16 -40 16 -96q0 -170 -153 -232q-79 -33 -170 -33q-168 0 -254 115q-78 104 -78 287zM1055 -104q0 -48 41 -78q38 -27 84 -27q42 0 88 27q39 26 39 78q0 47 -33 73q-38 30 -80 33q-47 3 -92 -25q-47 -28 -47 -81z" />
<glyph unicode="&#xc4;" d="M57 522v92h1575v-92h-1575zM170 100v162q93 23 145 62q30 21 107 125h135v-818h-192v555q-45 -40 -89 -59q-29 -14 -106 -27zM463 1251q0 126 104 193q83 57 213 57q129 0 199 -37q88 -46 125 -161q29 -91 29 -193q0 -207 -70 -305q-80 -115 -266 -115q-128 0 -211 47 q-109 59 -109 183h189q12 -76 108 -76q152 0 158 207q-88 -60 -176 -60q-112 0 -197 70q-96 78 -96 190zM670 1237q0 -43 39 -74q37 -26 75 -26q56 0 95 26q51 29 51 84q0 47 -35 74q-35 30 -78 33q-53 3 -96 -27q-51 -34 -51 -90zM840 29q0 426 342 426q119 0 204 -49 q106 -62 109 -179l-192 2q-31 66 -111 66q-154 0 -160 -207q92 59 172 59q79 0 160 -38q80 -41 115 -113q16 -33 16 -98q0 -133 -88 -203q-81 -66 -207 -66q-360 0 -360 400zM1049 -106q0 -48 41 -78q38 -27 84 -27q44 0 86 27q40 27 40 78q0 46 -34 73q-36 28 -78 31 q-47 3 -92 -25q-47 -30 -47 -79z" />
<glyph unicode="&#xc6;" d="M0 481q253 184 324 318q27 47 73 168q78 -128 78 -197q0 -72 -74 -152h1289v-262h-1289q68 -59 68 -149q0 -84 -66 -207q-51 112 -75 158q-56 110 -140 184q-38 35 -188 139z" />
<glyph unicode="&#xc7;" d="M115 389v1045l153 55v-514q61 84 107 123q64 55 141 55q105 0 164 -90q49 -76 49 -195v-479h-154v428q0 74 -22 135q-31 78 -94 78q-54 0 -129 -84q-36 -45 -49 -74t-13 -86v-397h-153zM918 756q0 148 73 270q83 139 217 139q125 0 213 -149v418l156 55v-1045l-156 -55 v131q-103 -151 -221 -151q-135 0 -213 127q-69 109 -69 260zM1077 764q0 -92 31 -162q40 -88 119 -88q88 0 137 88q39 71 39 174q0 99 -35 156q-40 76 -123 76q-87 0 -131 -80q-37 -64 -37 -164z" />
<glyph unicode="&#xc8;" d="M0 481q253 184 324 318q27 47 73 168q78 -128 78 -197q0 -72 -74 -152h887q-67 52 -67 142q0 86 65 207q43 -94 76 -158q57 -111 139 -184q40 -36 189 -140q-254 -185 -324 -317q-30 -51 -74 -168q-78 128 -78 197q0 71 74 151h-887q68 -53 68 -141q0 -84 -66 -207 q-51 112 -75 158q-56 110 -140 184q-38 35 -188 139z" />
<glyph unicode="&#xc9;" d="M135 389v701l154 57v-152q90 97 108 111q69 57 140 57q85 0 139 -69q53 -71 53 -164v-541h-154v524q0 51 -26 93q-27 43 -72 43q-60 0 -119 -80q-69 -97 -69 -209v-371h-154zM922 389v1045l153 51v-711l289 373h190l-288 -363v-24l288 -371h-190l-289 371v-371h-153z" />
<glyph unicode="&#xca;" d="M391 98q98 70 180 70q83 0 140 -72v1534l245 -2v-1532q75 78 142 78q68 0 184 -82q-171 -70 -281 -186q-70 -77 -174 -238q-59 98 -170 252q-65 65 -266 178z" />
<glyph unicode="&#xcb;" d="M57 -369v1823h1557v-1823h-1557zM193 -225h1286v1536h-1286v-1536zM461 0v1085h325q195 0 281 -59q131 -88 131 -264q0 -232 -221 -291l201 -471h-224l-194 451h-88v-451h-211zM672 635h125q88 0 127 20q55 27 55 113q0 88 -59 115q-38 18 -134 18h-114v-266z" />
<glyph unicode="&#xcc;" d="M119 395l51 133h315l123 340h-354l53 133h328l172 523h154l-181 -523h287l176 523h148l-177 -523h310l-35 -133h-311l-111 -340h324l-43 -133h-320l-170 -512h-149l165 512h-286l-174 -512h-144l174 512h-325zM635 528h278l115 340h-283z" />
<glyph unicode="&#xcd;" horiz-adv-x="845" d="M39 1159v49h287l82 267h49l80 -267h288v-49l-211 -158l78 -274l-49 -47l-203 160l-221 -160l-47 47l78 274z" />
<glyph unicode="&#xce;" horiz-adv-x="872" d="M72 352l356 942h6l354 -942l-286 226v-615h-142v615z" />
<glyph unicode="&#xcf;" d="M211 582l625 915l637 -915l-627 -936z" />
<glyph unicode="&#xd0;" d="M61 -317v1822h1555v-1822h-1555zM197 -174h1286v1536h-1286v-1536zM430 268l164 111q121 -182 289 -182q60 0 108 36q49 37 49 97q0 93 -204 184q-161 69 -236 139q-123 105 -123 242t105 223q98 76 231 76q121 0 242 -70q117 -68 170 -182l-160 -115q-118 168 -254 168 q-117 0 -117 -98q0 -80 125 -139q219 -107 309 -183q117 -99 117 -251q0 -154 -117 -246q-103 -84 -251 -84q-292 0 -447 274z" />
<glyph unicode="&#xd1;" d="M57 -369v1823h1557v-1823h-1557zM193 -225h1286v1536h-1286v-1536zM403 922v204h865v-204h-328v-922h-211v922h-326z" />
<glyph unicode="&#xd2;" d="M0 0v143h1690v-143h-1690z" />
<glyph unicode="&#xd3;" horiz-adv-x="845" d="M0 0v143h846v-143h-846z" />
<glyph unicode="&#xd4;" d="M135 92l586 625l-586 624l133 144l586 -625l586 625l131 -148l-582 -620l586 -625l-135 -143l-586 624l-586 -624z" />
<glyph unicode="&#xd5;" d="M250 553v184h500v553h172v-553h499v-184h-499v-553h-172v553h-500z" />
<glyph unicode="&#xd6;" d="M57 -348v1802h1557v-1802h-1557zM193 -205h1304v1536h-1304v-1536zM569 563q0 117 80 197q76 82 191 82q112 0 192 -80q82 -79 82 -199q0 -121 -82 -203q-82 -79 -196 -79q-111 0 -189 81q-78 84 -78 201z" />
<glyph unicode="&#xd7;" d="M131 1018l100 176l500 -324l2 646h201l2 -642l498 320l102 -176l-508 -322l504 -313l-88 -172l-508 317l-2 -630h-201l-2 630l-508 -317l-88 172l506 319z" />
<glyph unicode="&#xd8;" d="M0 348v262h1288q-67 58 -67 150q0 86 65 207q43 -94 76 -158q57 -111 139 -184q40 -36 189 -140q-254 -185 -324 -317q-30 -51 -74 -168q-78 128 -78 197q0 71 74 151h-1288z" />
<glyph unicode="&#xd9;" d="M391 1196q128 71 146 82q104 62 172 149q25 32 129 199q170 -265 297 -346q57 -35 157 -78q-116 -82 -184 -82q-66 0 -141 78v-1532l-246 -2v1534q-60 -72 -139 -72q-84 0 -191 70z" />
<glyph unicode="&#xda;" d="M391 98q98 70 180 70q83 0 140 -72v1534l245 -2v-1532q75 78 142 78q68 0 184 -82q-171 -70 -281 -186q-70 -77 -174 -238q-59 98 -170 252q-65 65 -266 178z" />
<glyph unicode="&#xdb;" horiz-adv-x="2535" d="M96 358l215 93v-127q0 -66 41 -113t103 -47q143 0 143 221v1069h215v-1051q0 -446 -340 -446q-204 0 -287 133q-60 97 -90 268zM1190 0v1430l192 79v-1509h-192zM1690 -104h63q38 -60 74 -60q52 0 102 84q64 107 64 174q0 26 -21 90l-282 881h182l213 -707l184 707h180 l-290 -987q-67 -226 -160 -336q-59 -68 -172 -68q-82 0 -137 25v197z" />
<glyph unicode="&#xdc;" horiz-adv-x="2535" d="M57 0v1454h287l231 -1065l189 1065h311v-1454h-172l2 1298l-252 -1298h-174l-248 1247l2 -1249zM1184 258q0 220 147 315q78 53 144 68q55 13 157 16v162q0 92 -102 92q-95 0 -260 -80l-62 134q104 65 156 86q81 34 172 34q120 0 193 -67q75 -66 75 -191v-591 q0 -90 97 -93v-161q-35 -5 -66 -5q-75 0 -111 33q-37 37 -63 113h-23q-55 -80 -94 -109q-56 -41 -131 -41q-112 0 -172 84q-57 79 -57 201zM1360 301q0 -158 98 -158q62 0 119 54q55 52 55 118v220q-194 -24 -252 -129q-20 -39 -20 -105zM1864 1065h170l174 -655l141 655 h154l-262 -1176q-52 -241 -256 -241q-52 0 -103 28l2 199l27 2q26 -45 76 -45q64 0 102 84q10 24 39 145z" />
<glyph unicode="&#xdd;" horiz-adv-x="2535" d="M57 0l367 1454h233l373 -1454h-203l-63 287h-436l-64 -287h-207zM379 471h340l-174 743zM1055 1044h190l2 -796q0 -111 62 -111q51 0 123 96q63 81 63 189v622h174l2 -995l-155 -86v234l-27 -33l-64 -82q-83 -105 -188 -105q-180 0 -180 277zM1817 563q0 243 71 371 q34 63 99 104q64 43 131 43q152 0 202 -170l21 -14v147h133v-991q0 -162 -96 -258q-94 -98 -248 -98q-96 0 -232 39l3 192l67 11q50 -74 135 -74q87 0 144 51q58 52 55 143l-4 191q-89 -148 -211 -148q-56 0 -109 39q-63 46 -88 90q-73 116 -73 332zM1991 604 q0 -140 18 -207q30 -125 125 -125q188 0 176 306l-2 47q-12 299 -147 299q-170 0 -170 -320z" />
<glyph unicode="&#xde;" horiz-adv-x="2535" d="M57 362l211 68q0 -8 -1 -27.5t-1 -31.5q0 -215 142 -215q76 0 116 75q33 59 33 150v1073h211v-1053q0 -452 -367 -452q-176 0 -256 133q-50 84 -88 280zM961 186v879h172l-3 -823q0 -121 76 -121q58 0 166 141q68 86 68 156v647h172v-1020l-172 -74v224 q-154 -222 -295 -222q-84 0 -135 60q-49 61 -49 153zM1825 2v1018l172 74v-226q144 217 295 217q182 0 182 -260l2 -825h-168v809q0 45 -29 82q-30 35 -75 35q-52 0 -129 -103q-80 -106 -80 -161v-660h-170z" />
<glyph unicode="&#xdf;" horiz-adv-x="2535" d="M57 0l363 1454h231l379 -1454h-207l-69 307h-424l-72 -307h-201zM373 492h342l-176 702zM1135 -344v1366l155 80v-240h15q31 91 92 152q71 71 151 71q153 0 236 -200q63 -149 63 -340t-63 -340q-85 -205 -234 -205q-119 0 -245 199v-543h-170zM1307 565q0 -123 6 -166 q11 -76 63 -153q60 -84 129 -84q87 0 133 125q31 91 31 205q0 428 -168 428q-105 0 -158 -129q-36 -95 -36 -226zM1980 0v1024l174 66v-351h15q106 273 293 355v-316q-14 2 -60 2q-63 0 -137 -59q-111 -89 -111 -229v-492h-174z" />
<glyph unicode="&#xe0;" horiz-adv-x="2535" d="M39 0v1475h293l229 -1084l203 1084h293v-1475h-174v1270l-240 -1270h-162l-270 1270v-1270h-172zM1171 258q0 87 46 172q45 83 118 137q68 51 150 70q50 14 166 20v164q0 45 -35 70q-36 31 -74 31q-102 0 -239 -88l-21 -13l-72 142q225 120 351 120q112 0 190 -69 q74 -74 74 -193v-585q0 -95 63 -95q25 0 31 2v-163h2q-21 -3 -55 -3q-127 0 -189 146h-26q-131 -146 -248 -146q-100 0 -168 89q-64 82 -64 192zM1364 295q0 -59 25 -107q27 -53 81 -53q68 0 125 45q56 47 56 117v238q-127 -20 -193 -62q-94 -61 -94 -178zM2013 0v1024 l154 63v-393h20q86 269 211 357q29 21 99 36v-307h-31q-103 0 -185 -61q-94 -70 -94 -170v-549h-174z" />
<glyph unicode="&#xe1;" horiz-adv-x="2535" d="M96 0v1475h690v-205h-479v-430h404v-185h-404v-655h-211zM807 532q0 199 70 330q117 217 313 217q188 0 293 -178q49 -86 63 -174q10 -75 10 -190v-45h-559v-66q0 -117 52 -197q58 -88 165 -88q92 0 179 84l104 -112q-116 -131 -305 -131q-199 0 -301 176 q-84 150 -84 374zM997 635h387q-6 112 -47 190q-57 97 -153 97q-90 0 -142 -101q-42 -79 -45 -186zM1729 39l2 1376l188 78v-584q103 160 246 160q164 0 241 -188q58 -144 58 -340q0 -195 -64 -357q-85 -211 -246 -211q-120 0 -247 201v-197zM1907 522q0 -210 96 -317 q56 -62 113 -62q94 0 141 152q33 119 33 231q0 130 -31 232q-43 149 -141 149q-110 0 -166 -141q-45 -107 -45 -244z" />
<glyph unicode="&#xe2;" horiz-adv-x="2535" d="M53 336l209 92q0 -9 -1 -33.5t-1 -38.5q0 -81 33 -145q40 -70 119 -70q68 0 106 66q31 54 31 133v1114h211v-1130q0 -177 -90 -283q-89 -109 -252 -109q-176 0 -264 113q-74 95 -101 291zM891 231q0 212 153 314q87 57 179 76q56 11 190 14v147q0 105 -123 105 q-92 0 -252 -92l-20 -13l-84 150q214 129 356 129q137 0 215 -84q80 -86 80 -232v-538q0 -70 33 -80q20 -4 45 -4v-164q-10 -2 -49 -2q-82 0 -123 41q-34 32 -66 125h-12q-76 -89 -119 -119q-68 -51 -151 -51q-118 0 -185 76t-67 202zM1069 260q0 -60 37 -106q36 -45 92 -45 q99 0 160 79q55 73 55 185v141q-110 -12 -170 -31q-71 -22 -121 -82q-53 -62 -53 -141zM1817 -20v1005l172 90v-225l26 33q135 164 266 164q189 0 189 -238v-829h-174v843q0 78 -78 78q-123 0 -190 -162q-39 -85 -39 -157v-602h-172z" />
<glyph unicode="&#xe3;" horiz-adv-x="2535" d="M57 -20v1474h334q322 0 445 -266q88 -192 88 -451q0 -656 -418 -735q-126 -22 -336 -22h-113zM250 186l31 -2q20 -2 77 -2q235 0 308 180q49 113 49 402q0 350 -137 448q-70 52 -259 52h-69v-1078zM1020 477q0 230 82 393q103 201 301 201q78 0 149 -41q72 -41 109 -108 q47 -83 59 -187q9 -58 9 -198v-23q-3 -15 -3 -22h-538q0 -140 35 -236q49 -135 159 -135q89 0 199 88l90 -98q-86 -77 -137 -103q-68 -35 -164 -35q-185 0 -276 162q-74 133 -74 342zM1210 635h344v51q0 238 -155 238q-177 0 -189 -289zM1841 500q0 185 23 293 q30 126 112 202q79 76 199 76q108 0 188 -65q75 -61 111 -179l-141 -84q-47 160 -154 160q-166 0 -166 -358q0 -163 21 -246q38 -156 143 -156q118 0 156 183l155 -70q-29 -94 -61 -143q-86 -142 -250 -142q-130 0 -221 97q-83 89 -101 233q-14 95 -14 199z" />
<glyph unicode="&#xe4;" horiz-adv-x="2535" d="M76 0v1475h250l403 -1108v1108h176v-1475h-237l-418 1126v-1126h-174zM1061 551q0 169 29 270q30 122 118 191q89 71 203 71q207 0 293 -213q45 -113 45 -317q0 -285 -68 -406q-91 -165 -272 -165q-109 0 -195 65q-81 67 -116 178q-37 121 -37 326zM1231 545 q0 -171 18 -244q37 -141 154 -141q153 0 168 223q4 86 4 125v49q0 125 -8 174q-27 191 -162 191q-111 0 -152 -140q-22 -86 -22 -237zM1825 1065h174l164 -862l153 862h168l-227 -1065h-195z" />
<glyph unicode="&#xe5;" horiz-adv-x="2535" d="M76 713q0 294 92 508q123 270 375 270q251 0 362 -270q82 -192 82 -504q0 -296 -82 -496q-114 -262 -364 -262q-258 0 -375 254q-90 194 -90 500zM291 711q0 -197 39 -336q62 -219 200 -219q250 0 250 571q0 565 -241 565q-130 0 -197 -211q-51 -159 -51 -370zM1135 526 q0 383 217 506q74 41 149 41q145 0 230 -108q37 -49 81 -129l-151 -101q-53 164 -164 164q-192 0 -192 -381q0 -132 38 -235q56 -142 160 -142q111 0 170 195l158 -80q-30 -126 -121 -205q-86 -80 -209 -80q-88 0 -168 47q-83 50 -121 127q-77 154 -77 381zM1905 819v144 h153v221l172 166v-387h174v-144h-174v-561q0 -60 15 -86q16 -29 71 -29q64 0 146 58v-156q-121 -74 -193 -74q-93 0 -151 64q-60 66 -60 166v618h-153z" />
<glyph unicode="&#xe6;" horiz-adv-x="2535" d="M18 240l177 116q80 -115 104 -143q70 -76 147 -76q185 0 185 219q0 108 -60 168q-40 43 -149 99q-276 144 -340 307q-29 79 -29 164q0 171 105 276q104 107 266 107q163 0 272 -121q54 -60 115 -154l-158 -110q-75 93 -106 120q-69 60 -139 60q-69 0 -115 -43 q-49 -43 -49 -113q0 -114 131 -205l282 -200q170 -120 170 -363q0 -189 -98 -299t-276 -110q-202 0 -334 163q-22 26 -101 138zM952 494q0 366 199 510q80 59 172 59q81 0 158 -47q76 -49 116 -125q58 -107 58 -275q0 -4 -0.5 -18.5t-1.5 -44t-2 -61.5h-518v-80 q0 -291 170 -291q104 0 198 88l105 -115q-84 -69 -140 -98q-70 -37 -159 -37q-195 0 -283 174q-72 141 -72 361zM1147 633l330 2q2 10 2 49q0 90 -45 152q-44 65 -123 65q-161 0 -164 -268zM1825 -348v1372l133 57v-262h14q111 250 240 250q139 0 225 -207q34 -80 43 -135 q17 -90 17 -203q0 -191 -54 -336q-70 -196 -225 -196q-136 0 -221 168v-508h-172zM1980 524q0 -122 39 -223q56 -139 150 -139q99 0 133 125q18 64 18 211q0 403 -145 403q-101 0 -156 -143q-39 -104 -39 -234z" />
<glyph unicode="&#xe7;" d="M39 547q0 361 235 608q233 248 572 248q335 0 567 -250q232 -253 232 -610q0 -356 -234 -602q-233 -248 -565 -248q-340 0 -574 246q-233 248 -233 608zM168 551q0 -298 192 -508q193 -211 474 -211q283 0 477 209q196 208 196 510q0 300 -194 506q-195 207 -473 207 q-280 0 -475 -207q-197 -206 -197 -506zM514 0v1085h653v-184h-442v-266h367v-184l-367 2v-453h-211z" />
<glyph unicode="&#xe8;" d="M39 553q0 359 235 600q235 244 570 244q341 0 579 -250t238 -615q0 -364 -244 -608q-243 -243 -586 -243q-333 0 -565 256q-227 254 -227 616zM174 557q0 -302 193 -516t475 -217t483 207q197 212 197 516q0 301 -199 506q-195 204 -481 204q-279 0 -473 -200 q-195 -204 -195 -500zM469 528q0 584 403 584q143 0 234 -82q97 -85 115 -227l-205 -35q-19 80 -45 109q-32 38 -101 38q-148 0 -178 -200q-8 -60 -8 -158q0 -155 23 -242q40 -137 157 -137q71 0 115 47q43 49 49 125l217 -43q-49 -161 -129 -241q-92 -89 -239 -89 q-208 0 -316 173q-92 148 -92 378z" />
<glyph unicode="&#xe9;" d="M31 549q0 359 235 600q237 246 574 246q335 0 569 -246q233 -248 233 -606q0 -362 -239 -604q-237 -246 -576 -246q-335 0 -565 248q-231 249 -231 608zM168 549q0 -301 190 -506q195 -207 471 -207q283 0 478 207q196 205 196 506q0 298 -194 498q-193 202 -473 202 t-474 -200t-194 -500zM498 0v1085h348q148 0 203 -18q82 -27 133 -115q49 -85 49 -184q0 -189 -146 -270q-26 -13 -71 -33l198 -465h-221l-196 451h-86v-451h-211zM709 635h122q177 0 177 125q0 144 -166 141l-133 -2v-264z" />
<glyph unicode="&#xea;" d="M35 545q0 360 233 608t574 248q332 0 567 -250q231 -249 231 -608q0 -358 -231 -604q-234 -246 -567 -246q-338 0 -572 246q-235 247 -235 606zM164 549q0 -300 190 -508q193 -211 473 -211q284 0 478 209q196 208 196 510q0 304 -192 508q-195 207 -473 207 q-283 0 -478 -207q-194 -203 -194 -508zM455 860v184h749v-184h-250v-880h-231v880h-268z" />
<glyph unicode="&#xeb;" d="M57 -369v1823h1557v-1823h-1557zM193 -225h1286v1536h-1286v-1536zM442 20v1127h324q219 0 346 -86q215 -150 215 -488q0 -245 -113 -391q-119 -162 -342 -162h-430zM653 207h178q147 0 220 110q63 97 63 258q0 386 -283 386h-178v-754z" />
<glyph unicode="&#xec;" d="M78 -369v1823h1556v-1823h-1556zM215 -229h1286v1536h-1286v-1536zM422 -20v1126h346q160 0 207 -6q193 -24 282 -166q72 -113 72 -377q0 -267 -67 -383q-111 -194 -390 -194h-450zM729 225h53q197 0 232 142q10 45 10 143v18l-2 140q-3 213 -262 213h-31v-656z" />
<glyph unicode="&#xed;" horiz-adv-x="2535" d="M0 -348v1823h2535v-1823h-2535zM135 -205h2265v1536h-2265v-1536zM346 0v1147h270q363 0 480 -248q69 -141 69 -307q0 -265 -116 -420q-129 -172 -369 -172h-334zM537 207h96q102 0 160 22q75 29 114 115q49 107 49 221q0 97 -28 189q-37 110 -101 147q-62 39 -165 39 h-125v-733zM1325 0v1147h211v-471h461v471h192v-1147h-192v492h-461v-492h-211z" />
<glyph unicode="&#xee;" horiz-adv-x="2535" d="M0 -348v1823h2535v-1823h-2535zM135 -205h2265v1536h-2265v-1536zM307 0v1126h430q101 0 183 -43q91 -45 139 -133q59 -115 59 -364q0 -298 -78 -420q-108 -166 -321 -166h-412zM596 248h94q97 0 131 110q21 72 21 195q0 165 -41 247.5t-121 80.5l-84 -2v-631zM1268 0 v1126h286v-409h385v409h287v-1126h-287v451h-385v-451h-286z" />
<glyph unicode="&#xef;" d="M74 698q0 348 221 592q226 244 549 244q326 0 557 -231q233 -233 233 -580q0 -350 -223 -602q-226 -250 -555 -250q-324 0 -555 240q-227 239 -227 587zM252 696q0 -119 29 -202q30 -86 96 -181l368 392l-374 382q-62 -110 -88 -186q-31 -95 -31 -205zM500 193 q105 -81 159 -105q79 -29 185 -29q122 0 196 29q54 19 172 105l-352 387zM500 1221l358 -394l361 387q-99 77 -164 103q-82 31 -189 31q-110 0 -192 -33q-55 -19 -174 -94zM985 709l354 -383q71 107 93 172q28 82 28 196q0 118 -30 207q-17 58 -91 186z" />
<glyph unicode="&#xf0;" d="M154 1104l176 192l1011 -1089q21 113 70 174q50 62 150 102l-23 -127q-29 -168 -29 -227q0 -35 13 -149l22 -164q-179 37 -284 37q-149 0 -320 -80q23 117 80 180q56 65 164 86z" />
<glyph unicode="&#xf1;" horiz-adv-x="845" d="M96 582q0 211 197 325v547h272v-547q199 -114 199 -325q0 -149 -96 -256q-98 -107 -238 -107q-142 0 -237 105q-97 108 -97 258z" />
<glyph unicode="&#xf2;" d="M268 721q3 249 168 414q165 168 400 168q234 0 405 -168q166 -172 166 -422q0 -261 -168 -441t-414 -180q-236 0 -401 189q-159 188 -156 440z" />
<glyph unicode="&#xf3;" d="M135 389v701l154 67v-162q77 87 108 111q72 57 140 57q85 0 139 -69q53 -71 53 -164v-541h-154v524q0 49 -26 88q-27 41 -72 41q-60 0 -119 -77q-69 -92 -69 -199v-377h-154zM922 762q0 173 79 289q89 129 246 129q158 0 246 -125q84 -116 84 -283q0 -179 -78 -289 q-83 -121 -250 -121q-161 0 -250 117q-77 106 -77 283zM1075 793q0 -129 27 -191q41 -90 145 -90q178 0 178 260q0 268 -174 268q-176 0 -176 -247z" />
<glyph unicode="&#xf4;" horiz-adv-x="845" d="M39 512v102h768v-102h-768zM104 -369q15 115 93 205q51 64 168 146l104 73q88 64 88 133q0 56 -39 82q-39 31 -90 31q-133 0 -145 -137h-172q6 90 57 158q92 127 252 127q126 0 211 -64q98 -70 98 -199q0 -148 -106 -223l-248 -178h354v-154h-625zM166 1157v158 q92 39 133 69q47 33 107 111h104v-799h-158v555q-93 -62 -186 -94z" />
<glyph unicode="&#xf5;" horiz-adv-x="845" d="M39 512v102h768v-102h-768zM76 2l356 449h201v-492h135v-143h-135v-185h-154v185h-403v186zM154 1157v158q88 38 135 69q44 33 104 111h107v-799h-154v555q-85 -51 -192 -94zM215 -41h264v332z" />
<glyph unicode="&#xf6;" horiz-adv-x="845" d="M39 512v102h768v-102h-768zM76 2l356 449h201v-492h135v-143h-135v-185h-154v185h-403v186zM115 926v16h174v-18q0 -43 47 -66q39 -20 80 -20q141 0 141 112q0 94 -96 94h-78v144h80q94 0 94 80q0 52 -49 82q-38 24 -92 24q-106 0 -127 -104h-174q9 119 104 184 q83 59 201 59q117 0 203 -51q106 -60 106 -174q0 -82 -113 -164q113 -76 113 -192q0 -126 -98 -187q-85 -51 -207 -51q-125 0 -205 51q-104 61 -104 181zM215 -41h264v332z" />
<glyph unicode="&#xf7;" horiz-adv-x="1171" d="M-57 723q0 282 86 521t234 378t323 139q174 0 322 -139t234.5 -378t86.5 -521t-86.5 -521t-234.5 -378t-322 -139q-175 0 -323 139t-234 378t-86 521zM233 0h713v248h-442v1206h-271v-1454z" />
<glyph unicode="&#x2000;" horiz-adv-x="880" />
<glyph unicode="&#x2001;" horiz-adv-x="1761" />
<glyph unicode="&#x2002;" horiz-adv-x="880" />
<glyph unicode="&#x2003;" horiz-adv-x="1761" />
<glyph unicode="&#x2004;" horiz-adv-x="587" />
<glyph unicode="&#x2005;" horiz-adv-x="440" />
<glyph unicode="&#x2006;" horiz-adv-x="293" />
<glyph unicode="&#x2007;" horiz-adv-x="293" />
<glyph unicode="&#x2008;" horiz-adv-x="220" />
<glyph unicode="&#x2009;" horiz-adv-x="352" />
<glyph unicode="&#x200a;" horiz-adv-x="97" />
<glyph unicode="&#x2010;" horiz-adv-x="960" d="M57 410v204h865v-204h-865z" />
<glyph unicode="&#x2011;" horiz-adv-x="960" d="M57 410v204h865v-204h-865z" />
<glyph unicode="&#x2012;" horiz-adv-x="960" d="M57 410v204h865v-204h-865z" />
<glyph unicode="&#x2013;" horiz-adv-x="1119" d="M57 410v204h1024v-204h-1024z" />
<glyph unicode="&#x2014;" horiz-adv-x="2143" d="M57 410v204h2048v-204h-2048z" />
<glyph unicode="&#x202f;" horiz-adv-x="352" />
<glyph unicode="&#x205f;" horiz-adv-x="440" />
<glyph unicode="&#xe000;" horiz-adv-x="1064" d="M0 0v1065h1065v-1065h-1065z" />
</font>
</defs>
</svg>
