<?xml version="1.0" standalone="no"?>
<!DOCTYPE svg PUBLIC "-//W3C//DTD SVG 1.1//EN" "http://www.w3.org/Graphics/SVG/1.1/DTD/svg11.dtd" >
<svg xmlns="http://www.w3.org/2000/svg">
<metadata></metadata>
<defs>
<font id="paddockext12001500bold" horiz-adv-x="1441" >
<font-face units-per-em="2048" ascent="1638" descent="-410" />
<missing-glyph horiz-adv-x="360" />
<glyph horiz-adv-x="2048" />
<glyph horiz-adv-x="2048" />
<glyph unicode="&#xd;" horiz-adv-x="2048" />
<glyph unicode=" "  horiz-adv-x="360" />
<glyph unicode="&#x09;" horiz-adv-x="360" />
<glyph unicode="&#xa0;" horiz-adv-x="360" />
<glyph unicode="!" horiz-adv-x="638" d="M180 0v297h262v-297h-262zM180 1319h283l-51 -854h-187z" />
<glyph unicode="&#x22;" horiz-adv-x="720" d="M27 649q0 169 166 215q-117 105 -117 211q0 116 84 185q76 61 182 61q170 0 252 -125q12 -12 35 -57l-129 -84q-61 116 -150 116q-92 0 -92 -79q0 -64 107 -131l167 -105q152 -93 152 -233q0 -93 -39 -138q-24 -35 -110 -77q112 -106 112 -209q0 -117 -88 -199 q-81 -72 -190 -72q-177 0 -269 144q-17 28 -39 67l150 66q64 -131 162 -131q37 0 67 30q31 28 31 70q0 55 -41 90q-2 1 -13 7t-31.5 17.5t-41.5 24.5l-168 99q-149 85 -149 237zM188 694q0 -58 45 -84l134 -90q44 -26 77 -26q80 0 80 86q0 52 -39 75l-174 111q-29 16 -51 16 q-31 0 -51 -26q-21 -24 -21 -62z" />
<glyph unicode="#" horiz-adv-x="720" d="M274 70q0 40 25 71q23 29 63 29q39 0 62 -29q22 -28 22 -71q0 -44 -24 -74q-25 -31 -60 -31q-38 0 -63 31t-25 74z" />
<glyph unicode="$" horiz-adv-x="720" d="M35 338l2 32v3v37h180v-52q0 -74 19 -106q21 -34 79 -55v376q-146 91 -198 158q-82 98 -82 250q0 187 117 281q58 48 163 57v94h84v-94q163 0 238 -137q41 -69 41 -187v-28h-182q0 1 1 7t1 11v19q0 119 -99 137v-348q94 -61 172 -127q121 -100 121 -299q0 -150 -80 -256 q-79 -101 -213 -113v-240h-84v240q-129 15 -204 102q-76 88 -76 238zM217 999q0 -56 27 -94q17 -22 71 -61v295q-98 -9 -98 -140zM399 197q50 23 76 55q21 30 21 90q0 122 -97 182v-327z" />
<glyph unicode="%" d="M61 938q0 146 91 254q91 104 223 104t219 -100q90 -100 90 -246q0 -142 -90 -243q-92 -99 -221 -99q-126 0 -217 94q-92 95 -95 236zM238 958q0 -69 38 -118q36 -54 97 -54q62 0 104 48q43 46 43 114q0 73 -41 123q-42 51 -106 51q-60 0 -97 -49q-38 -46 -38 -115z M303 -223l705 1560h127l-713 -1560h-119zM754 152q-3 149 90 256q88 104 223 104q127 0 219 -100q90 -104 90 -246q0 -144 -92 -244q-91 -98 -219 -98q-126 0 -217 94q-91 91 -94 234zM926 170q0 -70 37 -119q41 -53 98 -53q58 0 102 47q45 45 45 115q0 74 -43 123 q-42 51 -106 51q-56 0 -96 -49q-37 -49 -37 -115z" />
<glyph unicode="&#x26;" horiz-adv-x="1179" d="M68 412q0 190 122 321q45 51 132 92q-72 144 -72 244q0 143 94 219q86 68 215 68q133 0 209 -64q88 -76 88 -217q0 -115 -74 -201q-35 -47 -153 -137q83 -147 178 -268q55 99 100 260l211 -84q-23 -101 -63 -184l-39 -80l-49 -109q75 -14 147 -14v-276q-10 -2 -51 -2 q-88 0 -143 22q-52 24 -123 92q-103 -71 -152 -88q-67 -24 -168 -24q-248 0 -360 219q-49 94 -49 211zM311 438q0 -89 54 -155q53 -62 135 -62q67 0 133 51q-129 159 -213 365q-109 -83 -109 -199zM461 1092q0 -77 65 -172q131 75 131 163q0 105 -98 105q-36 0 -70 -27 q-28 -28 -28 -69z" />
<glyph unicode="'" horiz-adv-x="458" d="M92 727l109 313h-99v293h263v-303l-136 -303h-137z" />
<glyph unicode="(" horiz-adv-x="720" d="M121 545q0 158 47 348q50 182 123 324q25 55 67 120h244q-127 -227 -174 -364q-61 -183 -61 -410q0 -242 63 -434q58 -166 188 -389h-241q-115 188 -172 344q-84 241 -84 461z" />
<glyph unicode=")" horiz-adv-x="720" d="M119 -262q143 229 196 381q58 183 58 434q0 258 -54 422q-49 150 -200 362h254q135 -225 186 -381q57 -183 57 -428q0 -228 -63 -417q-51 -151 -176 -373h-258z" />
<glyph unicode="*" horiz-adv-x="720" d="M74 1004l45 202l225 -147l-59 278h182l-55 -278l225 153l43 -190l-236 -27l191 -204l-146 -123l-112 293l-94 -291l-148 104l195 223z" />
<glyph unicode="+" horiz-adv-x="720" d="M31 920q0 162 94 256q91 88 231 88h351v-111h-82v-1245h-99v1245h-131v-1245h-98v692q-133 27 -197 94q-69 78 -69 226z" />
<glyph unicode="," horiz-adv-x="360" d="M66 -315l104 315h-100v297h260l-2 -307l-131 -305h-131z" />
<glyph unicode="-" horiz-adv-x="819" d="M49 371v186h737v-186h-737z" />
<glyph unicode="." horiz-adv-x="360" d="M66 0v297h262v-297h-262z" />
<glyph unicode="/" horiz-adv-x="540" d="M16 -205l342 1561h177l-342 -1561h-177z" />
<glyph unicode="0" horiz-adv-x="720" d="M47 471v430q0 296 154 414q73 61 166 61q152 0 239 -137q78 -121 78 -301l2 -498q3 -460 -321 -460q-318 0 -318 491zM262 369q0 -183 105 -183q106 0 106 189v600q0 199 -102 199q-109 0 -109 -185v-620z" />
<glyph unicode="1" horiz-adv-x="720" d="M164 891v223q83 29 143 92q47 47 103 150h147v-1356h-213v1001q-52 -65 -78 -83q-42 -27 -102 -27z" />
<glyph unicode="2" horiz-adv-x="720" d="M33 0q0 221 61 340q48 92 119 190l147 203q82 113 82 256q0 164 -90 164q-92 0 -92 -131q0 -29 2 -37h-213q-2 14 -2 64q0 133 96 223q88 82 209 82q136 0 228 -105q94 -101 94 -254q0 -195 -203 -448l-115 -144q-73 -91 -98 -180h414v-223h-639z" />
<glyph unicode="3" horiz-adv-x="720" d="M49 334h215v-8q0 -144 101 -144q110 0 110 160v96q0 108 -41 152q-40 43 -137 43h-35v184q3 0 14 -1t19 -1q68 0 113 39q51 39 51 115v86q0 45 -29 82q-27 37 -72 37q-73 0 -94 -115h-215q52 317 307 317q140 0 228 -88q92 -95 92 -252q0 -116 -33 -178 q-24 -53 -111 -133q153 -102 156 -270l2 -113q3 -153 -94 -258q-95 -102 -234 -102q-92 0 -169 47q-83 49 -117 141q-24 64 -27 164z" />
<glyph unicode="4" horiz-adv-x="720" d="M25 334v237l327 785h260v-819h101v-203h-101v-332h-217v332h-370zM184 537h211v538z" />
<glyph unicode="5" horiz-adv-x="720" d="M51 334h223q0 -148 95 -148q108 0 108 197v121q0 76 -24 129q-31 72 -93 72q-51 0 -86 -72h-192l18 743h555v-241h-381v-277q74 51 132 51q124 0 206 -116q78 -113 78 -256v-154q0 -101 -41 -201q-47 -109 -114 -153q-67 -47 -166 -47q-147 0 -232 94q-86 92 -86 258z " />
<glyph unicode="6" horiz-adv-x="720" d="M49 975q0 205 84 301q101 119 240 119q120 0 207 -90q86 -92 86 -228v-18h-207q-9 129 -94 129q-44 0 -74 -35q-29 -40 -29 -86v-289q69 60 144 60q76 0 137 -41q65 -39 96 -109q37 -87 37 -246q0 -321 -152 -415q-68 -45 -151 -45q-153 0 -238 116q-84 113 -84 283z M264 319q0 -49 23 -90q24 -43 69 -43q51 0 80 60q25 52 25 106v142q0 53 -25 98q-30 53 -74 53q-48 0 -98 -78v-248z" />
<glyph unicode="7" horiz-adv-x="720" d="M49 1096v241h641v-186q-108 -257 -227 -748q-30 -133 -103 -403h-217q67 266 150 569q60 201 170 527h-414z" />
<glyph unicode="8" horiz-adv-x="720" d="M53 297v168q0 84 41 149q32 50 107 113q-78 65 -101 107q-39 59 -39 145v111q0 123 89 206q83 74 196 74q131 0 215 -63q96 -75 96 -215v-121q0 -80 -39 -144q-31 -49 -98 -104q90 -65 111 -96q45 -62 45 -146v-182q0 -70 -37 -143q-38 -78 -86 -117q-74 -59 -195 -59 q-127 0 -215 88q-90 87 -90 229zM266 291q0 -48 29 -88q27 -35 70 -35q46 0 71 35q27 35 27 84v225q0 46 -27 84q-27 37 -71 37q-43 0 -70 -37q-29 -37 -29 -84v-221zM266 928q0 -41 29 -78q24 -35 65 -35q36 0 62 29q24 27 24 69v162q0 46 -22 80q-21 35 -59 35 q-46 0 -70 -35q-29 -32 -29 -80v-147z" />
<glyph unicode="9" horiz-adv-x="720" d="M43 903q0 149 12 211q21 110 95 178q90 84 215 84q200 0 282 -219q39 -98 39 -217v-481q0 -130 -35 -246q-44 -135 -131 -190q-67 -46 -172 -46q-194 0 -262 160q-31 73 -39 176h223q3 -137 88 -137q97 0 97 193v204q-77 -57 -146 -57q-68 0 -135 45q-66 48 -92 115 q-39 101 -39 227zM256 961q0 -236 113 -236q53 0 88 74v258q0 43 -27 78q-23 36 -63 36q-111 0 -111 -210z" />
<glyph unicode=":" horiz-adv-x="540" d="M131 0v297h262v-297h-262zM131 557v297h262v-297h-262z" />
<glyph unicode=";" horiz-adv-x="540" d="M135 0v297h262v-313l-135 -299h-127l101 315h-101zM135 557v297h262v-297h-262z" />
<glyph unicode="&#x3c;" d="M0 0v131h1442v-131h-1442z" />
<glyph unicode="=" horiz-adv-x="720" d="M0 410v165h721v-165h-721z" />
<glyph unicode="&#x3e;" d="M0 410v165h1442v-165h-1442z" />
<glyph unicode="?" horiz-adv-x="819" d="M66 1087q50 95 86 140q60 66 124 88q68 24 134 24q145 0 227 -65q100 -78 100 -232q0 -105 -82 -196l-100 -113q-59 -65 -59 -244v-26h-213q-9 58 -9 110q0 151 134 326q77 103 77 152q0 82 -82 82q-58 0 -88 -50q-17 -23 -45 -108zM246 0v297h262v-297h-262z" />
<glyph unicode="@" d="M86 559q0 303 166 508q96 117 248 188q143 64 293 64q156 0 290 -82q144 -84 211 -236q56 -130 56 -303q0 -177 -93 -329q-105 -166 -256 -166q-154 0 -178 112h-24q-79 -110 -189 -110q-97 0 -161 76q-66 78 -66 186q0 111 61 221q60 106 148 166q65 41 139 41 q66 0 107 -33q34 -27 59 -108l43 120h162l-105 -421q-10 -41 -10 -76q0 -62 45 -62q43 0 105 62q114 114 114 319q0 227 -133 363q-128 131 -332 131q-250 0 -409 -182q-160 -183 -160 -461q0 -167 43 -271q47 -109 156 -206q122 -107 340 -107q221 0 360 92q12 9 45.5 32 t52.5 38l11 6l47 -70q-150 -123 -264 -165q-136 -48 -260 -48q-185 0 -345 86q-179 95 -256 265q-61 137 -61 360zM594 422q0 -109 65 -109q76 0 123 115q58 134 58 248q0 45 -17 78q-17 45 -55 45q-75 0 -131 -152q-43 -122 -43 -225z" />
<glyph unicode="A" horiz-adv-x="1097" d="M66 0l340 1319h319l319 -1319h-264l-43 242l-352 -2l-57 -240h-262zM440 502h238l-100 452v68h-33v-66z" />
<glyph unicode="B" horiz-adv-x="1097" d="M147 0v1319h459q147 0 238 -94q94 -91 94 -256q0 -201 -145 -281q77 -58 120 -125q41 -71 41 -174q0 -134 -28 -203q-34 -85 -125 -145q-62 -41 -131 -41h-523zM412 203h75q205 0 205 186q0 99 -47 135q-42 31 -131 31h-102v-352zM414 780h118q67 0 103 45q39 42 39 119 q0 152 -146 152h-114v-316z" />
<glyph unicode="C" horiz-adv-x="999" d="M98 512v340q0 504 400 504q183 0 290 -107q113 -113 113 -317v-39l-262 -2v59q0 146 -125 146q-137 0 -137 -185v-514q0 -85 29 -129q35 -47 108 -47q129 0 129 176v68h275v-62q0 -128 -54 -233q-105 -209 -332 -209q-20 0 -26 2q-142 9 -205 41q-203 105 -203 508z" />
<glyph unicode="D" horiz-adv-x="1097" d="M147 0v1319h381q208 0 322 -129q113 -131 113 -367v-286q0 -251 -74 -381q-91 -156 -303 -156h-439zM410 244h108q168 0 168 227v338q0 268 -188 268h-88v-833z" />
<glyph unicode="E" horiz-adv-x="1097" d="M147 0v1319h803v-260h-540v-242h376v-260h-376v-297h540v-260h-803z" />
<glyph unicode="F" horiz-adv-x="999" d="M147 0v1319h771v-260h-508v-242h344v-260h-344v-557h-263z" />
<glyph unicode="G" horiz-adv-x="1097" d="M147 563l3 328q0 227 106 354q108 129 305 129q113 0 209 -47q112 -54 158 -153q33 -85 39 -226h-262l-3 27q-3 57 -40 100q-36 39 -91 39q-60 0 -102 -45q-43 -46 -43 -115v-489q0 -234 143 -234q80 0 107 56q24 41 24 137l2 59h-145v242h410v-725h-117l-33 90 q-85 -68 -127 -86q-66 -29 -145 -29q-130 0 -238 82q-110 87 -139 228q-21 105 -21 278z" />
<glyph unicode="H" horiz-adv-x="1179" d="M164 0v1319h262v-502h344v502h262v-1319h-262v557h-344v-557h-262z" />
<glyph unicode="I" horiz-adv-x="638" d="M49 0v168h131v985h-131v166h541v-166h-131v-985h131v-168h-541z" />
<glyph unicode="J" horiz-adv-x="819" d="M66 369v59h229v-121q0 -102 74 -102q73 0 73 100v1014h279v-952q0 -139 -51 -244q-76 -162 -277 -162q-177 0 -256 105q-71 95 -71 303z" />
<glyph unicode="K" horiz-adv-x="1097" d="M115 0v1319h262v-606l348 606h307l-377 -612l414 -707h-311l-381 664v-664h-262z" />
<glyph unicode="L" horiz-adv-x="999" d="M147 0v1319h263v-1059h524v-260h-787z" />
<glyph unicode="M" d="M164 0v1319h356l203 -813l195 813h360v-1319h-246l2 991l-227 -991h-180l-234 1026v-1026h-229z" />
<glyph unicode="N" horiz-adv-x="1179" d="M164 0v1319h258l348 -727v727h246v-1319h-225l-381 799v-799h-246z" />
<glyph unicode="O" horiz-adv-x="999" d="M98 496l2 409q0 209 109 342q107 131 291 131q415 0 415 -467l3 -415q0 -325 -175 -445q-106 -71 -233 -71q-202 0 -311 145q-101 134 -101 371zM373 395q0 -63 41 -110q36 -45 96 -45q52 0 90 47q35 43 35 108v537q0 73 -37 125q-37 55 -100 55q-57 0 -92 -63 q-33 -61 -33 -123v-531z" />
<glyph unicode="P" horiz-adv-x="1097" d="M147 0v1319h383q203 0 314 -96q127 -109 127 -328q0 -140 -68 -252q-68 -111 -182 -149q-89 -27 -186 -27h-125v-467h-263zM410 707h88q194 0 194 180q0 185 -188 188l-94 2v-370z" />
<glyph unicode="Q" horiz-adv-x="999" d="M49 385v559q0 204 111 318q109 112 286 112t291 -114q115 -115 115 -310v-561q0 -97 -27 -162q56 -42 125 -45v-293h-43q-151 0 -209 158q-149 -76 -262 -76q-161 0 -276 115q-111 114 -111 299zM328 365q0 -54 37 -91q40 -34 88 -34q22 0 71 22v70q-49 25 -82 61v240h58 q34 -55 86 -76v418q0 61 -39 100t-92 39q-51 0 -88 -37q-39 -36 -39 -92v-620z" />
<glyph unicode="R" horiz-adv-x="1097" d="M145 0l2 1319l365 -2q120 0 166 -10q91 -17 149 -72q127 -118 127 -313q0 -165 -49 -238q-50 -77 -186 -117l260 -567h-291l-217 520h-61l-2 -520h-263zM408 729h96q170 0 170 186q0 164 -125 164h-141v-350z" />
<glyph unicode="S" horiz-adv-x="999" d="M57 268l209 150q70 -107 94 -129q56 -56 134 -56q59 0 100 35q49 37 49 103t-51 114q-38 30 -109 56q-409 156 -409 454q0 177 127 283q113 96 272 96q94 0 182 -39q100 -40 156 -108q9 -9 53 -82l-190 -162q-51 76 -88 109q-53 43 -119 43q-51 0 -92 -35 q-39 -33 -39 -90q0 -100 174 -170q153 -62 207 -95q103 -63 153 -172q37 -87 37 -176q0 -188 -131 -307q-122 -110 -291 -110q-132 0 -213 40q-94 44 -163 158q-42 69 -52 90z" />
<glyph unicode="T" horiz-adv-x="999" d="M82 1059v260h852v-260h-295v-1059h-246v1059h-311z" />
<glyph unicode="U" horiz-adv-x="1179" d="M164 418v901l264 -2l-2 -885q0 -78 43 -133q42 -57 111 -57q77 0 125 69q47 62 47 150v856l264 2v-832q0 -505 -426 -505q-194 0 -305 108q-121 118 -121 328z" />
<glyph unicode="V" horiz-adv-x="1097" d="M37 1321h280l226 -926l225 926h274l-344 -1321h-301z" />
<glyph unicode="W" horiz-adv-x="1540" d="M66 1319h247l166 -879l178 879h232l178 -860l166 860h235l-276 -1319h-240l-178 854l-172 -854h-248z" />
<glyph unicode="X" horiz-adv-x="1097" d="M66 0l331 700l-319 619h276l205 -401l189 401h299l-328 -619l338 -700h-283l-215 471l-205 -471h-288z" />
<glyph unicode="Y" horiz-adv-x="1097" d="M57 1319h287l209 -485l217 485h283l-365 -817v-502h-262v514z" />
<glyph unicode="Z" horiz-adv-x="999" d="M86 0v231l506 828h-465v260h803v-211l-498 -848h498v-260h-844z" />
<glyph unicode="[" horiz-adv-x="720" d="M115 -260v1560h475v-147h-262v-1264h262v-149h-475z" />
<glyph unicode="\" horiz-adv-x="360" d="M131 -410v1860h82v-1860h-82z" />
<glyph unicode="]" horiz-adv-x="720" d="M131 -111h262v1264h-262v147h475v-1560h-475v149z" />
<glyph unicode="^" horiz-adv-x="720" d="M66 827v234l266 -66l-74 342h221l-73 -342l266 66v-234l-264 68q28 -140 65 -242q-52 -358 -67 -692h-78q-8 302 -70 690q49 123 72 244z" />
<glyph unicode="_" horiz-adv-x="720" d="M49 213v256l283 -100q-30 121 -82 288q44 116 74 232l-275 -76v229l266 -63l-67 358h225l-67 -358l262 82v-248l-273 82q15 -110 62 -238q-44 -195 -60 -284l275 96v-256l-266 70l65 -338h-221l65 338z" />
<glyph unicode="`" d="M279 80q0 45 24 72q21 30 62 30q37 0 61 -30q25 -28 25 -72q0 -43 -25 -74t-61 -31q-37 0 -62 31q-24 30 -24 74zM995 80q0 44 25 72q24 30 61 30q38 0 62 -30q24 -27 24 -72q0 -44 -24 -74q-25 -31 -62 -31q-36 0 -61 31t-25 74z" />
<glyph unicode="a" horiz-adv-x="819" d="M31 254q0 215 186 315q84 43 242 64v78q0 45 -41 69q-31 19 -78 19q-90 0 -184 -94l-113 155q80 71 139 92q85 33 189 33q317 0 317 -270l2 -434q0 -60 8 -76q12 -23 58 -35v-170q-52 -18 -78 -18q-88 0 -182 114q-113 -116 -230 -116q-112 0 -172 75q-63 72 -63 199z M262 276q0 -96 80 -96q117 0 117 197v106q-81 -3 -140 -59q-57 -54 -57 -148z" />
<glyph unicode="b" horiz-adv-x="819" d="M82 0v1337h229v-463h27q92 111 207 111q227 0 227 -379v-227q0 -157 -49 -264q-66 -138 -188 -138q-121 0 -224 142v-119h-229zM311 309q0 -27 43 -57q42 -33 68 -33q106 0 106 191v198q0 172 -88 172q-40 0 -129 -80v-391z" />
<glyph unicode="c" horiz-adv-x="720" d="M49 348v273q0 172 82 276q82 107 234 107q131 0 217 -89q90 -93 90 -239v-6h-197q-11 51 -29 80q-25 28 -69 28q-65 0 -86 -69q-15 -43 -15 -136v-153q0 -227 97 -227q90 0 90 124v17h209q0 -88 -6 -123q-11 -56 -50 -113q-86 -118 -245 -118q-82 0 -154 34 q-82 42 -119 109q-49 85 -49 225z" />
<glyph unicode="d" horiz-adv-x="819" d="M49 299v358q0 140 39 222q52 112 162 112q117 0 242 -119v465h229v-1337h-229v98q-5 -5 -11 -10l-6 -4q-68 -65 -94 -80q-41 -27 -109 -27q-111 0 -170 103q-53 85 -53 219zM295 352q0 -67 12 -94q15 -37 72 -37q54 0 113 68v407q-70 82 -117 82q-80 0 -80 -129v-297z " />
<glyph unicode="e" horiz-adv-x="819" d="M98 379v250q0 229 121 315q88 60 187 60q101 0 174 -52q81 -59 110 -159q31 -115 31 -301v-64h-410q-4 -62 -4 -63q0 -81 41 -134q40 -49 111 -49q100 0 225 76l37 -205q-171 -71 -275 -71q-101 0 -178 38q-95 47 -133 136q-37 87 -37 223zM311 594h213v84q0 58 -32 98 q-35 41 -84 41q-46 0 -70 -43q-27 -40 -27 -94v-86z" />
<glyph unicode="f" horiz-adv-x="540" d="M0 762v205h131v149q0 221 266 221h127v-204h-78q-62 0 -77 -54q-9 -24 -9 -112h164v-205h-164v-762h-229v762h-131z" />
<glyph unicode="g" horiz-adv-x="819" d="M66 264v410q0 124 55 203q60 90 168 90q143 0 235 -179v160h213l-2 -895q0 -198 -96 -305q-95 -102 -274 -102q-128 0 -209 78q-30 27 -74 83l139 113q72 -90 144 -90q82 0 112 43q31 45 31 137v121q-142 -133 -223 -133q-94 0 -156 80q-63 78 -63 186zM311 307 q0 -86 78 -86q51 0 117 66v354q-65 68 -109 68q-86 0 -86 -113v-289z" />
<glyph unicode="h" horiz-adv-x="819" d="M82 0v1337h229v-503q145 151 246 151q92 0 148 -86q49 -76 49 -186v-713h-230v612q0 127 -80 127q-54 0 -133 -98v-641h-229z" />
<glyph unicode="i" horiz-adv-x="458" d="M115 0v967h229v-967h-229zM115 1114v242h229v-242h-229z" />
<glyph unicode="j" horiz-adv-x="458" d="M-33 -92q10 -2 45 -2q66 0 92 26q27 27 27 101v934h229v-987q0 -107 -16 -154q-24 -77 -90 -115q-80 -45 -207 -45q-47 0 -80 17v225zM131 1114v242h229v-242h-229z" />
<glyph unicode="k" horiz-adv-x="819" d="M66 0v1337h231v-805l195 435h253l-215 -435l261 -532h-261l-233 514v-514h-231z" />
<glyph unicode="l" horiz-adv-x="458" d="M115 0v1337h229v-1337h-229z" />
<glyph unicode="m" horiz-adv-x="1277" d="M82 0v967h213v-158q76 94 108 123q62 53 140 53q69 0 119 -47q48 -45 63 -125q133 174 256 174q112 0 168 -96q47 -83 47 -215v-676h-229v635q0 46 -21 76q-19 32 -57 32q-55 0 -135 -102v-641h-230v659q0 37 -22 62q-24 24 -56 24q-56 0 -135 -104v-641h-229z" />
<glyph unicode="n" horiz-adv-x="819" d="M82 0v967h213v-154l45 51q59 65 86 86q47 35 109 35q104 0 165 -98q54 -88 54 -211v-676h-246v664q0 75 -53 75q-67 0 -121 -69q-21 -27 -21 -70l-2 -600h-229z" />
<glyph unicode="o" horiz-adv-x="819" d="M68 430v162q0 414 340 414q348 0 348 -398v-188q0 -445 -338 -445q-350 0 -350 455zM311 313q0 -45 27 -80q22 -32 68 -32q43 0 73 30q31 36 31 82v367q0 47 -29 84q-30 37 -71 37q-43 0 -70 -37q-29 -37 -29 -84v-367z" />
<glyph unicode="p" horiz-adv-x="819" d="M82 -352v1319h213v-156q2 3 9.5 12t12.5 17q63 79 95 102q55 43 123 43q67 0 118 -45q55 -46 76 -117q27 -96 27 -215v-223q0 -259 -56 -330q-28 -35 -71 -53q-52 -22 -88 -22q-113 0 -230 135v-467h-229zM311 301q0 -45 37 -72q36 -28 74 -28q106 0 106 153l-2 234 q0 50 -20 98q-24 53 -70 53q-34 0 -82 -45l-43 -37v-356z" />
<glyph unicode="q" horiz-adv-x="819" d="M66 289v368q0 131 53 220q61 108 168 108q69 0 137 -53q59 -47 100 -125v160h213v-1319h-229v471q-2 -3 -17.5 -19t-27.5 -30q-53 -56 -78 -70q-42 -20 -98 -20q-221 0 -221 309zM293 389q0 -85 12 -123q18 -65 78 -65q50 0 125 63v395q0 25 -49 46q-53 24 -76 24 q-90 0 -90 -137v-203z" />
<glyph unicode="r" horiz-adv-x="638" d="M82 0v967h213v-195q91 133 123 158q58 45 139 57v-334q-113 -15 -246 -80v-573h-229z" />
<glyph unicode="s" horiz-adv-x="638" d="M33 106l110 168q94 -104 176 -104q78 0 78 70q0 43 -32 71q-20 16 -66 41q-17 9 -74 43q-71 46 -98 70q-92 74 -92 219q0 138 88 223q84 78 207 78q124 0 250 -100l-97 -166q-98 61 -159 61q-80 0 -80 -53q0 -41 57 -80q14 -7 90 -43q219 -104 219 -323q0 -83 -35 -152 q-33 -71 -96 -106q-76 -43 -180 -43q-84 0 -145 28q-56 27 -121 98z" />
<glyph unicode="t" horiz-adv-x="540" d="M16 762v205h115v333h229v-333h148v-205h-148v-451q0 -63 23 -86q22 -22 80 -22q4 0 9.5 0.5t16 1.5t19.5 2v-205q-73 -20 -137 -20q-71 0 -133 41q-60 43 -84 118q-23 80 -23 187v434h-115z" />
<glyph unicode="u" horiz-adv-x="819" d="M82 291v676h229v-666q0 -80 78 -80q36 0 78 25q39 23 39 61l2 660h246v-967h-230v141q-46 -82 -92 -116q-54 -45 -131 -45q-110 0 -170 94q-49 79 -49 217z" />
<glyph unicode="v" horiz-adv-x="720" d="M16 967h232l123 -510l104 510h234l-238 -967h-213z" />
<glyph unicode="w" horiz-adv-x="1179" d="M57 967h211l121 -543l123 543h176l125 -543l119 543h205l-240 -967h-168l-129 573l-139 -573h-170z" />
<glyph unicode="x" horiz-adv-x="819" d="M49 0l242 492l-230 475h244l109 -260l106 260h242l-223 -473l243 -494h-237l-129 258l-117 -258h-250z" />
<glyph unicode="y" horiz-adv-x="720" d="M14 -72q30 -6 64 -6q170 0 170 152q0 40 -68 288l-166 605h228l123 -465l98 465h229l-237 -971q-12 -47 -17 -66q-26 -103 -98 -172t-172 -69q-69 0 -154 28v211z" />
<glyph unicode="z" horiz-adv-x="720" d="M66 0v170l331 610h-315v187h590v-168l-332 -613h332v-186h-606z" />
<glyph unicode="{" horiz-adv-x="458" d="M98 707v292l133 301h134l-107 -315h102v-278h-262z" />
<glyph unicode="|" horiz-adv-x="458" d="M92 727l109 313h-99v293h263v-303l-136 -303h-137z" />
<glyph unicode="&#xa4;" horiz-adv-x="720" d="M70 614q0 99 28 154q23 47 101 106q-65 43 -88 84q-27 46 -27 121q0 132 76 199q66 63 186 63q117 0 191 -65q81 -72 81 -201q0 -117 -110 -211q65 -56 92 -102q31 -60 31 -141q0 -132 -82 -220t-197 -88q-120 0 -202 82q-80 83 -80 219zM223 618q0 -64 37 -110 q37 -49 94 -49q59 0 95 51q38 50 38 117q0 71 -36 121q-36 51 -97 51q-58 0 -96 -56q-35 -56 -35 -125zM225 1075q0 -63 35 -104q37 -43 88 -43q49 0 86 37t37 92q0 63 -37 106q-33 45 -88 45q-53 0 -86 -39q-35 -35 -35 -94z" />
<glyph unicode="&#xa5;" horiz-adv-x="720" d="M102 621v380q0 150 70 244q74 92 201 92q89 0 159 -55q74 -56 95 -149q16 -63 16 -164v-353q0 -132 -76 -217q-77 -86 -192 -86q-120 0 -197 86q-76 85 -76 222zM250 647q-3 -62 29 -123q34 -61 92 -61t92 49q33 51 33 117v405q0 57 -31 105q-34 51 -84 51q-57 0 -94 -49 t-37 -113v-381z" />
<glyph unicode="&#xa6;" horiz-adv-x="720" d="M197 985v152q134 52 217 200h110v-1003h-147v766q-79 -79 -180 -115z" />
<glyph unicode="&#xa7;" horiz-adv-x="720" d="M98 334v43q0 87 39 158q31 56 96 127l199 229q62 68 62 160q0 63 -33 102q-30 41 -88 41q-112 0 -127 -154h-146v29q0 124 84 199q75 69 187 69q121 0 194 -73q78 -75 78 -209q0 -164 -108 -269l-154 -149q-60 -57 -94 -135h352v-168h-541z" />
<glyph unicode="&#xa8;" horiz-adv-x="720" d="M80 575h141q3 -59 37 -96q38 -35 92 -35q57 0 96 48q33 44 33 116q0 154 -139 154h-94v149h78q153 0 153 144q0 60 -39 96q-36 39 -90 39q-84 0 -121 -94h-145v12q0 93 92 158q79 55 166 55q123 0 192 -57q84 -69 84 -195q0 -81 -30 -133q-25 -37 -99 -86 q77 -59 107 -105q41 -62 41 -151q0 -129 -86 -209q-80 -74 -197 -74q-100 0 -170 47q-86 57 -98 156q-4 20 -4 61z" />
<glyph unicode="&#xa9;" horiz-adv-x="720" d="M66 575v152l331 610h176v-630h99v-132h-99v-241h-147v241h-360zM195 707h231l2 458l-231 -428z" />
<glyph unicode="&#xaa;" horiz-adv-x="720" d="M102 567v6h164v-24q0 -105 99 -105q60 0 98 68q29 63 29 135q0 191 -134 191q-60 0 -118 -76h-109l37 575h442v-166h-327l-15 -239q68 53 129 53q115 0 183 -102q63 -92 63 -230q0 -207 -123 -286q-73 -52 -164 -52q-104 0 -176 66q-78 72 -78 186z" />
<glyph unicode="&#xab;" horiz-adv-x="720" d="M82 729v203q0 252 117 346q66 57 155 57q98 0 178 -71q88 -79 91 -187h-148q-47 115 -117 115q-129 0 -129 -244q0 -60 2 -78q89 62 166 62q106 0 174 -86t68 -211q0 -76 -31 -152q-35 -80 -88 -121q-64 -49 -164 -49q-144 0 -215 133q-59 109 -59 283zM227 633 q0 -70 33 -121q39 -57 98 -57q57 0 93 51q34 49 34 119q0 174 -127 174q-60 0 -96 -47q-35 -47 -35 -119z" />
<glyph unicode="&#xac;" horiz-adv-x="720" d="M94 1223v153h541v-127l-283 -874h-170l314 848h-402z" />
<glyph unicode="&#xad;" horiz-adv-x="819" d="M49 371v186h737v-186h-737z" />
<glyph unicode="&#xae;" horiz-adv-x="720" d="M78 1010q0 146 74 235q75 90 202 90q283 0 283 -461v-120q0 -178 -66 -301q-78 -140 -229 -140q-79 0 -147 52q-65 53 -86 141q-6 22 -15 67h148q11 -54 37 -84q23 -26 73 -26q82 0 105 63q18 44 18 146q0 71 -2 96q-101 -66 -164 -66q-107 0 -172 95q-59 89 -59 213z M225 1020q0 -69 31 -123q35 -59 92 -59q59 0 94 53t35 123q0 176 -125 176q-64 0 -94 -49q-33 -54 -33 -121z" />
<glyph unicode="&#xb0;" d="M82 1008v159q68 30 121 66q47 40 100 104h98v-893h-161v652q-72 -63 -158 -88zM240 -205l710 1542h115l-709 -1542h-116zM807 51q0 79 31 129q21 38 82 96q-101 91 -101 193q0 114 82 178q70 58 176 58q101 0 178 -58q84 -69 84 -180q0 -63 -32 -109q-13 -20 -72 -82 q61 -52 86 -94q33 -53 33 -129q0 -116 -86 -190q-76 -70 -185 -70q-114 0 -190 64q-86 71 -86 194zM975 76q0 -55 26 -94t76 -39q51 0 78 37q29 40 29 94q0 52 -29 92q-26 39 -76 39q-45 0 -75 -37q-29 -40 -29 -92zM977 453q0 -47 29 -76t67 -29q35 0 72 29q31 31 31 74 q0 48 -29 77t-70 29q-39 0 -71 -29q-29 -32 -29 -75z" />
<glyph unicode="&#xb1;" d="M49 473v84h1344v-84h-1344zM154 90v150q89 28 131 57q36 25 94 113h119v-746h-164v504q-77 -59 -180 -78zM418 815v19l178 2q18 -74 104 -74q40 0 74 24q35 24 35 68q0 76 -76 76h-55v131l47 -2q29 0 49 26q19 25 19 60q0 82 -86 82q-74 0 -127 -92h-146q0 108 92 170 q74 51 181 51q102 0 167 -39q87 -50 87 -156q0 -42 -23 -86q-16 -29 -51 -71q88 -91 88 -170q0 -106 -90 -162q-68 -45 -176 -45q-168 0 -246 90q-45 54 -45 98zM729 18q0 390 295 390q80 0 150 -37q80 -44 104 -119q3 -10 6 -47h-168q-11 41 -39 51q-15 6 -65 6 q-107 0 -107 -131q0 -25 2 -43q84 37 148 37q91 0 162 -59q81 -66 81 -164q0 -117 -84 -183q-72 -57 -180 -57q-208 0 -270 158q-35 90 -35 198zM907 -98q0 -90 103 -90q112 0 112 98q0 90 -102 90q-45 0 -76 -25q-37 -24 -37 -73z" />
<glyph unicode="&#xb2;" d="M82 995v172q79 18 125 58q36 32 94 110h109v-907h-172v647q-71 -56 -156 -80zM238 -205l714 1540h117l-704 -1540h-127zM770 0v176l303 512h221v-538h82v-150h-82v-205h-164v205h-360zM889 150h241v403z" />
<glyph unicode="&#xb3;" d="M49 473v84h1344v-84h-1344zM150 78v153q80 28 120 60q32 23 95 102h122v-725h-163v498q-78 -61 -174 -88zM422 813h164q38 -59 98 -59q46 0 78 28q35 30 35 80t-33 76q-31 31 -74 31q-50 0 -94 -41h-158l23 426h469v-158h-344v-123q72 35 139 35q99 0 172 -61 q80 -68 80 -177q0 -120 -94 -196q-80 -62 -195 -62q-84 0 -149 33q-84 41 -107 115q-7 25 -10 53zM729 16q0 383 287 383q182 0 244 -133q12 -23 22 -61h-168q-27 61 -94 61q-73 0 -100 -55q-18 -41 -21 -135q65 45 139 45q102 0 172 -58q80 -65 80 -176q0 -114 -86 -176 q-68 -51 -176 -51q-299 0 -299 356zM903 -96q0 -48 31 -76q34 -27 76 -27q116 0 116 99q0 51 -30 75q-34 27 -78 27q-115 0 -115 -98z" />
<glyph unicode="&#xb4;" d="M66 682h157q27 -96 103 -96q98 0 98 112q0 43 -25 82q-24 35 -67 35l-88 4v146h75q44 0 74 30q29 37 29 80q0 45 -27 80q-28 31 -69 31q-89 0 -101 -92h-159q6 119 81 182q68 59 179 59q101 0 178 -59q84 -72 84 -180q0 -134 -117 -187q135 -99 135 -221q0 -118 -84 -196 q-79 -70 -184 -70q-125 0 -195 61q-77 68 -77 199zM305 -207l711 1542h123l-699 -1542h-135zM836 53q0 133 122 221q-108 86 -108 191q0 110 80 178q68 59 172 59t176 -57q84 -66 84 -176q0 -106 -107 -193q65 -59 86 -94q35 -56 35 -129q0 -123 -82 -196q-77 -68 -188 -68 q-107 0 -186 70q-84 75 -84 194zM997 70q0 -51 31 -90q29 -39 76 -39q49 0 78 39q28 39 28 90q0 52 -30 92q-27 41 -76 41q-41 0 -76 -41q-31 -42 -31 -92zM1001 453q0 -51 29 -80q28 -31 72 -31q36 0 67 31q29 37 29 78q0 104 -96 104q-45 0 -72 -27q-29 -26 -29 -75z" />
<glyph unicode="&#xb6;" d="M82 995v172q79 18 125 58q30 26 94 112h109l-2 -907l-162 -2v647q-76 -55 -164 -80zM252 -207l682 1544h137l-690 -1542zM815 -205q9 132 100 248q29 37 97 111l102 116q82 94 82 154q0 47 -29 84q-31 31 -75 31q-100 0 -103 -129h-172v22q0 120 84 201q75 69 189 69 q117 0 192 -69q78 -78 78 -207q0 -148 -123 -256l-96 -86l-76 -74v-28h295v-187h-545z" />
<glyph unicode="&#xb8;" d="M61 670h166q18 -95 88 -95q61 0 91 41q32 40 32 109q0 66 -32 106q-37 43 -91 43q-59 0 -98 -57h-133l29 520h456v-176h-327v-186q64 31 114 31q111 0 179 -80q69 -75 69 -203q0 -129 -78 -213q-79 -82 -194 -82q-59 0 -123 25q-71 32 -94 82l-41 81zM299 -207l696 1544 h123l-690 -1542zM825 51q0 76 41 135q29 40 101 93q-115 65 -115 186q0 118 76 182q69 60 174 60q98 0 176 -60q86 -71 86 -176q0 -98 -109 -195q125 -94 125 -223q0 -119 -88 -192q-80 -68 -186 -68q-108 0 -191 64q-90 75 -90 194zM1004 78q0 -55 24 -96q23 -39 74 -39 t78 37q28 39 28 94q0 53 -28 92q-26 39 -76 39q-47 0 -74 -37q-26 -36 -26 -90zM1004 451q0 -99 92 -99q104 0 104 101v10q0 38 -31 69q-31 25 -67 25q-43 0 -72 -29q-26 -29 -26 -77z" />
<glyph unicode="&#xb9;" d="M49 473v84h1344v-84h-1344zM137 51v158q77 12 125 51q27 21 94 111h115v-723h-164v489q-45 -39 -80 -57q-23 -13 -90 -29zM143 1020v156q83 16 125 53q26 21 94 108h113v-723h-162v492q-81 -68 -170 -86zM719 -2q0 379 293 379q92 0 168 -43q98 -52 98 -144v-20h-164 q-24 61 -94 61q-129 0 -135 -188q74 53 145 53q68 0 133 -35q78 -40 103 -100q14 -40 14 -88q0 -155 -131 -211q-73 -31 -145 -31q-144 0 -218 105q-67 94 -67 262zM764 1020v156q79 16 125 53q28 25 92 108h115v-723h-164v492q-70 -64 -168 -86zM901 -129q0 -102 105 -102 q118 0 118 100t-110 100q-113 0 -113 -98z" />
<glyph unicode="&#xba;" d="M47 666v18h158q15 -56 37 -78t71 -22q45 0 72 30q29 37 29 82q0 121 -99 121l-88 2v148h74q46 0 76 30q29 32 29 78q0 113 -99 113q-86 0 -98 -92h-160q6 121 84 184q69 57 182 57q107 0 174 -53q84 -63 84 -174q0 -78 -24 -119q-27 -43 -90 -80q72 -49 94 -90 q33 -47 33 -131q0 -80 -39 -145q-40 -67 -101 -94q-55 -25 -127 -25q-111 0 -184 55q-88 64 -88 185zM330 -205l698 1542h125l-702 -1542h-121zM788 0v195l304 512h221v-557h82v-150h-82v-205h-164v205h-361zM905 150h244l-2 405z" />
<glyph unicode="&#xbb;" d="M49 473v84h1344v-84h-1344zM137 1020v156q78 15 125 53q26 21 94 108h115v-723h-164v492q-75 -66 -170 -86zM143 70v149q85 31 121 57q47 38 84 113h123v-741h-164v493q-70 -48 -164 -71zM715 10q0 379 297 379q66 0 135 -29q81 -35 104 -92q13 -33 15 -82h-156 q-24 58 -92 58q-131 0 -137 -189q74 56 145 56q69 0 133 -37q77 -41 103 -103q14 -32 14 -86q0 -158 -131 -213q-73 -28 -148 -28q-145 0 -215 104q-67 94 -67 262zM725 817h170q15 -76 102 -76q40 0 76 25q35 27 35 70q0 75 -80 75h-51v127l35 -2q32 0 57 25t25 63 q0 43 -27 64q-28 22 -63 22q-46 0 -70 -14q-23 -16 -41 -63h-162q6 65 53 118q80 86 226 86q104 0 166 -39q81 -50 81 -155q0 -56 -20 -94q-18 -31 -70 -62q107 -67 107 -166q0 -68 -45 -125q-71 -86 -213 -86q-131 0 -193 33q-83 47 -98 174zM897 -117q0 -48 31 -76 q33 -26 76 -26q41 0 77 22q39 23 39 76q0 52 -30 76q-34 27 -78 27q-115 0 -115 -99z" />
<glyph unicode="&#xbc;" d="M72 1337h538v-125q-145 -372 -278 -784h-172l264 725h-350zM260 -205l696 1542h121l-694 -1542h-123zM854 63q0 69 29 125q29 48 80 97q-105 95 -105 182q0 110 86 178q74 62 176 62q96 0 176 -58q84 -66 84 -174q0 -65 -30 -115q-16 -28 -80 -79q67 -60 86 -95 q37 -58 37 -129q0 -123 -82 -196q-77 -68 -189 -68q-115 0 -188 70q-80 74 -80 200zM1020 82q0 -139 100 -139q99 0 99 131t-99 131q-47 0 -71 -35q-29 -40 -29 -88zM1020 451q0 -99 100 -99q99 0 99 101q0 46 -29 75t-72 29q-46 0 -69 -29q-29 -29 -29 -77z" />
<glyph unicode="&#xbd;" d="M49 473v84h1344v-84h-1344zM158 53v168q69 15 114 51q27 24 88 101h125v-725h-163v497q-66 -51 -164 -92zM162 1016v166q78 19 117 53q26 18 88 100h122v-725h-163v496q-71 -54 -164 -90zM721 797h164q41 -62 98 -62q42 0 78 31q35 28 35 80q0 45 -31 76q-36 28 -76 28 q-48 0 -92 -41h-160l25 426h467v-157h-344v-123q72 35 141 35q98 0 172 -62q80 -68 80 -176q0 -127 -94 -197q-79 -61 -197 -61q-79 0 -147 35q-84 41 -107 114q-3 3 -12 54zM737 -8q0 383 287 383q182 0 244 -133q12 -25 22 -62h-168q-27 62 -94 62q-71 0 -98 -56 q-22 -43 -25 -135q65 45 139 45q106 0 175 -57q79 -64 79 -176q0 -114 -96 -176q-76 -52 -186 -52q-143 0 -213 101q-66 94 -66 256zM907 -117q0 -50 33 -76q29 -26 74 -26q119 0 119 98q0 53 -33 76q-30 27 -78 27q-115 0 -115 -99z" />
<glyph unicode="&#xbe;" d="M82 995v172q79 18 125 58q30 26 94 112h109v-909h-164v647q-76 -55 -164 -80zM236 -225l706 1562h127l-711 -1560zM809 35h160q27 -109 102 -109q58 0 84 39q31 42 31 105q0 153 -125 153q-49 0 -88 -45l-137 10l26 500h457l-2 -186h-334v-172q53 41 113 41 q110 0 186 -82q74 -83 74 -207q0 -135 -78 -219q-79 -88 -195 -88q-150 0 -227 114q-33 58 -47 146z" />
<glyph unicode="&#xbf;" d="M41 446q0 143 154 308q15 15 37 38t57.5 61t62.5 67q43 46 58 86q6 18 6 59q0 113 -97 113q-104 0 -104 -131v-7h-174v27q0 129 86 209q76 76 195 76q108 0 190 -76q82 -82 82 -207q0 -142 -105 -244q-34 -34 -110 -98q-40 -36 -84 -80v-35h280v-166h-534zM322 -221 l714 1577h131l-716 -1577h-129zM877 39h159q14 -53 37 -76q17 -20 70 -20q49 0 76 37q28 39 28 94q0 151 -123 151q-46 0 -84 -41h-141l21 502h458v-168h-327v-186q55 43 112 43q112 0 185 -82q75 -78 75 -203q0 -133 -82 -221q-80 -92 -196 -92q-64 0 -123 33 q-65 36 -96 84q-34 51 -49 145z" />
<glyph unicode="&#xc0;" d="M55 684l174 2v-22q0 -39 29 -58q26 -20 61 -20q46 0 78 32q33 33 33 82q0 52 -35 93q-33 41 -80 41h-65v151h76q92 0 92 98q0 48 -27 78q-29 29 -69 29q-93 0 -105 -94h-160q6 115 90 190q79 70 185 70q90 0 168 -62q80 -68 80 -174q0 -77 -23 -125q-18 -37 -88 -84 q141 -89 141 -221q0 -118 -90 -196q-85 -70 -192 -70q-171 0 -238 119q-35 59 -35 141zM291 -225l717 1581h137l-707 -1581h-147zM854 18v19h166q9 -96 90 -96q53 0 80 41q27 40 27 100q0 145 -107 145q-40 0 -90 -41h-137l14 516h455v-176h-328l-4 -174q61 37 123 37 q101 0 178 -86q76 -88 76 -205q0 -127 -78 -223t-191 -96q-136 0 -231 121q-43 58 -43 118z" />
<glyph unicode="&#xc1;" d="M37 633v180l330 524h192v-557h100v-147h-100v-203h-149v203h-373zM168 780h244v416zM326 -225l710 1562h123l-706 -1560zM872 37h162q3 -48 35 -80q28 -31 72 -31q46 0 76 43q32 40 32 97q0 157 -119 157q-39 0 -79 -37h-146l17 500l458 2v-186h-327v-150q71 19 108 19 q109 0 180 -80q72 -78 72 -199q0 -149 -72 -233t-204 -84q-250 0 -265 262z" />
<glyph unicode="&#xc2;" d="M49 473v84h1344v-84h-1344zM147 72v166q75 16 115 53q37 29 88 100h125v-725h-164v496q-74 -54 -164 -90zM442 1032v164q71 15 115 53q30 24 88 101h125v-725h-164v495q-72 -52 -164 -88zM721 12q0 193 57 279q66 108 226 108q189 0 251 -133q1 -2 4 -10t8.5 -22 t10.5 -29h-168q-18 39 -43 49q-12 6 -61 6q-117 0 -117 -170v-20q71 47 149 47q103 0 170 -58q70 -61 70 -176q0 -116 -84 -182q-70 -55 -182 -55q-150 0 -221 102q-70 91 -70 264zM895 -106q0 -49 31 -74q32 -29 73 -29q119 0 119 98q0 103 -110 103q-113 0 -113 -98z" />
<glyph unicode="&#xc3;" d="M49 473v84h1344v-84h-1344zM143 88v156q81 13 125 51q27 21 94 111h113v-723h-162v489q-82 -67 -170 -84zM459 1208v148h538v-92l-266 -631h-180l252 575h-344zM719 31q0 379 293 379q243 0 270 -205h-168q-24 59 -94 59q-129 0 -135 -188q73 55 145 55q69 0 133 -37 q78 -43 103 -102q14 -40 14 -86q0 -155 -131 -211q-68 -29 -145 -29q-144 0 -218 103q-67 94 -67 262zM899 -94q0 -45 37 -72q30 -24 70 -24q38 0 75 26q35 24 35 70q0 39 -31 67q-26 26 -65 29q-41 3 -80 -22q-41 -27 -41 -74z" />
<glyph unicode="&#xc4;" d="M49 473v84h1344v-84h-1344zM145 90v148q83 21 123 55q32 29 92 115h115v-742h-164v504q-46 -43 -73 -55q-33 -13 -93 -25zM395 1135q0 115 88 176q71 51 183 51q111 0 170 -33q78 -46 106 -147q25 -89 25 -174q0 -186 -60 -277q-67 -104 -227 -104q-110 0 -180 43 q-91 52 -94 164h163q9 -68 90 -68q130 0 136 188q-73 -55 -150 -55q-92 0 -168 64q-82 70 -82 172zM571 1122q0 -37 33 -67q30 -23 66 -23q42 0 80 23q43 30 43 78q0 41 -29 67q-26 26 -66 29q-45 3 -84 -25q-43 -30 -43 -82zM717 27q0 385 291 385q103 0 176 -43 q89 -56 92 -162l-166 2q-24 59 -92 59q-131 0 -137 -188q73 53 147 53q67 0 135 -35q69 -36 99 -102q14 -32 14 -88q0 -120 -76 -184q-66 -60 -176 -60q-307 0 -307 363zM895 -96q0 -45 35 -72q32 -22 71 -22t74 24t35 70q0 39 -29 65q-32 29 -67 29q-41 3 -78 -23 q-41 -25 -41 -71z" />
<glyph unicode="&#xc6;" d="M0 436q212 164 276 289q24 47 64 152q66 -117 66 -179q0 -61 -64 -137h1100v-237h-1100q57 -54 57 -136q0 -81 -55 -188q-29 69 -63 143q-47 94 -121 168q-29 29 -160 125z" />
<glyph unicode="&#xc7;" d="M98 352v948l131 52v-467q56 84 90 110q55 52 121 52q91 0 140 -82q43 -70 43 -177v-436h-131v389q0 71 -21 123q-24 70 -80 70q-47 0 -108 -76q-33 -39 -43 -65q-11 -33 -11 -80v-361h-131zM782 686q0 133 64 246q70 125 184 125q106 0 182 -135v378l134 52v-949 l-134 -51v121q-86 -139 -188 -139q-114 0 -182 117q-60 105 -60 235zM920 692q0 -86 26 -145q35 -80 101 -80q75 0 116 80q35 68 35 158q0 84 -31 141q-34 67 -106 67q-75 0 -111 -71q-30 -58 -30 -150z" />
<glyph unicode="&#xc8;" d="M0 436q212 164 276 289q24 47 64 152q66 -117 66 -179q0 -61 -64 -137h758q-58 49 -58 129q0 78 56 187q15 -34 36 -81.5t27 -62.5q51 -99 121 -166q25 -25 160 -127q-214 -166 -277 -288q-21 -40 -63 -152q-66 117 -66 178q0 64 64 137h-758q57 -45 57 -127 q0 -81 -55 -188q-29 69 -63 143q-47 94 -121 168q-29 29 -160 125z" />
<glyph unicode="&#xc9;" d="M115 352v637l131 51v-137q59 70 94 101q57 51 117 51q74 0 121 -62q45 -62 45 -149v-492h-131v477q0 42 -25 84q-22 39 -61 39q-50 0 -99 -73q-61 -88 -61 -189v-338h-131zM786 352v948l132 48v-646l245 338h164l-248 -327v-23l248 -338h-164l-245 338v-338h-132z" />
<glyph unicode="&#xca;" d="M334 90q83 62 153 62q73 0 119 -64v1391l209 -2v-1389q64 70 123 70q56 0 156 -74q-150 -66 -238 -170q-58 -63 -149 -215q-38 65 -146 229q-53 56 -227 162z" />
<glyph unicode="&#xcb;" d="M49 -334v1653h1327v-1653h-1327zM164 -205h1098v1395h-1098v-1395zM393 0v985h279q162 0 239 -53q111 -80 111 -240q0 -212 -188 -264l170 -428h-189l-166 410h-76v-410h-180zM573 575h107q72 0 108 19q48 28 48 102q0 81 -52 105q-27 16 -112 16h-99v-242z" />
<glyph unicode="&#xcc;" d="M102 358l43 121h269l106 309h-303l45 121h281l145 473h131l-153 -473h245l150 473h125l-150 -473h264l-30 -121h-266l-93 -309h275l-35 -121h-274l-144 -464h-129l141 464h-243l-150 -464h-121l148 464h-277zM543 479h237l97 309h-242z" />
<glyph unicode="&#xcd;" horiz-adv-x="720" d="M33 1053v43h246l69 241h41l70 -241h246v-43l-181 -144l66 -250l-41 -43l-174 146l-189 -146l-39 43l66 250z" />
<glyph unicode="&#xce;" d="M410 315l303 856h4l303 -856l-246 205v-557h-119v557z" />
<glyph unicode="&#xcf;" d="M180 528l533 830l544 -830l-536 -850z" />
<glyph unicode="&#xd0;" d="M49 -334v1653h1327v-1653h-1327zM164 -205h1098v1395h-1098v-1395zM365 197l139 100q105 -166 246 -166q48 0 92 35q43 34 43 86q0 87 -176 168q-139 68 -201 127q-102 95 -102 219q0 127 88 203q79 67 196 67q106 0 207 -61q99 -61 145 -166l-137 -104q-98 151 -217 151 q-98 0 -98 -88q0 -73 106 -127q181 -91 265 -166q98 -85 98 -227q0 -141 -98 -223q-88 -76 -218 -76q-247 0 -378 248z" />
<glyph unicode="&#xd1;" d="M49 -334v1653h1327v-1653h-1327zM164 -205h1098v1395h-1098v-1395zM344 836v186h737v-186h-278v-836h-180v836h-279z" />
<glyph unicode="&#xd2;" d="M0 0v131h1442v-131h-1442z" />
<glyph unicode="&#xd3;" horiz-adv-x="720" d="M0 0v131h721v-131h-721z" />
<glyph unicode="&#xd4;" d="M115 84l499 567l-499 566l114 131l500 -568l500 568l110 -134l-495 -563l499 -567l-114 -131l-500 567l-500 -567z" />
<glyph unicode="&#xd5;" d="M213 502v168h426v501h147v-501h426v-168h-426v-502h-147v502h-426z" />
<glyph unicode="&#xd6;" d="M49 -315v1634h1327v-1634h-1327zM164 -186h1114v1394h-1114v-1394zM487 512q0 103 66 178q68 74 164 74q95 0 164 -72t69 -180q0 -115 -69 -184q-71 -74 -168 -74q-90 0 -160 76q-66 75 -66 182z" />
<glyph unicode="&#xd7;" d="M111 924l88 159l426 -292l2 585h170l2 -583l426 290l86 -159l-434 -291l430 -285l-74 -158l-434 289l-2 -571h-170l-2 571l-435 -289l-75 158l432 289z" />
<glyph unicode="&#xd8;" d="M0 315v238h1100q-58 55 -58 137q0 78 56 187q15 -34 36 -81.5t27 -62.5q51 -99 121 -166q25 -25 160 -127q-214 -166 -277 -288q-21 -40 -63 -152q-66 117 -66 178q0 64 64 137h-1100z" />
<glyph unicode="&#xd9;" d="M334 1085q100 59 125 74q88 58 145 137q25 32 111 181q147 -245 254 -316q52 -33 133 -69q-98 -76 -156 -76t-123 71v-1390l-209 -2v1392q-47 -65 -118 -65q-73 0 -162 63z" />
<glyph unicode="&#xda;" d="M334 90q83 62 153 62q73 0 119 -64v1391l209 -2v-1389q64 70 123 70q56 0 156 -74q-150 -66 -238 -170q-58 -63 -149 -215q-38 65 -146 229q-53 56 -227 162z" />
<glyph unicode="&#xdb;" horiz-adv-x="2162" d="M82 326l184 84v-117q0 -62 35 -103q34 -40 88 -40q123 0 123 200v969h180v-952q0 -406 -289 -406q-172 0 -243 121q-50 81 -78 244zM1016 0v1296l164 74v-1370h-164zM1442 -94h53q35 -56 66 -56q45 0 86 78q53 100 53 158q0 12 -17 82l-241 799h155l183 -641l157 641h154 l-250 -897q-53 -197 -135 -303q-50 -62 -147 -62q-75 0 -117 23v178z" />
<glyph unicode="&#xdc;" horiz-adv-x="2162" d="M49 0v1319h244l199 -967l159 967h267v-1319h-148l2 1178l-215 -1178h-147l-211 1133l2 -1135zM1012 233q0 201 123 287q69 48 122 62q39 11 136 14v147q0 84 -86 84q-84 0 -224 -73l-53 120q69 49 133 80q73 31 148 31q100 0 164 -61q65 -62 65 -172v-539q0 -82 82 -82 v-147q-24 -4 -55 -4q-64 0 -94 30q-31 28 -56 101h-20q-43 -69 -80 -99q-46 -37 -111 -37q-96 0 -147 76q-47 67 -47 182zM1159 272q0 -141 86 -141q57 0 101 47q47 50 47 109v198q-165 -21 -215 -116q-19 -40 -19 -97zM1591 967h144l149 -596l119 596h131l-221 -1067 q-47 -219 -219 -219q-46 0 -88 26l2 180l22 2q23 -41 66 -41q59 0 86 76q9 19 33 131z" />
<glyph unicode="&#xdd;" horiz-adv-x="2162" d="M49 0l313 1319h199l318 -1319h-172l-56 260h-370l-56 -260h-176zM324 428h288l-147 674zM899 948h164l2 -723q0 -100 53 -100q43 0 105 86q53 77 53 172v565h147l2 -903l-133 -78v211l-22 -28l-53 -76q-70 -94 -162 -94q-154 0 -154 251zM1550 512q0 213 60 336 q27 53 86 96q52 37 110 37q130 0 174 -154l17 -14v135h114v-899q0 -148 -81 -235q-82 -88 -213 -88q-85 0 -197 34l2 174l57 11q44 -68 115 -68q73 0 123 47q50 50 47 129l-2 174q-77 -135 -180 -135q-48 0 -94 37q-53 39 -76 82q-62 106 -62 301zM1700 549q0 -132 14 -189 q27 -112 109 -112q159 0 147 276v43q-12 271 -127 271q-143 0 -143 -289z" />
<glyph unicode="&#xde;" horiz-adv-x="2162" d="M49 330l180 61q-2 -16 -2 -55q0 -195 121 -195q64 0 98 70q29 60 29 135v973h180v-954q0 -412 -313 -412q-149 0 -217 121q-46 78 -76 256zM819 170v797h148l-2 -748q0 -108 63 -108q53 0 143 127q58 79 58 141v588h147v-926l-147 -68v203q-133 -201 -252 -201 q-71 0 -115 56q-43 55 -43 139zM1556 2v924l148 67v-205q126 197 252 197q155 0 155 -235l3 -750h-144v733q0 46 -24 76q-25 31 -66 31q-43 0 -111 -95q-67 -91 -67 -145v-598h-146z" />
<glyph unicode="&#xdf;" horiz-adv-x="2162" d="M49 0l309 1319h197l324 -1319h-177l-59 279h-360l-64 -279h-170zM317 446h293l-149 637zM969 -311v1239l133 71v-217h10q27 82 80 138q59 65 129 65q130 0 201 -182q55 -137 55 -309q0 -171 -55 -308q-70 -186 -199 -186q-104 0 -211 180v-491h-143zM1116 512 q0 -96 4 -150q9 -74 56 -139q49 -76 108 -76q76 0 113 113q26 77 26 186q0 388 -141 388q-92 0 -135 -117q-31 -85 -31 -205zM1692 0v930l147 59v-317h12q90 246 250 321v-286q-5 0 -22.5 1t-28.5 1q-55 0 -117 -56q-94 -79 -94 -207v-446h-147z" />
<glyph unicode="&#xe0;" horiz-adv-x="2162" d="M33 0v1337h250l196 -983l172 983h250v-1337h-147v1153l-205 -1153h-137l-232 1153v-1153h-147zM999 233q0 81 39 158q41 78 101 123q66 50 127 64q49 12 143 18v149q0 35 -29 64q-30 27 -65 27q-84 0 -205 -80l-16 -11l-62 129q195 109 299 109q102 0 162 -63 q63 -63 63 -175v-532q0 -84 54 -84q22 0 28 2v-149q-10 -2 -45 -2q-109 0 -161 131h-23q-110 -131 -211 -131q-87 0 -145 79q-54 76 -54 174zM1163 268q0 -47 21 -98q24 -47 71 -47q58 0 105 41q49 43 49 106v215q-114 -21 -166 -55q-80 -56 -80 -162zM1718 0v930l131 57 v-356h17q72 238 180 323q34 23 84 33v-278h-27q-83 0 -157 -56q-80 -65 -80 -155v-498h-148z" />
<glyph unicode="&#xe1;" horiz-adv-x="2162" d="M82 0v1337h590v-184h-410v-391h344v-168h-344v-594h-180zM688 483q0 178 62 299q99 197 266 197q162 0 250 -162q41 -74 53 -158q10 -68 10 -172v-41h-477v-59q0 -111 43 -178q50 -80 141 -80q82 0 152 76l90 -103q-100 -118 -260 -118q-172 0 -258 159q-72 138 -72 340z M850 575h332q-6 110 -41 175q-47 86 -129 86q-77 0 -123 -91q-33 -67 -39 -170zM1475 35l2 1249l161 72v-531q87 146 209 146q141 0 205 -172q49 -125 49 -307q0 -189 -53 -324q-73 -193 -209 -193q-104 0 -213 183v-178zM1626 473q0 -190 82 -287q49 -55 98 -55 q79 0 119 137q29 102 29 209q0 119 -25 211q-41 135 -123 135q-94 0 -141 -129q-39 -103 -39 -221z" />
<glyph unicode="&#xe2;" horiz-adv-x="2162" d="M45 305l180 84q-2 -18 -2 -65q0 -82 27 -134q37 -61 100 -61t92 59q27 52 27 121v1010h180v-1026q0 -155 -78 -256q-76 -98 -215 -98q-152 0 -225 102q-62 86 -86 264zM760 211q0 193 131 283q80 55 153 69q52 12 162 12v136q0 94 -104 94q-78 0 -215 -84l-19 -10 l-71 135q185 117 305 117q115 0 184 -78q68 -77 68 -209v-488q0 -64 26 -73q16 -4 39 -4v-148q-8 -2 -41 -2q-72 0 -106 37q-30 30 -55 113h-11q-73 -87 -102 -107q-62 -47 -129 -47q-100 0 -158 70q-57 72 -57 184zM913 236q0 -55 31 -97q30 -41 78 -41q83 0 137 72 q47 68 47 168v129q-102 -12 -145 -29q-65 -21 -105 -73q-43 -55 -43 -129zM1550 -18v913l148 80v-203l22 29q113 149 226 149q161 0 161 -217v-751h-147v766q0 69 -68 69q-102 0 -161 -145q-33 -79 -33 -144v-546h-148z" />
<glyph unicode="&#xe3;" horiz-adv-x="2162" d="M49 -18v1337h285q274 0 379 -242q75 -169 75 -407q0 -595 -358 -668q-94 -20 -285 -20h-96zM213 170l27 -2q16 -2 67 -2q198 0 262 164q41 106 41 362q0 320 -116 408q-62 47 -222 47h-59v-977zM870 432q0 213 70 359q89 182 258 182q68 0 127 -39q63 -38 92 -98 q38 -69 51 -168q7 -65 7 -181v-20q-2 -8 -2 -21h-459q0 -130 30 -215q40 -120 136 -120q77 0 168 79l77 -90q-78 -75 -116 -92q-56 -33 -140 -33q-155 0 -235 148q-64 119 -64 309zM1032 575h295v48q0 215 -135 215q-148 0 -160 -263zM1571 453q0 182 20 266q23 112 95 184 q73 70 169 70q93 0 162 -60q69 -63 92 -161l-118 -78q-40 145 -131 145q-142 0 -142 -325q0 -137 17 -224q30 -139 123 -139q99 0 133 164l133 -64q-22 -71 -53 -129q-73 -129 -213 -129q-113 0 -189 88q-71 83 -86 211q-12 92 -12 181z" />
<glyph unicode="&#xe4;" horiz-adv-x="2162" d="M66 0v1337h213l344 -1005v1005h149v-1337h-203l-356 1022v-1022h-147zM905 500q0 153 25 245q27 112 102 175q72 63 172 63q177 0 250 -192q39 -112 39 -289q0 -258 -57 -369q-79 -149 -234 -149q-92 0 -166 59q-72 63 -98 162q-33 106 -33 295zM1051 494q0 -162 16 -222 q30 -127 131 -127q132 0 141 203q4 74 4 113v45q0 108 -6 158q-24 172 -137 172q-97 0 -131 -125q-18 -77 -18 -217zM1556 967h150l139 -783l131 783h144l-195 -967h-166z" />
<glyph unicode="&#xe5;" horiz-adv-x="2162" d="M66 647q0 272 77 461q105 246 320 246q217 0 311 -246q68 -180 68 -457q0 -276 -70 -450q-95 -238 -309 -238q-223 0 -322 230q-75 172 -75 454zM248 645q0 -185 35 -305q52 -199 170 -199q213 0 213 518q0 515 -207 515q-109 0 -168 -193q-43 -145 -43 -336zM969 477 q0 348 184 459q59 39 129 39q120 0 195 -101q38 -55 69 -116l-129 -90q-43 147 -139 147q-164 0 -164 -344q0 -127 33 -215q46 -127 135 -127q96 0 148 176l133 -74q-26 -109 -103 -186q-78 -72 -178 -72q-77 0 -145 45q-68 42 -103 113q-65 142 -65 346zM1626 743v131h131 v201l148 150v-351h147v-131h-147v-510q0 -62 10 -77q13 -25 61 -25q57 0 125 51v-141q-103 -68 -164 -68q-80 0 -131 60q-49 58 -49 149v561h-131z" />
<glyph unicode="&#xe6;" horiz-adv-x="2162" d="M16 217l150 107q80 -121 90 -131q62 -68 125 -68q158 0 158 199q0 96 -52 151q-23 29 -127 90q-234 130 -290 279q-25 70 -25 149q0 151 90 252q85 94 227 94q140 0 232 -108q41 -47 98 -139l-135 -101q-74 93 -90 109q-58 55 -119 55q-57 0 -98 -41q-41 -35 -41 -100 q0 -105 110 -187l242 -182q146 -113 146 -330q0 -169 -84 -270q-84 -100 -236 -100q-174 0 -285 147q-35 46 -86 125zM813 449q0 331 168 462q73 54 147 54q69 0 136 -43q62 -45 100 -113q49 -98 49 -250q0 -3 -0.5 -16.5t-1.5 -41t-2 -55.5h-442v-73q0 -262 143 -262 q90 0 172 79l88 -104q-79 -69 -119 -90q-59 -33 -135 -33q-167 0 -244 158q-59 127 -59 328zM979 573l281 2q2 10 2 46q0 81 -37 139q-39 57 -107 57q-136 0 -139 -244zM1556 -315v1245l115 51v-238h12q95 228 205 228q120 0 191 -189q30 -76 39 -123q12 -71 12 -184 q0 -180 -45 -305q-58 -178 -193 -178q-114 0 -188 153v-460h-148zM1690 475q0 -117 34 -203q46 -125 127 -125q86 0 113 113q14 55 14 193q0 364 -123 364q-85 0 -131 -129q-34 -90 -34 -213z" />
<glyph unicode="&#xe7;" d="M33 496q0 327 200 553q199 225 490 225q287 0 483 -230q197 -229 197 -552t-199 -547t-483 -224q-289 0 -488 224q-200 226 -200 551zM143 500q0 -270 164 -461q167 -191 404 -191q242 0 407 189q168 189 168 463q0 271 -166 458q-168 189 -403 189q-238 0 -406 -189 q-168 -186 -168 -458zM438 0v985h557v-168h-377v-242h312v-165l-312 2v-412h-180z" />
<glyph unicode="&#xe8;" d="M33 502q0 324 200 545t488 221q291 0 493 -228q203 -229 203 -557q0 -331 -207 -553q-209 -221 -501 -221q-285 0 -482 234q-194 232 -194 559zM150 506q0 -280 163 -469q161 -194 404 -197q242 -3 413 189q168 189 168 467q0 275 -168 458q-172 187 -413 187 q-237 0 -402 -183t-165 -452zM399 479q0 531 344 531q122 0 201 -76q80 -71 98 -205l-176 -33q-15 71 -37 99q-29 36 -88 36q-125 0 -149 -182q-8 -55 -8 -143q0 -148 18 -219q34 -125 135 -125q62 0 99 43q38 44 41 112l186 -38q-45 -151 -111 -220q-76 -79 -204 -79 q-181 0 -269 155q-80 136 -80 344z" />
<glyph unicode="&#xe9;" d="M27 498q0 320 200 546q204 222 490 222t485 -224t199 -550q0 -323 -203 -549q-204 -222 -491 -222t-484 226q-196 227 -196 551zM143 498q0 -274 164 -459q165 -189 402 -189q236 0 407 189q166 187 166 459q0 270 -164 452q-167 185 -405 185q-237 0 -404 -185 q-166 -181 -166 -452zM424 0v985h299q122 0 172 -16q72 -28 113 -105q43 -76 43 -168q0 -173 -125 -243q-4 -4 -62 -31l170 -422h-188l-168 410h-74v-410h-180zM604 575h105q151 0 151 115q0 130 -143 127l-113 -2v-240z" />
<glyph unicode="&#xea;" d="M29 494q0 327 200 553q199 225 488 225q288 0 485 -228q197 -229 197 -552q0 -326 -197 -547q-196 -224 -485 -224q-286 0 -488 224q-200 226 -200 549zM139 498q0 -270 164 -461t404 -191q239 0 407 189q168 192 168 463q0 273 -166 460q-165 189 -403 189 q-240 0 -408 -189q-166 -187 -166 -460zM389 780v168h639v-168h-213v-798h-197v798h-229z" />
<glyph unicode="&#xeb;" d="M49 -334v1653h1327v-1653h-1327zM164 -205h1098v1395h-1098v-1395zM377 18v1022h276q193 0 295 -77q185 -135 185 -443q0 -222 -97 -354q-106 -148 -293 -148h-366zM557 188h152q124 0 188 101q53 86 53 233q0 350 -241 350h-152v-684z" />
<glyph unicode="&#xec;" d="M68 -334v1653h1327v-1653h-1327zM184 -209h1098v1395h-1098v-1395zM360 -18v1022h295q129 0 176 -7q166 -21 242 -149q62 -103 62 -342q0 -235 -58 -348q-95 -176 -334 -176h-383zM623 205h45q169 0 196 127q8 36 8 131v16v127q-3 193 -223 193h-26v-594z" />
<glyph unicode="&#xed;" horiz-adv-x="2162" d="M0 -315v1652h2163v-1652h-2163zM115 -186h1933v1394h-1933v-1394zM295 0v1040h231q309 0 410 -225q59 -130 59 -278q0 -239 -100 -381q-111 -156 -315 -156h-285zM459 188h82q89 0 135 21q67 27 98 102q41 93 41 201q0 90 -24 172q-26 99 -84 135q-56 35 -144 35h-104 v-666zM1130 0v1040h181v-428h393v428h164v-1040h-164v446h-393v-446h-181z" />
<glyph unicode="&#xee;" horiz-adv-x="2162" d="M0 -315v1652h2163v-1652h-2163zM115 -186h1933v1394h-1933v-1394zM262 0v1022h367q87 0 155 -39q77 -42 119 -121q51 -108 51 -330q0 -271 -65 -380q-91 -152 -277 -152h-350zM508 225h82q83 0 110 101q17 52 17 176q0 151 -34 224.5t-103 72.5l-72 -2v-572zM1081 0v1022 h246v-371h328v371h246v-1022h-246v410h-328v-410h-246z" />
<glyph unicode="&#xef;" d="M61 633q0 317 191 538q192 222 467 222t477 -211q199 -211 199 -527q0 -317 -191 -546q-194 -226 -473 -226q-280 0 -473 217q-197 218 -197 533zM215 633q0 -104 25 -184q20 -67 82 -164l313 354l-320 348q-59 -119 -73 -170q-27 -83 -27 -184zM426 174q79 -67 137 -94 q61 -27 158 -27q101 0 168 27q59 26 145 94l-301 352zM426 1108l307 -356l307 350q-81 66 -141 94q-68 27 -160 27q-85 0 -164 -29q-54 -22 -149 -86zM840 643l303 -348q60 97 80 158q22 74 22 178q0 107 -24 186q-15 54 -78 170z" />
<glyph unicode="&#xf0;" d="M131 1001l152 175l862 -988q19 107 59 158q39 53 127 92l-18 -114q-25 -150 -25 -207q0 -30 10 -135l19 -150q-155 35 -242 35q-130 0 -272 -74q21 108 67 166q49 58 142 76z" />
<glyph unicode="&#xf1;" horiz-adv-x="720" d="M82 528q0 191 168 295v496h231v-496q170 -103 170 -295q0 -139 -82 -233q-84 -96 -202 -96t-203 94q-82 94 -82 235z" />
<glyph unicode="&#xf2;" d="M229 653q3 227 144 377q140 152 340 152q201 0 346 -154q141 -153 141 -381q0 -237 -143 -399q-142 -164 -352 -164q-205 0 -343 170q-136 168 -133 399z" />
<glyph unicode="&#xf3;" d="M115 352v637l131 62v-148q78 89 94 101q60 51 117 51q74 0 121 -62q45 -62 45 -149v-492h-131v477q0 41 -25 80q-21 37 -61 37q-48 0 -99 -72q-61 -85 -61 -180v-342h-131zM786 692q0 155 70 262q75 117 209 117q132 0 209 -115q72 -104 72 -256q0 -161 -66 -262 q-74 -108 -213 -108q-140 0 -213 104q-68 95 -68 258zM918 719q0 -114 22 -172q34 -82 125 -82q152 0 152 235q0 244 -148 244q-151 0 -151 -225z" />
<glyph unicode="&#xf4;" horiz-adv-x="720" d="M33 465v92h655v-92h-655zM88 -334q15 104 80 184q45 60 143 134l88 67q76 55 76 119q0 50 -33 76t-77 26q-114 0 -123 -122h-148q3 77 49 141q77 117 215 117q104 0 181 -58q84 -69 84 -180q0 -131 -93 -203l-211 -162h304v-139h-535zM141 1051v143q85 40 115 61 q42 36 90 101h90v-723h-137v502q-76 -54 -158 -84z" />
<glyph unicode="&#xf5;" horiz-adv-x="720" d="M33 465v92h655v-92h-655zM66 2l303 408h172v-447h114v-131h-114v-166h-131v166h-344v170zM131 1051v143q79 36 115 61q42 36 90 101h90v-723h-131v502q-73 -47 -164 -84zM184 -37h226v301z" />
<glyph unicode="&#xf6;" horiz-adv-x="720" d="M33 465v92h655v-92h-655zM66 2l303 408h172v-447h114v-131h-114v-166h-131v166h-344v170zM98 840v14h148v-16q0 -36 41 -60q35 -18 69 -18q119 0 119 102q0 86 -82 86h-65v129h67q80 0 80 74q0 47 -41 74q-36 22 -78 22q-92 0 -110 -94h-148q9 108 88 166q73 55 172 55 q98 0 172 -47q93 -56 93 -158q0 -70 -97 -149q97 -69 97 -174q0 -111 -86 -170q-65 -45 -175 -45q-105 0 -176 45q-88 58 -88 164zM184 -37h226v301z" />
<glyph unicode="&#x2000;" horiz-adv-x="739" />
<glyph unicode="&#x2001;" horiz-adv-x="1479" />
<glyph unicode="&#x2002;" horiz-adv-x="739" />
<glyph unicode="&#x2003;" horiz-adv-x="1479" />
<glyph unicode="&#x2004;" horiz-adv-x="493" />
<glyph unicode="&#x2005;" horiz-adv-x="369" />
<glyph unicode="&#x2006;" horiz-adv-x="246" />
<glyph unicode="&#x2007;" horiz-adv-x="246" />
<glyph unicode="&#x2008;" horiz-adv-x="184" />
<glyph unicode="&#x2009;" horiz-adv-x="295" />
<glyph unicode="&#x200a;" horiz-adv-x="82" />
<glyph unicode="&#x2010;" horiz-adv-x="819" d="M49 371v186h737v-186h-737z" />
<glyph unicode="&#x2011;" horiz-adv-x="819" d="M49 371v186h737v-186h-737z" />
<glyph unicode="&#x2012;" horiz-adv-x="819" d="M49 371v186h737v-186h-737z" />
<glyph unicode="&#x2013;" horiz-adv-x="1106" d="M49 371v186h1024v-186h-1024z" />
<glyph unicode="&#x2014;" horiz-adv-x="2130" d="M49 371v186h2048v-186h-2048z" />
<glyph unicode="&#x202f;" horiz-adv-x="295" />
<glyph unicode="&#x205f;" horiz-adv-x="369" />
<glyph unicode="&#xe000;" horiz-adv-x="962" d="M0 0v963h963v-963h-963z" />
</font>
</defs>
</svg>
