<?xml version="1.0" standalone="no"?>
<!DOCTYPE svg PUBLIC "-//W3C//DTD SVG 1.1//EN" "http://www.w3.org/Graphics/SVG/1.1/DTD/svg11.dtd" >
<svg xmlns="http://www.w3.org/2000/svg">
<metadata></metadata>
<defs>
<font id="paddockext700800bold" horiz-adv-x="1576" >
<font-face units-per-em="2048" ascent="1638" descent="-410" />
<missing-glyph horiz-adv-x="395" />
<glyph horiz-adv-x="2048" />
<glyph horiz-adv-x="2048" />
<glyph unicode="&#xd;" horiz-adv-x="2048" />
<glyph unicode=" "  horiz-adv-x="395" />
<glyph unicode="&#x09;" horiz-adv-x="395" />
<glyph unicode="&#xa0;" horiz-adv-x="395" />
<glyph unicode="!" horiz-adv-x="698" d="M197 0v328h286v-328h-286zM197 1454h309l-55 -942h-203z" />
<glyph unicode="&#x22;" horiz-adv-x="0" />
<glyph unicode="#" horiz-adv-x="788" d="M301 76q0 46 27 80q25 32 67 32q46 0 68 -32q26 -33 26 -80q0 -43 -26 -80q-27 -35 -68 -35t-67 33q-27 34 -27 82z" />
<glyph unicode="$" horiz-adv-x="788" d="M37 373l2 36v3v39h199q0 -6 -1 -24.5t-1 -31.5q0 -80 22 -119q21 -38 88 -59v416q-157 95 -219 172q-90 113 -90 276q0 204 127 310q63 51 182 63v102h90v-102q182 -3 260 -151q45 -80 45 -207v-31h-198q0 12 2 20v21q0 130 -109 151v-383q112 -75 189 -141 q133 -112 133 -330q0 -167 -88 -280q-85 -113 -232 -125v-264h-92v264q-142 15 -225 113q-84 101 -84 262zM236 1102q0 -64 30 -105q20 -25 80 -67v325q-110 -9 -110 -153zM436 217q60 28 82 59q25 36 25 101q0 133 -105 201v-361h-2z" />
<glyph unicode="%" d="M68 1034q0 166 98 279q102 117 244 117t241 -111q99 -114 99 -272q0 -159 -101 -269q-102 -108 -239 -108q-139 0 -240 104q-99 102 -102 260zM260 1057q0 -72 41 -131q45 -60 107 -60q68 0 114 52q47 50 47 126q0 82 -45 136q-48 57 -116 57q-63 0 -107 -53 q-41 -56 -41 -127zM332 -246l770 1721h139l-780 -1721h-129zM823 168q0 167 99 281q102 114 245 114q140 0 238 -110q100 -109 100 -271t-100 -268q-103 -109 -240 -109q-134 0 -237 103q-102 105 -105 260zM1012 188q0 -74 41 -133q42 -57 106 -57q67 0 115 51 q47 53 47 127q0 79 -47 135q-46 58 -117 58q-60 0 -102 -54q-43 -55 -43 -127z" />
<glyph unicode="&#x26;" horiz-adv-x="1290" d="M74 453q0 211 133 356q51 54 145 100q-80 165 -80 269q0 156 105 241q91 76 233 76q146 0 230 -72q96 -81 96 -239q0 -126 -80 -221q-40 -49 -168 -150q87 -160 195 -297q62 110 110 287l232 -92q-31 -123 -70 -203l-43 -88l-55 -119q78 -16 162 -16v-305q-18 -3 -56 -3 q-96 0 -157 25q-61 30 -136 102q-104 -75 -163 -98q-71 -26 -185 -26q-273 0 -395 241q-53 109 -53 232zM340 483q0 -102 59 -170q57 -69 148 -69q73 0 145 57q-139 170 -233 401q-119 -93 -119 -219zM504 1202q0 -79 71 -188q144 80 144 180q0 115 -109 115q-41 0 -73 -29 q-33 -29 -33 -78z" />
<glyph unicode="'" horiz-adv-x="501" d="M100 801l119 346h-108v321h286v-333l-145 -334h-152z" />
<glyph unicode="(" horiz-adv-x="788" d="M133 600q0 183 51 383q51 194 133 358q27 58 76 134h266q-138 -249 -192 -404q-66 -204 -66 -450q0 -264 70 -480q58 -174 207 -428h-266q-127 208 -189 379q-90 265 -90 508z" />
<glyph unicode=")" horiz-adv-x="788" d="M129 -289q161 258 215 420q64 192 64 477q0 284 -58 467q-58 173 -219 400h277q148 -251 202 -420q64 -195 64 -473q0 -255 -68 -459q-57 -167 -194 -412h-283z" />
<glyph unicode="*" horiz-adv-x="788" d="M80 1106l49 223l248 -162l-66 308h199l-59 -308l245 168l47 -209l-258 -28l209 -228l-157 -135l-125 324l-103 -322l-162 117l213 246z" />
<glyph unicode="+" horiz-adv-x="788" d="M35 1014q0 180 100 280q99 99 256 99h381v-123h-90v-1372h-107v1372h-143v-1372h-108v764q-147 30 -215 104q-74 83 -74 248z" />
<glyph unicode="," horiz-adv-x="395" d="M72 -348l114 348h-110v328h284l-2 -340l-143 -336h-143z" />
<glyph unicode="-" horiz-adv-x="897" d="M53 410v204h807v-204h-807z" />
<glyph unicode="." horiz-adv-x="395" d="M72 0v328h286v-328h-286z" />
<glyph unicode="/" horiz-adv-x="591" d="M18 -225l375 1720h191l-373 -1720h-193z" />
<glyph unicode="0" horiz-adv-x="788" d="M51 518v475q0 324 168 457q84 66 182 66q169 0 263 -150q86 -136 86 -332l2 -549q0 -508 -353 -508q-348 0 -348 541zM287 406q0 -201 114 -201q117 0 117 209v659q0 219 -112 219q-119 0 -119 -202v-684z" />
<glyph unicode="1" horiz-adv-x="788" d="M178 1229q94 30 158 100q55 58 113 166h161v-1495h-233v1104q-58 -74 -84 -92q-40 -28 -113 -31z" />
<glyph unicode="2" horiz-adv-x="788" d="M35 0q0 240 69 375q48 96 129 209l160 225q90 124 90 281q0 180 -98 180q-100 0 -100 -144q0 -31 2 -41h-234q0 5 -1 28.5t-1 41.5q0 147 105 246q101 90 229 90q143 0 250 -113q102 -114 102 -280q0 -219 -221 -496l-125 -158q-84 -107 -110 -198h454v-246h-698h-2z" />
<glyph unicode="3" horiz-adv-x="788" d="M53 369h236v-11q0 -157 110 -157q121 0 121 176v106q0 118 -45 166q-46 49 -151 49q-29 0 -37 -2v205q8 -2 35 -2q74 0 124 41q56 47 56 127v94q0 50 -31 92q-33 39 -78 39q-80 0 -104 -125h-236q56 351 336 351q153 0 248 -99q102 -105 102 -276q0 -128 -34 -197 q-29 -62 -123 -147q169 -111 172 -297v-125q3 -170 -103 -285q-103 -112 -256 -112q-99 0 -184 51q-93 56 -129 155q-26 80 -29 183z" />
<glyph unicode="4" horiz-adv-x="788" d="M27 369v260l358 864h285v-901h110v-223h-110v-367h-238v367h-405zM201 592h231v594z" />
<glyph unicode="5" horiz-adv-x="788" d="M55 369h244q0 -164 104 -164q119 0 119 217v133q0 80 -26 143q-38 78 -101 78q-55 0 -96 -80h-209l19 820h608v-267h-418v-303q85 55 143 55q140 0 228 -129q84 -118 84 -280v-170q0 -114 -43 -221q-48 -116 -127 -170q-74 -51 -181 -51q-159 0 -251 102q-94 104 -97 287 z" />
<glyph unicode="6" horiz-adv-x="788" d="M53 1073q0 225 92 334q111 129 263 129q133 0 227 -98q92 -103 92 -250v-21h-225q-9 142 -103 142q-51 0 -80 -39q-32 -38 -32 -94v-318q81 66 157 66q79 0 150 -45q75 -48 104 -121q41 -93 41 -271q0 -350 -166 -458q-76 -49 -165 -49q-166 0 -261 129q-92 124 -92 311z M289 352q0 -60 24 -100q27 -47 78 -47t86 65q27 59 27 119v156q0 59 -27 108q-34 58 -82 58q-50 0 -106 -86v-273z" />
<glyph unicode="7" horiz-adv-x="788" d="M53 1208v267h701v-207q-120 -292 -246 -824q-9 -37 -48.5 -192.5t-64.5 -251.5h-239q132 513 166 627q69 244 186 581h-455z" />
<glyph unicode="8" horiz-adv-x="788" d="M57 328v184q0 95 47 166q28 48 115 123q-74 63 -110 117q-41 68 -41 161v121q0 140 96 227q88 82 215 82q146 0 233 -69q107 -82 107 -238v-133q0 -91 -43 -158q-29 -49 -107 -114q83 -57 121 -107q49 -67 49 -160v-200q0 -79 -39 -158q-40 -82 -96 -129 q-81 -66 -211 -66q-135 0 -237 97q-99 99 -99 254zM293 319q0 -51 29 -94q30 -41 77 -41q49 0 78 39q31 42 31 92v248q0 50 -31 92q-30 41 -78 41q-49 0 -75 -39q-31 -42 -31 -92v-246zM293 1022q0 -50 29 -86q30 -37 71 -37q40 0 68 31t28 76v178q0 48 -24 88 q-26 39 -68 39q-45 0 -75 -37q-29 -36 -29 -90v-162z" />
<glyph unicode="9" horiz-adv-x="788" d="M47 995q0 168 14 234q24 121 103 194q100 95 235 95q219 0 310 -242q43 -113 43 -240v-530q0 -145 -41 -270q-46 -149 -142 -211q-74 -50 -188 -50q-213 0 -287 177q-31 73 -43 194h244q3 -151 98 -151q105 0 105 211v225q-86 -62 -160 -62q-78 0 -148 49 q-69 49 -100 127q-43 113 -43 250zM279 1059q0 -260 124 -260q60 0 97 82v284q0 43 -29 86q-26 39 -70 39q-122 0 -122 -231z" />
<glyph unicode=":" horiz-adv-x="591" d="M143 0v328h287v-328h-287zM143 614v328h287v-328h-287z" />
<glyph unicode=";" horiz-adv-x="591" d="M147 0v328h287v-346l-147 -330h-140l111 348h-111zM147 614v328h287v-328h-287z" />
<glyph unicode="&#x3c;" d="M0 0v143h1577v-143h-1577z" />
<glyph unicode="=" horiz-adv-x="788" d="M0 451v184h788v-184h-788z" />
<glyph unicode="&#x3e;" d="M0 451v184h1577v-184h-1577z" />
<glyph unicode="?" horiz-adv-x="897" d="M72 1198q50 101 94 154q59 72 137 98q70 27 146 27q155 0 247 -74q111 -85 111 -254q0 -113 -90 -217l-109 -123q-67 -73 -67 -270v-29h-232q-8 57 -8 121q0 168 145 360q84 113 84 166q0 90 -90 90q-61 0 -96 -53q-18 -26 -49 -119zM268 0v328h287v-328h-287z" />
<glyph unicode="@" d="M92 616q0 333 184 560q102 128 271 206q159 72 319 72q169 0 318 -90q161 -97 231 -260q62 -142 62 -334q0 -196 -103 -364q-115 -183 -278 -183q-167 0 -197 125h-25q-88 -123 -206 -123q-107 0 -179 84q-69 81 -69 205q0 123 65 244q68 121 162 182q68 45 152 45 q75 0 116 -35q38 -32 66 -121l47 134h178l-114 -465q-13 -57 -13 -82q0 -68 49 -68q47 0 115 68q127 127 127 352q0 249 -147 399q-141 144 -363 144q-269 0 -446 -201q-176 -200 -176 -508q0 -182 47 -297q52 -125 170 -229q132 -117 370 -117q246 0 396 102q56 37 106 76 l12 8l52 -77q-173 -141 -289 -183q-140 -51 -285 -51q-202 0 -377 94q-197 107 -278 291q-70 156 -70 397zM649 465q0 -119 74 -119q81 0 133 125q64 149 64 274q0 43 -19 86q-21 50 -61 50q-83 0 -144 -168q-47 -136 -47 -248z" />
<glyph unicode="A" horiz-adv-x="1200" d="M72 0l372 1454h351l346 -1454h-287l-47 266l-385 -2l-64 -264h-286zM481 553h260l-108 500v73h-37v-71z" />
<glyph unicode="B" horiz-adv-x="1200" d="M162 0v1454h502q158 0 260 -102q102 -105 102 -285q0 -220 -160 -309q91 -68 131 -137q47 -77 47 -193q0 -146 -32 -223q-39 -97 -135 -160q-65 -45 -144 -45h-571zM451 223h84q223 0 223 205q0 111 -51 150q-43 34 -144 34h-112v-389zM451 860h131q72 0 112 49 q43 49 43 131q0 166 -159 166h-127v-346z" />
<glyph unicode="C" horiz-adv-x="1093" d="M106 563v375q0 557 439 557q201 0 317 -119q123 -126 123 -350v-43l-287 -2v66q0 161 -135 161q-151 0 -151 -204v-566q0 -93 32 -143q36 -51 119 -51q139 0 139 194v74h302v-68q0 -145 -58 -258q-116 -229 -364 -229q-21 0 -29 2q-162 12 -223 45q-224 119 -224 559z " />
<glyph unicode="D" horiz-adv-x="1200" d="M162 0v1454h416q227 0 352 -143q125 -146 125 -404v-315q0 -276 -84 -420q-99 -172 -330 -172h-479zM449 268h116q187 0 187 250v373q0 297 -207 297h-96v-920z" />
<glyph unicode="E" horiz-adv-x="1200" d="M162 0v1454h878v-287h-591v-266h411v-287h-411v-327h591v-287h-878z" />
<glyph unicode="F" horiz-adv-x="1093" d="M162 0v1454h842v-287h-555v-266h376v-287h-376v-614h-287z" />
<glyph unicode="G" horiz-adv-x="1200" d="M162 621l2 360q0 253 117 391q117 141 333 141q120 0 228 -51q124 -62 172 -170q37 -81 43 -248h-287l-2 29q-3 65 -43 111q-42 45 -100 45q-66 0 -111 -51q-49 -52 -49 -125v-541q0 -256 158 -256q87 0 116 59q26 51 29 152v65h-160v267h449v-799h-127l-35 100 q-92 -76 -141 -96q-70 -31 -158 -31q-145 0 -258 90q-119 91 -154 250q-22 109 -22 269v39z" />
<glyph unicode="H" horiz-adv-x="1290" d="M178 1454h287v-553h377v553h286v-1454h-286v614h-375v-614h-287z" />
<glyph unicode="I" horiz-adv-x="698" d="M53 0v184h144v1086h-144v184h592v-184h-143v-1086h143v-184h-592z" />
<glyph unicode="J" horiz-adv-x="897" d="M72 406v65h250v-133q0 -113 81 -113q80 0 80 111v1118h305v-1051q0 -149 -55 -268q-82 -178 -303 -178q-195 0 -278 115q-80 109 -80 334z" />
<glyph unicode="K" horiz-adv-x="1200" d="M125 0v1454h287v-668l383 668h333l-411 -676l452 -778h-340l-417 731v-731h-287z" />
<glyph unicode="L" horiz-adv-x="1093" d="M162 0v1454h287v-1167h573v-287h-860z" />
<glyph unicode="M" d="M178 1454h391l222 -897l213 897h395v-1454h-271l2 1092l-247 -1092h-199l-254 1130v-1130h-250z" />
<glyph unicode="N" horiz-adv-x="1290" d="M178 1454h285l379 -801v801h270v-1454h-248l-415 881v-881h-269z" />
<glyph unicode="O" horiz-adv-x="1093" d="M109 547v450q3 237 120 377q119 146 318 146q451 0 454 -516l3 -457q0 -360 -191 -490q-118 -80 -256 -80q-222 0 -340 160q-108 146 -108 396v14zM408 436q0 -72 43 -121q42 -51 106 -51q59 0 98 51q41 53 41 121v590q0 81 -43 139q-42 60 -108 60q-63 0 -103 -70 q-34 -58 -34 -135v-584z" />
<glyph unicode="P" horiz-adv-x="1200" d="M162 0v1454h418q223 0 344 -106q137 -119 137 -363q0 -152 -74 -276t-199 -164q-98 -31 -204 -31h-135v-514h-287zM449 778h96q211 0 211 199q0 206 -203 209l-104 2v-410z" />
<glyph unicode="Q" horiz-adv-x="1093" d="M53 424v616q0 225 123 351q116 122 313 122t318 -124q125 -125 125 -342v-619q0 -102 -29 -178q64 -46 137 -49v-322q-12 -2 -47 -2q-165 0 -229 174q-163 -82 -287 -82q-182 0 -301 125q-123 126 -123 330zM358 401q0 -57 41 -98q42 -39 95 -39q24 0 79 25v78 q-48 22 -90 67v262h64q39 -61 94 -82v459q0 68 -43 111q-42 45 -102 45q-54 0 -95 -41q-43 -40 -43 -103v-684z" />
<glyph unicode="R" horiz-adv-x="1200" d="M160 0l2 1454l399 -2q119 0 180 -12q105 -22 164 -78q137 -131 137 -346q0 -183 -53 -262q-52 -82 -203 -129l285 -625h-317l-240 573h-65l-3 -573h-286zM446 803h105q186 0 186 207q0 180 -137 180h-154v-387z" />
<glyph unicode="S" horiz-adv-x="1093" d="M63 295l230 166q59 -96 100 -144q62 -59 146 -59q66 0 112 37q51 45 51 113q0 78 -55 127q-41 33 -119 61q-448 172 -448 502q0 193 139 311q122 104 299 104q98 0 199 -40q110 -46 170 -121q18 -22 59 -90l-209 -179q-67 96 -96 119q-53 47 -131 47q-57 0 -100 -37 t-43 -100q0 -110 190 -186q169 -68 225 -105q116 -73 170 -190q41 -96 41 -193q0 -204 -143 -338q-135 -123 -320 -123q-142 0 -233 46q-106 53 -178 174q-38 57 -56 98z" />
<glyph unicode="T" horiz-adv-x="1093" d="M90 1167v287h932v-287h-324v-1167h-268v1167h-340z" />
<glyph unicode="U" horiz-adv-x="1290" d="M180 461v993l287 -2l-2 -975q0 -86 49 -147q46 -64 121 -64q78 0 135 76q53 71 53 166v944l289 2v-917q0 -557 -467 -557q-213 0 -334 118q-131 128 -131 363z" />
<glyph unicode="V" horiz-adv-x="1200" d="M39 1456h309l246 -1020l246 1020h301l-377 -1456h-330z" />
<glyph unicode="W" horiz-adv-x="1685" d="M72 1454h270l182 -969l195 969h254l194 -948l183 948h256l-301 -1454h-265l-194 940l-189 -940h-270z" />
<glyph unicode="X" horiz-adv-x="1200" d="M72 0l364 772l-352 682h303l223 -442l207 442h328l-359 -682l369 -772h-309l-236 518l-223 -518h-315z" />
<glyph unicode="Y" horiz-adv-x="1200" d="M63 1454h314l229 -534l236 534h311l-399 -901v-553h-287v567z" />
<glyph unicode="Z" horiz-adv-x="1093" d="M94 0v256l553 911h-508v287h879v-233l-545 -934h545v-287h-924z" />
<glyph unicode="[" horiz-adv-x="788" d="M125 -287v1721h520v-164h-287v-1393h287v-164h-520z" />
<glyph unicode="\" horiz-adv-x="395" d="M143 -451v2048h90v-2048h-90z" />
<glyph unicode="]" horiz-adv-x="788" d="M143 -123h287v1393h-287v164h521v-1721h-521v164z" />
<glyph unicode="^" horiz-adv-x="788" d="M72 911v258l290 -71l-79 377h241l-80 -377l291 71v-258l-289 76q23 -125 72 -268q-59 -404 -74 -762h-86q-9 355 -77 760q52 130 79 270z" />
<glyph unicode="_" horiz-adv-x="788" d="M53 236v280l309 -110q-48 185 -88 319q51 139 78 254l-299 -84v254l291 -70l-74 396h248l-74 -396l287 90v-272l-299 90q17 -120 68 -262q-36 -140 -64 -313l299 104v-280l-291 75l70 -372h-240l70 372z" />
<glyph unicode="`" d="M305 88q0 44 25 80q26 33 67 33q45 0 68 -33q29 -37 29 -80q0 -41 -27 -80q-27 -35 -70 -35q-39 0 -65 33q-27 35 -27 82zM1087 88q0 46 27 80q26 33 70 33h-2q43 0 69 -33q27 -39 27 -80t-27 -80q-27 -35 -67 -35q-44 0 -70 33q-27 39 -27 82z" />
<glyph unicode="a" horiz-adv-x="897" d="M35 281q0 238 203 346q95 48 264 69v86q0 52 -45 78q-35 21 -84 21q-98 0 -203 -105l-123 172q88 76 152 101q95 36 207 36q345 0 348 -297v-479q0 -61 10 -84q12 -28 61 -37v-188q-53 -20 -84 -20q-93 0 -198 126q-126 -129 -252 -129q-122 0 -189 82t-67 222zM287 305 q0 -106 88 -106q127 0 127 217v116q-90 -3 -152 -65q-63 -60 -63 -162z" />
<glyph unicode="b" horiz-adv-x="897" d="M90 0v1475h250v-512h29q101 122 225 122q250 0 250 -417v-250q0 -173 -53 -291q-68 -152 -207 -152q-133 0 -244 156v-131h-250zM340 340q0 -29 47 -64q46 -34 76 -34q115 0 115 209v219q0 190 -97 190q-43 0 -141 -88v-432z" />
<glyph unicode="c" horiz-adv-x="788" d="M53 383v301q0 186 90 305q92 117 254 117q148 0 240 -96q98 -101 98 -265v-8h-215q-11 59 -33 88q-23 33 -75 33q-71 0 -95 -78q-14 -43 -14 -147v-170q0 -250 105 -250q100 0 100 137v19h227q0 -84 -8 -138q-8 -59 -53 -122q-94 -132 -268 -132q-89 0 -168 39 q-89 44 -129 119q-56 95 -56 248z" />
<glyph unicode="d" horiz-adv-x="897" d="M53 330v395q0 151 43 244q56 123 176 123q133 0 267 -131l-2 514h251v-1475h-249v109q-10 -8 -19 -17q-72 -67 -102 -88q-50 -29 -121 -29q-119 0 -186 113q-58 103 -58 242zM322 389q0 -79 14 -104q18 -41 78 -41q59 0 123 73l2 451q-81 90 -129 90q-88 0 -88 -143v-326 z" />
<glyph unicode="e" horiz-adv-x="897" d="M106 418v274q0 252 134 348q97 66 202 66q113 0 193 -57q89 -64 119 -177q34 -118 34 -331v-70h-448q-4 -66 -4 -70q0 -88 45 -145q43 -55 121 -55q105 0 246 84l40 -226q-186 -79 -301 -79q-105 0 -192 43q-107 52 -148 147q-41 100 -41 248zM340 655h233v93 q0 61 -36 106q-38 47 -91 47q-47 0 -77 -47q-29 -50 -29 -104v-95z" />
<glyph unicode="f" horiz-adv-x="591" d="M0 840v225h143v166q0 244 293 244h137v-228h-84q-68 0 -86 -57q-10 -30 -10 -125h180v-225h-178v-840h-252v840h-143z" />
<glyph unicode="g" horiz-adv-x="897" d="M72 291v450q0 138 61 226q67 98 182 98q156 0 258 -197v176h234l-2 -985q0 -222 -107 -335q-106 -115 -299 -115q-140 0 -229 86q-34 33 -80 92l152 125q79 -98 157 -98q88 0 123 47q33 44 33 151v133q-153 -147 -244 -147q-103 0 -170 88q-69 87 -69 205zM340 338 q0 -94 86 -94q59 0 127 71v392q-70 73 -117 73q-96 0 -96 -123v-319z" />
<glyph unicode="h" horiz-adv-x="897" d="M90 0v1475h250v-557q157 167 268 167q104 0 162 -94q55 -85 55 -205v-786h-252v674q0 141 -88 141q-60 0 -145 -108v-707h-250z" />
<glyph unicode="i" horiz-adv-x="501" d="M125 0v1065h252v-1065h-252zM125 1229v266h252v-266h-252z" />
<glyph unicode="j" horiz-adv-x="501" d="M-37 -102q12 -2 49 -2q73 0 103 30q28 31 28 111v1028h252v-1088q0 -111 -18 -170q-27 -83 -98 -124q-91 -52 -228 -52q-45 0 -88 19v248zM143 1229v266h252v-266h-252z" />
<glyph unicode="k" horiz-adv-x="897" d="M72 0v1475h252v-887l213 477h278l-235 -477l286 -588h-284l-258 567v-567h-252z" />
<glyph unicode="l" horiz-adv-x="501" d="M125 0v1475h252v-1475h-252z" />
<glyph unicode="m" horiz-adv-x="1398" d="M90 0v1065h232v-174q82 103 118 135q71 59 154 59q78 0 129 -51q55 -52 70 -139q146 192 280 192q122 0 182 -106q54 -91 54 -236v-745h-252v700q0 49 -23 82q-21 37 -61 37q-64 0 -148 -112v-707h-252v727q0 41 -24 68q-23 26 -62 26q-61 0 -147 -114v-707h-250z" />
<glyph unicode="n" horiz-adv-x="897" d="M90 0v1065h232v-170l51 57q64 73 92 95q49 38 119 38q114 0 182 -108q59 -95 59 -232v-745h-270v731q0 84 -59 84q-69 0 -129 -78q-25 -28 -25 -75l-2 -662h-250z" />
<glyph unicode="o" horiz-adv-x="897" d="M74 473v180q0 455 372 455q379 0 379 -438v-207q0 -490 -368 -490q-383 0 -383 500zM340 346q0 -48 29 -88q30 -37 73 -37q47 0 82 35q33 33 33 90v404q0 50 -31 92q-30 41 -77 41t-76 -39q-33 -39 -33 -94v-404z" />
<glyph unicode="p" horiz-adv-x="897" d="M90 -389v1454h232v-172q3 3 11.5 14.5t14.5 18.5q59 80 103 112q59 47 133 47q73 0 131 -49q62 -55 82 -129q28 -88 28 -237v-246q0 -288 -57 -363q-27 -35 -80 -59q-58 -25 -96 -25q-123 0 -252 150v-516h-250zM340 332q0 -47 39 -78q39 -33 82 -33q117 0 117 170 l-3 256q0 60 -22 109q-27 59 -76 59q-35 0 -90 -49l-47 -41v-393z" />
<glyph unicode="q" horiz-adv-x="897" d="M72 317v408q0 143 57 242q66 118 184 118q78 0 152 -59q63 -51 108 -137v176h234v-1454h-252v520q-12 -15 -47 -53q-52 -58 -86 -78q-44 -23 -109 -23q-241 0 -241 340zM322 428q0 -92 12 -135q21 -72 86 -72q53 0 135 70v436q0 25 -53 49q-55 27 -82 27q-98 0 -98 -152 v-223z" />
<glyph unicode="r" horiz-adv-x="698" d="M90 0v1065h232v-215q101 147 135 174q59 48 153 63v-368q-123 -15 -270 -88v-631h-250z" />
<glyph unicode="s" horiz-adv-x="698" d="M37 117l119 186q105 -117 194 -117q86 0 86 78q0 48 -37 78q-30 25 -71 45q-48 27 -82 49q-80 53 -109 76q-100 83 -100 242q0 151 98 245q89 86 225 86q135 0 275 -110l-107 -182q-107 67 -176 67q-86 0 -86 -59q0 -46 64 -88q1 0 6 -2.5t13 -6t19 -9t27 -13t33 -16.5 q240 -114 240 -357q0 -88 -37 -166q-40 -81 -107 -118q-85 -48 -198 -48q-91 0 -158 31q-61 30 -131 109z" />
<glyph unicode="t" horiz-adv-x="591" d="M18 840v225h125v369h250v-369h162v-225h-162v-498q0 -69 25 -94t88 -25q3 0 49 4v-225q-86 -22 -149 -22q-84 0 -146 45q-68 47 -92 129q-25 86 -25 206v480h-125z" />
<glyph unicode="u" horiz-adv-x="897" d="M90 319v746h250v-733q0 -88 86 -88q42 0 84 26q43 27 43 68l2 727h270v-1065h-252v156q-54 -92 -100 -129q-62 -50 -143 -50q-122 0 -187 105q-53 89 -53 237z" />
<glyph unicode="v" horiz-adv-x="788" d="M18 1065h252l136 -561l114 561h254l-258 -1065h-235z" />
<glyph unicode="w" horiz-adv-x="1290" d="M63 1065h230l133 -598l133 598h193l137 -598l131 598h223l-262 -1065h-184l-142 631l-151 -631h-185z" />
<glyph unicode="x" horiz-adv-x="897" d="M53 0l264 541l-251 524h268l119 -287l116 287h265l-244 -520l264 -545h-258l-141 285l-129 -285h-273z" />
<glyph unicode="y" horiz-adv-x="788" d="M16 -80q30 -6 68 -6q186 0 186 168q0 49 -73 317l-181 666h248l133 -512l109 512h252l-260 -1069q-1 -4 -7 -29t-10 -43q-35 -121 -110 -190q-81 -78 -187 -78q-70 0 -168 33v231z" />
<glyph unicode="z" horiz-adv-x="788" d="M72 0v186l364 674h-346v205h645v-184l-364 -676h364v-205h-663z" />
<glyph unicode="{" horiz-adv-x="501" d="M106 1102l146 332h145l-114 -349h112v-307h-286z" />
<glyph unicode="|" horiz-adv-x="501" d="M100 801l119 346h-108v321h286v-333l-145 -334h-152z" />
<glyph unicode="&#xa4;" horiz-adv-x="788" d="M76 678q0 104 30 168q28 52 111 119q-71 46 -96 92q-29 48 -29 133q0 143 82 219q76 70 205 70q126 0 209 -74q90 -81 90 -221q0 -124 -123 -232q74 -62 100 -112q35 -65 35 -156q0 -143 -88 -240q-88 -98 -217 -98q-134 0 -221 90q-88 88 -88 242zM244 682 q0 -70 41 -123q44 -53 102 -53q62 0 105 55q40 55 40 129q0 75 -40 133t-105 58q-63 0 -104 -62q-39 -59 -39 -137zM246 1184q0 -68 39 -113q40 -49 96 -49q53 0 94 41q39 39 39 102q0 69 -39 117q-37 49 -96 49q-56 0 -94 -41q-39 -42 -39 -106z" />
<glyph unicode="&#xa5;" horiz-adv-x="788" d="M111 684v420q0 163 77 266q80 105 220 105q96 0 176 -62q78 -63 102 -166q19 -81 19 -180v-387q0 -144 -84 -240q-82 -94 -211 -94q-130 0 -215 94q-84 96 -84 244zM272 713q0 -79 33 -135q38 -68 101 -68q62 0 100 53q35 53 35 129v447q0 65 -31 116q-38 56 -94 56 q-59 0 -101 -54q-41 -49 -41 -124z" />
<glyph unicode="&#xa6;" horiz-adv-x="788" d="M215 1085v168q150 60 238 222h120v-1106h-161v843q-84 -87 -197 -127z" />
<glyph unicode="&#xa7;" horiz-adv-x="788" d="M106 416q0 91 44 174q31 54 104 139l219 252q66 78 66 176q0 72 -35 113q-33 45 -94 45q-124 0 -142 -168h-159v31q0 136 92 219q84 78 205 78q130 0 212 -82q84 -84 84 -230q0 -185 -118 -297l-168 -164q-67 -64 -103 -149h385v-184h-589z" />
<glyph unicode="&#xa8;" horiz-adv-x="788" d="M88 635h154q3 -69 41 -107q39 -39 100 -39q67 0 104 52t37 129q0 170 -153 170h-103v164h86q168 0 168 157q0 66 -41 107q-43 43 -100 43q-93 0 -131 -103h-160v13q0 105 100 174q85 61 183 61q134 0 209 -63q92 -74 92 -215q0 -94 -35 -146q-24 -41 -104 -96 q83 -65 116 -115q43 -67 43 -166q0 -140 -94 -231q-85 -82 -215 -82q-107 0 -186 53q-95 62 -107 172q-4 10 -4 68z" />
<glyph unicode="&#xa9;" horiz-adv-x="788" d="M72 635v166l364 674h191v-697h108v-143h-108v-266h-160v266h-395zM213 778h254v506l-252 -471z" />
<glyph unicode="&#xaa;" horiz-adv-x="788" d="M113 625v8h180v-29q0 -115 104 -115q69 0 109 76q33 71 33 148q0 211 -146 211q-65 0 -131 -84h-119l39 635h486v-185h-359l-16 -264q74 59 141 59q126 0 201 -112q70 -109 70 -252q0 -229 -136 -318q-82 -55 -180 -55q-111 0 -192 72q-84 78 -84 205z" />
<glyph unicode="&#xab;" horiz-adv-x="788" d="M90 803v223q0 277 127 383q73 61 170 61q109 0 195 -77q94 -82 100 -205h-162q-52 125 -127 125q-141 0 -141 -269v-86q100 68 182 68q118 0 191 -94t73 -232q0 -91 -32 -168q-36 -86 -99 -133q-68 -53 -176 -53q-156 0 -237 146q-64 119 -64 311zM250 698q0 -82 35 -135 q40 -61 108 -61q64 0 101 55q36 53 36 131q0 193 -137 193q-66 0 -106 -52q-37 -52 -37 -131z" />
<glyph unicode="&#xac;" horiz-adv-x="788" d="M104 1348v170h592v-142l-311 -962h-186l342 934h-437z" />
<glyph unicode="&#xad;" horiz-adv-x="897" d="M53 410v204h807v-204h-807z" />
<glyph unicode="&#xae;" horiz-adv-x="788" d="M86 1112q0 160 80 260q82 98 221 98q309 0 309 -507v-132q0 -206 -71 -331q-83 -154 -250 -154q-92 0 -162 55q-74 61 -94 156q-6 25 -15 76h160q15 -65 41 -94q29 -29 80 -29q88 0 115 70q20 52 20 159q0 25 -1 60.5t-1 46.5q-110 -72 -180 -72q-116 0 -186 105 q-66 92 -66 233zM248 1124q0 -75 31 -135q41 -65 102 -65q67 0 104 57q37 58 37 135q0 195 -137 195q-67 0 -102 -54q-35 -49 -35 -133z" />
<glyph unicode="&#xb0;" d="M90 1110v176q83 36 131 72q47 38 111 117h106v-986h-176v717q-76 -68 -172 -96zM262 -225l776 1700h127l-774 -1700h-129zM881 57q0 81 34 142q25 43 91 106q-111 102 -111 211q0 125 90 197q78 63 193 63q113 0 194 -63q92 -74 92 -199q0 -69 -34 -119q-13 -21 -78 -90 q72 -65 92 -104q37 -61 37 -142q0 -128 -95 -211q-84 -75 -202 -75q-123 0 -207 69q-96 81 -96 215zM1067 84q0 -62 29 -104q30 -43 84 -43t84 40q30 41 30 105q0 60 -30 100q-30 43 -82 43q-49 0 -84 -41q-31 -42 -31 -100zM1067 498q0 -44 33 -82q29 -33 74 -33 q44 0 77 33q35 32 35 80q0 50 -31 86q-28 32 -77 32q-46 0 -78 -32q-33 -38 -33 -84z" />
<glyph unicode="&#xb1;" d="M53 522v92h1471v-92h-1471zM168 98v166q87 25 143 64q48 36 103 123h131v-822h-178v555q-93 -65 -199 -86zM457 899v21l194 2q21 -82 115 -82q44 0 80 26q39 26 39 74q0 84 -82 84h-62v145l54 -2q30 0 51 27q22 31 22 68q0 90 -96 90q-81 0 -137 -103h-160q0 123 100 189 q83 57 197 57q111 0 184 -43q95 -56 95 -172q0 -49 -25 -94q-11 -24 -57 -80q98 -101 98 -188q0 -118 -98 -179q-79 -49 -193 -49q-186 0 -268 101q-51 57 -51 108zM797 20q0 429 323 429q85 0 162 -41q91 -46 115 -129q5 -7 8 -54h-184q-16 49 -43 58q-15 6 -70 6 q-119 0 -119 -144q0 -3 4 -49q93 41 160 41q101 0 178 -65q88 -73 88 -181q0 -126 -92 -200q-80 -64 -197 -64q-230 0 -294 174q-39 103 -39 219zM993 -109q0 -98 111 -98q123 0 123 107q0 100 -113 100q-43 0 -82 -27q-39 -29 -39 -82z" />
<glyph unicode="&#xb2;" d="M90 1098v188q86 21 135 64q41 34 105 123h119v-1002h-189v715q-75 -63 -170 -88zM260 -225l780 1698h129l-770 -1698h-139zM842 0v195l332 563h241v-594h90v-164h-90v-225h-178v225h-395zM971 164h266v444z" />
<glyph unicode="&#xb3;" d="M53 522v92h1471v-92h-1471zM164 86v170q87 27 131 63q33 23 102 115h138v-799h-181v547q-87 -66 -190 -96zM461 897h178q44 -68 109 -68q50 0 86 33t36 88q0 53 -34 84q-33 33 -82 33q-56 0 -101 -45h-174l25 469h512v-174h-377v-135q77 39 154 39q108 0 188 -68 q88 -76 88 -195q0 -136 -102 -215q-90 -69 -213 -69q-91 0 -164 37q-93 44 -117 127q-6 20 -12 59zM797 18q0 422 313 422q200 0 268 -147q11 -22 25 -68h-184q-27 68 -103 68q-80 0 -110 -62q-20 -41 -23 -147q73 49 154 49q113 0 188 -63q86 -71 86 -195q0 -123 -94 -192 q-79 -58 -193 -58q-327 0 -327 393zM987 -106q0 -55 35 -82q39 -31 82 -31q129 0 129 108q0 57 -35 84q-37 29 -86 29q-125 0 -125 -108z" />
<glyph unicode="&#xb4;" d="M72 752h172q30 -107 112 -107q109 0 109 125q0 48 -29 88q-25 38 -71 41l-99 4v160h84q45 0 80 35q33 38 33 88t-31 86q-30 35 -76 35q-95 0 -110 -103h-174q6 131 90 203q72 63 194 63q116 0 195 -65q92 -74 92 -197q0 -148 -127 -207q148 -109 148 -243 q0 -131 -93 -215q-84 -78 -202 -78q-135 0 -211 67q-86 74 -86 220zM334 -227l776 1697h135l-764 -1697h-147zM913 59q0 141 136 244q-119 91 -119 209q0 123 86 197q77 65 190 65t191 -63q92 -71 92 -195q0 -116 -117 -211q72 -66 96 -104q37 -61 37 -142q0 -139 -90 -217 q-82 -73 -205 -73t-204 75q-93 84 -93 215zM1092 76q0 -61 32 -99q34 -43 84 -43q49 0 84 41q33 48 33 103q0 56 -35 100q-29 45 -82 45q-49 0 -82 -45q-34 -42 -34 -102zM1096 498q0 -56 30 -86q30 -35 78 -35q44 0 74 35q33 33 33 84q0 116 -107 116q-48 0 -78 -30 t-30 -84z" />
<glyph unicode="&#xb6;" d="M90 1098v188q86 21 135 64q34 29 105 125h119l-3 -1002l-178 -2v715q-81 -63 -178 -88zM276 -227l746 1702h149l-755 -1700zM893 -225q6 146 108 272q72 87 105 123l113 129q90 104 90 168q0 59 -33 92q-30 35 -82 35q-111 0 -111 -143h-188v24q0 137 90 221 q87 78 207 78q131 0 209 -78q86 -83 86 -227q0 -162 -133 -283l-107 -94l-82 -82v-30h322v-205h-594z" />
<glyph unicode="&#xb8;" d="M68 737h182q18 -102 96 -102q62 0 98 45q37 46 37 119q0 68 -39 116t-98 48q-62 0 -106 -62h-146l31 574h502v-195h-361v-207q68 35 125 35q120 0 197 -86q76 -92 76 -225q0 -144 -87 -234q-86 -92 -213 -92q-64 0 -133 29q-76 36 -104 90l-45 90zM326 -227l761 1702h136 l-756 -1700zM903 55q0 86 45 150q27 39 109 102q-125 70 -125 205q0 131 82 201q77 65 192 65q111 0 191 -65q96 -78 96 -195q0 -104 -121 -213q139 -106 139 -246q0 -131 -98 -213q-85 -73 -203 -73q-125 0 -209 69q-98 79 -98 213zM1096 86q0 -61 28 -106q27 -43 82 -43 q54 0 84 40q31 42 31 105q0 58 -31 100q-30 43 -82 43q-53 0 -82 -39q-30 -40 -30 -100zM1096 496q0 -109 102 -109q115 0 115 113v10q0 49 -35 76q-31 28 -72 28q-52 0 -80 -32q-30 -34 -30 -86z" />
<glyph unicode="&#xb9;" d="M53 522v92h1471v-92h-1471zM150 229q80 14 137 58q33 27 102 121h125v-797h-178v541q-62 -52 -86 -64q-41 -18 -98 -31zM158 1124v172q87 16 135 58q33 27 102 121h125v-797h-178v541q-86 -74 -184 -95zM786 -2q0 418 320 418q98 0 184 -47q109 -59 109 -160v-21h-180 q-27 68 -103 68q-143 0 -149 -209q83 59 159 59q75 0 146 -38q85 -47 110 -111q17 -35 17 -96q0 -173 -144 -234q-70 -33 -157 -33q-158 0 -238 115q-74 106 -74 289zM836 1124v172q83 15 135 58q33 27 102 121h125v-797h-178v541q-80 -71 -184 -95zM985 -141 q0 -113 115 -113q129 0 129 109q0 110 -119 110q-125 0 -125 -106z" />
<glyph unicode="&#xba;" d="M51 733v21h172q19 -64 41 -86q25 -25 78 -25q50 0 80 35q31 36 31 90q0 130 -109 133l-94 2v162h80q49 0 82 33q32 32 32 88q0 123 -106 123q-96 0 -111 -101h-174q9 135 92 203q76 64 199 64q111 0 193 -60q90 -72 90 -192q0 -85 -27 -131q-25 -43 -98 -88 q74 -53 104 -99q35 -56 35 -145q0 -85 -43 -158q-43 -75 -109 -106q-58 -27 -139 -27q-124 0 -203 61q-96 72 -96 203zM360 -225l764 1700h138l-768 -1700h-134zM862 0v215l332 563h242v-614h90v-164h-90v-225h-181v225h-393zM991 164h264v448z" />
<glyph unicode="&#xbb;" d="M53 522v92h1471v-92h-1471zM150 1124v172q80 14 137 58q33 27 102 121h125v-797h-178v541q-81 -72 -186 -95zM156 78v164q98 37 133 63q48 39 92 123h133v-815h-178v543q-80 -57 -180 -78zM780 10q0 418 326 418q74 0 147 -31q91 -39 115 -102q13 -30 16 -90h-172 q-23 63 -100 63q-141 0 -147 -207q82 60 157 60q73 0 146 -39q82 -43 112 -113q17 -46 17 -96q0 -170 -144 -233q-73 -33 -161 -33q-158 0 -238 114q-74 110 -74 289zM793 901h186q15 -84 113 -84q40 0 82 27q38 27 38 78q0 82 -88 82h-57v141l39 -2q39 -3 63 24 q29 29 29 72q0 45 -31 70q-30 24 -69 24q-50 0 -76 -16q-27 -17 -45 -70h-178q9 75 59 131q91 97 246 97q113 0 180 -43q90 -55 90 -172q0 -70 -20 -103q-18 -33 -78 -70q119 -75 119 -182q0 -72 -52 -137q-78 -96 -231 -96q-144 0 -211 37q-90 49 -108 192zM981 -129 q0 -57 35 -82q36 -31 80 -31q50 0 86 25q45 28 45 84q0 57 -37 84q-37 29 -84 29q-125 0 -125 -109z" />
<glyph unicode="&#xbc;" d="M80 1270v205h588v-140q-155 -397 -303 -864h-191l291 799h-385zM285 -225l762 1700h133l-760 -1700h-135zM934 70q0 81 33 137q25 48 86 106q-115 106 -115 201q0 121 94 197q82 67 193 67t192 -63q92 -71 92 -191q0 -78 -32 -127q-22 -38 -88 -88q71 -65 94 -104 q41 -62 41 -142q0 -136 -90 -217q-82 -73 -207 -73q-124 0 -205 75q-88 82 -88 222zM1116 90q0 -153 109 -153q108 0 108 145q0 143 -106 143q-54 0 -80 -39q-31 -42 -31 -96zM1116 496q0 -109 109 -109q108 0 108 113q0 53 -33 82q-28 32 -75 32q-51 0 -78 -30 q-31 -36 -31 -88z" />
<glyph unicode="&#xbd;" d="M53 522v92h1471v-92h-1471zM172 59v185q73 14 125 57q32 25 96 111h137v-799h-178v547q-94 -69 -180 -101zM178 1120v183q81 22 127 57q29 23 96 113h136v-801h-181v547q-81 -61 -178 -99zM788 879h179q44 -68 108 -68q50 0 86 33q37 34 37 88t-35 82q-33 33 -80 33 q-54 0 -100 -46h-176l27 472h509v-175h-376v-137q77 39 155 39q110 0 189 -67q88 -76 88 -195q0 -138 -103 -215q-89 -68 -215 -68q-90 0 -163 37q-90 44 -117 127q0 1 -1.5 7t-5 22.5t-6.5 30.5zM807 -8q0 422 313 422q201 0 266 -148q10 -19 27 -67h-186q-27 67 -101 67 q-80 0 -110 -61q-22 -49 -25 -148q73 49 152 49q115 0 190 -63q86 -71 86 -195q0 -127 -104 -194q-85 -55 -203 -55q-157 0 -233 110q-72 100 -72 283zM993 -129q0 -57 35 -82q36 -31 82 -31q129 0 129 109q0 57 -35 84q-40 29 -86 29q-125 0 -125 -109z" />
<glyph unicode="&#xbe;" d="M90 1098v188q86 21 135 64q34 29 105 125h119v-1004h-181v715q-81 -63 -178 -88zM258 -248l772 1723h139l-776 -1721zM885 39h174q35 -121 112 -121q63 0 93 43q34 46 34 115q0 170 -137 170q-53 0 -96 -49l-152 10l29 551h500v-205h-367v-191q58 46 123 46 q120 0 205 -91q82 -91 82 -227q0 -147 -86 -242q-87 -96 -215 -96q-166 0 -246 127q-34 51 -53 160z" />
<glyph unicode="&#xbf;" d="M45 492q0 160 168 337q10 11 172 185q52 58 64 94q6 21 6 66q0 124 -105 124q-114 0 -114 -145v-6h-191v29q0 142 92 231q85 82 213 82q122 0 209 -84q92 -89 92 -227q0 -155 -114 -269q-65 -60 -123 -108q-18 -14 -92 -88v-37h307v-184h-584zM350 -244l785 1737h141 l-782 -1737h-144zM958 43h175q19 -65 41 -84q22 -22 75 -22q54 0 84 40q31 42 31 105q0 166 -135 166q-54 0 -90 -45h-156l23 553h501v-185h-358v-204q62 47 123 47q119 0 203 -90q81 -87 81 -226q0 -142 -88 -243q-91 -101 -215 -101q-67 0 -135 35q-66 37 -106 94 q-40 62 -54 160z" />
<glyph unicode="&#xc0;" d="M61 754l189 2v-25q0 -41 31 -63q33 -23 69 -23q46 0 84 35q35 38 35 92q0 56 -37 102t-88 46h-70v165h82q101 0 101 109q0 52 -29 84q-29 33 -76 33q-99 0 -114 -103h-175q6 128 99 209q85 76 200 76q105 0 185 -68q88 -76 88 -190q0 -89 -25 -137q-29 -51 -98 -94 q156 -99 156 -244q0 -130 -101 -215q-90 -78 -209 -78q-184 0 -260 131q-37 64 -37 156zM319 -248l783 1741h151l-774 -1741h-160zM934 20v21h180q12 -107 100 -107q56 0 86 46q31 48 31 110q0 160 -119 160q-44 0 -98 -45h-147l14 569h498v-194h-359l-6 -191q68 39 135 39 q113 0 195 -94q84 -96 84 -225q0 -140 -86 -246q-82 -107 -207 -107q-149 0 -252 133q-49 64 -49 131z" />
<glyph unicode="&#xc1;" d="M39 696v201l362 578h209v-615h111v-164h-111v-223h-161v223h-410zM184 860h267v457zM356 -248l779 1723h135l-774 -1721zM952 41h178q6 -52 37 -88q35 -35 80 -35q46 0 84 47q37 49 37 107q0 174 -131 174q-44 0 -88 -41h-160l21 551l499 2v-205h-358v-164q78 19 119 19 q119 0 196 -86q78 -84 78 -220q0 -168 -78 -258q-77 -92 -223 -92q-270 0 -291 289z" />
<glyph unicode="&#xc2;" d="M53 522v92h1471v-92h-1471zM162 80v182q73 14 125 57q32 25 96 111h137v-799h-180v547q-78 -59 -178 -98zM483 1137v182q77 15 125 57q28 20 99 111h135v-799h-178v547q-80 -60 -181 -98zM788 14q0 207 64 308q72 118 246 118q210 0 274 -147q6 -8 27 -68h-187 q-15 43 -45 56q-15 6 -67 6q-129 0 -129 -187v-24q77 53 166 53q115 0 184 -63q78 -72 78 -195q0 -130 -92 -201q-79 -61 -199 -61q-166 0 -244 112q-76 104 -76 293zM979 -117q0 -56 33 -82q34 -30 82 -30q131 0 131 108q0 113 -123 113t-123 -109z" />
<glyph unicode="&#xc3;" d="M53 522v92h1471v-92h-1471zM158 96v172q87 16 135 58q35 28 102 120h125v-796h-178v540q-85 -73 -184 -94zM502 1331v164l590 -2v-100l-293 -697h-197l277 635h-377zM786 33q0 418 320 418q267 0 297 -226h-184q-28 66 -103 66q-143 0 -149 -207q83 59 159 59 q78 0 146 -39q85 -46 110 -112q17 -35 17 -96q0 -170 -144 -232q-73 -33 -157 -33q-158 0 -238 115q-74 103 -74 287zM983 -104q0 -48 41 -78q34 -27 76 -27q40 0 82 27q39 26 39 78q0 47 -33 73q-30 30 -74 33t-86 -25q-45 -31 -45 -81z" />
<glyph unicode="&#xc4;" d="M53 522v92h1471v-92h-1471zM160 100v162q89 24 133 62q29 21 100 125h127v-818h-180v555q-46 -43 -82 -59q-30 -15 -98 -27zM432 1251q0 124 96 193q77 57 199 57t186 -37q83 -47 117 -161q27 -95 27 -193q0 -207 -64 -305q-77 -115 -250 -115q-116 0 -196 47 q-100 57 -103 183h179q9 -76 100 -76q142 0 145 207q-82 -60 -161 -60q-106 0 -185 70q-90 78 -90 190zM625 1237q0 -44 37 -74q32 -26 71 -26q49 0 88 26q47 30 47 84q0 45 -32 74q-30 30 -72 33q-52 3 -92 -27q-47 -35 -47 -90zM782 29q0 426 320 426q113 0 192 -49 q97 -60 103 -179l-183 2q-25 66 -102 66q-141 0 -147 -207q83 59 159 59q72 0 150 -38q69 -38 106 -113q17 -42 17 -98q0 -131 -84 -203q-75 -66 -193 -66q-338 0 -338 400zM979 -106q0 -49 39 -78q34 -27 78 -27q38 0 80 27q36 26 36 78q0 46 -30 73q-31 28 -72 31 q-47 3 -86 -25q-45 -29 -45 -79z" />
<glyph unicode="&#xc6;" d="M0 481q235 184 303 318q30 58 68 168q71 -127 71 -197q0 -73 -67 -152h1202v-262h-1202q63 -60 63 -149q0 -88 -61 -207q-36 84 -70 158q-59 115 -131 184q-25 25 -176 139z" />
<glyph unicode="&#xc7;" d="M106 389v1045l144 55v-514q64 93 100 123q61 55 131 55q98 0 154 -90q47 -77 47 -195v-479h-143v428q0 71 -23 135q-28 78 -88 78q-50 0 -119 -84q-38 -47 -47 -74q-10 -22 -10 -86v-397h-146zM856 756q0 146 68 270q80 139 202 139q120 0 199 -149v418l145 55v-1045 l-143 -55v131q-95 -151 -207 -151q-126 0 -198 127q-66 109 -66 260zM1006 764q0 -92 28 -162q37 -88 111 -88q84 0 127 88q39 76 39 174q0 88 -33 156q-40 76 -117 76q-80 0 -121 -80q-34 -58 -34 -164z" />
<glyph unicode="&#xc8;" d="M0 481q235 184 303 318q30 58 68 168q71 -127 71 -197q0 -73 -67 -152h827q-63 54 -63 142t61 207q36 -84 70 -158q59 -115 131 -184q29 -29 176 -140q-236 -185 -303 -317q-30 -58 -68 -168q-71 127 -71 197q0 72 67 151h-827q63 -54 63 -141q0 -88 -61 -207 q-36 84 -70 158q-59 115 -131 184q-25 25 -176 139z" />
<glyph unicode="&#xc9;" d="M125 389v701l143 57v-152q82 92 103 111q66 57 129 57q83 0 131 -69q49 -70 49 -164v-541h-141v524q0 44 -27 93q-27 43 -68 43q-55 0 -108 -80q-68 -100 -68 -209v-371h-143zM860 389v1045l144 51v-711l268 373h180l-270 -363v-24l270 -371h-180l-268 371v-371h-144z " />
<glyph unicode="&#xca;" d="M365 98q91 70 170 70q75 0 129 -72v1534l229 -2v-1532q69 78 131 78q64 0 174 -82q-161 -69 -262 -186q-64 -73 -164 -238q-74 130 -160 252q-60 66 -247 178z" />
<glyph unicode="&#xcb;" d="M53 -369v1823h1452v-1823h-1452zM178 -225h1202v1536h-1202v-1536zM430 0v1085h305q180 0 260 -59q123 -88 123 -264q0 -232 -207 -291l187 -471h-207l-180 451h-84v-451h-197zM627 635h116q83 0 119 20q51 26 51 113q0 88 -55 115q-38 18 -123 18h-108v-266z" />
<glyph unicode="&#xcc;" d="M111 395l49 133h293l114 340h-331l51 133h307l158 523h145l-170 -523h268l164 523h139l-163 -523h288l-34 -133h-291l-103 -340h303l-41 -133h-299l-157 -512h-139l153 512h-266l-164 -512h-133l162 512h-303zM594 528h258l106 340h-262z" />
<glyph unicode="&#xcd;" horiz-adv-x="788" d="M35 1159v49h270l74 267h47l76 -267h268v-49l-197 -158l72 -274l-45 -47l-190 160l-205 -160l-43 47l71 274z" />
<glyph unicode="&#xce;" horiz-adv-x="813" d="M68 352l331 942h7l329 -942l-268 226v-615h-131v615z" />
<glyph unicode="&#xcf;" d="M197 582l583 915l594 -915l-586 -936z" />
<glyph unicode="&#xd0;" d="M53 -369v1823h1452v-1823h-1452zM178 -225h1202v1536h-1202v-1536zM397 217l154 111q118 -183 270 -183q55 0 101 37q47 38 47 97q0 91 -193 184q-146 70 -221 139q-113 107 -113 242q0 138 97 223q88 76 215 76q115 0 227 -68q108 -70 160 -184l-150 -115 q-110 168 -237 168q-109 0 -109 -98q0 -80 117 -139q198 -101 289 -183q106 -93 106 -252q0 -155 -106 -245q-101 -84 -238 -84q-268 0 -416 274z" />
<glyph unicode="&#xd1;" d="M53 -369v1823h1452v-1823h-1452zM178 -225h1202v1536h-1202v-1536zM377 922v204h805v-204h-303v-922h-197v922h-305z" />
<glyph unicode="&#xd2;" d="M0 0v143h1577v-143h-1577z" />
<glyph unicode="&#xd3;" horiz-adv-x="788" d="M0 0v143h788v-143h-788z" />
<glyph unicode="&#xd4;" d="M125 92l547 625l-547 624l125 144l547 -625l546 625l123 -148l-542 -620l546 -625l-127 -143l-546 624l-545 -624z" />
<glyph unicode="&#xd5;" d="M233 553v184h465v553h162v-553h467v-184h-467v-553h-162v553h-465z" />
<glyph unicode="&#xd6;" d="M53 -348v1802h1452v-1802h-1452zM178 -205h1221v1536h-1221v-1536zM532 563q0 117 74 197q73 82 176 82q106 0 183 -80q73 -79 73 -199h2q0 -123 -77 -203q-73 -79 -183 -79q-104 0 -176 81q-72 84 -72 201z" />
<glyph unicode="&#xd7;" d="M121 1018l96 176l465 -324l2 646h186l2 -642l467 320l95 -176l-476 -322l472 -313l-82 -172l-476 317l-2 -630h-186l-2 630l-473 -317l-84 172l473 319z" />
<glyph unicode="&#xd8;" d="M0 348v262h1202q-63 60 -63 150q0 88 61 207q36 -84 70 -158q59 -115 131 -184q29 -29 176 -140q-236 -185 -303 -317q-30 -58 -68 -168q-71 127 -71 197q0 72 67 151h-1202z" />
<glyph unicode="&#xd9;" d="M365 1196q80 48 137 82q95 62 160 149q35 50 118 199q158 -263 279 -346q53 -34 147 -78q-110 -82 -172 -82q-61 0 -133 78v-1532l-229 -2v1534q-54 -72 -129 -72q-77 0 -178 70z" />
<glyph unicode="&#xda;" d="M365 98q91 70 170 70q75 0 129 -72v1534l229 -2v-1532q69 78 131 78q64 0 174 -82q-161 -69 -262 -186q-64 -73 -164 -238q-74 130 -160 252q-60 66 -247 178z" />
<glyph unicode="&#xdb;" horiz-adv-x="2365" d="M90 358l201 93v-127q0 -68 39 -113q38 -47 94 -47q135 0 135 221v1069h199v-1051q0 -446 -318 -446q-189 0 -266 133q-57 98 -84 268zM1110 0v1430l180 79v-1509h-180zM1577 -104h59q38 -60 70 -60q50 0 94 84q60 105 60 174q0 22 -19 90l-264 881h170l199 -707l172 707 h170l-273 -987q-65 -230 -149 -336q-56 -68 -162 -68q-75 0 -127 25v197z" />
<glyph unicode="&#xdc;" horiz-adv-x="2365" d="M53 0v1454h269l215 -1065l176 1065h291v-1454h-162l2 1298l-234 -1298h-161l-232 1247l2 -1249zM1106 258q0 220 135 315q75 53 135 68q51 13 148 16v162q0 92 -97 92q-86 0 -243 -80l-58 134q90 60 146 86q78 34 162 34q110 0 180 -67q69 -66 69 -191v-591q0 -90 91 -93 v-161q-35 -5 -60 -5q-71 0 -104 33t-60 113h-22q-48 -78 -86 -109q-53 -41 -123 -41q-105 0 -162 84q-51 74 -51 201zM1268 301q0 -158 94 -158q57 0 111 54q51 54 51 118v220q-180 -24 -236 -129q-20 -45 -20 -105zM1741 1065h157l162 -655l131 655h144l-244 -1176 q-49 -241 -238 -241q-48 0 -96 28v199l27 2q23 -45 71 -45q60 0 95 84q12 28 37 145z" />
<glyph unicode="&#xdd;" horiz-adv-x="2365" d="M53 0l342 1454h217l349 -1454h-189l-59 287h-406l-59 -287h-195zM352 471h318l-160 743zM983 1044h180l2 -796q0 -111 58 -111q45 0 114 96q60 85 60 189v622h159l3 -995l-146 -86v234l-24 -33l-60 -82q-73 -105 -174 -105q-170 0 -170 277zM1696 563q0 238 65 371 q34 64 92 104q61 43 123 43q141 0 191 -170l18 -14v147h125v-991q0 -157 -90 -258q-91 -98 -233 -98q-85 0 -215 39l2 192l63 11q47 -74 125 -74q81 0 135 51q54 54 51 143l-4 191q-80 -148 -196 -148q-52 0 -103 39q-55 42 -82 90q-67 116 -67 332zM1858 604 q0 -135 16 -207q30 -125 119 -125q173 0 164 306l-3 47q-12 299 -139 299q-157 0 -157 -320z" />
<glyph unicode="&#xde;" horiz-adv-x="2365" d="M53 362l197 68v-59q0 -215 129 -215q73 0 110 75q31 64 31 150v1073h197v-1053q0 -452 -342 -452q-167 0 -238 133q-50 89 -84 280zM895 186v879h162l-2 -823q0 -121 69 -121q53 0 158 141q61 85 61 156v647h162v-1020l-162 -74v224q-145 -222 -274 -222q-79 0 -127 60 q-47 62 -47 153zM1702 2v1018l162 74v-226q135 217 276 217q170 0 170 -260l2 -825h-158v809q0 45 -26 82q-27 35 -70 35q-49 0 -123 -103q-73 -104 -73 -161v-660h-160z" />
<glyph unicode="&#xdf;" horiz-adv-x="2365" d="M53 0l340 1454h215l353 -1454h-193l-66 307h-393l-69 -307h-187zM348 492h318l-162 702zM1059 -344v1366l145 80v-240h13q28 91 86 152q68 71 141 71q144 0 221 -200q59 -154 59 -340t-59 -340q-79 -205 -219 -205q-109 0 -229 199v-543h-158zM1221 565q0 -108 4 -166 q11 -78 59 -153q57 -84 121 -84q83 0 123 125q28 83 28 205q0 428 -155 428q-99 0 -146 -129q-34 -90 -34 -226zM1849 0v1024l162 66v-351h14q95 271 273 355v-316q-14 2 -55 2q-59 0 -127 -59q-105 -89 -105 -229v-492h-162z" />
<glyph unicode="&#xe0;" horiz-adv-x="2365" d="M35 0v1475h274l213 -1084l191 1084h272v-1475h-160v1270l-225 -1270h-149l-254 1270v-1270h-162zM1094 258q0 87 43 172t110 137q63 51 137 70q51 14 158 20v164q0 40 -33 70q-36 31 -69 31q-98 0 -226 -88l-16 -13l-70 142q212 120 328 120q106 0 178 -69 q68 -74 68 -193v-585q0 -95 59 -95q23 0 31 2v-163q-18 -3 -49 -3q-120 0 -176 146h-25q-125 -146 -231 -146q-96 0 -158 89q-59 79 -59 192zM1272 295q0 -61 24 -107q24 -53 76 -53q63 0 117 45q51 45 51 117l2 238q-120 -20 -182 -62q-88 -63 -88 -178zM1880 0v1024 l143 63v-393h19q80 269 196 357q26 21 93 36v-307h-29q-96 0 -172 -61q-88 -70 -88 -170v-549h-162z" />
<glyph unicode="&#xe1;" horiz-adv-x="2365" d="M90 0v1475h645v-205h-448v-430h377v-185h-377v-655h-197zM752 532q0 199 67 330q108 217 291 217q178 0 272 -178q48 -86 60 -174q12 -67 12 -190v-45h-522v-66q0 -120 47 -197q52 -88 156 -88q85 0 163 84l101 -112q-110 -131 -287 -131q-189 0 -281 176 q-79 146 -79 374zM930 635h362q-6 117 -45 190q-51 97 -141 97q-84 0 -133 -101q-37 -75 -43 -186zM1614 39v1376l178 78v-584q92 160 227 160q155 0 226 -188q55 -137 55 -340q0 -200 -59 -357q-79 -211 -230 -211q-113 0 -231 201v-197zM1780 522q0 -210 90 -317 q53 -62 104 -62q87 0 131 152q31 112 31 231q0 133 -27 232q-40 149 -133 149q-102 0 -155 -141q-41 -112 -41 -244z" />
<glyph unicode="&#xe2;" horiz-adv-x="2365" d="M49 336l197 92q-2 -20 -2 -72q0 -87 30 -145q37 -70 109 -70q65 0 100 66q29 56 29 133v1114h199v-1130q0 -174 -86 -283q-83 -109 -234 -109q-166 0 -248 113q-67 94 -94 291zM831 231q0 212 144 314q81 57 166 76q53 11 178 14v147q0 105 -115 105q-84 0 -235 -92 l-19 -13l-80 150q202 129 334 129q126 0 201 -84q76 -85 76 -232v-538q0 -71 30 -80q16 -4 41 -4v-164q-10 -2 -45 -2q-75 0 -116 41q-30 30 -62 125h-10q-72 -88 -111 -119q-66 -51 -141 -51q-111 0 -172 76q-64 76 -64 202zM997 260q0 -59 35 -106q33 -45 86 -45 q92 0 150 79q51 76 51 185v141q-103 -11 -160 -31q-65 -22 -112 -82q-50 -62 -50 -141zM1696 -20v1005l159 90v-225l27 33q126 164 246 164q176 0 176 -238v-829h-160v843q0 78 -73 78q-115 0 -179 -162q-34 -80 -34 -157v-602h-162z" />
<glyph unicode="&#xe3;" horiz-adv-x="2365" d="M53 -20v1474h312q298 0 415 -266q82 -192 82 -451q0 -655 -391 -735q-113 -22 -311 -22h-107zM233 186l29 -2q18 -2 74 -2q217 0 287 180q43 113 43 402h2q0 349 -129 448q-64 52 -242 52h-64v-1078zM952 477q0 231 76 393q95 201 283 201q72 0 137 -41q68 -40 102 -108 q44 -83 56 -187q8 -78 8 -198l-2 -23v-22h-502q0 -138 31 -236q47 -135 149 -135q84 0 185 88l84 -98q-74 -74 -127 -103q-65 -35 -152 -35q-173 0 -258 162q-70 131 -70 342zM1128 635h324v51q0 238 -147 238q-165 0 -177 -289zM1718 500q0 185 23 293q26 123 102 202 q76 76 187 76q102 0 176 -65q75 -66 102 -179l-131 -84q-44 160 -143 160q-154 0 -154 -358q0 -163 18 -246q34 -156 134 -156q107 0 145 183l145 -70q-28 -93 -57 -143q-80 -142 -233 -142q-123 0 -205 97q-78 90 -96 233q-13 111 -13 199z" />
<glyph unicode="&#xe4;" horiz-adv-x="2365" d="M72 0v1475h233l375 -1108v1108h164v-1475h-219l-392 1126v-1126h-161zM991 551q0 172 25 270q31 125 112 191q80 71 189 71q192 0 272 -213q43 -116 43 -317q0 -287 -61 -406q-88 -165 -256 -165q-100 0 -180 65q-83 70 -109 178q-35 115 -35 326zM1149 545 q0 -171 18 -244q35 -141 144 -141q143 0 155 223q2 43 2 125l2 49q0 100 -8 174q-24 191 -149 191q-106 0 -144 -140q-20 -79 -20 -237zM1702 1065h164l151 -862l144 862h157l-213 -1065h-180z" />
<glyph unicode="&#xe5;" horiz-adv-x="2365" d="M72 713q0 301 86 508q114 270 350 270q233 0 338 -270q76 -200 76 -504q0 -299 -78 -496q-105 -262 -338 -262q-241 0 -352 254q-82 189 -82 500zM270 711q0 -194 37 -336q59 -219 187 -219q233 0 233 571q0 565 -225 565q-122 0 -183 -211q-49 -162 -49 -370zM1059 526 q0 383 203 506q68 41 139 41q137 0 213 -108q38 -49 78 -129l-142 -101q-50 164 -151 164q-180 0 -180 -381q0 -134 34 -235q53 -142 150 -142q104 0 160 195l147 -80q-30 -125 -113 -205t-196 -80q-81 0 -158 47q-74 48 -113 127q-71 154 -71 381zM1778 819v144h143v221 l162 166v-387h162v-144h-162v-561q0 -65 12 -86q16 -29 66 -29q61 0 137 58v-156q-112 -74 -180 -74q-90 0 -142 64q-55 64 -55 166v618h-143z" />
<glyph unicode="&#xe6;" horiz-adv-x="2365" d="M18 240l162 116q48 -72 99 -143q67 -76 139 -76q172 0 172 219q0 107 -55 168q-37 40 -140 99q-259 144 -317 307q-29 79 -29 164q0 172 98 276q94 107 248 107q153 0 256 -121q56 -70 105 -154l-146 -110q-71 91 -100 120q-63 60 -129 60q-63 0 -109 -43 q-45 -42 -45 -113q0 -114 123 -205l262 -200q160 -121 160 -363q0 -187 -92 -299q-91 -110 -256 -110q-190 0 -313 163q-30 38 -93 138zM889 494q0 366 184 510q77 59 162 59q73 0 147 -47q73 -51 109 -125q53 -109 53 -275q0 -50 -2 -124h-485v-80q0 -291 157 -291 q102 0 187 88l98 -115q-84 -72 -129 -98q-70 -37 -149 -37q-182 0 -267 174q-65 139 -65 361zM1069 633l309 2q0 3 1 19.5t1 29.5q0 87 -41 152q-44 65 -114 65q-150 0 -156 -268zM1702 -348v1372l125 57v-262h14q102 250 223 250q132 0 209 -207q35 -84 41 -135 q17 -90 17 -203q0 -194 -50 -336q-67 -196 -210 -196q-128 0 -207 168v-508h-162zM1847 524q0 -119 37 -223q53 -139 141 -139q93 0 123 125q17 73 17 211q0 403 -135 403q-95 0 -144 -143q-39 -104 -39 -234z" />
<glyph unicode="&#xe7;" d="M35 547q0 358 221 608q217 248 535 248q313 0 528 -250q215 -253 215 -610t-217 -602q-214 -248 -529 -248q-316 0 -534 246q-219 251 -219 608zM158 551q0 -300 178 -508q181 -211 442 -211q262 0 447 209q182 209 182 510q0 299 -180 506q-183 207 -445 207 q-259 0 -442 -207q-182 -206 -182 -506zM479 0v1085h611v-184h-412v-266h340v-184l-340 2v-453h-199z" />
<glyph unicode="&#xe8;" d="M35 553q0 356 221 600q218 244 532 244q320 0 541 -250t221 -615q0 -366 -227 -608q-228 -243 -547 -243q-314 0 -526 256q-215 256 -215 616zM164 557q0 -305 178 -516q178 -214 442 -217q267 -3 453 207q184 211 184 516q0 302 -186 506q-183 204 -451 204 q-258 0 -440 -200q-180 -201 -180 -500zM436 528q0 584 377 584q134 0 219 -82q91 -85 109 -227l-193 -35q-15 77 -41 109q-32 38 -96 38q-137 0 -164 -200q-10 -75 -10 -158q0 -159 22 -242q37 -137 148 -137q65 0 106 47q42 48 45 125l205 -43q-50 -165 -123 -241 q-83 -89 -223 -89q-194 0 -293 173q-88 146 -88 378z" />
<glyph unicode="&#xe9;" d="M29 549q0 356 221 600q217 246 532 246q316 0 533 -246q217 -248 217 -606q0 -360 -221 -604q-225 -246 -539 -246t-528 248q-215 250 -215 608zM156 549q0 -302 180 -506q180 -207 438 -207q261 0 447 207q182 206 182 506t-180 498q-181 202 -443 202q-260 0 -442 -200 q-182 -203 -182 -500zM465 0v1085h326q135 0 188 -18q77 -27 125 -115q45 -88 45 -184q0 -191 -137 -270q-2 -2 -66 -33l184 -465h-204l-185 451h-79v-451h-197zM662 635h114q164 0 164 125q0 144 -156 141l-122 -2v-264z" />
<glyph unicode="&#xea;" d="M33 545q0 360 217 608q220 248 534 248q316 0 531 -250t215 -608q0 -357 -215 -604q-215 -246 -531 -246q-314 0 -532 246q-219 247 -219 606zM152 549q0 -298 180 -508q178 -211 440 -211t447 209q182 209 182 510q0 304 -180 508q-180 207 -441 207q-263 0 -446 -207 q-182 -206 -182 -508zM424 860v184h700v-184h-233v-880h-215v880h-252z" />
<glyph unicode="&#xeb;" d="M53 -369v1823h1452v-1823h-1452zM178 -225h1202v1536h-1202v-1536zM412 20v1127h303q205 0 323 -86q201 -151 201 -488q0 -245 -104 -391q-113 -162 -322 -162h-401zM608 207h168q135 0 205 110q57 92 57 258h2q0 386 -264 386h-168v-754z" />
<glyph unicode="&#xec;" d="M74 -369v1823h1452v-1823h-1452zM201 -229h1200v1536h-1200v-1536zM393 -20v1126h324q149 0 192 -6q182 -24 265 -166q65 -107 65 -377h2q0 -263 -63 -383q-105 -194 -365 -194h-420zM680 225h49q187 0 217 142q8 36 8 143v18l-2 140q0 213 -241 213h-31v-656z" />
<glyph unicode="&#xed;" horiz-adv-x="2365" d="M0 -348v1823h2365v-1823h-2365zM125 -205h2116v1536h-2116v-1536zM322 0v1147h253q335 0 449 -248q63 -141 63 -307q0 -264 -108 -420q-120 -172 -344 -172h-313zM502 207h90q92 0 147 22q70 28 109 115q45 105 45 221q0 89 -27 189q-34 111 -94 147q-59 39 -156 39h-114 v-733zM1237 0v1147h197v-471h430v471h178v-1147h-178v492h-430v-492h-197z" />
<glyph unicode="&#xee;" horiz-adv-x="2365" d="M0 -348v1823h2365v-1823h-2365zM125 -205h2116v1536h-2116v-1536zM287 0v1126h401q91 0 170 -43q88 -46 129 -133q55 -113 55 -364q0 -304 -71 -420q-99 -166 -301 -166h-383zM555 248h90q91 0 121 110q18 61 18 195q0 166 -37 247.5t-112 80.5l-80 -2v-631zM1182 0v1126 h270v-409h358v409h269v-1126h-269v451h-358v-451h-270z" />
<glyph unicode="&#xef;" d="M68 698q0 350 208 592q206 244 510 244q306 0 523 -231q217 -237 217 -580q0 -352 -209 -602t-518 -250q-303 0 -518 240q-213 242 -213 587zM236 696q0 -120 26 -202q26 -83 88 -181l344 392l-348 382q-63 -124 -82 -186q-28 -85 -28 -205zM465 193q94 -79 151 -105 q72 -29 172 -29q112 0 183 29q54 20 159 105l-327 387zM465 1221l336 -394l338 387q-98 79 -156 103q-73 31 -174 31q-104 0 -180 -33q-54 -21 -164 -94zM920 709l331 -383q63 105 86 172q25 83 25 196q0 118 -27 207q-18 60 -84 186z" />
<glyph unicode="&#xf0;" d="M143 1104l164 192l946 -1089q14 108 64 174q47 63 139 102l-20 -127q-27 -156 -27 -227q0 -44 12 -149l21 -164q-167 37 -266 37q-140 0 -297 -80q21 119 73 180q53 65 154 86z" />
<glyph unicode="&#xf1;" horiz-adv-x="788" d="M90 582q0 211 184 325v547h252v-547q187 -114 187 -325q0 -153 -90 -256q-88 -107 -222 -107q-133 0 -221 105q-90 103 -90 258z" />
<glyph unicode="&#xf2;" d="M252 721q0 244 156 414q155 168 372 168q223 0 377 -168q156 -172 156 -422q0 -261 -158 -441q-155 -180 -385 -180q-221 0 -375 189q-146 183 -143 440z" />
<glyph unicode="&#xf3;" d="M125 389v701l143 67v-162q71 82 103 111q66 57 129 57q83 0 131 -69q51 -73 51 -164v-541h-143v524q0 42 -27 88q-27 41 -68 41q-55 0 -108 -77q-68 -95 -68 -199v-377h-143zM860 762q0 173 76 289q83 129 229 129q145 0 230 -125q75 -112 75 -283q0 -185 -71 -289 q-77 -121 -232 -121q-153 0 -233 117q-74 106 -74 283zM1004 793q0 -129 24 -191q38 -90 137 -90q164 0 164 260q0 268 -160 268q-165 0 -165 -247z" />
<glyph unicode="&#xf4;" horiz-adv-x="788" d="M35 512v102h719v-102h-719zM96 -369q15 116 86 205q53 66 158 146l96 73q84 66 84 133q0 55 -37 82q-36 31 -84 31q-123 0 -135 -137h-160q3 88 52 158q86 127 237 127q118 0 197 -64q92 -71 92 -199q0 -146 -100 -223l-232 -178h332v-154h-586zM154 1157v158 q89 41 125 69q42 31 100 111h98v-799h-149v555q-86 -61 -174 -94z" />
<glyph unicode="&#xf5;" horiz-adv-x="788" d="M35 512v102h719v-102h-719zM72 2l331 449h189v-492h125v-143h-125v-185h-143v185h-377v186zM143 1157v158q89 41 125 69q46 34 99 111h100v-799h-143v555q-74 -48 -181 -94zM201 -41h248v332z" />
<glyph unicode="&#xf6;" horiz-adv-x="788" d="M35 512v102h719v-102h-719zM72 2l331 449h189v-492h125v-143h-125v-185h-143v185h-377v186zM106 926v16h162v-18q0 -41 45 -66q36 -20 76 -20q131 0 131 112q0 94 -90 94h-72v144h74q88 0 88 80q0 51 -45 82q-37 24 -86 24q-100 0 -121 -104h-162q9 118 99 184 q77 59 188 59q110 0 187 -51q102 -62 102 -174q0 -80 -107 -164q107 -78 107 -192q0 -124 -94 -187q-79 -51 -193 -51q-116 0 -190 51q-99 61 -99 181zM201 -41h248v332z" />
<glyph unicode="&#xf7;" horiz-adv-x="1093" d="M-53 723q0 211 47.5 403t127.5 331.5t191.5 221.5t233.5 82t233.5 -82t191.5 -221.5t127.5 -331.5t47.5 -403t-47.5 -403t-127.5 -331.5t-191.5 -221.5t-233.5 -82t-233.5 82t-191.5 221.5t-127.5 331.5t-47.5 403zM219 0h664v248h-414v1206h-250v-1454z" />
<glyph unicode="&#x2000;" horiz-adv-x="880" />
<glyph unicode="&#x2001;" horiz-adv-x="1761" />
<glyph unicode="&#x2002;" horiz-adv-x="880" />
<glyph unicode="&#x2003;" horiz-adv-x="1761" />
<glyph unicode="&#x2004;" horiz-adv-x="587" />
<glyph unicode="&#x2005;" horiz-adv-x="440" />
<glyph unicode="&#x2006;" horiz-adv-x="293" />
<glyph unicode="&#x2007;" horiz-adv-x="293" />
<glyph unicode="&#x2008;" horiz-adv-x="220" />
<glyph unicode="&#x2009;" horiz-adv-x="352" />
<glyph unicode="&#x200a;" horiz-adv-x="97" />
<glyph unicode="&#x2010;" horiz-adv-x="897" d="M53 410v204h807v-204h-807z" />
<glyph unicode="&#x2011;" horiz-adv-x="897" d="M53 410v204h807v-204h-807z" />
<glyph unicode="&#x2012;" horiz-adv-x="897" d="M53 410v204h807v-204h-807z" />
<glyph unicode="&#x2013;" horiz-adv-x="1114" d="M53 410v204h1024v-204h-1024z" />
<glyph unicode="&#x2014;" horiz-adv-x="2138" d="M53 410v204h2048v-204h-2048z" />
<glyph unicode="&#x202f;" horiz-adv-x="352" />
<glyph unicode="&#x205f;" horiz-adv-x="440" />
<glyph unicode="&#x25fc;" horiz-adv-x="1064" d="M0 0v1065h1065v-1065h-1065z" />
</font>
</defs>
</svg>
